<?xml version="1.0" encoding="utf-8"?>
<!DOCTYPE svg PUBLIC "-//W3C//DTD SVG 1.1//EN" "http://www.w3.org/Graphics/SVG/1.1/DTD/svg11.dtd">

<!-- License: PD. Made by Templarian: https://github.com/Templarian/WindowsIcons -->
<svg width="800px" height="800px" viewBox="0 0 24 24" xmlns="http://www.w3.org/2000/svg" xmlns:xlink="http://www.w3.org/1999/xlink" version="1.1" baseProfile="full" enable-background="new 0 0 76.00 76.00" xml:space="preserve" data-mgts-normalized="1"><g transform="translate(2 3.42857) scale(0.571429) translate(-21 -24)">
	<path fill="#ffffff" fill-opacity="1" stroke-width="0.2" stroke-linejoin="round" d="M 26,24L 29,24L 29,33L 26,33L 26,24 Z M 31,25L 34,25L 34,39L 31,39L 29,41L 29,51L 26,51L 26,41L 24,39L 21,39L 21,25L 24,25L 24,35L 31,35L 31,25 Z M 30,48L 30,44L 51,44L 51,30L 35,30L 35,26L 56,26L 56,48L 42,48L 42,51L 46,51L 47,54L 33,54L 34,51L 38,51L 38,48L 30,48 Z "/>
</g></svg>