<?xml version="1.0" encoding="utf-8"?>
<!-- License: Apache. Made by Iconscout: https://github.com/Iconscout/unicons -->
<svg fill="#ffffff" width="800px" height="800px" viewBox="0 0 24 24" xmlns="http://www.w3.org/2000/svg" data-mgts-normalized="1"><g transform="translate(4.03311 2) scale(0.999809) translate(-4.01477 -1.99941)"><path d="M19.87,8.6A1,1,0,0,0,19,8H14.42l1.27-4.74a1,1,0,0,0-.17-.87A1,1,0,0,0,14.73,2h-7a1,1,0,0,0-1,.74l-2.68,10a1,1,0,0,0,.17.87,1,1,0,0,0,.8.39H8.89L7.08,20.74a1,1,0,0,0,1.71.93l10.9-12A1,1,0,0,0,19.87,8.6Zm-9.79,8.68,1.07-4a1,1,0,0,0-.17-.87,1,1,0,0,0-.79-.39H6.35L8.49,4h4.93L12.15,8.74a1,1,0,0,0,1,1.26h3.57Z"/></svg>