<?xml version="1.0" encoding="utf-8"?>
<!-- License: PD. Made by Mary Akveo: https://maryakveo.com/ -->
<svg fill="#ffffff" width="800px" height="800px" viewBox="0 0 24 24" id="camera" data-name="Flat Line" xmlns="http://www.w3.org/2000/svg" class="icon flat-line" data-mgts-normalized="1"><g transform="translate(2 4.22221) scale(1.11111) translate(-3 -4.99998)"><path id="secondary" d="M20,7H11l-.72-1.45A1,1,0,0,0,9.38,5H4A1,1,0,0,0,3,6V18a1,1,0,0,0,1,1H20a1,1,0,0,0,1-1V8A1,1,0,0,0,20,7Zm-8,8a2,2,0,1,1,2-2A2,2,0,0,1,12,15Z" style="fill: #ffffff; stroke-width: 2;"></path><path id="primary" d="M18,7H14l.5-2h3Zm-6,4a2,2,0,1,0,2,2A2,2,0,0,0,12,11ZM11,7l-.72-1.45A1,1,0,0,0,9.38,5H4A1,1,0,0,0,3,6V18a1,1,0,0,0,1,1H20a1,1,0,0,0,1-1V8a1,1,0,0,0-1-1Z" style="fill: none; stroke: #ffffff; stroke-linecap: round; stroke-linejoin: round; stroke-width: 2;"></path></g></svg>