<?xml version="1.0" encoding="utf-8"?>
<!-- License: PD. Made by Mary Akveo: https://maryakveo.com/ -->
<svg fill="#ffffff" width="800px" height="800px" viewBox="0 0 24 24" id="link" data-name="Flat Line" xmlns="http://www.w3.org/2000/svg" class="icon flat-line" data-mgts-normalized="1"><g transform="translate(0 0) scale(1) translate(-0 -0)"><path id="secondary" d="M4.5,19.5h0a3,3,0,0,1,0-4.24L6.76,13A3,3,0,0,1,11,13h0a3,3,0,0,1,0,4.24L8.74,19.5A3,3,0,0,1,4.5,19.5ZM17.24,11,20,8.24A3,3,0,0,0,20,4h0a3,3,0,0,0-4.24,0L13,6.76A3,3,0,0,0,13,11h0A3,3,0,0,0,17.24,11Z" style="fill: #ffffff; stroke-width: 2;"></path><path id="primary" d="M4.5,19.5h0a3,3,0,0,1,0-4.24L6.76,13A3,3,0,0,1,11,13h0a3,3,0,0,1,0,4.24L8.74,19.5A3,3,0,0,1,4.5,19.5ZM17.24,11,20,8.24A3,3,0,0,0,20,4h0a3,3,0,0,0-4.24,0L13,6.76A3,3,0,0,0,13,11h0A3,3,0,0,0,17.24,11ZM10,14l4-4" style="fill: none; stroke: #ffffff; stroke-linecap: round; stroke-linejoin: round; stroke-width: 2;"></path></g></svg>