<?xml version="1.0" encoding="utf-8"?>
<!-- License: PD. Made by Mary Akveo: https://maryakveo.com/ -->
<svg fill="#000000" width="800px" height="800px" viewBox="0 0 24 24" id="lock" data-name="Flat Line" xmlns="http://www.w3.org/2000/svg" class="icon flat-line" data-mgts-normalized="1"><g transform="translate(4.22222 2) scale(1.11111) translate(-5 -3)"><path id="secondary" d="M18,9H6a1,1,0,0,0-1,1V20a1,1,0,0,0,1,1H18a1,1,0,0,0,1-1V10A1,1,0,0,0,18,9Zm-6,7a1.5,1.5,0,1,1,1.5-1.5A1.5,1.5,0,0,1,12,16Z" style="fill: rgb(44, 169, 188); stroke-width: 2;"></path><path id="primary" d="M13.5,14.5A1.5,1.5,0,1,1,12,13,1.5,1.5,0,0,1,13.5,14.5ZM12,17V16m7,4V10a1,1,0,0,0-1-1H6a1,1,0,0,0-1,1V20a1,1,0,0,0,1,1H18A1,1,0,0,0,19,20Z" style="fill: none; stroke: rgb(0, 0, 0); stroke-linecap: round; stroke-linejoin: round; stroke-width: 2;"></path><path id="primary-2" data-name="primary" d="M16,9V7a4,4,0,0,0-4-4h0A4,4,0,0,0,8,7V9" style="fill: none; stroke: rgb(0, 0, 0); stroke-linecap: round; stroke-linejoin: round; stroke-width: 2;"></path></g></svg>