<?xml version="1.0" encoding="utf-8"?>
<!-- License: Apache. Made by Iconscout: https://github.com/Iconscout/unicons -->
<svg fill="#000000" width="800px" height="800px" viewBox="0 0 24 24" xmlns="http://www.w3.org/2000/svg" data-mgts-normalized="1"><g transform="translate(0 0) scale(1) translate(-0 -0)"><path d="M9.71,6.29a1,1,0,0,0-1.42,0l-5,5a1,1,0,0,0,0,1.42l5,5a1,1,0,0,0,1.42,0,1,1,0,0,0,0-1.42L5.41,12l4.3-4.29A1,1,0,0,0,9.71,6.29Zm11,5-5-5a1,1,0,0,0-1.42,1.42L18.59,12l-4.3,4.29a1,1,0,0,0,0,1.42,1,1,0,0,0,1.42,0l5-5A1,1,0,0,0,20.71,11.29Z"/></g></svg>