<?xml version="1.0" encoding="utf-8"?>
<!-- License: PD. Made by Mary Akveo: https://maryakveo.com/ -->
<svg fill="#000000" width="800px" height="800px" viewBox="0 0 24 24" id="headset" data-name="Flat Line" xmlns="http://www.w3.org/2000/svg" class="icon flat-line" data-mgts-normalized="1"><g transform="translate(2.68559 2) scale(1.11111) translate(-3.61703 -3)"><path id="secondary" d="M17,21H16a1,1,0,0,1-1-1V13a1,1,0,0,1,1-1h1a3,3,0,0,1,3,3v3A3,3,0,0,1,17,21ZM7,21H8a1,1,0,0,0,1-1V13a1,1,0,0,0-1-1H7a3,3,0,0,0-3,3v3A3,3,0,0,0,7,21Z" style="fill: rgb(44, 169, 188); stroke-width: 2;"></path><path id="primary" d="M4,17l-.36-5A8.38,8.38,0,0,1,12,3h0a8.38,8.38,0,0,1,8.36,9L20,17" style="fill: none; stroke: rgb(0, 0, 0); stroke-linecap: round; stroke-linejoin: round; stroke-width: 2;"></path><path id="primary-2" data-name="primary" d="M17,21H16a1,1,0,0,1-1-1V13a1,1,0,0,1,1-1h1a3,3,0,0,1,3,3v3A3,3,0,0,1,17,21ZM7,21H8a1,1,0,0,0,1-1V13a1,1,0,0,0-1-1H7a3,3,0,0,0-3,3v3A3,3,0,0,0,7,21Z" style="fill: none; stroke: rgb(0, 0, 0); stroke-linecap: round; stroke-linejoin: round; stroke-width: 2;"></path></g></svg>