<?xml version="1.0" encoding="utf-8"?>
<!-- License: PD. Made by Mary Akveo: https://maryakveo.com/ -->
<svg fill="#000000" width="800px" height="800px" viewBox="0 0 24 24" id="lock" data-name="Flat Color" xmlns="http://www.w3.org/2000/svg" class="icon flat-color"><path id="primary" d="M18,8H17V7A5,5,0,0,0,7,7V8H6a2,2,0,0,0-2,2V20a2,2,0,0,0,2,2H18a2,2,0,0,0,2-2V10A2,2,0,0,0,18,8ZM9,7a3,3,0,0,1,6,0V8H9Z" style="fill: rgb(0, 0, 0);"></path><path id="secondary" d="M12,12a2.5,2.5,0,0,0-1,4.79V18a1,1,0,0,0,2,0V16.79A2.5,2.5,0,0,0,12,12Z" style="fill: rgb(44, 169, 188);"></path></svg>