<?xml version="1.0" encoding="utf-8"?>
<!-- License: PD. Made by Mary Akveo: https://maryakveo.com/ -->
<svg fill="#000000" width="800px" height="800px" viewBox="0 0 24 24" id="coin" data-name="Flat Color" xmlns="http://www.w3.org/2000/svg" class="icon flat-color"><circle id="primary" cx="12" cy="12" r="10" style="fill: rgb(0, 0, 0);"></circle><path id="secondary" d="M13.29,14.42A1.84,1.84,0,0,1,12,15a2.4,2.4,0,0,1-2.06-2H10a1,1,0,0,0,0-2H9.94A2.4,2.4,0,0,1,12,9a1.92,1.92,0,0,1,1.38.67,1,1,0,1,0,1.48-1.34A3.84,3.84,0,0,0,12,7a4.47,4.47,0,0,0-4.12,4,1,1,0,0,0,0,2A4.47,4.47,0,0,0,12,17a3.85,3.85,0,0,0,2.71-1.17,1,1,0,1,0-1.42-1.41Z" style="fill: rgb(44, 169, 188);"></path></svg>