<?xml version="1.0" encoding="utf-8"?>
<!-- License: PD. Made by Mary Akveo: https://maryakveo.com/ -->
<svg fill="#000000" width="800px" height="800px" viewBox="0 0 24 24" id="camera" data-name="Flat Color" xmlns="http://www.w3.org/2000/svg" class="icon flat-color"><path id="secondary" d="M19,6.76l-.5-2a1,1,0,0,0-1-.76h-3a1,1,0,0,0-1,.76l-.5,2a1,1,0,0,0,.18.86A1,1,0,0,0,14,8h4a1,1,0,0,0,.79-.38A1,1,0,0,0,19,6.76Z" style="fill: rgb(44, 169, 188);"></path><path id="primary" d="M20,6H11.62l-.45-.89A2,2,0,0,0,9.38,4H4A2,2,0,0,0,2,6V18a2,2,0,0,0,2,2H20a2,2,0,0,0,2-2V8A2,2,0,0,0,20,6Z" style="fill: rgb(0, 0, 0);"></path><circle id="secondary-2" data-name="secondary" cx="12" cy="13" r="3" style="fill: rgb(44, 169, 188);"></circle></svg>