<?xml version="1.0" encoding="utf-8"?>
<!-- License: PD. Made by Mary Akveo: https://maryakveo.com/ -->
<svg fill="#000000" width="800px" height="800px" viewBox="0 0 24 24" id="link" data-name="Line Color" xmlns="http://www.w3.org/2000/svg" class="icon line-color"><path id="primary" d="M4.5,19.5h0a3,3,0,0,1,0-4.24L6.76,13A3,3,0,0,1,11,13h0a3,3,0,0,1,0,4.24L8.74,19.5A3,3,0,0,1,4.5,19.5ZM17.24,11,20,8.24A3,3,0,0,0,20,4h0a3,3,0,0,0-4.24,0L13,6.76A3,3,0,0,0,13,11h0A3,3,0,0,0,17.24,11Z" style="fill: none; stroke: rgb(0, 0, 0); stroke-linecap: round; stroke-linejoin: round; stroke-width: 2;"></path><line id="secondary" x1="10" y1="14" x2="14" y2="10" style="fill: none; stroke: rgb(44, 169, 188); stroke-linecap: round; stroke-linejoin: round; stroke-width: 2;"></line></svg>