<svg id="logo_new" xmlns="http://www.w3.org/2000/svg" viewBox="0 0 488.93 488.93">
  <defs>
    <style>
      .cls-1 { fill: #008ae0; }
      .cls-2 { fill: #fff; }
    </style>
  </defs>
  <rect class="cls-1" width="488.93" height="488.93"/>
  <path class="cls-2" d="M55.09,373.77V451.7H37.68V357.86H67.33L96,434.7l29-76.84h28.7V451.7h-18.9V373.37L105.14,451.7H84.6Z" transform="translate(0 0)"/>
  <path class="cls-2" d="M243.58,357.86v15.51H188.5V451.7h-19V357.86Z" transform="translate(0 0)"/>
  <path class="cls-2" d="M253.51,373.37V357.86h95.75v15.51H310.9V451.7h-19V373.37Z" transform="translate(0 0)"/>
  <path class="cls-2" d="M404.88,356.23c29.92,0,46.78,9,49.5,32.1H435.21c-2.45-13.47-12.38-17.28-30.33-17.28-20,0-32.91,6.67-32.91,28.84v9.52c0,21.76,12.65,29.1,32.91,29.1,17.27,0,27.34-3.26,30.46-16.18h19.18c-3.4,22.16-20,31-49.64,31-33.19,0-52.09-12.64-52.09-48.41S371.69,356.23,404.88,356.23Z" transform="translate(0 0)"/>
</svg>
