<svg xmlns="http://www.w3.org/2000/svg" version="1.0" viewBox="0 0 2560 1706"><path d="M1190.7 476c-5.8 6.9-5.6 20.7.3 27.4 3.9 4.3 4.7 2.7 1.4-2.9-3.8-6.5-3.8-14.2-.1-21.3 3-5.8 2.1-7.7-1.6-3.2m38.3-1.9c0 .6 1 2.5 2.3 4.2 1.8 2.7 2.2 4.5 2.2 11.4s-.3 8.6-2.2 11.2c-2.6 3.4-2.9 5.1-1 5.1 1.7 0 5.5-6.2 6.9-11.4 1.5-5.6-.1-13.5-3.8-18.3-2.5-3.3-4.4-4.3-4.4-2.2m248.2.1c-.8.8-1.2 5.9-1.2 17.3 0 10.5-.4 16.5-1.1 17.2s-1 4-.7 8.6c.3 6.6.7 8 3.4 11.4 1.7 2.1 4.6 4.8 6.5 6.1 3.3 2.2 3.4 2.6 3.9 10 .4 6 .8 7.7 2 7.7s1.6-1.7 1.8-7.8l.3-7.8 2.7.3c2.6.3 2.7.5 3.2 7.8.4 5.8.8 7.5 2 7.5s1.6-1.7 1.8-8.1c.3-8 .4-8.2 3.1-9.4 6.5-2.7 10.1-9.6 10.1-19.4 0-3.7-.5-6.6-1.1-6.8-.7-.2-1.1-6.5-1.2-17.8l-.2-17.5-17-.3c-12.4-.2-17.4.1-18.3 1m32.3 4c.2.7.6 7.9.7 16.1l.3 14.7h-15.1c-8.3 0-15.3-.2-15.5-.4s-.3-7.4-.1-16l.3-15.6h14.5c10.7 0 14.6.3 14.9 1.2m2.5 36.9c0 8.4-6 17.2-12.6 18.5-11.6 2.2-21.4-5-21.4-15.7V513h17c16.5 0 17 .1 17 2.1"/><path d="M1493.8 490.8c-6.9.2-8.8.6-8.8 1.7 0 1.2 1.9 1.5 10.1 1.5 8.8 0 10-.2 9.7-1.7-.4-2-.1-1.9-11-1.5m-1.3 12.2c-.8 1.3.3 3 2 3 1.4 0 2.7-2.4 1.8-3.4-1-.9-3.1-.7-3.8.4m.5 17.5c0 .8.7 1.5 1.5 1.5s1.5-.7 1.5-1.5-.7-1.5-1.5-1.5-1.5.7-1.5 1.5m145.5-32.3c-7.1 6.6-15.7 14.7-19.1 17.9-3.5 3.5-6.9 5.9-8.2 5.9-1.2 0-3.7 1.4-5.7 3.1-3 2.6-3.5 3.7-3.5 7.4 0 2.7.7 5.1 2 6.8 2.3 2.9 8.1 5.2 11.1 4.4 1.2-.3 4.3.6 7.2 2.1 4.6 2.4 6.3 2.7 14.7 2.7 7.2-.1 10.3-.5 12.9-1.9l3.4-1.8-.8 3.9c-.4 2.1-1.3 5.3-2.1 7.1-1.3 3.3-1.5 3.3-7.1 3.2-8.1-.2-8.3-.2-8.3 1.5 0 1.3 3.1 1.5 22 1.5s22-.2 22-1.5c0-1-1-1.5-2.9-1.5-2.7 0-3.1-.6-7.6-11.5l-4.8-11.5 2.8-6.2c2.4-5.4 2.7-7 2.3-14.2-.3-4.8-1.1-9.4-2.1-11.3-1.2-2.2-1.7-5.6-1.7-10.8V476l-6.7.1h-6.8zm22.5-2.3v5.9l-14.1 12.3c-7.7 6.8-14.8 12.8-15.6 13.3-1.1.6-2.6-.3-5.4-3-2.1-2.1-3.9-4.4-3.9-5 0-.7 7.1-7.6 15.8-15.3 14.2-12.7 16.1-14 19.5-14.1h3.7zm3.6 15.7c1.5 12-1.3 20.3-9 27.1-5.3 4.7-10.5 6.4-19.1 6.4-6.1 0-15.5-2.9-15.5-4.7 0-1.7 3.5-4.4 5.6-4.4 1.2 0 3.1-1.1 4.1-2.3 3.4-4.3 30.7-27.7 32.4-27.7.4 0 1.1 2.5 1.5 5.6m-37.6 20.6c0 .5-1.6.8-3.5.8-2.5 0-3.8.5-4.2 1.7-1.1 3.3-3.6 5.3-6.5 5.3-2.8 0-6.7-2.9-6.9-5.3-.5-4.8 2-8.7 5.5-8.7 1.2 0 3.2-.9 4.6-2l2.5-2 4.2 4.8c2.4 2.6 4.3 5 4.3 5.4m38.3 17.5c2 4.6 3.2 8.5 2.7 8.8s-11.7 0-13.6-.5c-.6-.1 4-15.8 4.8-16.8 1.5-1.8 2.2-.9 6.1 8.5m-632.7-58.5c-5.1 6.9-6 17.3-2.1 25.6 2.1 4.6 4.8 7.3 6 6 .2-.2-.8-2.8-2.2-5.7-3.6-7.3-3.6-14.9 0-22.3 1.5-3 2.7-5.8 2.7-6.1 0-1.7-2.1-.4-4.4 2.5m63.4-2.7c0 .4 1.1 2.5 2.4 4.8 4.6 7.9 4.3 20-.6 26.3-1.4 1.7-1.7 2.9-1.1 3.5.7.7 1.8.1 3.2-2 6-8.4 6.9-18.5 2.3-27.2-1.5-3-3.6-5.5-4.5-5.7s-1.7-.1-1.7.3m251.2 2c-7.1 6-5.4 17.2 2.9 19 2.7.6 2.9 1 2.9 5.1 0 4.3 0 4.4-3.4 4.4-3.9 0-6.6 2.1-6.6 5.2 0 1.9-.4 2-6.7 1.3-3.8-.4-6.9-1.1-7.1-1.5-1-2.7-4.6-5.9-7.3-6.5-5.7-1.3-11.9 3.5-11.9 9 0 2.9 2.8 7.1 5.5 8.3 4.5 2.1 7.5 1.5 11.1-2.3 2.9-3.2 3.8-3.5 8.6-3.5 6.5 0 7.3.5 8.2 5.3.6 3.1.3 4.3-1.9 7.1-2.1 2.8-3.2 3.4-6.2 3.3-2.6-.1-4.1.5-5.4 2.2-4.3 5.3-.4 10.7 7.3 10.2 2.3-.1 4.2-3.9 4-7.6-.2-2.3.6-3.9 3-6.2 3.2-3.1 3.5-3.2 14.4-3.4 9.8-.3 11.4-.1 13.8 1.7 2.3 1.7 2.8 2.9 3 6.7.2 5.5 2.4 8.3 7.7 9.8 3.1 1 4.3.9 7.6-.7 7.9-3.9 9.3-14.6 2.4-18.7-3.7-2.2-9.9-2.2-13 0-2.2 1.5-2.6 1.5-6.7-.8-4.2-2.2-4.4-2.6-4.4-6.9v-4.5l6.1-2.4c5.4-2.1 6.5-2.2 9.8-1.1 4.9 1.6 6.9 1.1 9.4-2.2 2.6-3.5 1.5-7.7-2.7-9.7-3.8-1.8-7.4-.1-8.9 4-.9 2.4-2.5 3.7-6.6 5.5-6.5 2.9-7.3 2.9-8.9.4-.9-1.6-2.3-2-6.2-2h-5v-4.4c0-4 .3-4.6 3.4-6.4 10.2-6 7.5-18.8-4.2-20-4.1-.4-5.2 0-8 2.3m12.2 2.6c2.8 2.2 3.5 4.9 1.3 4.9-3.1 0-12.7-2.3-12.7-3.1 0-1.3 4.3-3.9 6.6-3.9 1.2 0 3.3.9 4.8 2.1m-.7 7.9c3 0 2.9 1.4-.3 3.9-4.4 3.4-9.6 2.3-11.5-2.5-1.4-3.8-.4-4.4 4.8-2.8 2.5.8 5.7 1.4 7 1.4m32.1 13.9c2.3 1.4 1 4.6-2.1 4.9-2.3.3-2.7 0-2.7-2.1 0-3.6 1.9-4.7 4.8-2.8m-66.8 7.6c.6.8 1 2.9.8 4.7-.6 6.2-8.6 7.3-10.7 1.5-1.2-3.1-.2-5.6 2.7-7.1 2.8-1.5 5.5-1.1 7.2.9m36.8.5h4.2v12.8l-7.6.4c-9.2.4-10.4-.6-10.4-8 0-4.8.2-5.1 2.8-5.5 1.5-.2 3.6-.3 4.7-.1s3.9.4 6.3.4m31.1 19.2c2.3 2 2.3 2.2.5 3.5-3.5 2.6-12.4 1.1-12.4-2.2 0-3.7 8.3-4.7 11.9-1.3m-54.9 7.4c1.1 1.2 1.1 1.8-.2 3-1.8 1.8-4.8.8-4.8-1.5 0-3.3 2.8-4.2 5-1.5m56 .6c0 .5-.9 1.7-2 2.8-1.9 1.9-3.7 2.4-7 2.1-1.5-.2-5-3.7-5-5 0-.4 3.1-.6 7-.6 3.8 0 7 .3 7 .7M1198.5 481c-4 4.4-2.4 19 2 19 1.9 0 1.9-1.9 0-4.4-2-2.6-1.9-7.9.1-11.8 2-3.8.5-5.7-2.1-2.8m23.9-.7c-.2.7.2 2.7 1.1 4.3 1.9 3.7 1.9 6.5 0 11.1-1.8 4.4-1.8 4.3 0 4.3 4.2 0 5.9-12.1 2.5-17.8-2.2-3.5-2.8-3.9-3.6-1.9m-440.1 2.5c-.6.4-1.3 2.5-1.5 4.7l-.3 4-15 .5c-8.2.3-15.6.9-16.2 1.3-1.8 1.1-1.9 58.7-.1 60.5.9.9 9.8 1.2 34 1.2 31.5 0 32.9-.1 34.8-2s2-3.3 2-33.8c0-23.5-.4-32.3-1.3-34.2l-1.3-2.5-16.9-.2c-9.4-.2-17.5 0-18.2.5m33.7 35.7V551h-31v-65h31zm-35.3-17.1c.2 4-.1 4.9-1.7 5.3-2.3.6-2.7 3.3-.6 3.3 1.2 0 1.5 2.6 1.8 13.2.2 7.3.2 16.6 0 20.6l-.4 7.3-14.1-.3-14.2-.3.1-2.8c0-1.5.1-13.7.2-27.2l.2-24.6 14.2.3 14.3.3z"/><path d="M791.8 493.7c-1.6.2-2.8.9-2.8 1.4s4.9.9 11 .9c6.7 0 11-.4 11-1s-1.7-1-3.9-1c-2.1 0-5.8-.2-8.2-.4s-5.6-.2-7.1.1m-1.1 9.9c-1.7 1.7 1.2 2.4 9.9 2.4 7.2 0 9.5-.3 9.2-1.3-.5-1.3-17.8-2.3-19.1-1.1m-.5 10.6c.3.9 3 1.3 9.6 1.3 12.4 0 12.1-1.9-.4-2.3-7.5-.2-9.5 0-9.2 1m-.2 9.8c0 .6 3.8 1 9.5 1s9.5-.4 9.5-1-3.8-1-9.5-1-9.5.4-9.5 1m.5 9c-.3.5 0 1.3.8 1.6 2.3.9 17.7 0 18-1.1.3-1.4-17.9-1.9-18.8-.5m6.8 8.8c-11 .4-8.8 2.2 2.7 2.2 5.5 0 10-.4 10-.9 0-1.2-4.2-1.7-12.7-1.3m-40.1-36.6c.3.9 3.4 1.4 9.6 1.6 7.7.2 9.2 0 9.2-1.3 0-1.2-1.6-1.5-9.6-1.5-7.2 0-9.5.3-9.2 1.2m.5 8.4c-1.7 1.7 1.1 2.4 9.4 2.4 8.2 0 11.1-.9 7.3-2.4-2.1-.8-15.9-.8-16.7 0m-.2 10.4c-.6.9 1.3 1.1 12 1.3 4.5 0 6.5-.4 6.5-1.3 0-.6-3.6-1-8.9-1-5 0-9.3.4-9.6 1m.5 9.5c0 1.3 1.3 1.5 8.5 1.3 4.8-.2 8.5-.7 8.5-1.3s-3.7-1.1-8.5-1.3c-7.2-.2-8.5 0-8.5 1.3m3.8 8.3c-5.7.4-6.4 2.1-1 2.4 11.9.5 14.7.3 14.7-1.1 0-1.5-4.2-1.9-13.7-1.3M907 483.5c-9.7 3.1-17.2 13.5-15.5 21.4.5 2.4.2 3.3-1.7 4.5-3.9 2.5-7.2 9.4-7.1 14.6.1 7.3 3.8 12.7 11 16.4 2.7 1.4 7.4 1.6 31.8 1.6 31.5 0 32.8-.2 38.3-6.1 8.8-9.4 6.1-23.6-5.6-29.5-2.3-1.2-5.3-3.6-6.8-5.3-3.3-4-7.4-6.1-11.7-6.1-2.7 0-4-.8-6.6-4-6-7.5-16.7-10.6-26.1-7.5m15.3 3.9c3.9 1.7 9.3 6.8 10.2 9.6.5 1.7 1.5 2 6.1 2 4.8 0 6 .4 8.5 2.9 1.6 1.6 2.9 3.6 2.9 4.4 0 .9 1.4 1.7 3.7 2.2 4.6.8 9.8 5.9 11.1 10.8 1.3 4.7 0 9.5-3.5 13.8-4.7 5.6-6.6 5.9-35.8 5.9s-31.1-.3-35.7-5.8c-5.4-6.4-4.3-15.3 2.5-20.7 3.1-2.6 3.4-3.1 2.9-7.1-.8-7.6 5-16.1 12.7-18.4 4.2-1.3 10.9-1.1 14.4.4"/><path d="M940.1 506.4c-1.4 1.7-.7 3.6 1.4 3.6 2.2 0 2.9-2 1.3-3.6-1.3-1.3-1.6-1.3-2.7 0m-41.7.7c-1 1.7 1.3 3.6 2.7 2.2 1.2-1.2.4-3.3-1.1-3.3-.5 0-1.2.5-1.6 1.1m142.5-22c-4.4 6.2-3.6 18.6 1.4 22.8 2.5 2 2.9-.5.7-4.6-2.6-4.8-2.6-10.3.1-15.5 2.7-5.3 1.1-7.3-2.2-2.7m47.8-2.5c-.3.6.5 3.3 1.9 6 2.6 5.2 2.6 7.8-.3 14.7-1.9 4.5-.9 6.1 1.8 2.9 2.6-3.3 4.1-9.3 3.3-14.1-.7-4.2-5.6-11.2-6.7-9.5M1207 486c-2.6 2.6-2.5 5.4.2 9.2 2 3 2.1 3.4.9 14.2-.6 6.1-1.4 12.3-1.7 13.8l-.6 2.8h-14.2c-14.9 0-20 1-21.6 4-.6 1-1 5.2-1 9.3 0 8.3 2.2 12.7 6.3 12.7 2.9 0 4.4 1.1 4.8 3.5.3 1.2 1.4 2.1 2.7 2.3 1.7.3 2.5-.3 3.2-2.5l1-2.9 24.3-.1 24.3-.1 1.1 2.9c1.4 3.7 4.9 3.9 6.4.5.8-1.6 2.3-2.6 4.6-3.1 5.9-1.1 7.3-3.4 7.3-12 0-8.4-1.2-11.8-4.7-13.4-1.4-.6-8.5-1.1-17.3-1.1-17.3 0-15.2 1.8-17-14.5-.6-5.5-1.3-10.7-1.6-11.6-.2-.8.7-2.9 2.1-4.5 3-3.5 3.2-6.3.5-9.2-2.6-2.8-7.3-2.9-10-.2m7.3 3.1c1.4 2.2.2 4.9-2.2 4.9-2.6 0-4.2-2.9-2.9-5.3 1.1-2.1 3.6-1.9 5.1.4m-1.3 24.3c0 1.8.3 5.4.6 8 .6 4.3.5 4.6-1.6 4.6s-2.2-.3-1.6-3.8c.3-2 .6-5.6.6-8 0-2.3.5-4.2 1-4.2.6 0 1 1.5 1 3.4m36.8 17.8c.7.7 1.2 4.1 1.2 8.3s-.5 7.6-1.2 8.3c-.9.9-10.7 1.2-37.8 1.2s-36.9-.3-37.8-1.2c-.7-.7-1.2-4.1-1.2-8.3s.5-7.6 1.2-8.3c.9-.9 10.7-1.2 37.8-1.2s36.9.3 37.8 1.2"/><path d="M1179.6 537.9c-.4.5-.3 1.6 0 2.5.9 2.4 12.9 2.3 13.8-.1.4-.9.1-2-.6-2.5-1.8-1.1-12.5-1-13.2.1m20.4 1.6c0 1.3.9 1.6 4.3 1.3 2.3-.2 4.2-.8 4.2-1.3 0-.6-1.9-1.1-4.2-1.3-3.4-.3-4.3 0-4.3 1.3m15.7-.9c-1 1.1.3 2.4 2.4 2.4 1 0 1.9-.7 1.9-1.5 0-1.5-3.1-2.1-4.3-.9m9.6.6c.2.9 2.9 1.3 8.7 1.3s8.5-.4 8.8-1.3-1.9-1.2-8.8-1.2-9.1.3-8.7 1.2m575.5-47.5-4.6 4.6-6.4-1.8c-8.6-2.4-20.4-2.2-29.1.5l-6.7 2.1-4.4-3.6c-3.1-2.5-4.6-3.2-5.2-2.4-.4.8.5 2.3 2.4 4 1.8 1.6 3.2 3.2 3.2 3.5 0 .4-2.6 3.1-5.7 6-4.9 4.4-5.5 5.3-4 5.9 1.3.5 2.7 0 4.5-1.8 5.1-4.8 14.3-9.6 21.9-11.3 13.6-3 25.3-.1 37.3 9.2 5.6 4.3 7.2 5.1 7.6 3.9.8-1.9-1.5-4.5-7.8-9.2l-4.8-3.5 4.7-4.2c2.8-2.6 4.4-4.7 3.9-5.4-1.1-1.9-1.8-1.5-6.8 3.5m-719.8-3c0 .4.5 2.1 1.2 3.9.9 2.6.9 3.9-.1 6-1.6 3.6.1 5.4 2.3 2.3 2.2-3.2 2.1-9.2-.2-11.2-1.9-1.8-3.2-2.2-3.2-1m-33.1 2.7c-1.3 2.9-.4 8.9 1.5 10.5 2 1.7 2.8-.2 1.6-3.5-.8-1.9-.8-3.7 0-5.7 1.3-3.8 1.3-3.7-.5-3.7-.9 0-2 1.1-2.6 2.4m12.9.6c-2.7 2.7-2.9 3.5-2.4 7.3 1.3 7.9.9 10.2-4.2 26.1-3.7 11.9-5.7 16.4-7.5 18-3.6 3-4.2 6.1-1.8 8.5 1.2 1.2 3 2.1 4.1 2.1 1.9 0 5.3-2.7 6.1-4.7.5-1.3 10.3-6.3 12.4-6.3 3.2 0 11 4.9 12.7 7.9 1.8 3.3 4.4 3.9 7.9 2.1 2.8-1.5 2.5-6.4-.5-8.7-1.8-1.5-3.9-6.6-8.4-20.2-5.9-17.6-6-18.3-4.6-21.8 2-4.6.4-9.7-3.6-11.8-4.3-2.2-6.8-1.8-10.2 1.5m9.4 2.7c3.4 3.1 1.3 9.3-3.2 9.3-2 0-6-3.6-6-5.5 0-2.1 3.2-5.5 5.2-5.5 1.2 0 3 .7 4 1.7m1.3 18.6c1 2.9 2 5.8 2.3 6.4.7 2.2-2.5 1.4-5.6-1.2-3.6-3-5.2-3.2-5.2-.6 0 1.1 1.5 2.9 3.6 4.2l3.7 2.2-6.4 3.3c-3.5 1.7-6.5 2.8-6.7 2.4-.3-.7 3.4-13.3 6.2-21.6.2-.6 1.7-.9 3.3-.7 2.5.4 3.2 1.2 4.8 5.6m9 28.6.7 3.2-9.1-4.5c-9.3-4.7-11.4-5.5-9.3-3.4.7.7 1.2 1.6 1.2 2 0 1-10.2 5.9-10.8 5.3-.2-.2.1-2.7.8-5.5 1-4.3 1.5-5 3.2-4.5 1 .4 2.4.2 3.1-.3.7-.6 4.3-2.6 8.2-4.6l7-3.6 2.1 6.4c1.2 3.5 2.5 7.8 2.9 9.5m-30.2 5.8c.9.9-1.3 3.4-2.4 2.7-1.4-.8-1.1-3.4.4-3.4.8 0 1.7.3 2 .7m36 .8c.1.5-.6 1.1-1.5 1.3-1.1.2-1.8-.3-1.8-1.3 0-1.7 3-1.8 3.3 0"/><path d="M1758 503.5c0 .8.7 1.8 1.5 2.1 2.4 1 1.8 2.1-2.7 5.3-5.9 4-8.8 6.9-8.8 8.6 0 2.3 1.9 1.8 5.6-1.5 1.9-1.6 5.2-3.9 7.4-5l3.9-2 3.6 3.1c3.5 3.1 4.4 4.9 2.4 4.9-1.6 0-12.4 8.9-18.8 15.3-3.8 3.9-5.2 6-4.7 7.2.5 1.4 2.1.3 8.4-5.6 4.2-4 10-9 12.7-11.2l5-4 .3 3.3c.2 1.8-.1 3.7-.7 4.3-1.3 1.3.4 4.7 2.3 4.7 2.2 0 4.1-2.9 2.8-4.2-1.2-1.2-1.7-7.8-.6-7.8 1.4 0 9.9 6.6 17.2 13.5 7.9 7.4 10.2 8.8 10.2 6.1 0-1.7-14-15.1-20.4-19.5l-4.8-3.3 3.3-3.4c4-4.1 5.2-3.9 13.2 2.2 6 4.6 7.7 5.3 7.7 3 0-2-7.2-8.1-13.1-11.1-6-3.1-16.4-4.3-22.4-2.6-3.4.9-4.2.8-6-.8-3.2-2.9-4.5-3.4-4.5-1.6m23 7.5c-1.9 3.6-4.9 4.5-7.8 2.3-4.5-3.4-3.9-4.3 2.8-4.3 5.7 0 6 .1 5 2m-294 94.1c-8.4 3.8-11.2 8-12 18.3-.5 6.8-.6 7-3.6 7.8-6.5 1.7-6.7 2.5-6.7 25.8 0 23.1.4 25.1 5.6 27 3.9 1.3 41.9 1.3 46.9-.1 6.3-1.6 6.8-3.7 6.8-27.1 0-22.7-.4-24.2-6.4-25.3-3.3-.7-3.3-.7-3.8-7.3-.6-7.6-2.5-12-6.9-16-6-5.3-12.7-6.4-19.9-3.1m16.8 5.6c4.2 3.4 6.4 9.4 6 15.8l-.3 4-15.4.3-15.3.3.4-7.5c.3-6.7.7-7.8 3.3-10.7 6.3-6.7 14.7-7.5 21.3-2.2m14.7 25.3c2.3 1.9 2.2 41.2-.1 43.4-1.3 1.4-4.9 1.6-24 1.6-21.1 0-22.5-.1-24.4-2s-2-3.3-2-21.3c0-20.7.3-22.3 5-22.9 1.4-.2 11.9-.2 23.3-.1 14.6.1 21.2.5 22.2 1.3"/><path d="M1490.2 646.7c-1.5.6-4.2 5.6-4.2 7.7 0 .8 1.4 3.1 3 4.9 2.3 2.7 3 4.4 3 7.6 0 2.9.5 4.4 1.6 4.8 2.1.8 3.4-1.4 3.4-6.1 0-2.6.8-4.7 2.5-6.8 3.2-3.7 3.2-7.2 0-10.3-2.3-2.4-6.1-3.1-9.3-1.8m6.6 4.5c1.8 1.8 1.4 4.6-.7 5.8-3 1.5-4 1.2-5.3-1.5-1.9-4.1 2.8-7.5 6-4.3m135.5-46.1c-7 1.3-13 4.5-18.6 9.8-15.5 14.7-16 37.5-1.3 53.3 4.1 4.5 7.6 6.2 7.6 3.7 0-.6-1.3-2.3-2.9-3.8-15.3-13.9-15.7-36.9-.9-50.7 7.4-6.9 12.5-8.9 23.3-8.9 7.6 0 9.8.4 14.5 2.6 3 1.4 7.2 4.4 9.3 6.5 14 14.1 14 34.5.1 49.4-6.2 6.7-4.8 8.8 2 2.9 8.9-7.9 13.8-21.9 11.6-33.2-3.4-17.4-14.3-28.6-30.9-31.7-6.1-1.1-7.9-1.1-13.8.1m136.5 1c-3.9 2-6.1 5.2-7.2 10.6-.4 1.7-1.4 3.7-2.2 4.4-2.8 2.3-1.1 8.3 5.1 17.5 1.4 2 2.5 4.4 2.5 5.3 0 1.6-7.4 7.1-14.3 10.6-2.2 1.1-4.7 3.1-5.7 4.5-1.4 2-7 18.2-7 20.4 0 .3 9.9.6 22 .6 21.3 0 22-.1 22-2 0-1.3-.7-2-2-2-1.8 0-2-.7-2-6.4v-6.5l4.8-3.8c2.7-2.1 5.7-4.9 6.7-6.2 1.8-2.4 1.8-2.4-1.8-5.4-2.1-1.6-3.7-3.4-3.7-4.1 0-1.3 5.6-10.5 9-14.8 2.4-3.1 2.1-5.5-1-8.3-1.1-1-2-2.8-2-3.9 0-3.2-3.6-8.4-7.2-10.6-4.2-2.6-11.1-2.5-16 .1m15.6 3.7c2 1.8 5 8.1 4.2 8.9-.3.3-1.8-.5-3.5-1.6-1.7-1.2-5.2-2.4-7.8-2.7-4.1-.5-5.4-.2-8.7 2.1l-3.9 2.6.7-3.2c.3-1.8 1.4-4.1 2.3-5.1 3.5-3.9 12.7-4.4 16.7-1m-1.7 9.4c6.6 2.5 10.3 4.6 10.3 5.9 0 1.7-3.2.9-5-1.4l-1.8-2.2-5.5 2.9-5.4 3-4.2-2.2c-5-2.7-4.6-2.7-7-.1-1.3 1.4-2.1 1.7-2.6.9-.9-1.5-.2-2.2 6.5-5.8 6.7-3.7 7.3-3.8 14.7-1m3.8 9.8c.8 3.6-2.4 11.3-5.3 12.9-5.4 2.9-10.5.4-14.2-6.8-1.9-3.9-2-4.5-.7-5.8 1.2-1.3 2.1-1.3 5.1-.3 3.6 1.2 9.6.1 12.1-2.1 1.6-1.5 2.3-1 3 2.1m-3.5 17.9c0 2.2-4.1 6.1-6.3 6.1-2.7 0-5.7-2.8-5.7-5.4 0-1.9.6-2.1 6-2.1 4.5 0 6 .3 6 1.4m-10.2 9.6c-.7.8-6.4-2-7.4-3.6-.3-.6 0-1.5.7-2 1-.6 2.3.1 4.3 2.1 1.7 1.6 2.7 3.2 2.4 3.5m12.6-2.4c-2.8 3-4.4 3.7-4.4 1.9 0-1.5 5.3-6 6.3-5.3.5.3-.4 1.8-1.9 3.4m-17.6 4.9c6.2 4.2 7.2 6 7.2 13.6v3.4h-29.8l1.3-5.6c.7-3.1 2.2-6.8 3.2-8.3 1.7-2.2 9.4-7.1 11.4-7.1.4 0 3.4 1.8 6.7 4m10.2.6c0 .8-.4 1.2-1 .9-.5-.3-1-1-1-1.6 0-.5.5-.9 1-.9.6 0 1 .7 1 1.6m-712.6-52.3c-.3.8-.4 4.1-.2 7.3.2 4.4.7 5.9 1.8 5.9 1.2 0 1.5-1.4 1.5-6.9 0-4.7-.4-7.1-1.2-7.3-.7-.3-1.5.2-1.9 1m139.6 2.3q-10.2 5.4-21.9 5.4c-7.5 0-7.3-.5-6.9 20.1.3 17.6.4 18.7 3 24.2 4.7 10 11.9 17 25.2 24.2 6.5 3.6 7 3.8 10.5 2.5 11.6-4.2 24.5-15.1 29.9-25.4 2.7-5 2.7-5.3 2.7-25.1v-20l-8.5-.7c-9.1-.7-13.9-2.1-21.6-6.2-2.7-1.4-5.1-2.6-5.4-2.5-.3 0-3.4 1.6-7 3.5m11.7 3c5.7 3.3 12.3 5.2 20.4 6l6.7.7.5 4.6c1 8.4 0 26.8-1.7 31.8-3.3 9.6-11.9 18.4-24.5 24.7-5.2 2.7-5.4 2.7-9.3 1.1-11.1-4.4-23.3-15.9-26.7-25.1-1.8-4.7-2.1-7.8-2.1-21.3v-15.8l7.1-.7c6.8-.6 22.2-5.7 23.4-7.7.9-1.3 1.3-1.2 6.2 1.7"/><path d="M1209.4 620.5c-2.8 2.2-14 5.5-18.6 5.5h-4l.4 12.7c.3 14.4 1.3 17.3 7.7 23.9 4.3 4.5 12.4 10.2 15.8 11 5.5 1.4 20.6-10 24.5-18.5 1.7-3.7 2.2-7.1 2.6-16.7l.4-12.1-6.7-.5c-4.8-.4-8.5-1.5-12.8-3.7-6.9-3.6-6.7-3.6-9.3-1.6m14.7 7.5c3 .6 6.4 1.3 7.7 1.6 2.1.4 2.2.9 2.2 9.8 0 12.6-2.6 17.9-12.5 25.3-3.9 2.9-7.8 5.3-8.8 5.3-2.7 0-11.7-6.1-15.8-10.7-4.9-5.4-6.3-10.1-6.4-20.7v-8.9l7-1.2c3.9-.7 8.9-2.2 11-3.3 3.9-2 4-2 7.1-.1 1.7 1 5.5 2.3 8.5 2.9"/><path d="m1217.2 642.4-6.8 6.6-3.4-3.5c-3.7-3.8-5.7-4.4-6.7-1.9-.4 1 .8 3 3.3 5.5 6.8 7 6.7 7 15-1.2 7-7 8.7-10 6.4-11.4-.6-.4-4.1 2.3-7.8 5.9m135.9-32.4c-4.9 4.2-11.4 5.4-24.5 4.7-6.1-.4-12-.8-13.1-.9-2-.3-2 .3-2 34.4 0 22.4.4 34.9 1 35 .6.2 1.1-2.1 1.3-5l.3-5.2h19.9v4.7c0 2.7.4 5.4.9 6.2 1.6 2.5 3.1 0 3.1-5.4v-5.3l8.8-.4c12-.5 13.1-.2 14.9 4.1 1.8 4.1 3.3 5.5 9.2 8.3 7.6 3.5 16 .8 20.2-6.6 1.2-2.2 3.4-4.9 4.7-6.1 1.8-1.6 2.6-3.4 2.9-7.1 2-20.6-20.8-32.7-36.1-19.3-3.6 3.2-5 5.3-6.5 10.2-1 3.4-1.7 6.6-1.4 7 .9 1.5 3.3-1.5 4.4-5.6 1.7-6.3 8.2-12.3 14.3-13.2 12.4-1.9 21.6 6.2 21.6 19 0 4.6-.6 5.7-3.7 7.4-1.4.7-2.3 2.1-2.3 3.4s-1.3 3.6-3 5.2c-6.3 6-18 3.6-20.6-4.3-1.8-5.7-1.6-5.7-27.2-6.2l-23.7-.5-.3-7.3-.3-7.4 7.3.4 7.3.3.3 6.2c.2 4.6.7 6.3 1.7 6.3s1.5-1.7 1.7-6.3l.3-6.2 9.9-.5c6.4-.3 10.1-.9 10.3-1.7.3-.8-1.4-1.3-5.4-1.5l-5.8-.3-.3-7.9-.3-7.8 28.3.4c25.4.4 28.3.7 28.6 2.2.2.9.8 1.4 1.3 1.1.5-.4.9-6 .9-12.6V614l-15.5.1c-16.7 0-23.5-1.3-27-5.1-2.3-2.5-2.3-2.5-6.4 1m3.2 11.7c-.3 4.9-.6 8.9-.7 8.9 0 .1-4.3.4-9.3.8l-9.3.7v-6.5c0-6.3.1-6.6 2.8-7.2 7.4-1.6 14.3-3.8 14.8-4.5 1.6-2.7 2.2.1 1.7 7.8m5.8-6.5c1.9.6 6.1 1.7 9.4 2.2l6 1.1v13l-8.5-.3c-4.7-.2-8.8-.6-9.1-1-.6-.7-2-16.2-1.5-16.2.2 0 1.8.5 3.7 1.2m-34.8 3.3 5.7.6v12.7l-3.2.5c-1.8.3-5.5.2-8.3-.1l-5-.7-.3-7.3-.3-7.4 2.8.5c1.5.3 5.4.9 8.6 1.2m71.5 6.2.3 7.3H1381v-13.9l6.3-.4c12-.7 11.2-1.2 11.5 7m-58.8 18.2c0 8.2.1 8.1-11.6 8.1s-12.4-.5-12.4-8.5V636h24zM903.5 612c-12.1.6-14.7 1.5-17.1 6.2-1.5 2.9-1.5 3.6.1 9.5 1 3.5 2 9.9 2.4 14.1.5 6.9.8 7.7 2.7 8 2.3.3 3.4 2.7 3.4 7.8 0 4.6 5.6 14.9 10.2 18.9 7.1 6 12.2 7.9 21.3 8 7.3 0 8.6-.3 14.5-3.6 10.3-5.7 17-16.3 17-27 0-3.4.3-3.8 2.8-4.1 2.6-.3 2.7-.5 3.4-8.8.3-4.7 1.1-9.8 1.7-11.3 2.6-6.8.7-13.3-4.7-16.1-3.1-1.5-38.8-2.5-57.7-1.6m55 4.5c2.1.8 3.9 2.5 4.5 4 1.3 3.3.5 4.8-1.8 3.6-2.1-1.1-13.8-2.8-25.2-3.7-8.9-.6-31.7.9-40.8 2.7-3 .6-5.6.8-5.9.5-1.2-1.2.9-5.7 3.5-7 4-2.2 60.6-2.3 65.7-.1m-14 8.5c6.1.6 12.5 1.5 14.3 2.1 2.9.9 3.3 1.5 2.8 3.5-.4 1.3-.9 5.1-1.3 8.5l-.6 6.2-13.1-.8c-17.7-1-22.8-1-39.2-.1l-14.1.9-.6-5.4c-.3-3-.9-6.8-1.2-8.6-.7-3.1-.6-3.2 3.6-4.4 3.9-1.1 18.7-2.3 33.4-2.7 2.8-.1 10 .3 16 .8m-29 26c-3.8 7.4 4.5 16.9 10 11.4 2.2-2.2 1.4-3.8-2.1-4.2-5-.6-5.7-3.5-1.8-8.1 3.6-4.4 7.6-4.2 11.8.4 4 4.3 5 4.4 4.3.5-.6-2.8-.4-3 2.2-3 7.3 0 4.7 15.4-3.6 21-5.4 3.7-14.3 3.6-20.1-.3-9.3-6.1-11.3-20.1-3-20.9 1.8-.2 3.4-.2 3.6-.2.2.1-.4 1.7-1.3 3.4m-11.2 3.4c1.1 10.5 7 17.7 16.9 20.2 13.7 3.6 26.8-6.3 26.8-20.4 0-5.1.1-5.2 3-5.2s3 .1 3 4.7c0 7.3-1.6 11.6-6.2 16.8-6.1 6.9-11 9.7-18.5 10.3-15.4 1.2-27.6-8.1-30.4-23.2-1.2-6.9-.8-8.6 2.4-8.6 2.2 0 2.5.5 3 5.4"/><path d="M906 636.5c0 .8.7 1.5 1.5 1.5s1.5-.7 1.5-1.5-.7-1.5-1.5-1.5-1.5.7-1.5 1.5m-5 .5c0 .5.5 1 1 1 .6 0 1-.5 1-1 0-.6-.4-1-1-1-.5 0-1 .4-1 1m-154.6-21.5c-1 1.5-2.6 2.5-4 2.5-2.4 0-2.4.2-2.4 9.4s.1 9.4 2.5 10c1.8.5 2.5 1.3 2.5 3 0 5 .9 5.1 37 4.8 27.5-.3 33.9-.6 35.5-1.8 1.8-1.3 2-2.9 2.3-13.2.3-10.8.2-12-1.8-14.5l-2.1-2.7H748zm69 1.1c.3.9.6 6.5.6 12.5 0 7.9-.4 11.1-1.2 11.4-.7.2-15.5.5-32.9.7l-31.7.3-.4-11c-.3-6.1-.1-11.8.4-12.7.8-1.6 3.6-1.8 32.1-2.1 17.1-.1 31.5-.3 31.8-.5.4-.1 1 .5 1.3 1.4m-70 5c.8 2.1-.5 12.4-1.5 12.4-.5 0-.9-3.2-.9-7 0-6.6 1-9 2.4-5.4"/><path d="M758.8 623.1c-1.3.7-1.8 2.3-1.8 5.4 0 5 2 6.8 5.8 5.4 1.8-.7 2.2-1.6 2.2-5.2 0-6-2.2-8-6.2-5.6m3.2 5.5c0 .8-.4 1.4-1 1.4-.5 0-1-.9-1-2.1 0-1.1.5-1.7 1-1.4.6.3 1 1.3 1 2.1m12-.2c0 4.4.3 5.6 1.6 5.6 1.2 0 1.4-1 1.2-5.2-.4-7.4-2.8-7.7-2.8-.4m858.3-11c-8.4 2.7-14.3 8.1-17.2 15.9-1.6 4.1-1.3 14.2.3 18.2 1.7 4 5.3 5.1 4.1 1.2-3.3-10.4-3.4-11.7-1.9-16 2.5-7.1 5.9-11.3 11.5-14.1 12.9-6.4 28.6-.1 32.1 13 .7 2.4 1.5 4.4 1.9 4.4.9 0-1.4 8.8-3 11.9-.9 1.6-1 2.6-.3 3.3 1.7 1.7 3.1 0 4.7-5.6 2.9-10-.8-22-8.7-27.9-3.6-2.7-12.6-5.7-16.7-5.6-1.4 0-4.5.6-6.8 1.3m-596.3 1.4c0 1.1 9.1 10.2 10.2 10.2 2.4 0 1.5-2.8-2.3-6.6-3.9-4-7.9-5.8-7.9-3.6m54.3 2.8c-4.3 3.6-5.3 5.7-3.2 7 1.3.7 11.1-8.5 10.3-9.8-1-1.5-2.9-.8-7.1 2.8"/><path d="M1633.6 626.5c-5.7 2-9.3 6-10.5 11.5-.6 2.5-.7 5.7-.4 7.1.8 3.1 4.1 7.9 5.5 7.9 1.1 0 .7-2.5-1.5-8.4-1.8-4.9-.9-7.7 4-12.3 4.9-4.5 8.3-5 14.1-2.1 8 3.9 10.8 11.8 6.6 18.5-1.8 2.9-1.8 4.3.1 4.3s5.5-7.1 5.5-10.7c-.1-3.7-3.1-10.3-6.1-13-2.3-2-8.7-4.3-11.9-4.3-.8.1-3.2.7-5.4 1.5m-575.1 2.4c-2.2 1-5.3 3-6.8 4.5-4.8 4.5-5.7 8.2-5.7 23.1V670h-2.8c-4 0-6.2 2.8-6.2 7.7 0 5.6 1.5 6.5 9.7 6.1l6.8-.3.3 3.2.3 3.3h25.9v-5.9l7.8-.3 7.7-.3.3-5.3c.4-6.2-.8-8.2-4.8-8.2h-2.8l-.4-14.3c-.4-15.8-1.2-18.2-7.2-23.5s-14.9-6.6-22.1-3.3m17 4.4c2.6 1.4 4.8 3.7 6.3 6.7 2 4.1 2.2 5.7 2 17l-.3 12.5-16.7.3-16.6.2-.4-11.7c-.2-6.5 0-13.2.4-14.9 2.6-10.3 15.7-15.5 25.3-10.1m14.8 40.6c1.2.1 1.7.9 1.7 3.1v3h-51v-2.9c0-2.5.4-3 2.8-3.3 2.1-.2 38.7-.1 46.5.1M1076 685c0 .6-3.7 1-9 1s-9-.4-9-1 3.7-1 9-1 9 .4 9 1"/><path d="M1063.5 639.4c-1.6.8-4.3 2.8-6 4.5-2.6 2.8-3 4-3 8.9 0 5.2.2 5.7 2.4 6 2.3.4 2.3.2 1.7-4.3-.9-5.4.7-8.6 5.5-11.1 2.8-1.4 3.2-1.4 4.8 0 1 .9 2.1 1.3 2.4.9 1.4-1.3.7-4.3-1.2-5.3-2.5-1.3-2.9-1.2-6.6.4"/><path d="M1066.5 648c-.3.5-.1 1 .4 1 .6 0 1.1-.5 1.1-1 0-.6-.2-1-.4-1-.3 0-.8.4-1.1 1m568.2-12.2c-3.2 3.5-2.6 8.7 1.2 10.6 3.2 1.7 6.8 1.4 9-.8 2-2.1 1.8-7.2-.4-9.6-2.3-2.5-7.6-2.6-9.8-.2m7.7 3.8c.8 2.1-1.1 4.4-3.5 4.4-1.9 0-3.5-3.3-2.4-5 1-1.6 5.2-1.2 5.9.6m-611.1 3.2c-4.7.2-6.3.7-6.3 1.7 0 1.2 1.6 1.5 7.5 1.5 5.7 0 7.5-.3 7.5-1.4 0-1.9-1.4-2.2-8.7-1.8m62.7 1.7c0 1.2 1.5 1.5 7.5 1.5s7.5-.3 7.5-1.5-1.5-1.5-7.5-1.5-7.5.3-7.5 1.5m306 .9c0 1.4.5 2.8 1 3.1.6.4 1-.7 1-2.4s-.4-3.1-1-3.1c-.5 0-1 1.1-1 2.4M764 650c0 .6 3.7 1 9 1 6.4 0 9.1.4 9.7 1.4 1.2 2 25.8.7 25.8-1.4 0-1.3-3.2-1.5-22.2-1.7-14.4-.2-22.3.1-22.3.7m611.9 4.2c-1.2 2.8-2 3.4-5.2 3.6l-3.8.3 2.6 3.1c2.3 2.7 2.5 3.6 1.9 7.6-.7 4.8-.2 5 4.2 1 2.1-1.9 2.1-1.8 4.9 1.7 1.5 2 3 3.4 3.3 3.1.3-.4.5-2.8.3-5.5-.2-4.6.1-5.2 3.4-7.8 1.9-1.5 3.5-3.1 3.5-3.6 0-.4-2-.7-4.5-.7-3.9 0-4.6-.3-6-3-2-3.8-2.8-3.8-4.6.2m4.1 7.9c0 2.3-2.8 2.6-3.7.3-.6-1.6 1.5-3.7 2.9-2.8.4.3.8 1.4.8 2.5m416.5-8.6c-1.4 1.3-2.5 3.3-2.5 4.3 0 1.1-1.1 2.7-2.5 3.6-2.4 1.6-2.5 2-2.5 13 0 14.7-.1 14.6 14.2 14.6 13.8 0 13.8 0 13.8-14.3 0-10.8 0-10.7-4.5-14.5-.8-.7-1.5-2.1-1.5-3.2 0-2.7-4.7-6-8.7-6-2.3 0-4.2.8-5.8 2.5m9.5 2.5c3.5 3.5 2.6 5-2.9 5-2.8 0-5.2-.4-5.5-.9-1-1.5.5-4.2 2.8-5.1 3.1-1.3 3.4-1.2 5.6 1m7 17.3c.7 12.8.8 12.7-9.8 12.7-5.5 0-9.2-.4-10-1.2-1.3-1.3-1.7-18.9-.5-20.2.4-.4 5-.5 10.3-.4l9.5.3z"/><path d="M1800.3 670.5c-1.7 1.2-1.7 1.6-.3 5.6 1.9 5.4 3.5 5.9 5 1.5 1.9-5.9-.7-10-4.7-7.1m-167.6-17.9c-.9.9-.9 30.6-.1 32.8.9 2.4 7.5 2.1 10.8-.5l2.6-2v-15.5c0-14.3-.1-15.5-1.7-15.2s-1.8 1.9-2.1 14.9c-.2 14.5-.3 14.6-2.8 15.7-1.9.9-2.6.9-2.9-.1-.3-.6-.6-7.7-.7-15.6-.3-13.5-1-16.6-3.1-14.5M823.1 659l-3.2 4h-20.5l-3.2-3.6c-3.7-4.1-4.6-3.9-9.1 2.3-1.7 2.4-3.6 4.3-4.1 4.3-2.1 0-1 4.7 1.4 5.8 1.9.8 2.5 2 2.8 4.9.3 3.5.6 3.8 3.5 4.1 2.8.3 3.5-.2 5.9-3.7l2.7-4.1h19.2l2.9 4.1c2.2 3.2 3.3 4 5.5 3.7l2.6-.3V668c0-14.5-.9-15.8-6.4-9m-28 5.1c1 1.5 2.9 2.3 6.2 2.6 6.7.8 6.5 3.3-.3 3.3-3 0-5 .4-5 1.1 0 1.8-4.1 7-5.1 6.4-.5-.4-.9-2.2-.9-4.1s-.3-3.4-.7-3.4c-.5 0-1.4-.4-2.1-.8-1-.7-.6-1.6 1.5-4 3.3-3.7 4.6-3.9 6.4-1.1m30.9 5.6-.1 7.8-2.2-3.7c-2.1-3.7-2.4-3.8-7.9-3.8-5.1 0-5.8-.2-5.8-2s.7-2 5.8-2c4.6 0 6.3-.4 7.7-2 1-1.1 2-2 2.2-2 .1 0 .3 3.5.3 7.7m492.6 19.2c-1.1 1.6 2.4 2 25.4 2.4 21.2.4 34.4-.2 32.5-1.4s-57.2-2.1-57.9-1M1063 731.5c-3.2 1.8-3.2 1.8-12.3 5-4.3 1.5-8.1 3.3-8.3 4-.3.7.2 2.9 1 5 1.1 2.4 1.6 6.8 1.6 12.6 0 10.1.6 12.1 5.2 17 4 4.3 9 6.1 17.2 6.2 7.1.1 10.4-1.4 16.4-7.3 4.4-4.4 4.7-5.2 4.2-15.6-.1-2.9.6-7.9 1.5-11.3 1.3-4.5 1.5-6.4.7-7.4-.6-.7-4.9-2.6-9.4-4.2-4.6-1.5-9-3.4-9.9-4.2-2-1.7-4.8-1.6-7.9.2m5.6 3.3c.5.5 4.9 2.1 9.7 3.7 8.6 2.7 8.8 2.9 8.2 5.4-.4 1.4-1 2.9-1.4 3.3-.4.5-5.3.4-10.9-.2-5.6-.5-10.7-.8-11.4-.6-.7.3-4.3.7-7.9 1-6.4.6-6.6.5-7.8-2-1.6-3.5-.8-4.2 7.5-6.5 3.7-1 7.6-2.5 8.8-3.3 2.4-1.7 3.8-1.9 5.2-.8m7.3 16.1 2.4.6-3.2 2.7c-4.3 3.7-10.2 5.2-14.6 3.8-6.2-2-7.3-6.5-1.8-7.3 4.5-.7 14.6-.6 17.2.2M1051 755c0 1.6-.4 3-1 3-.5 0-1-1.4-1-3 0-1.7.5-3 1-3 .6 0 1 1.3 1 3m33.8.3c.2 1.5-.1 2.7-.7 2.7s-1.1-.6-1.1-1.4-.3-2.2-.7-3.2c-.4-1.2-.2-1.5.8-1.2.8.2 1.5 1.7 1.7 3.1m-4.8 2.9c0 3 1.4 5 3.1 4.6 2.4-.5 1.2 4-2.2 8.2-3.9 4.8-8.3 7-14.4 7-5.8 0-10.3-2.1-14.4-6.5-3.4-3.7-4.2-8.5-1.5-8.5.9 0 1.8-.9 2.1-2s.6-2 .7-2 1.9.9 4.1 2 4.9 2 6.1 2c2.6 0 10-3.1 12.9-5.4 2.7-2.1 3.5-2 3.5.6m-179.1-21.7c-2 1.3-3.9 3.1-4.3 4-.3.9-.6 16.4-.6 34.4 0 35.6 0 35.6 5.8 38 4.2 1.7 17.7 1.1 17.7-.9 0-1.2-1.7-1.6-8-1.8-12.4-.5-11.5 2.3-11.5-36.3 0-32.7 0-32.8 2.2-34.3 1.9-1.3 5.9-1.6 23.4-1.6 19.9 0 21.3.1 23.8 2.1l2.6 2v16c0 13 .3 15.9 1.4 15.9s1.6-2.7 2.1-11.5c.9-14.5.4-20.9-2.1-23.6-3.8-4.3-7.2-4.9-28.6-4.9-19.9 0-20.4 0-23.9 2.5m417.3-.5c-1.9 1.8-2.2 3.1-2.2 11 0 4.9.4 9.1.9 9.4 1.9 1.2 3.1-2.4 2.9-9.1-.1-3.8.2-7.5.6-8.1.4-.7 3.5-1.2 7.9-1.2 7.4 0 10.5-1 9.3-2.9-.4-.7-4-1.1-9-1.1-6.9 0-8.6.3-10.4 2m59.2-.9c-1.2 1.9 1.9 2.9 9.3 2.9 4.6 0 7.5.4 8 1.2.4.7 1 4.8 1.3 9.1.3 4.2 1 7.7 1.5 7.7.6 0 1.1-3.9 1.3-9.2.4-12-.4-12.8-12.4-12.8-5 0-8.6.4-9 1.1M1485 745l-10.5 10h-6.1c-5.3 0-6.3.3-8.7 2.8-2.7 2.8-2.7 3-2.7 16.4 0 13.6 0 13.7 2.6 15.7 2 1.6 4.1 2.1 8.6 2.1h6l8.1 7.7c4.5 4.3 8.9 8.8 10 10 1.2 1.6 2.9 2.3 5.3 2.3h3.4v-77h-2.7c-2.1.1-5.3 2.5-13.3 10m12 29.1c0 37.7.4 35.9-5.9 28.5-1.4-1.5-5.5-5.5-9.3-8.7-6.8-5.9-6.9-5.9-13.3-5.9-8.1 0-8.5-.6-8.5-14.2 0-13.7.7-14.8 9.6-14.8h6.5l9.7-9.5c5.3-5.2 10-9.5 10.5-9.5.4 0 .7 15.4.7 34.1m-252.7-32c-5.7 4-6 6.8-.5 4 4.6-2.3 6.9-4.8 5.6-6.1-.5-.5-2.7.4-5.1 2.1m-68.7-1.2c-.7 1.1 9.2 7.6 10.2 6.6.8-.8-6.6-7.5-8.4-7.5-.7 0-1.5.4-1.8.9m347.4.3c0 .7 1.9 3.1 4.2 5.3 2.2 2.2 5.5 6.9 7.1 10.5 2.8 5.9 3.1 7.4 3.1 16.5 0 12.5-2.3 19-9.6 27-4 4.4-4.8 5.9-3.9 6.8 1 .9 2.4 0 6.3-4.3 14.8-16 15.2-39.8.9-57.8-3.9-4.9-8.1-7-8.1-4m-323.1 2.6-3.2 2.9.2 16.4c.2 14.7 0 16.9-1.8 20.9-1.5 3.2-2.1 6.6-2.1 11.9v7.4l4.3 4.1c2.4 2.3 6.8 6.1 10 8.5l5.7 4.3 3.2-2.5c1.8-1.3 6.1-5.1 9.6-8.4l6.2-5.8V795c-.1-5.5-.6-9.4-1.5-11-1.1-1.9-1.4-6.5-1.5-18.3 0-23.1-1.1-24.7-17-24.7-8.4 0-9.2.2-12.1 2.8m23.5 3.4c1.3 1.8 1.6 5.5 1.6 19.1 0 12.8.3 17.3 1.4 19 1.5 2.2 2.1 7.2 1.8 13.8-.2 3.3-1.1 4.4-7.4 9.8-4 3.4-7.5 6.1-7.8 6.1-.9 0-13.2-9.9-14.7-11.8-1.8-2.2-1.6-14.1.2-17.2 1.1-1.9 1.4-6.7 1.5-19.8 0-21.6-.2-21.2 12.9-21.2 8.2 0 9.1.2 10.5 2.2"/><path d="M1206 753.5c0 .9.5 1.5 1.1 1.3s1.1-.8 1.1-1.3-.5-1.1-1.1-1.3-1.1.4-1.1 1.3m10 0c0 .8.7 1.5 1.5 1.5s1.5-.7 1.5-1.5-.7-1.5-1.5-1.5-1.5.7-1.5 1.5m-10.3 13.3c-1.4 1.6-1.7 4.3-1.7 17.3v15.5l3.1 3c1.7 1.6 3.7 4.2 4.4 5.8l1.3 2.9.7-2.4c.4-1.3 2.3-4.1 4.1-6.2l3.4-3.7v-15.3c0-13.6-.2-15.6-1.8-17-2.6-2.4-11.3-2.3-13.5.1m9.1 1.8c2.2.6 2.2.9 2.2 15.2 0 13.6-.1 14.7-2.2 16.9l-2.2 2.3-2.3-2.2c-2.2-2.1-2.3-2.8-2.3-16.8 0-8.1.3-15 .7-15.3.8-.9 3.1-.9 6.1-.1m528.9-24.5c-2 1.5-2 2-.9 14 1.2 13.4 2 14.9 7.3 14.9 2.4 0 2.7.4 3.3 4.9.8 6.3 5.7 12.8 12.2 16.1 5.8 2.9 6.4 3.6 6.4 7.2s2.5 4.8 9.9 4.8c5.4 0 6 .2 6.3 2.2.6 4 15.6 6.2 22.5 3.3 9-3.8 9.8-8.3 2.4-14.5-4.9-4-5.1-4.1-11.8-3.8l-6.8.3-.3 7.2c-.3 8.4-2 9.8-2.4 2.1-.2-4.1-.7-5.4-2-5.6-1.4-.3-1.8.3-1.8 2.3 0 2.6-.1 2.6-6.2 2.3l-6.3-.3-.5-4c-.4-3.5-.9-4-3.8-4.6-1.7-.4-4.8-1.7-6.7-3-3.7-2.5-8.5-10.7-8.5-14.6 0-2 .5-2.3 4-2.3 4 0 4 0 4 3.9 0 4.4 2.6 8.3 7 10.6 3.8 2 5.6 1.9 10.6-.5 4.5-2.2 7.4-6.7 7.4-11.4 0-2.3.4-2.6 3.5-2.6s3.5.3 3.5 2.7c0 4.7-3.7 10.6-8.8 14-2.6 1.8-5.5 3.3-6.4 3.3-1.8 0-3.2 2.6-1.8 3.5 1.6 1 12.8-5.5 16-9.1 1.6-1.9 3.4-5.3 4-7.6 1.7-6.7 1.8-6.8 4.9-6.8 4.4 0 5.4-2.8 5.9-15.5.4-10.3.2-11.2-1.8-13.3l-2.2-2.4-30.1.3c-26 .3-30.3.5-32 2m62.3 4.9v3h-29.9c-16.5 0-30.2-.4-30.5-.8-.3-.5-.2-1.8.1-3 .5-2.2.6-2.2 30.4-2.2h29.9zm0 11.7c0 3.2-.4 6.3-.8 7-1 1.6-16.6 1.9-23.3.3-4.8-1.1-6.3-1-11.1.4-3.2.9-9.2 1.6-14.2 1.6-7.1 0-8.7-.3-9.4-1.8-1.1-2-2.3-11.8-1.6-12.5.3-.2 14-.5 30.4-.6l30-.1zm-24.8 12c2.8 2.5 2.3 7-1.2 10.4-3.2 3.3-5.7 3.3-9.4 0-4.4-3.8-3.7-8.3 1.7-10.6 4.3-1.9 6.7-1.8 8.9.2M1808 803v6h-10v-12h10zm6.4-.4c.4.9.1 2.3-.6 3.2-1.1 1.3-1.3 1.1-1.9-.9-.9-3.8 1.2-5.7 2.5-2.3m-464.9-57.9c-4.9 2.5-7.3 5.3-9.1 10.2-1 2.5-3.2 6.1-5.1 7.8-2.9 2.8-3.2 3.6-2.3 5.3.6 1.2 1.8 2.4 2.5 2.6.8.3 2.6 4.1 4 8.3 1.6 5 3.6 8.8 5.5 10.6s3 3.9 3 5.6c0 2.6-.4 2.8-4.2 3.1l-4.3.3v15l4.8.3c4 .3 4.9.7 5.7 2.7 1.7 4.5 14.1 4.3 14.8-.3.3-1.8 1-2.2 4.3-2.2 6.3 0 7.9-1.3 7.9-6.5 0-2.4-.4-5.5-1-6.9-.8-2.2-1.6-2.6-5-2.6-3.7 0-4-.2-4-2.8 0-1.8 1-3.8 2.6-5.3 3.6-3.3 6.3-9 7.9-16.3 2.7-13-2.5-26-11.8-29.5-4.1-1.6-12.7-1.3-16.2.6m15.5 3.5c6.2 3.2 9 8.8 9 17.9 0 8.7-2.9 16.8-7.7 21.4-3.2 3.1-4.2 3.5-8.8 3.5s-5.6-.4-8.7-3.5c-2.5-2.3-4.3-5.5-5.8-10.2-1.3-3.7-3.1-7.7-4.1-8.9-1.9-2-1.9-2.1 1.1-4.9 1.6-1.5 3.2-4.2 3.6-5.9 1-4.7 3.4-7.7 7.9-9.7 5.3-2.4 8.2-2.4 13.5.3m-.2 48.1c.3 1.5-.5 1.7-6.7 1.7-5.5 0-7.1-.3-7.1-1.4s1.5-1.6 5.3-1.9c7.4-.5 8.1-.4 8.5 1.6m8 6.9c.3 1.5-.4 1.8-4.2 1.8-3.4 0-4.6.4-4.6 1.5s1.2 1.5 4.5 1.5 4.5.4 4.5 1.5c0 1.3-2.3 1.5-15 1.5s-15-.2-15-1.5c0-1.2 1.7-1.5 8.9-1.5 5 0 9.3-.4 9.6-1 .9-1.5-3.6-2.2-11.4-1.8-6.8.3-7.1.2-7.1-2v-2.3l14.7.3c13.1.3 14.8.5 15.1 2M1362 815c0 .5-1.8 1-4 1s-4-.5-4-1c0-.6 1.8-1 4-1s4 .4 4 1"/><path d="M1348.6 760.1c-3.4 2.7-3.7 8.8-.4 11.9 5.1 4.7 12.8.8 12.8-6.6 0-6.7-6.9-9.6-12.4-5.3m7.8 2.4c2.6 2 1.4 6.3-2.1 7.1-1.9.5-3 .2-4-1.1-1.7-2.5-1.7-3.1.7-5.5s2.9-2.4 5.4-.5m-183.8-17.8c-2 2 .7 4.3 7.7 6.3 1.9.6 2.7.5 2.7-.4 0-1.5-9.4-6.9-10.4-5.9m-418.1 1.9c-1.6.8-4.1 2.6-5.6 4-1.4 1.3-3 2.4-3.6 2.4-2.3 0-2.5 2.3-.5 5s2.1 3.7 1.5 19.3-.5 16.7 1.6 21c4.1 8.5 4.7 8.6 36.5 8.7 31.7.1 32.3 0 36.4-8 2.3-4.3 2.3-5.2 1.9-21.1-.4-15-.2-16.8 1.5-18.8 3.1-3.9 2.7-4.5-7.8-11.6l-3.7-2.5h-27.6c-23 0-28.1.3-30.6 1.6m60.7 4.3c5.5 3.5 6.4 4.7 4.8 6.6-.9 1.1-1.2 6.6-1.1 19.5.3 27.7 1.2 27-34.4 27s-34.9.5-34.4-26.4c.2-9.4-.1-18.1-.5-19.4-.9-2.7 1-5.3 5.9-8.3 2.7-1.7 5.4-1.9 29.1-1.9h26z"/><path d="M762 758.7c-1.7 2.2-2 3.8-1.8 9.2l.3 6.6 22.8.3c14.9.1 23.5-.1 24.8-.8 1.8-1 1.9-1.8 1.3-7.3-1.1-11.1-.1-10.7-24.4-10.7h-20.9zm43 2.3c.6 1.2 1 4 .8 6.3-.3 3.8-.6 4.2-2.8 4.1-1.4 0-10.9-.1-21.2-.2L763 771v-3.4c0-1.9.4-4.6 1-6l1-2.6h19.4c18.6 0 19.6.1 20.6 2m-44.3 20.7c-1.1 1 1.3 3.2 2.9 2.6 2-.8 1.7-3.3-.4-3.3-1 0-2.2.3-2.5.7m9 0c-1.8 1.7 0 2.3 7.3 2.3 6.4 0 8-.3 8-1.5s-1.5-1.5-7.3-1.5c-4.1 0-7.7.3-8 .7M790 787c0 4.7.3 6 1.5 6s1.5-1.3 1.5-6-.3-6-1.5-6-1.5 1.3-1.5 6m8.7-2.3c-1.1 1.1-.8 4.8.5 6.1.7.7 2.9 1.2 5 1.2 3.2 0 3.9-.4 4.4-2.5 1-4.2-.1-5.5-4.9-5.5-2.4 0-4.7.3-5 .7m6.3 2.9c0 .9-.7 1.4-1.7 1.2-2.5-.5-2.8-2.8-.4-2.8 1.2 0 2.1.6 2.1 1.6m-44.3 2.8c-.7 1.8.1 2.6 2.5 2.6 1.3 0 1.8-.6 1.6-1.7-.4-2.2-3.4-2.9-4.1-.9m9 .2c-1.6 1.6 1 2.4 7.9 2.4 5.9 0 7.4-.3 7.4-1.5s-1.5-1.5-7.3-1.5c-4.1 0-7.7.3-8 .6M907 746.9c-.7 1.3-.9 9.6-.8 23.3l.3 21.3 7.3.3c5.8.2 7.2 0 7.2-1.2 0-1.1-1.4-1.6-5.2-1.8l-5.3-.3v-7l11.3-.3c8.4-.2 11.2-.6 10.9-1.5-.2-.8-3.9-1.3-11.5-1.5l-11.2-.3V771h11.5c9.2 0 11.5-.3 11.5-1.4 0-2.1-2.1-2.5-11-2-10.7.6-12 .2-12-4.2V760h13c10.8 0 13-.3 13-1.5s-2.3-1.5-12.7-1.7l-12.8-.3v-8l15.3-.3 15.2-.3V788h-5c-4.1 0-5.6.5-7.5 2.5-2.3 2.3-2.5 3.1-2.5 13s.2 10.7 2.5 13c2.2 2.3 3.1 2.5 12.9 2.5 16.2 0 17.6-1.3 17.6-16.4 0-11.8-1.5-14.3-8.8-14.8l-4.7-.3-.5-21-.5-21-18.2-.3c-17.3-.2-18.3-.1-19.3 1.7m46.4 45.7c1.2 1.2 1.6 3.6 1.6 10 0 12.4 0 12.4-12.3 12.4-6.7 0-10.7-.4-11.5-1.2s-1.2-4.7-1.2-11c0-8.2.3-9.9 1.8-10.7.9-.6 5.8-1.1 10.9-1.1 7 0 9.5.4 10.7 1.6"/><path d="M935.1 800.8c-2.7 1.9.1 3.2 6.7 3.2s10.4-1.2 8.9-2.7c-1.2-1.1-14-1.5-15.6-.5m311.1-53.2c-2.8 1.7-4 3-3.4 3.6 1.2 1.2 10.2-3.1 10.2-4.9 0-2-2-1.6-6.8 1.3m353.8-.4c0 1.2-.7 3-1.7 4-1.5 1.7-1.5 1.9 0 3.6 1.4 1.6 1.7 4.3 1.7 17.5 0 10-.4 16.6-1.2 18.2-.9 2.1-.9 3.1 0 4.6.7 1 1.2 2.8 1.2 3.9 0 1.3.7 2 2 2 1.5 0 2-.7 2-2.9 0-2.6.4-3 3.2-3.3q3.3-.3 3.6-2.1c.3-1.4-.4-1.7-3.2-1.7h-3.6v-36h2.8c3.4-.1 61.1-.1 67.5 0h4.7v36h-4c-3.2 0-4 .4-4 1.9 0 1.1.7 1.8 1.8 1.8 5.5 0 6.2.3 6.2 2.8 0 1.8.5 2.5 2 2.5 1.9 0 2-.7 2-24.5V751l-39.2-.2-39.3-.3-.3-2.8c-.4-3.4-4.2-3.9-4.2-.5m-85.9 2.1c-.9 1.1-.4 2.2 2.3 5.2 10.4 11.3 10.4 27 .1 39.3-2.8 3.4-3.2 5.2-1.1 5.2 1.9 0 7.1-6.3 9.9-12 3.4-6.9 3.1-19.6-.5-27-1.5-3-4.2-7-6.1-8.8-2.8-2.7-3.6-3.1-4.6-1.9"/><path d="M1647.7 756.6c-.4.4-.7 8.3-.7 17.6V791h-4.5c-3.8 0-4.5.3-4.5 1.9 0 1.8.8 1.9 11.5 1.9 10.6 0 11.5-.1 11.5-1.9 0-1.6-.7-1.9-5-1.9h-5l-.2-17.2c-.3-16.1-.9-19.4-3.1-17.2m-142.7 3.6c0 .7 1.2 3.1 2.5 5.3 3.2 5.2 3.2 10.7 0 16.4-3.8 6.6-3.1 9.5 1.3 4.8 4.8-5.1 5.8-16.5 2.1-22.7-2.9-4.7-5.9-6.6-5.9-3.8m109 19.3c0 19.8.1 20.5 2 20.5s2-.7 2-20.5-.1-20.5-2-20.5-2 .7-2 20.5m16.8-4.8-.3 15.8-4.7.3c-4.1.3-4.8.6-4.8 2.4s.5 2 4.5 1.6c4.1-.3 4.4-.1 4.7 2.2.2 1.4 1 2.6 2.1 2.8 1.6.3 1.7-1.2 1.7-20.2 0-17.5-.2-20.6-1.5-20.6-1.2 0-1.5 2.7-1.7 15.7m32.7-9.5c-.3 3.5-.5 12.6-.3 20.3.3 12.4.5 14 2.1 14.3s1.7-1.2 1.7-20.2c0-17.1-.2-20.6-1.4-20.6-1 0-1.6 1.8-2.1 6.2m-711.3 14.9c.2.6.8 1 1.3 1s1.1-.4 1.3-1-.4-1.1-1.3-1.1-1.5.5-1.3 1.1m143.9 2.7c-4.4 1.3-6.1 1.3-9.8.4-5.3-1.5-6.4-1-6.1 2.6.1 1.5-.6 4.2-1.5 5.9-2.4 4.5-3.2 11.4-1.8 15.6 2.3 6.8 12.3 12.9 18.6 11.3 1.4-.4 4.6-2.5 7-4.7 6.9-6.4 8.1-13.1 4.4-25.7-2.4-8-2.2-7.9-10.8-5.4m7.3 7.2c3.6 9.1 1.3 18.8-5.6 23-4.1 2.5-5.9 2.5-10.8 0-7.4-3.8-8.9-10.9-4.2-19.8l2.8-5.3 5.8-.4c3.2-.2 6-.6 6.4-.9 1.7-1.7 4.1-.3 5.6 3.4m213.3-8.3c-.4.3-.7 5.3-.7 10.9 0 12.3.1 12.4 11.4 12.4 5.8 0 7.6-.3 7.6-1.4 0-2-2.3-2.6-9.1-2.6h-5.9v-8.9c0-6.2-.4-9.2-1.3-10-.8-.6-1.7-.8-2-.4m80.2-.5c-.1.2-.7 4.6-1.3 9.8l-1.1 9.5-7 .5c-5.6.4-7 .8-7.3 2.2-.3 1.6.6 1.8 7.3 1.8 11.4 0 11.5-.1 11.5-12.5 0-5.8-.4-10.7-1-11-.5-.3-1.1-.5-1.1-.3M1049 783c-.8.5-4.4 1.9-8 3.1-11.2 3.8-12.3 5-15.1 16.6l-1.6 7.3h32.5c.4 0 .7-.6.7-1.3 0-.9-3.7-1.3-14.3-1.5l-14.3-.3.6-3.2c1.9-8.5 3.4-10.5 9.3-12.6 3.2-1.2 7-2.8 8.6-3.6 1.6-.9 3-1.4 3.1-1.3.1.2 2.3 3.1 4.9 6.5 2.6 3.5 5.4 7.9 6.2 10 1.5 3.6 1.5 3.8-.5 5.1-3.6 2.4-2.5 3.5 3.2 2.8 2.8-.3 5.5-.6 6-.6.4 0 .7-1.6.7-3.6 0-1.9 1.2-6.4 2.6-10 1.4-3.5 2.4-7.4 2.2-8.7-.3-2-1-2.2-6.2-2.5-7.3-.4-9.3.2-7.6 2.3.8.9 3 1.5 5.6 1.5 2.4 0 4.4.3 4.4.6 0 1.5-4.2 7.2-5.6 7.8-1.8.7-4.6-2.1-10-10-3.8-5.5-4.8-6.1-7.4-4.4m19 18c0 1.1-.4 2-1 2-.5 0-1-.9-1-2s.5-2 1-2c.6 0 1 .9 1 2m-155 .5c0 1.2.8 1.6 3.3 1.3 1.7-.2 3.2-.8 3.2-1.3 0-.6-1.5-1.1-3.2-1.3-2.5-.3-3.3.1-3.3 1.3m424.9 62.5c-7 .9-13.9 5.4-16.5 10.7-1.7 3.4-1.9 6.7-2.2 29.3-.3 24.9-.2 25.6 2 30 1.3 2.6 4.1 5.7 6.6 7.5l4.4 3 23.6.3c25.1.4 30.6-.3 33.9-4.1 1.8-2 1.8-2-1.2-1.2-4.7 1.2-49.5 2.1-53.9 1.1-5-1.2-10.2-6.4-11.7-11.8-1.6-6.1-.3-48 1.6-51.8 3.2-6.2 10.5-10 19.2-10 5 0 9.7-1.6 8.8-3-.7-1.1-6.1-1.1-14.6 0m458.9 4.7c-5.9 4-9.7 5.9-13.3 6.4-6.4 1.1-9.6 3.6-11.5 8.9-1.2 3.6-2.9 5.4-9.3 10.2-6.6 4.9-8.5 5.8-12 5.8-7.2 0-12.3 4.7-13.3 12.2-.5 3.5-.1 5 1.8 7.8 2.5 3.7 7.8 6.9 11.6 7 1.7 0 2.2.5 1.8 1.7-.2 1-.7 3.4-1.1 5.3-1.2 6.2-1.5 6.9-4.3 7.2-1.5.2-2.7.7-2.7 1.3 0 1.2 19.5 2.3 33 1.9 7.9-.3 10.1-.7 10.3-1.9.3-1.1-.6-1.5-3.6-1.5h-3.9l-4.8-13.5c-2.6-7.4-5.2-13.8-5.7-14.1-.5-.4-1.4-.2-2 .4-.7.7.5 5 3.6 13.1 2.5 6.6 4.6 12.5 4.6 13.1s-4.1 1-11 1c-6 0-11-.1-11-.3 0-.1.6-3.3 1.4-7.1 1.3-5.8 2-7.3 5-9.8 2.6-2.1 3.8-4 4.2-6.8.7-4.2 2-5.6 10.8-11.8 4.4-3.1 6.9-4.2 9.6-4.2 4.7 0 9.9-3.4 12.2-7.9.9-1.9 2.4-4.1 3.3-5 1.3-1.4 1.5-1.1 1.5 3.1 0 4.1.5 5.1 4.6 9.4 2.5 2.7 5.3 6.1 6.2 7.6 2 3.4 4.2 3.5 7.8.5 3.3-2.9 2.9-4.6-2.7-10.7-4-4.4-4-4.4-3.5-11 .2-3.6.8-8.2 1.1-10.3.9-4.6-2.2-9.7-7.1-12.1-3.2-1.5-3.3-1.5-11.6 4.1m13.3 1.2c3.2 3.3 3.5 5.4 1.4 9.1-.8 1.5-1.4 5.3-1.5 9.3 0 5.3-.4 6.9-1.6 7.4-2.4.9-3.4-1.5-3.4-8 0-4.9.4-6.1 2.5-8.1 2.9-2.7 3.2-5.7.9-8s-5.1-1.9-7 .9c-1.4 2.1-1.4 3-.4 5.4.9 2.3.9 3.3-.2 5-1.6 2.7-2.4 2.6-3.9-.2-.6-1.2-2-3.2-3.1-4.4l-2-2.1 6.8-4.6c3.8-2.5 7.3-4.6 7.7-4.6.5 0 2.2 1.3 3.8 2.9m-4.1 5.6c0 .8-.4 1.5-1 1.5-.5 0-1-.7-1-1.5s.5-1.5 1-1.5c.6 0 1 .7 1 1.5m-13.2 7.1c4.3 4.9 1.6 12.1-5.4 14.4-2.9 1-3.9.9-6.7-.7-4.4-2.6-6.2-6-5.3-10.7 1.4-7.6 11.9-9.4 17.4-3m-19 11.9c.6 1.4 1.6 2.5 2.2 2.5 2.6 0 .4 2.9-5.7 7.5-8.8 6.6-9.3 7.2-9.3 10.5 0 4.1-4.9 8-10.2 8-5.1 0-9.8-4.3-9.8-9 0-6.7 5.5-11.9 11.1-10.5 2.5.6 7.5-2.2 16.4-9.1 3.7-3 3.9-3 5.3.1m43.1 7.5c2 2.8 2.1 5 .1 5-.8 0-5-6.1-5-7.4 0-1.7 2.9-.3 4.9 2.4"/><path d="M1781.8 884.2c-2.6 2.2-2.9 4.7-.8 6.8 1.1 1.1 2.6 2 3.3 2 2.2 0 5.7-3 5.7-5 0-1.9-3.5-5-5.5-5-.6 0-1.8.6-2.7 1.2m4.2 3.8c0 .5-.4 1-1 1-.5 0-1-.5-1-1 0-.6.5-1 1-1 .6 0 1 .4 1 1m-37.8 21.6c-3.9 2.7-2.3 8.4 2.3 8.4 2.5 0 5.5-2.9 5.5-5.3 0-1.4-3.5-4.7-5-4.7-.3 0-1.6.7-2.8 1.6m3.3 3.3c.3.5.1 1.2-.5 1.6-.5.3-1-.1-1-.9 0-1.8.6-2.1 1.5-.7m-659.5-45v3.6c0 .3.3.5.7.5 1.1 0 1.2-5.9.2-6.6-.5-.3-.9.9-.9 2.5m5-1.9c0 .6 2.8 1 6.5 1s6.5-.4 6.5-1-2.8-1-6.5-1-6.5.4-6.5 1m-54 2c-1.9 1.9-2 3.3-2 23.8v21.8l-3.1 4.2c-5.3 7.3-5.2 16.6.4 22.9 10.1 11.5 28.6 7 32.8-8.1 1.3-4.7-.1-10-4.3-15.7l-3.2-4.4v-21.8c-.1-25.8.4-24.7-11.3-24.7-6 0-7.7.4-9.3 2m17 25.5v22.4l2.5 1.9c3.6 2.9 5.8 8.6 5 13.4-1.2 6.8-8.2 12.8-15 12.8-3.1 0-9.3-3-11.8-5.8-4.5-4.9-3.9-13.7 1.3-19.6l3-3.3.2-22.4.3-22.4 6-.5c3.3-.3 6.6-.1 7.3.4.9.6 1.2 6.4 1.2 23.1"/><path d="M1051 903.9v15l-3.1 1.6c-3.2 1.7-6 6.8-5.2 9.4 2 6.4 6.5 9.7 11.8 8.7 4.5-.9 7.5-4.8 7.5-9.9 0-3.2-.6-4.6-3.5-7.2l-3.4-3.3-.3-14.3c-.3-12.8-.5-14.4-2-14.7-1.7-.3-1.8.9-1.8 14.7m5.4 20.6c3.1 2.9 3.3 5.8.6 8.5s-6.2 2.5-8.9-.4c-2.9-3.1-2.2-6.9 1.7-9 3.6-2 3.5-2 6.6.9m597-56.9c-4 2-5.4 5.1-5.4 12.3 0 5 .4 6.1 2.8 8.3 1.5 1.4 3.6 2.8 4.7 3 1.7.3 2 1.2 2.3 7.2.2 3.8-.1 7.3-.7 7.9-.8.8-26.9 1-48.3.4-5.1-.1-7.8 2.5-7.8 7.5 0 5.3 1.3 7.4 5.4 8.8 2.8.9 4 .8 6.5-.5 2.6-1.3 6.5-1.5 23.8-1.3l20.8.3.3 8c.4 10.5-.1 12.3-3.6 12.7-1.6.2-2.7.9-2.7 1.8 0 1.2 1.6 1.5 8 1.5s8-.3 8-1.5c0-.9-1.2-1.7-3-2l-3-.5v-20l7.3-.3 7.2-.3v10.4c0 9.8-.1 10.5-2.1 11-4.3 1.1-1.3 3.2 5 3.5 5.6.3 6.2.1 5.9-1.5-.2-1-1.3-1.9-2.5-2.1-2.2-.3-2.3-.6-2.5-17.5l-.3-17.2-9-.1h-9v-15.9l4-.3c4.2-.4 6.8-1.8 5.9-3.3-.3-.5-4.3-.8-8.9-.7-7.4.3-8.6.1-9.9-1.7-2-2.6-2-10.4-.1-13.2 2.2-3.2 7.1-3.9 10.4-1.6 1.7 1.3 3.6 1.7 5.5 1.3 3.7-.6 3.6-2.3-.1-3.1-1.5-.3-3.8-1.1-5-1.7-2.9-1.6-6.2-1.5-9.9.4m-41.3 43.4c2.3 1.3 2.5 4.7.2 7.2-2 2.2-4.1 2.3-6.5.1-2.1-1.9-2.3-3.6-.6-6.3 1.4-2.2 3.9-2.6 6.9-1m14.9.6c0 2.1-4.4 6.4-6.6 6.4-2.1 0-2.4-.5-2.4-3.5 0-3.5 0-3.5 4.5-3.5 2.5 0 4.5.3 4.5.6m12.1 1.1c-2.5 4.3-3.9 5.3-7.5 5.3-2 0-3.6-.2-3.6-.5s1-1.9 2.2-3.5c1.8-2.4 2.9-3 6-3 3.4 0 3.7.2 2.9 1.7m11.9-.5c-.1.7-.9 2.3-2 3.6-1.5 1.8-2.7 2.3-5.4 2l-3.5-.3 2-3.3c1.7-2.6 2.8-3.2 5.5-3.2 2.1 0 3.4.5 3.4 1.2m12.1.5c-2.4 4.1-4 5.3-7 5.3-3.6 0-3.7-.2-1.4-4.1 1.4-2.4 2.4-2.9 5.6-2.9 3.3 0 3.6.2 2.8 1.7m11.9-1c-.1.5-1.1 2.1-2.4 3.6-1.8 2.2-3 2.8-5.4 2.5l-3.1-.3 2-3.3c1.7-2.6 2.8-3.2 5.5-3.2 1.9 0 3.4.3 3.4.7m2 5.3c0 .5-.5 1-1.1 1-.5 0-.7-.5-.4-1 .3-.6.8-1 1.1-1 .2 0 .4.4.4 1m-325.9-47.8c-5.2 1.5-7.8 3.6-10.1 8.3-2 4.1-2.1 5.7-1.8 27.9l.3 23.5 3 3.1c3.6 3.7 8.6 5.2 16.8 4.8 4.9-.2 6.2-.6 6.5-2.1s-.6-1.7-8-1.7c-12.9 0-15.8-3.3-15.8-17.9 0-6.6.3-8.2 1.8-9 1.6-1 1.6-1-.2-1.1-1.7 0-1.8-.9-1.5-11.9.3-10.2.7-12.4 2.5-14.8 3.9-5.3 7.4-6.3 23.2-6.3 16.2 0 19.6.9 23.3 6.1 2.3 3.3 2.4 4.1 2.7 25.1.2 12 .2 21.8-.1 21.8s-2.1-1.6-4.1-3.6c-3.3-3.3-3.9-3.5-8.8-3.2l-5.3.3-.3 7.2-.3 7.3h-2.9c-2.3 0-3 .5-3 2 0 1.8.7 2 7.8 2 6.3 0 8.8-.5 12.8-2.5 7.8-3.9 7.8-3.8 7.6-29.9-.3-25.1-.7-27.3-6.4-32.1-1.6-1.3-4.5-2.9-6.6-3.5-4.6-1.2-28.5-1.2-33.1.2m37.2 56.6 2.8 2.9-2.7 2.2c-1.5 1.2-4.1 2.1-6 2.1h-3.4v-5.4c0-4.4.3-5.5 1.8-5.9 2.3-.5 4.1.5 7.5 4.1m68.6-55.4c-.1.9-.3 2-.4 2.6-.1.5-.3 6.4-.4 12.9l-.1 12-3.2.3c-3.3.3-3.3.3-3.3 5.8v5.5l3.5.5 3.5.5.3 15.8c.2 12 .6 15.7 1.5 15.4s1.3-4.8 1.5-16l.3-15.7h3.4c3.8 0 5-2 4.3-7.6-.3-2.5-.8-3-3.8-3.4l-3.5-.5-.5-14.4c-.4-10.3-.9-14.6-1.7-14.9-.7-.2-1.4.3-1.4 1.2m5.9 31.2c1.6.5 2.2 1.3 2 2.8-.3 1.8-1.1 2.1-6.1 2.4-6 .3-7.7-.8-6.3-4.3.6-1.6 6.1-2 10.4-.9m36.9-30.9c-.4.3-.7 5.1-.7 10.5v9.8h-3.5c-1.9 0-3.5.3-3.6.7-1 9.4-.7 10.3 3.7 10.3h3.4v18.1c0 16.6.1 18 1.8 17.7 1.5-.3 1.7-2.1 2-18l.2-17.7 3.3-.3c3.1-.3 3.2-.4 3.5-5.6l.3-5.2h-7.1v-8.9c0-10.8-.9-13.9-3.3-11.4m7.3 25.8c0 2.5-.1 2.6-6.2 2.3-5.7-.3-6.3-.5-6.6-2.6s0-2.2 6.2-2.2c6.4 0 6.6.1 6.6 2.5M1098 872c0 .5 1.8 1 4 1s4-.5 4-1c0-.6-1.8-1-4-1s-4 .4-4 1m86 4.2c-5.4 3.6-5.9 6.4-5.9 32.8-.1 20.4.1 24 1.7 27 2.8 5.7 4.3 6 32.3 6.3 24 .2 25.5.1 28.1-1.8 1.5-1.1 3.2-3.6 3.8-5.5 1.3-4.6 1.3-47.4 0-52.2-2-7.1-3.4-7.4-31.5-8.2l-25-.7zm22.2 4c-.2 1.3.4 1.8 1.9 1.8s1.9-.5 1.5-1.5c-.8-2.3 26.5-2.2 28.8.1 2.6 2.5 2.7 4.8 2.4 30.3l-.3 24.3-2.5 2c-2.3 1.9-3.5 1.9-27.5 1.4-29.8-.7-28.8-.2-28.3-12 .3-7.1.3-7.1 3.1-6.8q2.7.3 2.7-1.2c0-.9-1.1-1.6-2.7-1.8l-2.8-.3-.3-15c-.3-16.7 0-18.7 2.9-21.6 1.7-1.7 3.1-1.9 11.7-1.7 8.6.3 9.7.5 9.4 2"/><path d="M1199.4 892.9c-9.8 6-9.9 21.7-.2 26.7 10.6 5.5 23.6-2.9 22.5-14.5-1.1-10.8-13.5-17.6-22.3-12.2m11 2.5c9.3 3.9 10.2 15.9 1.6 21-3.7 2.1-6.8 2-10.8-.4-4.4-2.7-6.7-8-5.2-12.4 1.4-4.4 6-8.5 10.8-9.5.1-.1 1.7.5 3.6 1.3m16.6-2.4c-2.3 2.3-2.5 3.8-.7 6.1 2.1 2.8 5.4 3.2 7.6 1 2.6-2.6 2.7-5.3.3-7.4-2.5-2.2-4.8-2.1-7.2.3m5.5 2c.4.6.1 1.8-.6 2.6-1.1 1.3-1.4 1.3-2.7 0-.8-.8-1.1-1.9-.8-2.5.9-1.4 3.3-1.4 4.1-.1m-3 13c-.7 1.2.2 3 1.6 3 .5 0 .9-.9.9-2 0-2.1-1.5-2.7-2.5-1m.2 8.6c-.8.8.1 2.4 1.4 2.4.5 0 .9-.7.9-1.5 0-1.5-1.2-2-2.3-.9m5.3 3.9c0 1.7.2 1.8 2.4.9 2.3-.9 2-2.4-.4-2.4-1.1 0-2 .7-2 1.5m-48 10c0 1.2.7 1.5 2.5 1.3 1.4-.2 2.6-.8 2.6-1.3 0-.6-1.2-1.1-2.6-1.3-1.8-.2-2.5.1-2.5 1.3m9 0c0 1.2 1.4 1.5 7.1 1.5 5.2 0 7-.3 6.7-1.3-.3-.7-2.9-1.3-7.1-1.5-5.5-.2-6.7 0-6.7 1.3m470-55.4c0 2 2.1 4.9 3.5 4.9q1.5 0 1.5-3c0-2.5-.4-3-2.5-3-1.4 0-2.5.5-2.5 1.1m-574 3.5c0 1.4.4 2.3 1 1.9.6-.3 1-1.5 1-2.6 0-1-.4-1.9-1-1.9-.5 0-1 1.2-1 2.6m-206.4.5-2.6 2v28.5c0 27.1.1 28.5 2 30.4s3.3 2 21.8 2c18.9 0 20-.1 21.8-2.1 1.7-1.9 1.9-4.2 2.2-28.3.1-14.3 0-27.1-.3-28.3s-1.5-3.2-2.7-4.3c-2-1.9-3.5-2-20.9-2-17.3 0-18.8.1-21.3 2.1m39.2 2.5c2.2 1.5 2.2 1.8 2.2 27.5 0 16-.4 26.8-1 28-1 1.8-2.3 1.9-18.8 1.9-9.7 0-18.3-.4-19-.9-1.8-1.1-1.9-54.6-.1-56.7 1.8-2.2 33.6-2 36.7.2"/><path d="M894.1 888.9c-1.2 2.1-1.5 15.9-.5 18.5.5 1.3 2.6 1.6 12.3 1.6 6.4 0 12.2-.4 12.9-.8.9-.6 1.2-3.5 1-10.8l-.3-9.9-12.2-.3c-11.3-.2-12.3-.1-13.2 1.7M916 891c0 .5-.4 1-.9 1-.4 0-2.8 1.6-5.2 3.5-2.6 2-5.5 3.5-7.1 3.5-2 0-2.6.4-2.2 1.4 1.3 3.3 6 2.4 12.3-2.5 2.9-2.3 4.1-1.7 4.1 2.4 0 5.6-.7 5.9-11.1 5.4l-9.4-.5-.3-6.3c-.2-3.4-.1-6.8.2-7.5.6-1.7 19.6-2 19.6-.4m-22.4 28.9c-.9 1.5 2.3 3.6 3.6 2.3.5-.5.7-1.5.4-2.1-.9-1.3-3.3-1.4-4-.2m8.4.6c0 .8.9 1.5 2 1.5s2-.7 2-1.5-.9-1.5-2-1.5-2 .7-2 1.5m10-.1c0 1.2 1 1.6 3.6 1.6 4.5 0 4.2-2.4-.4-2.8-2.4-.2-3.2.1-3.2 1.2m-18.6 8.7c-.9 1.5 1.2 3.3 3 2.6.9-.4 1.6-1.3 1.6-2.2 0-1.7-3.5-2.1-4.6-.4m8.8.6c.2 1 1 1.8 1.8 1.8 2.2 0 1.8-2.9-.3-3.3-1.4-.3-1.8.1-1.5 1.5m10.5-1c-1.5 1.5-.5 2.3 2.8 2.3 2.4 0 3.5-.5 3.5-1.5 0-1.5-5-2.2-6.3-.8M749.4 879c-5.1 2-5.4 3.6-5.4 30 0 13.5.3 25.5.6 26.8 1.4 4.9 3.6 5.2 41.8 5.2 30.9 0 35.7-.2 37-1.6 1.4-1.3 1.6-5.5 1.6-30.3 0-21-.3-29-1.2-29.9-1.4-1.4-70.9-1.6-74.4-.2m13.4 30.2.2 27.8h-6.3c-3.6 0-6.8-.5-7.5-1.2-.9-.9-1.2-7.9-1.2-25.4 0-23 .1-24.3 2.1-26.8 1.9-2.4 2.7-2.7 7.3-2.4l5.1.3zm57.7-.2v27.5l-26.7.3-26.8.2v-56l26.8.2 26.7.3z"/><path d="M787.9 888.3c-9.3 2.6-15.1 9.7-15.7 19.1-.5 7.7 2.2 14.1 8.1 19.1 11 9.4 27.1 6 33.6-7 8.6-17.2-7.4-36.3-26-31.2M800 892c4.4 1.2 9.3 6.1 11.5 11.4 2.1 4.9 1.2 12.2-1.9 16.8-4.6 6.9-15.4 10-22.4 6.4-6.8-3.5-12.3-11.7-12.2-18.2.1-3 3.5-9.7 6.5-12.7 4.4-4.3 11.4-5.7 18.5-3.7"/><path d="M785 897.1c-3.8 2.3-5.1 3.9-4.4 5.1.8 1.3 4.1.9 4.7-.6.3-.7 1.9-1.8 3.6-2.4 3.8-1.3 4.1.1 1.1 5-2.6 4.3-2.5 7.6.2 10.5l2.2 2.3-2.8 2.9c-2.8 2.9-2.8 5.1-.1 5.1.8 0 3.2-2.4 5.4-5.4 5.1-6.8 5.9-7.3 7.7-4.7 3 4.2 6.8 1 6.2-5.1-.4-4.6-2.6-4.7-3-.1l-.3 3.8-1.6-3.6c-.9-2-3.2-4.5-5.1-5.7-3-1.9-3.4-2.5-3-5.7.4-3.5.4-3.5-3.4-3.5-2.2 0-5.4.9-7.4 2.1m12.7 10.5c.8 2-.8 4.8-3 5.2-2.2.5-4.2-3.5-2.6-5.4s4.8-1.8 5.6.2"/><path d="M780 911.3c0 7.1.4 8.1 3.1 6.6 3.5-1.8 2-12.9-1.6-12.9-1.2 0-1.5 1.4-1.5 6.3m746.6-32.6c-.3.3-.6 1.4-.6 2.3s-1.3 3.1-3 4.8c-1.6 1.7-3.2 4.3-3.6 5.8-.9 3.5 1.4 7.8 4.4 8.2 2.5.4 3.2 4.2.7 4.2-.8 0-1.5-.5-1.5-1.2 0-.6-1.3.1-3 1.7l-3 2.9v12.3c0 14.7-.4 14.3 13.9 14.3 13.4 0 13.2.2 12.9-15.3l-.3-12.2-2.7-1.3c-3.3-1.5-3.6-4.2-.8-6.7 2.7-2.4 2.5-5.1-.5-8.1-2.4-2.3-2.8-2.5-4.7-1.2-3.4 2.3-3.3 3.8.1 3.8s4.4 2.6 1.4 3.7c-2.3.9-3.3 2.3-3.3 5 0 3.6-2.8 2.8-3.5-1-.5-2.5-1.4-3.6-3.6-4.4-2.3-.9-2.9-1.7-2.9-4.2 0-3.4.2-3.6 3.1-2.1 1.5.9 2.1.7 2.5-.5.3-.8 1.5-1.5 2.5-1.5 2.5 0 2.4-1.6-.1-3-1.1-.6-2-2.1-2-3.5 0-2.5-1.2-3.9-2.4-2.8m13.8 30.9c1.1 3 .6 18-.7 19.8-1.1 1.5-2.3 1.6-10.2.9l-9-.8-.3-9.4c-.1-5.2-.1-10 .2-10.8.4-.9 3.1-1.3 10-1.3 7.6 0 9.5.3 10 1.6"/><path d="M1528.7 914.6c-.4.4-.7 1.6-.7 2.6 0 1.4.6 1.9 2.3 1.6 1.4-.2 2.2-1 2.2-2.3 0-2-2.5-3.2-3.8-1.9m.3 8.9c0 1.7.5 2.5 1.3 2.2.6-.2 1.2-1.2 1.2-2.2s-.6-2-1.2-2.3c-.8-.2-1.3.6-1.3 2.3m-171.8-40.3c-.8.8-1.2 4.7-1.2 10.9v9.8l-4.2.3c-2.3.2-4.3.9-4.6 1.6-.3 1 4 1.2 20.9 1 15.9-.2 21.3-.6 21.7-1.6.2-.8-1-1.2-4.2-1.2h-4.6v-9.8c0-6.3-.4-10.2-1.2-11s-4.8-1.2-11.3-1.2-10.5.4-11.3 1.2m19.6 3.3c1.3.5 1.7 8.9.6 14.4l-.7 3.2-8.6-.3-8.6-.3-.3-8.7c-.3-8.3-.2-8.7 2-9 2.6-.4 13.7.1 15.6.7"/><path d="M1365.1 890.9c-2.2 1.4-.6 4.2 2.1 3.7 1.3-.3 3.3-.5 4.6-.5 2.5-.1 3-2.6.6-3.5-2.2-.9-5.7-.7-7.3.3m-268.1-5.6c-3.9 1.4-7.5 6.8-8.5 12.9-.6 3.5-.9 3.7-4.8 4-5.4.4-5 2.2.5 2.6 2.3.2 5.3 1.1 6.7 2.1 6 4.2 9.1 3.5 16.9-3.8 3.6-3.5 4.2-4.6 4.2-8.1 0-3.3-.6-4.8-2.9-7.1-1.6-1.6-3.6-2.9-4.4-2.9-.9 0-2.1-.2-2.9-.4-.7-.3-2.9 0-4.8.7m7.5 3.3c.8.4 2.2 1.9 3.1 3.5 1.9 3.7.4 7-2.9 6.6-1.7-.1-2.3.4-2.5 2.3-.7 5-4.7 6.6-8.4 3.3-2.3-2.1-2.3-6.4.2-11.2 2.4-4.8 5.8-6.3 10.5-4.5m374.2.1c-.4.3-.7 6.4-.7 13.5V915h-7v11h6.9l.3 6.2c.2 4.8.7 6.3 1.8 6.3s1.6-1.5 1.8-6.2c.3-6.2.3-6.2 3.5-6.5 3.1-.3 3.2-.4 3.2-5.3s-.1-5-3.2-5.3l-3.3-.3V903c0-13.7-.8-16.9-3.3-14.3m7.3 31.8c0 2.4-.3 2.5-6 2.5s-6-.1-6-2.5.3-2.5 6-2.5 6 .1 6 2.5m-544.6-28c-1.1 1.7-2.5 2.5-4.5 2.5-1.9 0-2.9.5-2.9 1.5 0 .9.9 1.5 2.3 1.5 1.3 0 3.2.9 4.2 2s2.7 2 3.7 2c1.1 0 2.2-.9 2.5-2 .4-1.7 1.4-2 5.8-2 3.9 0 5.6.5 7 2 1 1.1 2.9 2 4.2 2 2.7 0 6.3-3.3 6.3-5.8 0-5.5-6.9-8.2-10.5-4.2-1.4 1.5-3.1 2-7 2-4.4 0-5.4-.3-5.8-2-.7-2.8-3.3-2.5-5.3.5m24.3 5.2c-1.6 1.6-1.8 1.6-3.4 0-1.7-1.7-1.7-1.9.2-3.3 1.7-1.2 2.1-1.2 3.4.1 1.4 1.3 1.3 1.7-.2 3.2m-20.7-1.1c0 1.4-.4 2.3-1 1.9-.5-.3-1-1.5-1-2.6 0-1 .5-1.9 1-1.9.6 0 1 1.2 1 2.6m128.6 6.1c-1.1 1.1-.6 2.3.9 2.3.8 0 1.5-.4 1.5-.9 0-1.3-1.6-2.2-2.4-1.4m-132.1 5.7c-.9 1.3-2.7 2.7-4.1 3-2.9.8-3.2 2.6-.4 2.6 1.1 0 2.5.9 3.2 2s2.1 2 3 2c1 0 2.2-.9 2.8-2 1-1.8 2.1-2 11.8-2 11 0 15.1-1 12.2-3-.8-.5-6.1-1-11.7-1-9.2 0-10.4-.2-11.5-2-1.7-2.7-3.4-2.5-5.3.4m3.1 5.3c-1.1 1.1-1.7-.4-.9-2.3.7-1.8.8-1.8 1.1-.1.2 1 .1 2.1-.2 2.4m402.9 1.2c-.7 1.2 1.2 2.4 2.5 1.6 1.1-.7.4-2.5-1-2.5-.5 0-1.1.4-1.5.9m-406 10c-.4 1.3-1.7 2.1-3.8 2.3s-3.3.9-3.5 2c-.3 1.5.4 1.8 3.2 1.8 2.5 0 3.6.5 3.6 1.4 0 1.6 3.4 3.1 5 2.1.5-.3 1-1.3 1-2.1 0-2.3 9.6-1.9 12.7.6 1.4 1.1 3.4 2 4.4 2 2.6 0 5.9-3.5 5.9-6.3 0-5.1-7-7.6-10.5-3.7-1.4 1.5-3.1 2-7 2-4.4 0-5.4-.3-5.8-2-.7-2.6-4.4-2.6-5.2-.1m4.5 4.2c0 1.8-2.5 3.7-3.6 2.7-.2-.3 0-1.7.6-3.2 1.1-3 3-2.7 3 .5m20-1.6c1.5 1.8.5 3.5-2 3.5-2.3 0-3.2-1.3-2.4-3.4.8-2 2.8-2.1 4.4-.1m641.7-.8c-.4.3-.7 3.9-.7 8 0 6.7-.2 7.3-2.1 7.3-1.4 0-1.9.5-1.7 1.7.3 1.5 1.5 1.8 8.3 1.8 6.4 0 8-.3 8-1.5 0-1-1.3-1.6-4.2-1.8l-4.3-.3v-8c0-5.9-.3-7.9-1.3-7.9-.8 0-1.7.3-2 .7M908.4 999c-5.3 2.1-5.4 2.7-5.4 40.2 0 36.7.2 38.7 4.7 40.7 3.9 1.8 36.1 1.5 39.7-.4 2.6-1.4 3-1.3 5.3.5 3.1 2.5 12 2.7 16.3.5 4.9-2.5 6-5.1 6-13.7 0-7.1-.2-8-2.8-10.9-2.4-2.7-3.7-3.3-8.5-3.7-3.1-.2-6.9 0-8.5.6-2.7.9-3.3.7-6-2.4-2.5-2.8-3.7-3.4-7.1-3.4s-4.1-.3-4.1-2c0-1.8.7-2 5.5-2 4.9 0 5.9.4 9.5 3.6 4.4 4 6.3 3.8 4-.3-2.5-4.3-6.5-6.6-12.4-7.1-7.3-.6-10.6 1.4-10.6 6.3 0 4 .4 4.3 6.7 5.1 2.6.4 5.4 1.3 6.1 2.2.8 1 1.2 5.1 1.2 11.9 0 9.6-.1 10.3-2.2 11.5-2.9 1.6-35.5 1.3-37.5-.4-1.8-1.5-1.9-70.8-.1-72.6 1.9-1.9 35.2-1.7 36.7.2.8 1 1.3 6.4 1.4 15.6.1 12.5.4 14.3 1.9 15.1 1.7.9 1.8 0 1.8-14.5 0-8.5-.3-16.2-.6-17.1-1.4-3.7-5.7-4.5-22.6-4.4-9 0-17.3.4-18.4.9m61.3 59.6c2.3 2.3 2.5 3.1 2.1 9-.5 8.8-2.6 10.9-10.8 10.9-8.1 0-9-1.1-9.3-11.4-.2-10 .7-11.1 9.5-11.1 5 0 6.3.4 8.5 2.6"/><path d="M959 1063c0 2.3 2.5 2.7 3.3.6.7-1.6-.1-2.6-2-2.6-.7 0-1.3.9-1.3 2m4.7 4.6c-.8.8.1 2.4 1.4 2.4.5 0 .9-.7.9-1.5 0-1.5-1.2-2-2.3-.9m635.3-29.1v39.5h26.4c14.6 0 26.7-.4 27-.8 1.2-1.9-1.3-3.4-5.5-3.2-2.4.2-13.3.2-24.2.1l-19.8-.1.3-7.3.3-7.2 14.3-.3c10.8-.2 14.2-.6 13.9-1.5-.2-.8-4.5-1.3-14.5-1.5l-14.2-.3V1022h9.8c18.1 0 32.2-1.2 32.2-2.7 0-1-4.1-1.3-21-1.3h-21.1l.3-7.8.3-7.7 22.8-.3 22.7-.2v6h-15.5c-12.5 0-15.5.3-15.5 1.4 0 2 4.6 2.6 18.6 2.6h12.4l.1 3.7c0 2.1.3 5.1.5 6.7.6 3.7-.4 4.3-8.3 5.2l-6.3.6v13.2c0 11.7.3 13.5 2.3 17.1 2.4 4.3 9.7 10.3 16.4 13.6l4.2 2.1 5.2-2.9c8.7-4.7 14.6-10.7 16.4-16.6 1.5-5.1 2-17.9.9-23.4-.6-2.9-.9-3.1-7-3.6-3.5-.3-8.2-1.6-10.4-2.7-2.9-1.5-5.1-1.9-7.1-1.5l-2.9.7V999h-54zm63.8-9.6c2.6 1.1 6.9 2.2 9.5 2.6l4.7.7v10.7c0 8.7-.3 11.2-1.9 13.8-2.3 3.7-10.4 10.4-14.9 12.2-2.9 1.2-3.5 1-8.9-2.2-6-3.6-9.3-6.7-11.1-10.2-1.4-2.7-2.6-17.5-1.8-21.7.6-3.1.9-3.4 4.5-3.6 2.2-.2 6.4-1.1 9.3-2.2 2.9-1 5.4-1.9 5.5-1.9.1-.1 2.4.8 5.1 1.8"/><path d="M1653.5 1033.6c-2.2.8-5.7 1.6-7.7 1.9l-3.6.6.4 5.7c.8 8.6 1.2 9.9 4.5 13.6 4.2 4.8 9.4 7.9 12.2 7.2 3.4-.8 10.8-7.6 12.3-11.3 1.8-4.2 1.9-14.2.2-14.7-.7-.2-3.8-1.1-6.8-2-3-1-5.9-1.9-6.5-2-.5-.2-2.8.3-5 1m12.2 4.1c3.8.5 4.1.8 4.5 4.2.3 2 0 4.9-.5 6.6-1.1 3.5-6.1 9.1-9.8 11-2.4 1.3-3 1.2-7.1-1.4-5.2-3.3-7.8-8.6-7.8-15.6 0-4.4.1-4.5 3.3-4.6 1.7-.1 4.3-.5 5.7-.9 1.4-.5 3.6-.7 5-.4s4.4.7 6.7 1.1m-575.8-36.3c-.6.6-61.6 14.6-63.4 14.6-2.2 0-1.9 1.1 2.4 10.7 2.8 6.1 4.7 9.1 6.6 10.1 3.6 1.9 5.7.9 5.3-2.5-.2-2.3-.7-2.8-2.9-2.5-2.2.2-2.9-.5-5.1-5.3-1.4-3-2.2-5.5-1.7-5.5.7 0 15.1 8.3 16.8 9.7.3.2-.8 1.6-2.3 3.2-3.5 3.7-4.4 9.6-2.1 14 2.1 4.1 8.6 7.3 12.4 6 1.4-.4 4.6-1.5 7.1-2.3 15.8-5.3 19.5-6.3 20.2-5.1.4.7 1.3 4.5 1.9 8.6 1.4 8.9 2.7 10.2 9 9.4 3.9-.6 5.4-.2 11.4 3 6.1 3.2 7.2 3.4 9.7 2.4 2.6-1.1 2.8-1.5 2.8-6.9 0-7.4-1.2-8.7-12-13-9.6-3.7-9.5-3.7-10.4-6.6-.6-1.9.1-2.3 7.1-4.3 14.2-4.1 15.7-5.8 13-14.5-.9-2.9-1.7-7.3-1.7-9.8 0-5-1.4-6.8-9.1-11.2-3.3-1.8-6-2.6-9.6-2.6-2.7 0-5.2.2-5.4.4m15.9 6.9c7 5 6.7 6.2-2 8.7-4 1.2-14.3 4.2-22.8 6.6-8.5 2.5-16.6 5-18 5.5-1.5.5-3.7.6-5.5 0-1.7-.4-4-.5-5.2 0-1.7.6-2.5.3-3.6-1.5-.8-1.2-4.2-3.7-7.6-5.5-6-3.2-7.1-5.1-2.8-5.1 1.2 0 14.4-2.9 29.2-6.5 15.5-3.6 28.4-6.2 30.3-6 1.8.2 5.4 1.9 8 3.8m6.3 16.3c2.1 6.1 1.3 7.8-4.4 9.2-2.3.6-11.9 3.6-21.2 6.6-9.4 3-17.9 5.7-19.1 6-1.9.6-2.1.2-2-4.6 0-2.9-.4-6.2-.8-7.4-.7-1.9 0-2.3 10.6-5.3 6.2-1.8 16.3-4.7 22.3-6.6 6.1-1.8 11.4-3.2 12-3.1.5.1 1.7 2.5 2.6 5.2m-52.2 11c2.5 3.2 2.7 6.4.6 10.4-2.8 5.4-7.6 6.5-11.9 2.5-3.7-3.4-3.6-8.7.3-12.6 3.8-3.8 8.2-3.9 11-.3m32.6 13.1c1.2 11.2 1.2 11.8-1 11.8-1.6 0-2.1-1.2-3.3-7.9-1.2-6.6-1.2-8-.1-8.7 2.9-1.8 3.8-.8 4.4 4.8m13.5 5.2 7.5 2.8.3 5.2c.2 3.2-.1 5.1-.8 5.1-1.9 0-15.1-7-15.5-8.3-1.2-4.2-1.3-7.7-.2-7.7.7 0 4.6 1.3 8.7 2.9"/><path d="M1050.3 1040.6c-.3.8-.1 2 .5 2.6 1.6 1.6 4.7.5 5-2 .3-1.8-.1-2.2-2.3-2.2-1.4 0-2.8.7-3.2 1.6m313.1-38.4c-2.7 1.3-3.6 3-7.8 15.7l-3.5 10.3 2.9 1.1c1.7.6 2.9 1.4 2.8 1.7-.2.3-1.6 4.2-3.2 8.7l-2.9 8.1-8.4-6.4c-4.6-3.4-9.2-6.6-10.2-6.9-1.1-.3-2.5-2-3.2-3.7-1.3-3.2-6.2-6.8-9.2-6.8s-7.2 2.7-8.5 5.5c-1.9 4.1-1.4 7.2 1.7 10.7 2.4 2.7 3.6 3.2 7.3 3.3 3.7 0 5.6.9 12.6 5.9l8.2 5.9v4.7c0 3.8.5 5.1 2.8 7.3 7.1 6.8 19.9 0 17.3-9.1-.7-2.5 0-5.1 4.2-15.6l5.1-12.6h5.8c5.2 0 5.8-.2 6.4-2.4.6-2.6-.3-2.5 12.4-1.2 2.2.2 4.3 0 4.6-.6 1.4-2.3-2.3-3.6-11.3-4-9.1-.4-9.3-.4-9.3 1.8 0 2-.7 2.3-6.6 2.9-5.1.6-6.4 1.1-6 2.2.3.8-1.7 6.7-4.5 13.1-4.3 10.1-4.9 12.3-4.4 15.9.5 3.7.3 4.6-1.9 6.8-2.9 2.9-6.6 3.2-8.8.7-4-4.5-2.9-9.4 2.5-11.7 2.8-1.2 3.7-2.7 8-13.6 5-12.6 5-13.8.5-13.9-1 0-1.8-.3-1.8-.6 0-1.4 6.2-17.9 7.2-19.1.7-.9 3.6-1.3 8.4-1.3 6.8 0 7.4.2 7.4 2.1 0 1.6-.4 1.9-2 1.4-1.4-.5-2-.2-2 .9 0 .9.8 1.6 1.9 1.6 1 0 2.1.9 2.4 2 .6 2.3 3.7 2.7 3.7.5 0-1.2 1.6-1.5 8.5-1.5s8.5-.3 8.5-1.5-1.6-1.5-8.5-1.5h-8.5v-8l-9.2.1c-5.1 0-10.3.5-11.4 1.1m-39.6 26.5c3.1 2.8 3.5 5.6 1.1 8.6-3.1 4-7.4 3.5-9.8-1-1.3-2.6-.1-6.6 2.6-8.2 2.6-1.5 3.8-1.3 6.1.6m12 11.5c2.6 1.7 6.4 4.5 8.6 6.2l3.9 3-2.3 1.8c-2.3 1.8-2.4 1.8-4.9-.5-1.4-1.3-5-4-7.8-6.1-5-3.5-6.2-5.4-4.6-6.9 1.1-1.2 2.3-.8 7.1 2.5"/><path d="M1319.5 1034c.3.5 1.3 1 2.1 1s1.4-.5 1.4-1c0-.6-.9-1-2.1-1-1.1 0-1.7.4-1.4 1m-149.5 7c0 21.7.4 39 .9 39s2.5-.7 4.4-1.5c2.9-1.2 8.3-1.5 25.7-1.5 12.9 0 22-.4 22-.9 0-1.6-9.8-2.2-29.8-1.9l-19.2.3V1008h21c18 0 21-.2 21-1.5s-2.7-1.5-18.4-1.5c-14.1 0-19.2-.4-21.9-1.5-2-.8-4.1-1.5-4.7-1.5-.7 0-1 12.9-1 39m579.5-34.6c.7 4.2.6 4.3-2.5 4.9-1.7.4-4.5 2-6.1 3.6l-2.9 3 .2 20.7c.2 15.5.6 20.8 1.6 21.2.7.2 1.2-.5 1.2-2 0-1.3.3-3.3.6-4.6l.6-2.2h73.7l.3 4.2c.2 3 .8 4.3 1.8 4.3 1.3 0 1.5-3 1.8-19.8.4-30 2-28.7-34.7-28.7h-26l-4.4-4.5c-2.5-2.5-4.8-4.5-5.2-4.5-.3 0-.3 2 0 4.4m64.7 10.3c1.6 1.4 1.8 3.3 1.8 16v14.3h-74v-14.2c0-11.8.3-14.5 1.7-16 1.5-1.7 3.9-1.8 35.1-1.8 29.8 0 33.7.2 35.4 1.7"/><path d="M1752 1027c-4.3 4.3-1.1 12 5 12 6.3 0 9.3-7.5 4.7-11.8-2.9-2.7-7.1-2.8-9.7-.2m6.8 2.2c3 3 0 7.8-3.7 5.8-2.5-1.3-2.7-3.3-.5-5.4 1.9-1.9 2.6-2 4.2-.4m13.2-.2c-2.5 2.5-2.5 4.2-.2 6.3 3.6 3.3 9.2 1.3 9.2-3.2 0-1.6-3.8-5.1-5.5-5.1-.8 0-2.4.9-3.5 2m5 3.5c0 .8-.7 1.5-1.5 1.5s-1.5-.7-1.5-1.5.7-1.5 1.5-1.5 1.5.7 1.5 1.5m8.7-3.7c-3.4 3.7-1.5 8.2 3.3 8.2 5.1 0 6.9-5.5 2.8-8.4-2.9-2.1-4.1-2-6.1.2m4.3 3.7c0 .8-.7 1.5-1.5 1.5s-1.5-.7-1.5-1.5.7-1.5 1.5-1.5 1.5.7 1.5 1.5m9-3.5c-2.3 2.3-2.4 3.3-1 6.1.7 1.3 2.1 1.9 4.5 1.9 3.3 0 5.5-2 5.5-4.9 0-1.6-3.8-5.1-5.5-5.1-.8 0-2.4.9-3.5 2m5 3.5c0 .8-.7 1.5-1.5 1.5s-1.5-.7-1.5-1.5.7-1.5 1.5-1.5 1.5.7 1.5 1.5m-1037.6-28.1c-1.9 1.4-2.2 2.9-2.8 18.1-.4 9.1-.4 17-.1 17.5 1 1.6 3.5-.1 3.5-2.5 0-3 1.4-3.9 4-2.5 1.7.9 2 1.9 1.8 4.8l-.3 3.7-8.8.3c-7.6.2-9.1 0-11.4-1.8-1.4-1.1-3.2-2-3.9-2-2.1 0-5.4 3.7-5.4 6 0 2.4 3.4 6 5.5 6 .9 0 2.6-1.1 3.9-2.5 2.2-2.3 3-2.5 11.5-2.5 8.4 0 9.1.1 9.1 2 0 1.7-.7 2-5 2-4.8 0-5.8.7-5 3.5.2.5.6 6.4.9 13 .8 15.2-.1 14.6 20.9 14.2 20.7-.3 20.1-2.1-1-2.7l-16.3-.5-.3-2.9c-.2-1.6.2-3.2 1-3.7.7-.5 10-.9 20.6-.9H808v4c0 2.9-.4 4-1.5 4-.8 0-1.5.4-1.5 1 0 1.4 4.3 1.3 5.8-.2.8-.8 1.2-4.5 1.2-10v-8.8h2.8c1.5 0 3.6.7 4.6 1.5 4.6 3.5 10.6.6 10.6-5.1 0-3.8-2.8-8-4.3-6.5-.6.6-1.9 1.1-2.8 1.1-1 0-2.9 1.3-4.2 3-2.3 2.7-3.1 3-8.6 3-6 0-8.4 1.6-4.1 2.7 1.5.4 2 1.4 2 3.9v3.4h-19.9c-15 0-20-.3-20.3-1.3-.9-2.1.3-3.7 2.7-3.7 5.2 0 7-5.7 6.4-19.9-.4-8.8-2.4-12.2-7.1-12.6-2.1-.2-2.3-.6-2.3-6.6v-6.4l20.3-.3 20.2-.2v7.9c0 6.2-.3 8-1.6 8.5-2.8 1.1-.6 2.2 4.8 2.5 2.9.1 5.4.4 5.7.6.2.3-1.3 2.3-3.3 4.5s-3.6 4.5-3.6 5c0 .6-.4 1-1 1-.5 0-1-.8-1-1.9 0-1-.7-2.5-1.6-3.2-1.4-1.1-1.8-1-3 .6-.8 1-1.4 2.2-1.4 2.6 0 1.2 6.6 7.9 7.8 7.9.6 0 2-1.7 3.3-3.8 1.2-2 3.1-4.7 4.2-5.9 1.9-2.1 2.1-2.1 6-.6 3.8 1.5 4.1 1.5 5.3-.2.8-1 1.4-3.3 1.4-5.1 0-4-3.9-6.9-7.9-5.9-1.4.4-4.2.8-6.1.8l-3.5.2-.3-13c-.3-16.1-.5-16.5-12.2-16.5-6 0-7.9.3-8.4 1.5-.3.8-1.7 1.5-3.1 1.5s-2.8-.7-3.1-1.5c-.8-2.1-16.1-2.1-19-.1m16 2.5c.4.5 2.5 1.2 4.8 1.6 3.3.6 4.4.4 5.4-.9.9-1.4 2.6-1.6 8-1.4l6.9.3.3 3.7.3 3.7H788c-21.7 0-21.9 0-20.6-5.4.6-2.4 1-2.5 7.6-2.5 3.8 0 7.1.4 7.4.9m43.9 29.3c1.4 2.2-.7 4.8-3.3 4.1-2.4-.6-3.4-3.2-1.9-5 1.5-1.7 3.8-1.3 5.2.9m-76.3 9.9c0 .5-.7.9-1.5.9-1.5 0-2-1.2-.9-2.3.8-.8 2.4.1 2.4 1.4m22.1 12.2c-.6.6-2 1.2-3.1 1.4-1.6.2-2-.3-2-2.6 0-2.5.4-3 2.8-3.3 2-.2 2.8.2 3 1.6.2 1-.1 2.3-.7 2.9m54.5-1.8c.7 1.8-1.3 4.5-3.3 4.5-1.7 0-2.7-2.4-1.9-4.5.7-2 4.5-1.9 5.2 0m394.1-50.8c-1.7 1.7-.2 2.3 5.3 2.3h6l.2 10.7c.2 14.3.1 13.7 2.1 14.1 1.5.3 1.7-.9 1.7-13.7V1005h-7.3c-4.1 0-7.7.3-8 .7m248.8.3c-1.7.6-2.2 2.5-3.6 16.1-.9 8.5-1.5 15.7-1.2 16.1.9 1.5 2.1.7 3.2-2.1 1.5-3.4 3.8-4.2 20.9-7.1 6.8-1.2 13.4-2.5 14.8-3 1.4-.6 3.9-1 5.5-1h2.9v15c0 14.9 0 15-2.2 15.1-1.3.1-13 .2-26 .3-13.1.2-24.1.5-24.4.9-2.3 2.2 2.3 2.7 26.7 2.7h25.9v4.4c0 2.8.7 5.2 2 6.8l1.9 2.5-6.7.7c-3.7.3-16.5.6-28.4.6-19.6 0-21.8.2-21.8 1.7s2.3 1.6 27.3.9c36.3-.9 48.5-1.9 51.1-4.5 1.8-1.9 1.9-3.5 2-32 .1-26.3-.1-30.2-1.5-31.6-1.3-1.3-3.8-1.6-12-1.7-9.5 0-10.5.2-12.1 2.2-1 1.2-1.8 3.1-1.8 4.1 0 2.1-3.7 2.6-6.8 1-.9-.5-8.4-2.6-16.7-4.6-8.2-2-15.4-3.7-16-3.9-.5-.2-1.9 0-3 .4m20 7.5 13 3 .3 3.2c.3 3 .1 3.2-3.5 3.9-2.1.3-8.1 1.4-13.3 2.4l-9.5 1.8-3.2-2.7c-2.9-2.4-3.2-3.1-3.2-8.7-.1-3.3.2-6.4.5-6.7.4-.4 1.9-.4 3.3 0s8.5 2.1 15.6 3.8m45.3-2.3c.9.9 1.2 8.7 1.2 28.8s-.3 27.9-1.2 28.8c-.7.7-2.7 1.2-4.5 1.2s-3.3.4-3.3 1c0 1.9-6.9 1.1-9-1-1.9-1.9-2-3.4-2.1-28.3-.1-29.5-.1-29.9 1.5-30.9 1.9-1.3 16.1-.9 17.4.4m-23 9c-.7 2-4.8 2.3-4.8.4 0-1.1.9-1.6 2.6-1.6 1.6 0 2.4.5 2.2 1.2m-40.4 7.7c.3.5-.1 1.4-.9 2.1-1.3 1-1.5.9-1.5-.9 0-2.1 1.4-2.8 2.4-1.2m136.6-19.4c-1.5 1.7-.5 3.5 2 3.5 2.2 0 3.3-2.3 1.7-3.9-1.5-1.5-2.2-1.4-3.7.4m-690.5.6c-3.8 1.8-4.7 4.8-4.6 13.8.2 8.9.7 10.3 5.2 12.7 3.2 1.6 15.1 1.9 18 .4 3.2-1.7 4.9-6.4 4.9-13.4 0-7.7-1.4-11.2-5.1-13.2-3.2-1.6-15.3-1.8-18.4-.3m16.9 4c2.4 1.9 2.6 2.7 2.6 9.2 0 4-.4 7.7-.8 8.3-1.4 2.2-5.1 3.4-10.2 3.4-4.1 0-5.6-.5-7.5-2.5-2.2-2.1-2.5-3.3-2.5-9s.3-6.9 2.5-9c3.3-3.3 11.9-3.6 15.9-.4"/><path d="M923.5 1020.1c-3.4 3-4.4 5.2-2.6 6.3.7.5 10.1-7.7 10.1-8.9 0-1.6-4.4-.1-7.5 2.6m257-4.9c-.3.8-.4 12.8-.3 26.8l.3 25.5 15.9.3c10.8.2 16.3-.1 17.2-.9 2-1.7 1.7-2.9-.7-2.9-1.5 0-1.9-.4-1.5-1.6.3-.9.6-2.6.6-3.9 0-1.6.7-2.5 2-2.7 3.3-.5 2.4-2.2-1.6-3.2-2.7-.6-3.9-.6-4.2.3-.2.6-1 1.1-1.8 1.1s-1.4.4-1.4 1c0 .5.7 1 1.5 1s1.7 1.2 2.1 2.7c.3 1.6.7 3.4 1 4 .2 1-2.7 1.3-12.6 1.3h-13v-46h16.6c15.2 0 16.5-.1 16.2-1.8-.3-1.5-2.1-1.7-18.1-2-13.8-.2-17.9 0-18.2 1m41.5 1.3c0 .8.7 1.5 1.5 1.5s1.5-.7 1.5-1.5-.7-1.5-1.5-1.5-1.5.7-1.5 1.5m.7 4.2c-.4.3-.7 4.6-.7 9.5 0 8 .2 8.9 1.8 8.6 1.4-.3 1.7-1.6 2-8.4.2-5.9-.1-8.4-1.1-9.2-.8-.7-1.7-.9-2-.5m385.3 9.3c0 1.1.7 2 1.5 2s1.5-.9 1.5-2-.7-2-1.5-2-1.5.9-1.5 2m6.5-1c-1.4 2.2 1.3 3.1 8.6 2.8 5.8-.2 7.4-.6 7.4-1.8s-1.6-1.6-7.7-1.8c-4.9-.2-7.9.1-8.3.8"/><path d="M1202.6 1029.8c-.2.4-.1 1.4.4 2.2.7 1.1 1.2 1.2 2.1.3.6-.6.8-1.6.5-2.2-.8-1.3-2.3-1.4-3-.3m-408.4 3.4c-.8.8-1.2 5.3-1.2 13.8 0 13 .6 15 4.1 15 2.6 0 3.5-2.1 1.6-3.5-1.4-1-1.7-3.1-1.7-11.8 0-6 .4-10.9 1-11.2s1-1.3 1-2.1c0-1.7-3.1-1.9-4.8-.2m438.8 6.4c-11.6 7.2-11 6.1-11 18.6v10.8l8.1 6c4.4 3.3 9 6 10 6 2.5 0 11.2-5.5 16.2-10.2l3.7-3.5v-9.1c0-5-.3-9.7-.6-10.6-.5-1.3-17.1-12.6-18.5-12.6-.3 0-3.8 2.1-7.9 4.6m6 19.4v18.1l-4.2-2.9c-9.4-6.5-9.8-7.2-9.8-16.5 0-6.7.3-8.7 1.8-9.9 2.1-1.9 10.4-6.8 11.5-6.8.4 0 .7 8.1.7 18m10.9-14.5 6.1 3.6v18.7l-6.2 4.7c-5.9 4.4-6.2 4.6-7 2.5-.7-1.8.1-33 .8-33 .2 0 3 1.6 6.3 3.5m-46-7.1c-.3.3-.3 2.3-.1 4.5.6 5.9 3.2 5.6 3.2-.4 0-3.1-.4-4.5-1.3-4.5-.8 0-1.6.2-1.8.4m411.1 1.7c0 1.9.4 2 6.3 1.5 3.4-.3 6.8-.5 7.5-.6.6 0 1.2-.7 1.2-1.5 0-1.2-1.5-1.5-7.5-1.5-6.9 0-7.5.2-7.5 2.1m-7-.1c0 .5.7 1 1.5 1s1.5-.5 1.5-1c0-.6-.7-1-1.5-1s-1.5.4-1.5 1m-690.3 6.8c-1.3 1.5-1.7 3.9-1.7 11.5 0 12 .7 12.9 9.4 12.5 7.6-.4 7.6-2.2.1-2.6l-5.6-.3.3-9.7.3-9.7 4.9-.5c7.4-.7 7.2-3-.2-3-4.4 0-6.3.4-7.5 1.8m700.1.9c-1.6.2-2.8 1.1-2.8 1.9 0 1.1 1.6 1.4 7.4 1.4 6.6 0 9.9-1 8.3-2.6-.7-.8-9.7-1.2-12.9-.7m-10.6 1.5c.7 1.9 3.8 2.2 3.8.4 0-1-.9-1.6-2.1-1.6s-1.9.5-1.7 1.2"/><path d="M925.6 1051.9c-.3.4.1 1.7.9 2.7 1.4 1.8 1.4 1.8 1.5-.9 0-2.6-1.3-3.6-2.4-1.8m425.9 6.1c-.4.6-.3 1.6.3 2.2s1.2.6 1.7-.2c.4-.6.3-1.6-.3-2.2s-1.2-.6-1.7.2m-425.5 1.9c0 1.1.5 2.3 1 2.6.6.4 1-.5 1-1.9s-.4-2.6-1-2.6c-.5 0-1 .9-1 1.9m534.7 5.7c-1.8 1.8 1.5 2.4 12.4 2.4 9.9 0 11.9-.3 11.9-1.5s-2-1.5-11.8-1.5c-6.5 0-12.2.3-12.5.6m30.5.6c.3.9 2.7 1.3 7.6 1.3 9.9 0 9.7-1.9-.1-2.3-6.1-.2-7.8 0-7.5 1m117.2-.1c-.3.6-.2 1.5.2 1.9 1.2 1.2 3.8-.5 3-1.9-.9-1.4-2.3-1.4-3.2 0m8.3-.5c-1.5 1.5-.6 2.4 2.4 2.4 2 0 2.9-.4 2.7-1.3-.5-1.4-4-2.1-5.1-1.1m10 .8c-.5 1.3.3 1.6 4.4 1.6 3.6 0 4.9-.4 4.7-1.3-.7-1.9-8.4-2.1-9.1-.3m115.3 2.4c0 3.4 2.1 4.2 10.8 4.2 9.1 0 12.2-1 12.2-4 0-1.9-.7-2-11.5-2-10.4 0-11.5.2-11.5 1.8m51 .2c0 2.9 3.1 4 11.8 4 6.5 0 8.2-.3 9.6-1.9 3-3.4 1.1-4.1-10.5-4.1-10.2 0-10.9.1-10.9 2m-856.3-.4c-1 1.1-.9 4.4.2 4.4.6 0 1.3-.5 1.6-1 .4-.6 1.6-1 2.8-.8 1.4.2 2.2-.2 2.2-1.2 0-1.6-5.5-2.7-6.8-1.4m837.8 67.4c-.4.7-.6 7.6-.4 15.3l.4 14.2-7 .3c-11.6.4-11.5.3-11.5 7.2v6h-7.9c-5.5 0-8.2.4-9 1.4-.8.9-1.1 6.4-.9 17.2l.3 15.9 38.3.3c37.6.2 38.2.2 38.2-1.8 0-1.9-.8-2-18.2-2.2l-18.3-.3v-70l18.3-.3c14.6-.2 18.2-.5 18.2-1.6 0-1.9-4-2.4-23.2-2.5-11.4-.1-16.8.2-17.3.9m-.5 37v3h-14v-6h14zm.3 8.2c-.2.5-.3 7.1-.3 14.8v14h-14v-30.1l7.3.3c3.9.2 7.1.6 7 1m-18.5 5 .3 2.8H1742v-6.1l6.8.3c6.5.3 6.7.4 7 3m.2 15.3v8.5h-14v-17h14zm-703.7-63.8c-.7.2-1.5 2-1.9 3.9-.6 3.1-1 3.4-3.9 3.4-1.9 0-4.5.4-5.9 1l-2.6 1 .2 36.2.3 36.3 33.4.3c23.8.2 33.8-.1 34.7-.9 1.1-.9 1.4-5.5 1.4-21.3 0-21.6 0-21.7-5.2-24.9-1.9-1.2-2.8-2.6-2.8-4.2 0-2.8-3-4.5-7.8-4.5h-2.7v-8.1c0-9.5-1.1-10.9-8.7-10.9-4.6 0-4.8-.1-4.8-2.8 0-4.6-1.5-5.2-12.4-5.1-5.6 0-10.6.3-11.3.6m19.5 5c.3 2.2.1 2.3-8.7 2.3-8.2 0-9.1-.2-9.1-1.8 0-3 1-3.3 9.5-3 7.4.3 8 .5 8.3 2.5m14.2 18.3c0 11.9 0 12-2.3 12-1.3 0-3.3.9-4.5 2-2.1 2-2.2 2.8-2.2 21.6v19.4l-17.7-.2-17.8-.3-.2-32.5c0-17.9.1-32.8.4-33.2.2-.5 10.3-.8 22.4-.8h21.9zm11 10.4c.3 1.9 1.5 3.5 3.5 4.6l3 1.7.3 19.1.2 19.2h-22.7l-.6-10.7c-.4-5.8-.7-13.9-.7-17.9 0-7.7.7-9 6.8-13.1 1.3-.9 2.2-2.6 2.2-4 0-2.2.4-2.4 3.7-2.1s3.9.7 4.3 3.2"/><path d="M1047.5 1160.1c-1.6 2.4 1.7 2.9 17.1 2.7 13.3-.3 15.9-.5 15.9-1.8s-2.6-1.5-16.2-1.8c-11-.2-16.4.1-16.8.9m-.1 19c-1.4 2.4 1.6 3.1 10.8 2.7 9.3-.4 12.3-1.1 11.3-2.9-.9-1.3-21.2-1.2-22.1.2m4.3 18.9c-7.1.9-3.8 2.5 6 2.8 9 .3 12.8-.6 10.9-2.5-.9-.9-11.1-1.1-16.9-.3m36.1-9c-.1.5-.2 4.1 0 8 .3 6.1.6 7 2.3 7 1.4 0 1.9-.7 1.9-2.9 0-2.3.5-3 2.3-3.3 3.5-.5 3.3-4.1-.3-7.2-3.3-2.7-5.6-3.3-6.2-1.6m5.2 3c0 .5-.5 1-1.1 1-.5 0-.7-.5-.4-1 .3-.6.8-1 1.1-1 .2 0 .4.4.4 1m513.2-54.3c-2.3.9-5.5 8.7-6 14.9-.4 5 0 7.1 1.7 10.7 2.8 5.8 5.7 8.5 7.4 6.8.9-.9.9-1.5-.1-2.9-5.5-7.9-6.2-15.1-2-22.4 2.2-3.7 2.5-4.8 1.5-6-.7-.9-1.8-1.4-2.5-1.1m-711.5 2.1c-1.4 1.6-1.7 4.4-1.7 18v16.2h-7v17.1c0 10.3.4 17.8 1.1 19.1 2.1 4 6 4.6 29.7 4.2 15.4-.2 22.8-.6 23.8-1.5 1.1-.9 1.4-4.6 1.4-18 0-22.6 2-20.9-24.5-20.9H897v-32h64v24.8l-4.4.6c-7.6 1.2-7.9 2-8.4 23.4-.4 18.6-.4 18.7 1.9 20.9 2.7 2.4 3.6 2.6 14 2.4 6.1-.1 7.9-.5 9.7-2.1 2.1-2 2.2-2.8 2.2-21.1v-19l-2.6-2.4c-1.6-1.5-3.9-2.5-5.5-2.5H965v-12.9c0-12.3-.1-13.1-2.2-14.5-1.9-1.4-6.9-1.6-34.4-1.6-29.8 0-32.2.1-33.7 1.8m76.5 32.9c1.6 1.4 1.8 3.4 1.8 17.7 0 20.6 0 20.6-10.9 20.6-4.6 0-8.2-.5-8.9-1.2-1.7-1.7-1.6-11.1.1-10.4 7.9 3.3 14.8 3 17.1-.6 1.5-2.5.1-3.3-2.6-1.4-3 2.2-6.3 2-11.5-.5l-4.3-2.1v-10.3c0-5.7.3-11 .6-11.9.9-2.4 16-2.3 18.6.1m-33.4 6.5c1.3 1.3 1.8 27.1.6 30.2-.5 1.4-3.5 1.6-23.5 1.6-28 0-25.9 1.5-25.9-18.1 0-7.4.3-13.9.7-14.2 1.2-1.3 46.8-.8 48.1.5"/><path d="M958.2 1180.2c-3.2 3.2-.1 8.5 4.2 7.4 3.1-.8 4-3.3 2.1-6.2-1.7-2.6-4.4-3.1-6.3-1.2m3.8 3.9c0 .5-.4.9-1 .9-.5 0-1-.7-1-1.6 0-.8.5-1.2 1-.9.6.3 1 1 1 1.6m-60.5 2.3c-1.1.9-3.5 1.6-5.2 1.6-3.2 0-3.3.2-3.3 3.9s.2 4 3.3 4.3c3 .3 3.2.6 3.5 4.6.2 2.4.9 4.5 1.5 4.7.7.2 7.4.5 15 .8l13.7.4v-4.9c0-4.4.2-4.8 2.4-4.8 4.5 0 4.7-3.2.3-3.5-1.8-.1-2.3-.9-2.7-4.1l-.5-3.9-13-.3c-10.4-.2-13.5.1-15 1.2m25.3 9.3-.3 7.8-11.7.3-11.8.3V1188h24.1zm-27.8-3.6c0 .5-.4.9-1 .9-.5 0-1-.7-1-1.6 0-.8.5-1.2 1-.9.6.3 1 1 1 1.6m427.5-46.4c-.3 4.3-.4 16.9-.1 28.1.7 22.2.4 25.2-2.5 25.2-2.5 0-2.4 2.6.1 3.3 1.8.5 2 1.1 1.4 4.4-1.2 7.5 4.3 8.1 8.1.9 1.9-3.5 2.1-3.6 8.2-3.6 3.5 0 6.3.1 6.3.3s-.7 2.5-1.6 5.1c-1.4 4.1-1.4 5-.3 5.7.8.5 9 .9 18.2.9 18.8 0 19.1-.1 16.6-6.7-1.9-5-3.9-5.4-3.9-.9v3.6h-27.2l.6-3.1c.3-1.7.6-3.5.6-4s.9-.9 2-.9c1.7 0 1.9.5 1.4 2.5l-.6 2.5h9.1c7.4 0 9.1-.3 9.1-1.5s-1.3-1.5-5.7-1.5c-3.2 0-6.4-.4-7.2-.9-2.1-1.3 3.8-2.3 12.2-2.1 14 .5 18.7.1 18.7-1.5 0-1.3-4-1.5-30-1.5h-30v-26.5c0-24 .5-29.7 2.4-24.9.3.9.6 2.9.6 4.5 0 3.8 2.7 3.9 3.2.1l.3-2.7 29.6-.3 29.6-.2.7 3.7c1 6.6.7 42.3-.5 44.5-1.7 3.2.4 4.5 3.1 1.8 2.1-2.1 2.2-2.8 1.6-11.3-.3-5-.6-15.8-.6-24.1s-.4-15.6-.8-16.3c-.5-.9-9.5-1.3-32.2-1.8l-31.4-.5-4.2-4.1-4.2-4.1zm4.5 59.7c0 .8-.4 1.8-1 2.1-.5.3-1-.3-1-1.4 0-1.2.5-2.1 1-2.1.6 0 1 .6 1 1.4m323.2-66.2c-.8.8-1.2 5.7-1.2 16.5v15.3l3 .7c2.4.4 3 1 2.8 2.7-.3 1.9.2 2.1 4.5 2h4.7v15.8c0 13.7-.2 15.8-1.6 15.8-.9 0-1.4.6-1.2 1.2.3.9 3 1.4 7.7 1.6 6.5.3 7.2.1 6.9-1.5-.2-1.3-1.4-1.9-4.1-2.1l-3.7-.3V1172h2.4c1.5 0 3.3-1.1 4.6-2.7 1.9-2.4 2-3.7 1.8-16.7l-.3-14.1-12.5-.3c-8.9-.2-12.9.1-13.8 1m22.8 14.7c0 7.2-.3 13.2-.7 13.4-1.4.9-17.8 1.2-19 .4-1.4-.9-1.9-24.7-.6-26 .3-.4 5.1-.7 10.5-.7h9.8zm-9.2 18.6c-1.1 1.1-5.8 1.5-5.8.5 0-.5 1.4-1 3.2-1 1.7 0 2.9.2 2.6.5"/><path d="M1659 1145.9c0 1 13.7 2.4 15.1 1.6 2.6-1.6.1-2.5-7.1-2.5-4.4 0-8 .4-8 .9m.5 6.1c-.4.6 2 1 6.4 1 3.9 0 7.4 0 7.8.1.4 0 .9-.4 1.1-1 .5-1.4-14.4-1.5-15.3-.1m-899.1-2.3c-8.2 5.8-15.9 11.5-17.1 12.5-2.4 2.3-2 4.8.8 4.8 1.8 0 1.9 1.1 1.9 20.5v20.5h24c20.5 0 24-.2 24-1.5 0-1.2-3.3-1.5-21.7-1.7l-21.8-.3-.5-19.5c-.5-17.9-.6-19.5-2.2-19.2-1 .2-1.8-.1-1.8-.6 0-.8 21.5-16.5 27.7-20.3 2.3-1.4 2.3-1.3 26 15.1 6.1 4.3 7.1 6 3.2 6-1.6 0-1.9.7-1.9 4.8 0 3.6.5 5.4 2 6.7 2 1.8 2 1.7 2-2.1 0-5.6.9-8.1 3.1-8.7 3.8-1 1.7-3.6-8.3-10.8-5.7-4-12.5-8.9-15.3-10.9-9.3-6.9-7.5-7.2-24.1 4.7m876.1-9.8c-.3.5.6 3.1 2.1 5.8 3.4 6.3 3 13.5-.9 18.7-2.9 3.8-3.3 5.1-1.7 6.1s3.9-1.3 6.7-6.9c3.4-6.6 3-14.2-1.1-20.4-2.9-4.2-4-5-5.1-3.3m-177.4 1.5c-.8.9-1.1 4.8-.9 11.2.3 9.2.5 10 2.6 10.9 1.2.5 2.2 1.9 2.2 3 0 3.7 4.6 12 8.6 15.4 5.9 5.2 15.8 9.4 22.4 9.5 6.7.1 16.7-4.2 21.9-9.5 3.2-3.2 9.1-14 9.1-16.7 0-.6.7-1.2 1.5-1.2s1.9-.9 2.5-1.9c1.4-2.8 1.3-19.4-.2-20.9-1.9-1.9-68.1-1.7-69.7.2m67.7 5.1c.2 1.6.1 5.3-.3 8.2l-.6 5.3h-63.7l-.7-7.4c-.4-4.1-.4-7.9 0-8.5.4-.8 10.3-1 32.8-.9l32.2.3zm-6.3 20.7c-1.6 7.3-6.2 12.6-14.8 17.4-14.5 8-35.3-1.4-39.1-17.9l-.6-2.7h55.2z"/><path d="M1473.5 1169c-.9 1.5 2.7 7 4.7 7 2.1 0 4-3.2 3.2-5.3-.9-2.3-6.7-3.6-7.9-1.7m15.1 2.3c-4 3-1.3 9.7 3.9 9.7 5 0 7.3-6.7 3.3-9.4-2.7-1.9-4.8-2-7.2-.3m5.1 3.3c.8 2.1-1.3 4.2-2.8 2.7-1.3-1.3-.5-4.3 1.1-4.3.6 0 1.3.7 1.7 1.6m318.3-32.2c-.3.2-.4 14.7-.2 32.1.2 29.3.4 31.6 2 31.3s1.7-2.8 1.7-31.8c0-27.6-.2-31.5-1.5-31.8-.9-.1-1.8-.1-2 .2m-191.4 3.4c-.8 1.6-2.2 3.4-3 4.1-1.8 1.5-2.2 6.6-.6 7.6.6.3 1 1.7 1 3s.5 2.7 1 3c1.5.9.5 5.1-6 25.1l-5.7 17.9-3.9.5c-2.7.3-4 1.1-4.2 2.3-.3 1.6 1.5 1.7 31 1.5 27-.3 31.3-.5 31.3-1.8 0-1.2-2.1-1.6-11-2l-11-.5-6.7-20c-7.2-21.4-7.4-22.8-3.4-29.7l2.1-3.7-2.6-2.8c-1.5-1.5-3-3.8-3.4-5.1-.9-3-3.2-2.8-4.9.6m4.3 6.1c1.9 1.2.6 4.1-1.9 4.1s-3.8-2.9-1.9-4.1c.8-.5 1.6-.9 1.9-.9s1.1.4 1.9.9m-.9 9.1c0 .5-.4 1-1 1-.5 0-1-.5-1-1 0-.6.5-1 1-1 .6 0 1 .4 1 1m1 13.5c1.5 5.2 1 6.3-2.4 4.7-2.2-1-2.3-1.3-1.3-5.1.6-2.3 1.4-4.1 1.8-4.1.3 0 1.2 2 1.9 4.5m-4 8.5c0 .5 1.3 1 2.8 1 5.7 0 6.9 4.4 2.1 7.9l-3.1 2.3-2.7-2.6c-2.5-2.4-2.7-3-1.7-6.1 1-3.3 2.6-4.8 2.6-2.5m-2.4 11.5c1.8 1.4 1.8 1.5-1.1 3.9-3.5 2.9-5 3.3-4.1 1 .3-.9.9-2.7 1.2-4 .7-2.8 1.3-2.9 4-.9m14.2 3.2c1.3 3.8 1.1 3.8-2.8 1.8-3.4-1.7-3.9-3.9-1.2-5.4 2-1.2 2.6-.7 4 3.6m-4.2 4c2.9 2.1 5.4 4.1 5.4 4.5 0 .5-5 .8-11.2.8-6.1 0-10.8-.3-10.4-.8 1-1 10-8 10.4-8.1.2-.1 2.8 1.6 5.8 3.6m-383.6-57c-2.8 1-5 3.6-5 5.8 0 1.4-1.9 4-5 6.9-4.6 4.3-5 5.1-5 9.2v4.5l-4.5-3.6c-4.6-3.9-8.4-4.2-7-.7 1.7 4.1 1.5 5-2 8-1.9 1.8-3.9 3.2-4.3 3.2-.4-.1-6.3-5.2-13.2-11.6-8.4-7.6-13.1-11.3-14.4-11.2-2.7.4-5.7 5.8-5.8 10.5-.2 7.3 1.9 12 8.9 19.4 6.3 6.6 6.5 7 4.7 8.4-3.9 3.1-5.6 3.7-6.7 2.6-1.4-1.4-7.2-1.4-9.8-.1-3 1.6-5.2 6.8-4.5 10.5 1.1 5.9 7.5 9.4 12.9 7.1 5.2-2.2 7.1-4.9 6.3-9.5-.5-3.6-.3-4.1 3-6.6l3.6-2.7 10.2 10.1c8.7 8.5 10.8 10.1 13.5 10.1 4.2 0 7.7-1.9 12.5-6.9l4-4-10.7-10.9c-5.9-5.9-10.7-11.3-10.7-11.8 0-.6 1.8-2.7 4-4.8 2.2-2 4-4.2 4-4.8 0-.7 1.3 0 2.8 1.5 3 2.8 4.2 2.7 4.2-.5 0-1.5.5-1.8 1.9-1.3 2.7.8 3.5-1.1 2-4.7-1.2-2.9-1.1-3.2 1.5-5.5l2.8-2.4 2.2 2c2.9 2.7 7.5 2.7 11.7-.2 6.2-4.1 6.5-11.2.6-14.7-3.2-2-5.8-2.4-8.7-1.3m7.8 5.1c1.6 2.2 1.5 4.7-.4 6.6-2.6 2.7-4.8 3.4-7.1 2.5-1.8-.6-2.3-1.6-2.3-4.4 0-6.5 6-9.4 9.8-4.7m-59.7 15.9c11.1 10.1 38.9 37.6 38.9 38.5 0 1.1-9.1 7.8-10.7 7.8-.8 0-9.3-7.8-18.9-17.3-15.9-15.6-17.6-17.7-19-22.5-1.8-6-.9-13.2 1.6-13.2.4 0 4.1 3 8.1 6.7m-10.6 33.3c.3.5-.3 1.5-1.5 2.2-2.1 1.3-2.6 3.3-1.1 4.2.5.3 2-.3 3.3-1.4 2.8-2.2 3.8-1.8 3.8 1.6 0 2.5-3.4 5.4-6.2 5.4-2.6 0-5.8-3.6-5.8-6.4 0-1.5 1.1-3.3 2.6-4.5 3-2.3 4-2.6 4.9-1.1"/><path d="M1187.4 1172.2c-.7 1.2 1.5 4.8 3 4.8 1.2 0 5.6-4.1 5.6-5.3 0-.9-8-.4-8.6.5m12.1 10.2c-1.8 1.3-1.8 1.4.4 5 2.5 4 5.4 4.7 7.1 1.7 1.4-2.8 1.3-3.8-1-6.1s-3.9-2.5-6.5-.6m4.8 3.1c.1.5-.6 1.1-1.5 1.3-1.1.2-1.8-.3-1.8-1.3 0-1.7 3-1.8 3.3 0m11.9 11.7c-2.1 2.1-1.4 6.6 1.3 8.4 5.2 3.4 11.1-3.1 7-7.6-2-2.2-6.5-2.6-8.3-.8m6.2 4.9c-.7 1.2-3.1 1.1-3.9-.1-.4-.6-.1-1.8.6-2.6 1.2-1.4 1.4-1.4 2.6.2.7.9 1 2.1.7 2.5m-22.6-56.4c-2.4.6-2.3.8 1.8 4.6l3.7 3.3-1.8 2.8c-1.6 2.3-1.6 2.9-.4 3.6q1.35.9 3.6-1.2c1.3-1.2 2.3-1.7 2.3-1.1s-.7 1.6-1.5 2.3-1.2 1.6-.9 2.1c.7 1.3 6.3-3.2 6.3-5.1 0-1.7-2.2-5-3.5-5-.4 0-2.4-1.5-4.4-3.3-2-2-4.2-3.2-5.2-3m583.9 1.9c-1.7 1.8 1.4 2.4 11.4 2.4 9 0 10.9-.3 10.9-1.5s-1.9-1.5-10.8-1.5c-6 0-11.2.3-11.5.6m-862.9 2.1c-2.4.6-2.3 3.3.1 3.3 2.3 0 3.8-1.8 2.5-2.9-.5-.4-1.7-.6-2.6-.4m9.3.7c-1.8 2.1.7 2.6 13.4 2.6 11.1 0 14.7-1 11.4-3.1-2.4-1.5-23.5-1.1-24.8.5m387.6-.2c-1.4 1.1-1.5 1.9-.7 4.8.5 1.9 1 11.7 1 21.7 0 16 .2 18.3 1.6 18.3s1.5-2.4 1.2-21c-.3-19.6-.2-20.9 1.5-20.4 2.2.7 2.4-3.1.1-4-2.2-.8-2.8-.8-4.7.6m-414 .4c-1.4 1.4.6 2.4 4.9 2.4 3.2 0 4.4-.4 4.4-1.5s-1.1-1.5-4.3-1.5c-2.4 0-4.7.3-5 .6m-135.5 4.7c-1.8 2.1-5.3 12-4.8 13.4.3.7 1.2 1.3 1.9 1.3 1 0 2.1 3.5 3.6 11.7 2.8 15 5.4 18.1 11.2 13.4l2.3-1.9-1.8-9.3c-.9-5.2-2-10.6-2.3-12.2-.4-2-.2-2.7 1.1-2.7 2.6 0 1.8-3-2.1-7.9-5.7-7.1-7.2-8.1-9.1-5.8m7.3 21.1c2.3 11.7 2.6 14.9 1.6 15.9-1.7 1.6-4.1-1.6-4.1-5.4s-1.8-12.4-3.7-18.1c-1.4-3.9-1.5-5.2-.4-7.5 1.1-2.5 1.4-2.6 2.5-1.1.7.9 2.5 8.2 4.1 16.2m1008.5-17.9c0 1.3 1.5 1.5 9.7 1.3 6.6-.2 9.8-.7 10.1-1.6s-2.1-1.2-9.7-1.2c-8.4 0-10.1.3-10.1 1.5m-423.5 1.8c-2.1 1.6-.5 3.3 2.1 2.3 1.7-.7 6.9 2.5 9.6 5.8 1 1.2 1.8 3.5 1.8 5.2 0 3.4-3.3 8.4-5.6 8.4-1.5 0-2 5.3-.8 8.4.5 1.4 1 1.4 4.2 0 4.7-1.9 7-4 9.3-8.6 3.9-7.6 1.6-16.6-5.3-20.8-3.9-2.3-12.5-2.7-15.3-.7m14.4 4.3c4.3 3.6 5.6 9 3.5 14.3-1.7 4.3-6.8 8.9-7.9 7.2-.3-.6.6-1.8 2-2.7 3-1.9 5.5-6.3 5.5-9.4 0-3.4-2.9-7.9-6.3-10-2-1.3-2.6-2-1.5-2 .9 0 3 1.2 4.7 2.6m-471.4-3.6c-.8 1.2 1.4 2.2 5.7 2.4 2.3.1 3.3-.3 3.3-1.4 0-1.8-7.9-2.7-9-1m15 0c-.4.7-.3 1.6.3 2.2 1.4 1.4 6.5.1 5.9-1.5-.5-1.6-5.3-2.1-6.2-.7m867.8 5.7c-5.2 1-1.7 2.2 7.3 2.5 9.8.3 12.2-.1 11-2.1-.7-1.1-13.4-1.3-18.3-.4"/><path d="M1350.4 1169.5c-.4.9-.4 4-.2 7 .5 5.9 2.3 8.7 7.1 11.1 4.8 2.5 5 .4.2-4-3.5-3.3-4.5-4.9-4.5-7.4 0-3.6.6-3.9 3.1-1.6 1.1 1 2.5 1.3 3.8.9 2.6-.8 2.7-2.4.4-3.1-1-.3-3.5-1.5-5.6-2.6-3.3-1.7-3.8-1.8-4.3-.3m-537.3 4c-4.4 4.8-4.6 5.2-3.1 7.5.7 1.2-.6 3.1-5.8 8.2-3.6 3.8-7 6.8-7.4 6.8-1.8 0-.6-2.2 3.2-6.1 2.2-2.3 4-4.7 4-5.5 0-1.6-3.8-4.4-6-4.4-1.8 0-11 9-11 10.8 0 1.1 9.5 9.2 10.9 9.2.4 0 1.6-.6 2.7-1.4 1.7-1.3 2.1-1.1 4.7 3 1.5 2.4 2.7 5.2 2.7 6.2s.7 4.2 1.6 7.1c1.9 6.7 4.9 8.4 9.9 5.7 1.9-1 3.6-2.4 3.9-3.1.2-.7-.8-5-2.4-9.6-2.5-7.6-2.6-8.5-1.3-10.6.9-1.3 1.3-3.2 1-4.3-.3-1.3.1-2.1 1.4-2.5 2.6-.9 7.9-7.6 7.9-10.1 0-4.7-4.8-5.5-8.5-1.4-2.2 2.4-1.2 3.9 1.5 2.2 2.5-1.5 3-1.5 3 .1 0 1.9-4.3 5.7-6.4 5.7-1.1 0-2.2-1.2-2.9-3-.6-1.7-1.7-3-2.4-3-2.3 0-1.4-2.8 1.8-5.4 1.7-1.4 3.5-2.6 4-2.6 1.5 0 1-2.7-.7-3.4-.9-.3-1.7-.6-1.9-.6-.1 0-2.1 2-4.4 4.5m-14.1 11.3c0 1.7-6 7.2-7.9 7.2-2.8 0-2.7-.4 1.7-4.5 3.5-3.3 6.2-4.5 6.2-2.7m18.3 5.5c1.6.6 1.6 1-.8 5.7-3.4 6.7-5 7.2-8.6 2.9-1.6-1.9-2.9-3.8-2.9-4.4 0-.5 1.7-2.6 3.7-4.7 3.6-3.7 3.8-3.8 5.3-2 .8 1.1 2.3 2.2 3.3 2.5m-.4 16.4c3.3 8.2 3.1 11.3-1 11.3-1.3 0-2.2-1.6-3.4-5.6-1.5-5.3-1.5-5.7.2-7 2.5-1.9 2.9-1.8 4.2 1.3m970.9-29.9c-2.1.2-3.8.7-3.8 1.3 0 .5 4.6.9 10.5.9 5.8 0 10.5-.4 10.5-.9 0-2-5.2-2.4-17.2-1.3m-263.5 10.7c-1.6 1.1-2.3 2.8-2.5 6.3l-.3 4.7-14.7.7-14.7.8-2.8-2.6c-3.6-3.3-6.4-4.4-11.6-4.4-14.8 0-19.7 21-6.4 27.3 7 3.4 15.2 1.2 20.6-5.4 1.5-1.8 2.7-1.9 15.6-1.7l14 .3.5 3.5.5 3.5 7.8.3c5 .2 8.4-.1 9.3-.9 1.9-1.5 2-19.2.1-20.7-.6-.6-2.8-1.2-4.7-1.4-3.4-.3-3.4-.4-3.5-5.1 0-6.4-2.7-8.3-7.2-5.2m3.5 8.3.3 5.2h4.5c3.7 0 4.4.3 4.4 2s-.7 2-4 2c-5.2 0-5.2 1.8 0 2.6 4.7.8 4.8 2.8.2 3.2-4.2.4-4.1 2 .1 2.4 2.5.2 3.3.8 3.5 2.6.3 2.2.1 2.3-5.5 2l-5.8-.3-.3-13.8c-.2-10.9 0-13.8 1-13.5.8.3 1.4 2.5 1.6 5.6m-43.9 1.7c3.7 1.9 6.5 7.7 5.7 11.9s-5.4 8.5-9.8 9.2c-11.7 1.9-17.7-14.4-7.6-20.6 3.9-2.4 7.8-2.5 11.7-.5m37.1 8.8v4.3l-13.7-.3c-7.6-.2-13.8-.7-13.8-1.1s5.3-.8 11.8-1c9.5-.2 11.7-.5 11.7-1.7s-2.1-1.5-12-1.5c-10 0-12-.3-12-1.5 0-1.3 2.2-1.5 14-1.5h14z"/><path d="M1474.2 1202.6c-2.6 1.8-3 6.5-.7 8.8 2.7 2.6 5.6 2.9 8.4.9 7.1-5.4-.4-14.9-7.7-9.7m6.7 3.3c1.5 2.6-2.1 6-4.4 4.1-1.8-1.5-1.9-3.2-.3-4.8 1.7-1.7 3.6-1.5 4.7.7m303.1-18.4c0 1.2 1.7 1.5 10.6 1.5 8 0 10.5-.3 10.2-1.3-.3-.8-3.6-1.3-10.6-1.5-8.6-.2-10.2 0-10.2 1.3m0 10c0 1.2 1.9 1.5 11 1.5s11-.3 11-1.5-1.9-1.5-11-1.5-11 .3-11 1.5m7 7.1c0 1 1.5 1.4 5.1 1.4s4.9-.4 4.6-1.3c-.6-1.8-9.7-1.9-9.7-.1m-993.3.1c-1.3 1.2-.7 3.3.8 3.3.8 0 1.5-.9 1.5-2 0-2-1.1-2.6-2.3-1.3"/></svg>