<svg xmlns="http://www.w3.org/2000/svg" version="1.0" viewBox="0 0 2560 1706"><path d="M1026.8 500.9c-6.8 5.9-27.6 14.6-40.8 17.1-11.1 2.1-15.6 3.8-16.8 6.5-2.6 5.6-.6 14.2 3.7 16.5 1.1.5 3.7 1 5.8 1.1 7.7.2 8.5.9 10.3 7.9 3.4 13.3 8 18.2 13.5 14.6 3.4-2.2 3.8-4.5 2.1-12.7-.9-4-1.4-7.4-1.3-7.5.2-.2 3 .3 6.3 1.1 7.2 1.7 14.7 4.8 19.4 8 2 1.4 5 2.7 6.7 3.1 4.4.9 5.7-1.8 4.8-10.5l-.7-6.7 3.8-2.4c6.6-4.3 6.9-13.1.6-18-1.3-1.1-3.3-2-4.3-2-1.6 0-1.9-.8-1.9-4.3-.1-8.9-2.7-14.7-6.7-14.7-.7 0-2.7 1.3-4.5 2.9m6.7 3.3c.4 2.2 3.3 31.2 4.2 44 .5 6.2-.2 6.9-3.5 4-1.5-1.3-2.4-4.3-3.6-11.7-1.6-9.9-3.5-27.5-3.6-32.7 0-4.9 5.5-8 6.5-3.6m-8.1 18c1 8.4 2.2 17.8 2.6 20.8s.6 5.6.5 5.8c-.2.2-2-.5-4.2-1.6-4.9-2.5-13.9-5.1-22.8-6.6-8.1-1.3-8.2-1.6-8.4-13.6l-.1-7.5 8.8-2.8c4.8-1.5 11.4-4.3 14.7-6.1 3.3-1.9 6.2-3.4 6.5-3.5.3 0 1.4 6.8 2.4 15.1m-34.9 16.5c-.6 1.8-5.1 1.6-7-.3-1.2-1.3-1.5-3.3-1.3-9.3l.3-7.6 3.5-.5 3.5-.5.7 8.5c.4 4.7.5 9.1.3 9.7m53.1-16c2.1 2.8 1.7 9-.6 11.3-1.1 1.1-2.4 2-2.9 2-.8 0-2.1-7.8-2.1-12.8 0-2.7 3.6-3.1 5.6-.5m-64.3 8.5c.4 8.2-.1 9-4.7 7.2-2-.8-4-7.8-3.1-11.1.5-2.2 6.8-6.1 7.2-4.5.1.4.3 4.2.6 8.4m21.4 16c.7 2.1 1.4 6.1 1.5 9 .3 5.1.2 5.3-2.4 5.6-3.4.4-5.4-2.5-7.3-10.5-2.1-8.5-2.1-8.5 2.8-8.1 3.9.3 4.3.6 5.4 4M904 502.4c-.8.8-5.9 3.7-11.2 6.4-10 5.1-21 8.5-31 9.7-8.3.9-10.8 3.6-10.8 11.3 0 7.9 1.7 10 9.5 11.6l5.9 1.2 1.1 5.9c2.1 11 5.8 16.5 11.2 16.5 4.2 0 5.6-2.7 4.9-9.7-.4-3.5-1.1-7.5-1.7-8.9-.5-1.5-.7-2.9-.5-3.2 1-1 15.4 3.3 21.2 6.3 9.6 5 12.2 5.7 13.3 3.7.5-1 .7-4.5.4-7.7l-.5-6 3.6-2.2c8.2-5.2 6.4-17.7-3-20.2-2.3-.6-3-1.4-3.2-3.7-.5-6.3-1.3-9.4-2.8-10.9-1.9-1.9-4.5-1.9-6.4-.1m5 5.5c0 1.5 1.1 11.7 2.5 22.7 1.5 12 2.1 20.2 1.6 20.7-.6.6-1.9 0-3.4-1.5-2-2-2.6-4.2-4-14.8-3.5-27.1-3.4-30 1.4-30 1.4 0 1.9.7 1.9 2.9m-8.6 4.3c.7 4.2 3.6 31.4 3.6 33.3 0 1.1-.8 1-4.5-.6-5.4-2.4-18.8-5.9-22.6-5.9-2.4 0-2.9-.5-3.4-3.3-.3-1.7-.5-6-.3-9.5l.3-6.4 8.1-2.7c4.5-1.6 10.1-4 12.5-5.4 5.7-3.3 5.7-3.3 6.3.5m-30.2 18.1.4 8.8-3.5-.3-3.6-.3-.3-8.7-.3-8.7 2.8-.3c1.5-.2 3.1-.1 3.4.2.4.3.9 4.5 1.1 9.3m49.6-8.3c3.1 2.9 2.8 7-.7 11.1-1.7 1.8-3.2 3.1-3.6 2.8-1-1.1-2.8-12.6-2.2-14.3.9-2.2 3.9-2 6.5.4m-59.9 8.5c.2 6.9 0 7.5-1.8 7.5-2.3 0-3.6-2-4.6-7.2-.9-4.5.8-7.8 3.9-7.8 2.2 0 2.3.4 2.5 7.5m19.6 19.3c2 9.1 1.8 11.6-1.2 12-2.9.4-5.1-3-7.4-11.5-2.1-7.4-1.7-8.3 3.7-8.3h3.1zm173-46.5c-4.6 5.3-6.3 10.7-2.4 7.1 1.9-1.7 4.9-6.5 4.9-7.9 0-.9-1.5-.5-2.5.8m372 .1q-1.65 1.2-1.8 6.3c-.2 4.8-.9 6.7-2.5 6.8-3.8.3-8.3 2.1-11.2 4.5l-3.5 2.9v37.6l3.5 1.8c3.2 1.6 6.6 1.7 36.8 1.5 31.7-.3 33.4-.4 34.8-2.2 1.1-1.5 1.4-5.8 1.4-18.3v-16.4l-2.4-2.2c-1.7-1.6-2.3-3.3-2.3-6.4 0-5-1.1-6.5-7.2-10-2.5-1.5-5.9-3.7-7.5-5l-2.8-2.4-16.8.1c-11.4.1-17.4.6-18.5 1.4m36.3 16.3.3 13.2-7.1 4.2c-3.9 2.3-7.3 4.5-7.6 5-1 1.7-4.3.9-10.6-2.7-10.3-5.8-9.8-4.8-9.8-20.1V506l17.3.2 17.2.3zm6.5-8.6c4.9 2.5 6.7 5.1 6.7 9.5 0 4-.3 4.4-4.9 7.2-2.7 1.7-5.2 2.8-5.5 2.5-1.1-1.1-.7-20.3.5-20.3.6 0 2 .5 3.2 1.1m-44.7 9.3c.3.7.4 3.4.2 6l-.3 4.6-5.5-2.9c-6.8-3.6-7.3-6-1.5-7.7 5.3-1.7 6.5-1.7 7.1 0m-2 13.1c6 3.6 11.2 6.9 11.7 7.4s-1.3 2.1-4 3.6c-2.6 1.6-8.1 5-12.1 7.7-4.1 2.6-7.5 4.8-7.8 4.8-.2 0-.4-6.8-.4-15 0-8.3.4-15 .9-15 .4 0 5.7 2.9 11.7 6.5m57.2 10.3-.3 15.2-9.4-6c-5.1-3.4-11.1-7-13.3-8.1-3.2-1.7-3.7-2.3-2.8-3.5.7-.8 1.7-1.4 2.2-1.4s3-1.5 5.6-3.2c7.2-5 16.6-9.8 17.5-8.9.4.4.6 7.6.5 15.9m-38.3.9c2.8 1.3 4.2 1.5 6.4.7 2.5-1 3.8-.5 14.6 6.2 6.5 4 12.3 7.8 12.9 8.4.7.7-8.6 1-30.7 1-21 0-31.7-.3-31.7-1 0-.8 23.6-17 24.7-17 .1 0 1.8.8 3.8 1.7"/><path d="M1436 515c0 .6 3.2 1 7.6 1 4.7 0 7.3-.4 6.9-1-.3-.6-3.7-1-7.6-1s-6.9.4-6.9 1m0 9.5c0 1.3 1.2 1.5 7.8 1.3 4.3-.2 7.7-.7 7.7-1.3s-3.4-1.1-7.7-1.3c-6.6-.2-7.8 0-7.8 1.3m-3.7 8.1c-.7.3-1.3 1-1.3 1.5 0 1.3 19.9.7 20.3-.6.2-1-16.8-1.8-19-.9m123.7-29.7c-7.1 1.4-12.3 5.2-15 10.9l-2.5 5.3-4-.5c-5.9-.7-12.1 1.2-15 4.6-2 2.3-2.5 4.1-2.5 8.1 0 6.7 2.4 10.5 8.5 13.7l4.7 2.4-6.8 1.7c-7.7 1.9-12.4 5.9-12.4 10.7 0 5.4.7 5.7 16.5 6 21.4.5 23.3-.1 21.9-7.4-.9-4.6-4.4-8.1-9-8.9-2.2-.3-4.8-1-5.9-1.4-1.8-.7-1.6-1 2-2.9 2.2-1.1 5-3.1 6.3-4.5l2.3-2.4 4.7 2.4c4.1 2.2 5.6 2.4 12 1.9 6.1-.5 8-.3 11.3 1.4 3.7 1.9 8 2.3 9.5.7.4-.4-.5-2.4-1.9-4.5l-2.5-3.9 1.9-3c2.3-3.6 3.4-10.8 2.5-15.8-1-5.2-7.5-12-12.9-13.3-6.6-1.7-9.9-2-13.7-1.3m14.7 5.2c6.2 3 8.8 7.1 8.8 13.9 0 6.2-2.3 11-6.8 14.4-2.4 1.8-4.2 2.1-12.7 2.1-9.1 0-10-.2-12.5-2.5-4-3.8-5.5-7.3-5.5-13.3 0-3.9.6-6.3 2.3-8.8 4.9-7.4 17.4-10.2 26.4-5.8m-32.3 18c.3 2.5 1.3 5.4 2.1 6.5 2.1 2.8 1.8 5-1.1 7.3-8 6.3-19.5 1.3-19.4-8.4.1-6.9 4.6-10.5 12.6-10.2l5.2.2zm38 13.5c.8 2.1.3 2.6-1.7 1.8-.9-.3-1.3-1.2-1-2 .7-1.9 1.9-1.8 2.7.2m-34.1 14.1c2.8 1.4 5.2 5.7 4.1 7.4-.3.5-7.7.9-16.5.9H1514v-2c0-3.1 4.3-6.8 8.6-7.5 2.2-.4 4.4-.8 4.9-1 1.9-.7 12 .8 14.8 2.2"/><path d="M1548.4 523.4c-.8 2.1.3 3.6 2.7 3.6 1.5 0 2-.6 1.7-2.2-.4-2.7-3.5-3.7-4.4-1.4m9 .1c-.4.9-.2 2.1.4 2.7 1.5 1.5 4.4.1 4-1.9-.4-2.3-3.6-2.9-4.4-.8m10.3-.8c-1.5 1.4-.7 4.3 1.2 4.3 2.4 0 3.3-1.3 2.5-3.4-.6-1.6-2.5-2.1-3.7-.9m-831.1-16.6-2.6 2v25.4c0 25.5.5 29.7 3.5 30.9 2.1.8 70.5.9 72.7.1.8-.3 1.9-2 2.2-3.7.8-3.9.6-33.6-.2-40.7-.7-5.2-1-5.8-7-10.8L799 504h-59.7zm62.4 28.7.5 27.2-30.5-.2-30.5-.3-.3-26c-.1-14.3 0-26.5.3-27.2.3-1.1 6.7-1.3 30.2-1.1l29.8.3zm10 4.7V562h-7l-.1-21.8c-.1-11.9-.2-22.8-.1-24.2.1-6.6 0-6.5 3.7-2.7l3.5 3.6z"/><path d="M744.9 517.7c-.1 1.6-.2 5.3-.3 8.3l-.1 5.5 14.3.3 14.2.3.1-4.1c.1-2.2.2-4.7.2-5.5s-.1-2.9-.2-4.5l-.1-3h-28zm24.5-.1c1.2.5 1.6 2.1 1.6 6.5v6l-11.7-.3-11.8-.3-.3-4.9c-.5-7.6-.5-7.6 10.7-7.6 5.5 0 10.6.3 11.5.6m10.6-1.3c0 .9 1.2 1.2 3.8 1.1 2-.1 4.5-.3 5.5-.3.9-.1 1.7-.6 1.7-1.1 0-.6-2.5-1-5.5-1-3.9 0-5.5.4-5.5 1.3m0 7c0 .9 1.6 1.2 5.7 1.1 8-.2 8.3-2.4.4-2.4-4.3 0-6.1.4-6.1 1.3m0 7.7c0 .6 2.7 1 6 1s6-.4 6-1-2.7-1-6-1-6 .4-6 1m-33.3 6.6c-1.7 1.7 1.3 2.4 10.9 2.4 8.6 0 10.4-.3 10.4-1.5s-1.8-1.5-10.3-1.5c-5.7 0-10.7.3-11 .6m25.6 0c-3.6 1.5-.2 2.4 9.3 2.4 8 0 10.5-.3 10.2-1.3-.5-1.2-16.9-2.2-19.5-1.1m-26.8 8.4c-.4.7 7.5 1 22.9 1 15.1 0 23.6-.4 23.6-1s-8.3-1-22.9-1c-14.3 0-23.2.4-23.6 1m1.5 7c0 .6 4 1 10.1 1 6.4 0 9.8-.4 9.4-1-.3-.6-4.8-1-10.1-1-5.6 0-9.4.4-9.4 1m25.5 0c-.4.6 3 1 9.4 1 6.1 0 10.1-.4 10.1-1s-3.8-1-9.4-1c-5.3 0-9.8.4-10.1 1m866.9-46.9c-1.8 2-1.9 4-1.9 29 0 23.2.2 27 1.6 28.4 1.3 1.4 4.8 1.6 23.3 1.7l21.7.1 3.5-3.4 3.4-3.3v-10.5c0-5.9.4-11.1.8-11.7s2.7-1.4 5.1-1.7 4.8-1.1 5.2-1.9c.5-.7.9-4.1.9-7.5 0-8.3-1.1-9.3-10.4-9.3h-7.3l-.9-4.7c-1.3-6.9-2.5-7.3-24.5-7.3-17.6 0-18.7.1-20.5 2.1m40.8 2.6c1.7 1.5 1.8 3.7 1.8 27.5V562h-41v-26.8c0-14.8.3-27.2.7-27.5.3-.4 8.7-.7 18.6-.7 15.4 0 18.3.2 19.9 1.7m9.3 11.5c.2.7.5 3.4.8 6l.5 4.8h-2.9c-2.8 0-2.9-.2-2.9-4.4 0-2.4-.3-5.1-.6-6-.5-1.2 0-1.6 2-1.6 1.5 0 2.8.6 3.1 1.2m8.9-.6c1.2.4 1.6 2 1.6 5.4 0 5.2-1.8 8-5.1 8-1.7 0-1.9-.8-1.9-7s.2-7 1.9-7c1.1 0 2.6.3 3.5.6m-10.6 26.2c-.2 8.9-.7 12.7-1.5 13-1 .3-1.3-2.8-1.3-13.2 0-11.7.2-13.5 1.5-13s1.5 2.7 1.3 13.2"/><path d="M1648 517.5c0 1.3 2.1 1.5 12.5 1.5s12.5-.2 12.5-1.5-2.1-1.5-12.5-1.5-12.5.2-12.5 1.5m0 10.5c0 .6 4.8 1 12.5 1s12.5-.4 12.5-1-4.8-1-12.5-1-12.5.4-12.5 1m.2 16.2.3 8.3h24v-16l-12.3-.3-12.3-.3zm21.8-.2v6h-19v-12h19zm-567.2-37.8c-4.9 1.3-11.6 7.2-13.9 12.2-1.9 4.2-2.4 10-1.3 15.5 1 4.7 8 11.7 13.9 14 4.8 1.8 5 2.1 5.5 6.1.3 2.4 1 4.5 1.7 4.7.7.3 3.5-1.7 6.3-4.3 5.7-5.4 8.3-5.8 13.2-2.2 3.9 3 21.9 10.8 26.4 11.5 4 .7 4.5-.3 3.3-5.8l-1-4.4 3.4-3c5.1-4.4 7.1-8.9 6.3-14.4-.9-6.4-4.5-11.4-9.3-13-3.1-1-4.2-2.1-5.2-4.7-1.8-5.1-7.6-10.2-13.4-11.9s-29.8-1.9-35.9-.3m33.2 2.9c8.4 2.2 14 8.3 14 15.3 0 6.5-2 11.4-6.6 15.5-4.9 4.6-9.4 6.1-18.3 6.1h-6.3l-4.4 4.7c-2.4 2.7-4.4 4.3-4.5 3.8-.1-.6-.2-1.5-.4-2-.1-.6-.3-2.1-.3-3.5-.2-2.2-.9-2.8-4.6-3.8-7.7-2-14.5-10.1-14.6-17.2 0-7.4 5.2-15.4 11.9-18.3 5.5-2.3 26.3-2.7 34.1-.6m23.4 19.3c3.3 3 3.6 3.9 3.6 8.7 0 5.7-2.9 11.4-6.3 12.5-2.5.8-3.9 4.8-2.7 8 1.4 3.6 1.3 3.6-2 1.9-1.7-.9-5.9-2.5-9.3-3.5-3.4-1.1-7.8-2.9-9.7-4.1l-3.5-2.2 4.8-1.3c10-2.6 17.5-10.2 18.5-18.9.6-5.5 1.8-5.7 6.6-1.1"/><path d="M1103.6 526.6c-.8 2 1.1 4.4 3.4 4.4 1 0 2.3-.6 2.9-1.4 1.8-2.1.2-4.6-2.9-4.6-1.7 0-3 .7-3.4 1.6m14.8-.2c-.9 2.2 1.5 4.8 4 4.4 1.5-.2 2.1-1 2.1-2.8 0-2-.6-2.6-2.8-2.8q-2.7-.3-3.3 1.2m14 .1c-.9 2.3.3 4.5 2.4 4.5 2.5 0 4.4-2.3 3.6-4.4-.8-2-5.3-2.1-6-.1m68.8-20.2c-.6.7-1.2 4.2-1.4 7.7l-.3 6.4-3.5.9c-1.9.5-3.8 1.4-4.2 2-.4.7-.8 9.6-.8 20V562l2.6 1c3.9 1.5 63.7 1.3 65.2-.2.9-.9 1.2-6.8 1.2-20.5v-19.2l-2.2-2.1c-1.2-1.1-3.1-1.9-4.3-1.8-1.7.3-2.1-.5-2.7-5.6-.4-3.2-1.3-6.5-1.9-7.2-1.6-2-46.1-2-47.7-.1m45.4 2.9c.5.7 1 5.1 1.2 9.9l.4 8.6-2.8 2.8c-2.7 2.5-13.2 9.7-18.1 12.3-1.9 1.1-3 .6-9-3.5-3.7-2.6-8.7-6-11-7.6l-4.3-2.8V508h21.4c16 0 21.7.3 22.2 1.2m-46.6 15.3c0 .8-.6 1.5-1.4 1.5-1.7 0-2.8-1.4-1.9-2.4 1.2-1.2 3.3-.6 3.3.9m55.5-.5c1.6.6 1.7.9.5 1.3-3.9 1.3-6 1.4-6 .3 0-2.6 1.8-3.1 5.5-1.6m-49.5 10.1c5.8 4.2 6.9 5.4 5.8 6.4-.7.7-5 4.5-9.5 8.4l-8.3 7.2V527l2.5 1c1.3.5 5.6 3.3 9.5 6.1m50.8 10.4-.3 15.6-28.7-.1h-31.2c-2.3 0-2-.5 2.7-4.8 2.9-2.6 7.7-6.9 10.7-9.4l5.6-4.7 4.6 3c4.4 2.9 4.7 2.9 8.1 1.6 1.9-.8 3.8-2 4.1-2.6 1.3-2.1 3.2-1.1 10.4 5.4 8.5 7.6 12 10 13 9.1.7-.7-1.6-3-12.6-12.8l-5.2-4.6 7.1-5.6c4.2-3.3 8.1-5.6 9.5-5.6h2.5z"/><path d="M1214.7 517.6c-2 2 .3 2.4 11.1 2.2 6.9-.2 11.7-.7 11.7-1.3 0-1.1-21.7-2-22.8-.9m-1.4 8.6c.3 1 3.5 1.3 11.7 1.3s11.4-.3 11.8-1.3c.3-.9-2.5-1.2-11.8-1.2s-12.1.3-11.7 1.2m5.7 7.8c0 .6 3.5 1 8.5 1s8.5-.4 8.5-1-3.5-1-8.5-1-8.5.4-8.5 1m87.5-28.3c-3.5.8-4.5 3.3-4.5 11.4v7.8l-5.2.3-5.3.3v17.8c0 14.7.3 17.9 1.5 18.7 2.4 1.6 77.5 1.3 78.8-.3 2-2.5 2.4-7.7.8-10.2-1.2-1.8-1.6-5-1.6-12.8 0-11.9-.7-13.5-6.5-13.9l-4-.3-.1-7.9c-.1-12 .8-11.6-28.3-11.5-13 .1-24.5.3-25.6.6m48.9 2.9c1.4.5 1.6 3.3 1.6 21V550h-51v-20.3c0-11.2.3-20.7.7-21 .8-.9 46.6-.9 48.7-.1M1303 539v11h-9v-22h9zm64 0v11h-7v-22h7zm3.2 18.5-1.2 2.5h-36.3c-38.4 0-38.7 0-38.7-4.7V553l37.3-.2c40.3-.3 41.1-.2 38.9 4.7"/><path d="M1313 517c0 .5 2.4 1 5.4 1s6.1.3 7 .6c1.1.4 1.6.1 1.6-1 0-1.3-1.2-1.6-7-1.6-4 0-7 .4-7 1m-.5 8c.3.5 3.7 1 7.6 1s6.9-.4 6.9-1-3.2-1-7.6-1c-4.7 0-7.3.4-6.9 1m20 0c.3.5 4.2 1 8.6 1h7.9v12.9l-7.2.3c-4.6.2-7.3.7-7.6 1.5-.3 1 1.7 1.3 7.7 1.3h8.1l1.1-2.7c.5-1.5.9-5.4.7-8.7l-.3-6.1-9.8-.3c-6.6-.2-9.7.1-9.2.8m-20 8c-.4.6 2.2 1 6.9 1 4.4 0 7.6-.4 7.6-1s-3-1-6.9-1-7.3.4-7.6 1"/><path d="M1332 533c0 .5 1.8 1 4 1s4-.5 4-1c0-.6-1.8-1-4-1s-4 .4-4 1m-20 7.5c0 1.2 1.4 1.5 7.6 1.5 5.6 0 7.5-.3 7.2-1.3-.3-.8-3-1.3-7.6-1.5-6-.2-7.2 0-7.2 1.3m443.2-31.9c-6.4 3.2-11.3 8.7-14.1 16-3.5 9.4-2.4 17.1 3.4 22.4 2.3 2.1 3.6 2.5 9.2 2.5 5.9 0 6.7-.3 8.9-2.8 3.1-3.6 3.9-7.1 2.5-10.5-1.9-4.5-6.2-6.4-13.4-6l-6.2.3.4-2.5c.8-6.2 5-11.5 12.9-16.4 4-2.5 5-4.5 2.6-5.3-.5-.2-3.3.8-6.2 2.3m31.3.3c-7.6 5.7-8.4 6.6-11.4 12.6-3.5 6.8-4.2 15.5-1.6 20.4 2.5 4.9 7.2 8.1 11.9 8.1 7.3 0 11.5-4.1 11.6-11.3 0-8.2-6.1-11.7-14.9-8.6-4.3 1.5-5.3.3-3.9-4.4 1.7-5.6 7.4-11.6 13.6-14.4 5.8-2.5 6.4-4.6 1.6-5.1-2.1-.2-4.2.6-6.9 2.7m-856.2 1.7c-2.9 2.2-4.4 5.4-2.7 5.4 1.4 0 7.4-5.4 7.4-6.6 0-2-1.1-1.7-4.7 1.2m125 6.5c-2.4 1.2-4.3 2.5-4.3 3.1 0 .5.3.8.8.6.4-.2 2.8-1.1 5.5-2.2 2.6-1 4.7-2.3 4.7-2.7 0-1.4-2.2-1-6.7 1.2m-123 8.1c-3.5 1.7-2.7 3 1.5 2.3 5.8-1 7.3-1.6 6.7-2.6-.8-1.2-5.4-1-8.2.3m121.5 2.5c-3.4.9-1.7 2.1 3.8 2.8 5.3.6 9-.4 6.6-1.9-1.4-.8-8.3-1.4-10.4-.9M929 537.9c0 1 7 7.1 8.2 7.1 1.7 0 .7-2.1-2.4-5-3.2-2.9-5.8-3.8-5.8-2.1m122 3.1c0 1.5 5 6 6.6 6 2.3 0 1.6-1.3-2-4.3-3.8-2.9-4.6-3.2-4.6-1.7m168.5 59.5c-.3.8-.7 2.2-1 3-.3 1.2-2.2 1.5-8.4 1.5-6.3 0-8.4.4-10.2 1.9l-2.4 1.9-.3 28c-.3 25.2-.1 28 1.4 29.3 1.3 1.1 6.1 1.5 20 1.7 17.5.3 18.4.2 20.4-1.8 1.8-1.8 2.1-3.1 1.8-9l-.2-6.8 8.1-10c12.8-15.6 14-18 10.3-22-3.5-3.7-7.1-2.9-12.4 2.8-2.6 2.7-4.8 5-4.9 5s-.3-3.5-.4-7.7c-.3-11-1.7-12.6-11.4-13.3-5.6-.4-7.4-.9-7.5-2-.2-3.4-.4-4-1.4-4-.6 0-1.3.7-1.5 1.5m16.7 9.2c1 1.2 1.7 4.9 2.1 11l.6 9.1-7.9 10.4c-9.3 12.2-10.3 14.9-6.5 17.4l2.6 1.7 4.7-2.4c2.6-1.3 5.1-2.5 5.5-2.7.5-.2.7 1.8.5 4.4l-.3 4.9h-37l-.3-26.5c-.2-24-.1-26.6 1.5-27.8 1.2-.8 6.4-1.2 17.3-1.2 13.7 0 15.9.2 17.2 1.7m20.8 11.4c1.4 2.5.9 3.4-10.6 17.1-4.8 5.7-8.9 10.5-9.1 10.8-.6.6-3.5-1.4-4.6-3.2-.8-1.1.7-3.7 6.3-10.9 12.7-16.3 15.5-18.5 18-13.8m-24.4 32.5c-4.1 3-6.9.5-4.7-4.3l1.2-2.6 2.7 2.7 2.7 2.7z"/><path d="M1208 622.3c0 3.3 1.9 4.7 4.8 3.6 3.7-1.4 2.6-5.3-1.5-5.7-2.9-.3-3.3 0-3.3 2.1m14 1.2c0 1 1.1 1.5 3.5 1.5s3.5-.5 3.5-1.5-1.1-1.5-3.5-1.5-3.5.5-3.5 1.5m-13.3 10.1c-2.7 2.7 2 7.7 4.9 5.3 2.3-1.9 1.3-5.3-1.6-5.7-1.4-.2-2.9 0-3.3.4m13.3.3c0 1.6 2 2.3 4.6 1.7 3.6-.9 2.9-2.6-1.1-2.6-1.9 0-3.5.4-3.5.9m-12.8 13.3c-.7.7-1.2 2.5-1.2 4 0 2.1.7 3.2 2.6 4 2.2 1.1 2.8 1 4-.7 1.8-2.5 1.8-5-.2-6.9-1.9-1.9-3.6-2-5.2-.4m450.8-46.5c-7.5 2.9-11 9.3-11 20.3v8.2l-4.2-.3-4.3-.3.1 6.1c.2 11.3 7.5 20.7 17.2 22l4.2.6v4.2c0 4-.2 4.3-3.1 4.9-1.7.3-4.7.6-6.5.6-5 0-4.1 1.8 1.3 2.6 4.7.7 27.2-.2 28.1-1.1 1-.9-.4-1.4-5.8-1.9-5.9-.6-7-1.6-7-6.3 0-2.8.4-3.3 3.3-3.8 4.2-.8 10.6-5.3 13.4-9.4 2.6-3.8 3.9-11.4 2.7-15-.7-2-1.7-2.7-4.2-2.9l-3.2-.3v-8.1c0-10.2-2.2-15.4-7.9-18.6-3.7-2.1-9.7-2.8-13.1-1.5m10.4 4.3c5.9 2.8 6.8 4.9 6.7 14.8 0 4.6-.3 8.7-.6 9.1-.4.3-5.9.6-12.3.6h-11.7v-9c0-7.9.3-9.4 2.3-12 2.4-3.2 6.4-5.4 9.6-5.5 1.1 0 3.8.9 6 2m14.9 31.8c-.2 3.3-1 6.6-2.2 8.6-4.1 6.6-17.1 10.3-26.7 7.6-7.2-2-13.4-10.7-13.4-18.8 0-1.8.5-2.2 3.4-2.2 3.7 0 4.6 1.2 4.6 6 0 7.3 4.7 11 14 11 9.2 0 13.6-3.7 14.6-12.2.6-5.6.8-5.9 3.3-5.6s2.6.6 2.4 5.6m-8.8-2.8c1.1 1.7-1.5 8.9-3.8 10.5-1.3.9-4.3 1.5-8 1.5-4.8 0-6.2-.4-8.2-2.5-1.4-1.3-2.5-3.5-2.5-4.9 0-1.3-.3-3.1-.6-4-.5-1.4.8-1.6 10.9-1.6 6.5 0 11.8.4 12.2 1"/><path d="M1654 614c0 .5 1.6 1 3.5 1s3.5-.5 3.5-1c0-.6-1.6-1-3.5-1s-3.5.4-3.5 1m-.3 6.6c-1 1.1.3 2.4 2.4 2.4 1 0 1.9-.7 1.9-1.5 0-1.5-3.1-2.1-4.3-.9m-219.2-17.9c-3.2.8-8.5 5.3-9.6 8.1-.6 1.5-1 6.2-1 10.4v7.8h-3.4c-2.5 0-3.5-.4-3.5-1.6 0-.9-.7-1.4-1.7-1.2-1.4.3-1.9 1.5-2.1 6.3-.6 10.8 4.3 19.1 13.6 23.2l5.3 2.3-.3 3.8c-.2 2.8-.8 3.8-2.3 4-6 .9-6.7 1.2-5.5 2.7 1 1.2 4.1 1.5 14.9 1.5 12.5 0 17.6-.8 15.9-2.6-.4-.3-3.3-.9-6.5-1.3-4.9-.5-5.8-.9-6.1-2.7-.5-3.6 1.5-7.2 4.5-7.8 3.8-.9 9.6-6.4 12.3-11.6 1.8-3.5 2.1-5.6 1.8-10.7-.4-6.9-1.4-8.3-6-8.3h-2.8v-6.6c0-12.1-6.9-18.3-17.5-15.7m10.1 5.1c3.5 2.8 4.4 5.6 4.4 14.1v8.1h-8.7c-13.6 0-13.3.1-13.3-8.7 0-7.7 1.5-12.3 4.7-14.2 2.9-1.7 10.5-1.3 12.9.7M1425 637c1.1 8.5 4.6 12 12.3 12 5.8 0 11.6-2.5 12.6-5.4.5-1.2 1.1-4.2 1.5-6.9.6-4.1 1-4.7 3.1-4.7 3.2 0 3.7 1.1 2.9 6-1.4 8.8-8.1 14.3-19 15.5-5.1.5-7.1.3-10.6-1.3-7.6-3.4-11.7-9.7-11.8-18 0-2.1.4-2.3 4.3-2l4.2.3zm23.5-3.8c.9.9-1.7 10.2-3.2 11.4-2.6 2-11.3 1.7-14-.4-2-1.5-4.8-9.7-3.8-11.1.3-.6 20.4-.5 21 .1m-8.5 28.3c0 4.1-.2 4.5-2.5 4.5s-2.5-.4-2.5-4.5.2-4.5 2.5-4.5 2.5.4 2.5 4.5m-431.2-55.9c-3 1.6-6.3 6.8-5.3 8.4.4.6-1.5 1-4.7 1-2.9.1-8.4.5-12.3 1-6.5.8-7.3 1.2-11.2 5.3-7.8 8.3-8.5 20.2-1.6 29.5 1.4 1.8 3.6 3.8 4.9 4.4 1.5.7 3.1 3.1 4.6 6.9 1.3 3.3 2.7 5.9 3.2 5.9s2.9-2.2 5.5-4.9l4.6-4.9 9.1-.4c10.5-.5 14.9-2.5 19.1-8.9 1.4-2.2 3.1-3.9 3.7-3.9.7 0 4.3 2 8 4.5 8.9 5.8 17.1 8.3 13.6 4.1-.6-.9-1.6-3.2-2-5.1-.8-3.4-.6-3.7 2.6-5.8 12-7.7 10.7-30.4-2.2-36.7-3.5-1.8-6.1-2-20.5-2-12.5.1-17 .4-19.1 1.6m40 4.2c9.9 7.1 9.4 24.4-.9 30.1l-4.1 2.4.5 4.3c.5 4.7.4 4.7-4.8.9-1.6-1.2-4.9-3.2-7.2-4.4-3.8-1.9-4.3-2.5-4.3-5.7 0-1.9-1.1-5.7-2.5-8.4l-2.5-5h9c5.3 0 9-.4 9-1s-4-1-10-1c-8.9 0-10.3-.3-13.6-2.5-2-1.3-5.1-2.7-7-3.1-3.6-.7-4.4-2.7-2.1-5.6 2.7-3.4 5.1-3.8 21.2-3.6 14.9.3 16.2.5 19.3 2.6m-35.2 11.1c4.6 2.1 8.5 6.7 10.5 12.4 2.6 7.4-2.1 17-10 20.3-1.9.8-6.7 1.4-11.1 1.4h-7.8l-4 4.1-4.1 4.1-1.2-4.6c-.7-2.8-1.8-4.8-2.9-5.1-6.4-2-10.2-8.4-10.2-17.1 0-7.3 2-11.7 7.2-15.1 3-2.1 4.4-2.3 16.4-2.3 10.6 0 13.9.4 17.2 1.9"/><path d="M1028 629.5c0 1.3 1.1 1.5 6.5 1.3 8.7-.4 8.8-2.2.3-2.6-5.7-.2-6.8 0-6.8 1.3m-43.8 3.7c.5 1.4 21.2 2.4 25.7 1.3 5.4-1.4-.7-2.5-13.2-2.5-9.9 0-12.8.3-12.5 1.2m1.5 8.5c-1.9 1.9.5 2.3 12.7 2.3 12.4 0 17-.9 13-2.4-2.1-.8-24.9-.8-25.7.1m111-35.9c-1.5 1.6-1.7 4.8-1.7 24.4v22.6l4.8 5.1c2.6 2.8 6.3 6.2 8.2 7.6l3.4 2.5h16.6c12.3 0 17.1-.3 18.4-1.3 3.5-2.6 3.4-21.2-.1-20.5-1.3.2-1.6 1.8-1.4 9l.2 8.8h-31.4l.6-3.6c.3-1.9.3-5.7 0-8.5l-.6-4.9H1098l.2-19.8.3-19.7 22.6-.3c24.4-.3 23.8-.4 25.6 5.2.5 1.7 1.5 3.2 2.2 3.4 1.7.6.6-6.2-1.5-9.6l-1.4-2.2h-23.9c-21.8 0-23.9.2-25.4 1.8m15.1 51.3c.3 6.8.2 7.1-1.5 5.9-3.8-2.9-12.3-11.5-12.3-12.5 0-.6 2.7-.9 6.7-.8l6.8.1zm446.6-47.6c-9.1 7.2-15.3 10-35.9 16.3-4.6 1.4-6.5 2.6-8.2 5.1-5.2 7.8-.6 18.1 8.1 18.1 1.8 0 2.7.8 3.5 3.1.6 1.8 1.1 3.8 1.1 4.5s.9 3.8 2.1 6.9c1.6 4.4 2.8 6 5.4 7.2 2.8 1.3 3.6 1.4 6.1.2 3.6-1.8 4.1-5.3 2-13.7-.9-3.3-1.6-6.5-1.6-7.2 0-2.5 9.8-.2 20.8 4.9 6 2.8 11.4 5.1 12 5.1 2.6 0 4.2-4.3 3.5-9.7-.5-4.9-.4-5.3 1.5-5.3 1.1 0 3-1.2 4.1-2.6 3.1-3.9 3.6-8.5 1.4-13.4-1.5-3.5-2.6-4.5-6.3-5.9-2.5-.9-4.5-2.2-4.5-2.8s-.3-1.5-.7-1.9c-.5-.4-.8-2-.8-3.6 0-3.2-2.5-8.8-3.9-8.8-.5 0-1.6-.2-2.3-.5-.8-.3-4.1 1.5-7.4 4m11.5 14c3.6 25.2 4.4 31.5 3.7 32.2-.3.4-1.9.2-3.4-.3-2.5-.9-2.8-1.7-4.8-11.6-1.2-5.9-2.7-15.5-3.4-21.5l-1.1-10.8 2.2-1.8c3.5-2.9 4.7-.6 6.8 13.8m-9.4 7.6c1.4 9 2.7 17.4 3.1 18.7l.7 2.3-3.9-1.6c-6.2-2.7-11.7-4.3-17.7-5-6.3-.8-6.2-.6-7.3-12.5l-.6-7.5 8-3.3c4.4-1.8 9.5-4.3 11.4-5.6 1.8-1.2 3.4-2.2 3.6-2.1.1.1 1.4 7.6 2.7 16.6m19.5-2.6c2.8 3 3.1 8.7.5 11.5-2.1 2.3-4.1 2.6-4.8.6-.3-.8-.9-4.6-1.3-8.4-.6-6.8-.6-7.1 1.4-6.5 1.1.2 3 1.5 4.2 2.8m-47.3 7.2c.6 4.9.9 9 .6 9.3-.2.2-3.5.6-7.2.8-6.2.4-7 .2-8.5-1.9-.9-1.3-1.6-4.3-1.6-6.6 0-5.1 2.5-7.8 8.4-9.2 7.4-1.6 7.1-1.9 8.3 7.6m6.1 19.7c2.7 9 2.8 12.2.5 13-3.5 1.4-6.7-2.6-8.9-11l-2.1-7.9 2.1-.7c5.6-1.7 6.2-1.2 8.4 6.6m44.3-45.7c-3.2 3.9-3.8 5.3-2.2 5.3 1.3 0 6.1-5.9 6.1-7.6 0-2.1-.5-1.8-3.9 2.3m-288.2-.8-2.3 1.9-.4 19.8c-.4 16.4-.7 20.1-2 21-2.6 1.9-1.9 7.4 1.2 10.1l2.8 2.4 37.5-.3 37.5-.3 1.9-2.4c2.4-3 2.4-6.6 0-9-1.6-1.6-1.9-4.1-2.3-21.6l-.5-19.8-2.3-1.9c-2-1.7-4.8-1.8-35.5-1.8-31.1 0-33.4.1-35.6 1.9m70.5 4.4c.3 1.2.6 10.2.6 19.9V651h-70v-40l32.3-.2c17.7-.2 33.2-.1 34.4 0 1.1.2 2.4 1.4 2.7 2.5m4.3 42.3c.3.8-.1 2.2-.9 3.1-1.4 1.3-6.6 1.5-37.9 1.4-24.6-.1-36.7-.5-37.6-1.3-.7-.6-1.3-1.9-1.3-2.9V654h38.5c34.2 0 38.6.2 39.2 1.6"/><path d="M1323 626.4v5.6h-10c-6 0-10 .4-10 1s6.2 1.1 16.3 1.1c8.9.1 20.7.2 26.2.3 12.9.1 14.5-1.8 1.8-2.2l-9.2-.3-.3-5.2-.3-5.2-7.2-.3-7.3-.4zm12.8 1.8.3 3.8h-5c-4.2 0-5.1-.3-5.1-1.8 0-.9-.3-2.7-.6-4l-.7-2.3 5.4.3 5.4.3zm-11.8 14.3c0 1.2 1.5 1.5 8.6 1.5 6.4 0 8.5-.3 8.2-1.3-.3-.8-3.2-1.3-8.6-1.5-6.8-.2-8.2 0-8.2 1.3m-458.8-28c-1.8 2.2-2 4.2-2.1 20.3-.1 16 .1 18 1.9 21l2 3.2h34.4c19 0 34.7-.4 35-.9 1-1.5 1.3-38.4.5-41.7-.6-2-1.7-3.4-3.1-3.8-1.3-.3-16.8-.6-34.5-.6h-32.2zm67.6 1.8c.6.7.8 1.7.4 2.3-1.3 2-31.5 22.4-33.1 22.4-1.4 0-16.6-10.2-28.8-19.2-4.3-3.2-5.3-5.2-3-6.1.6-.3 15.2-.6 32.3-.6 24.2-.1 31.4.2 32.2 1.2m-46.9 22.9c-9.3 6.7-18.1 12.8-18.5 12.8-.2 0-.4-6.7-.4-15v-14.9l10.6 7.7 10.7 7.6zm47.9 4.8-.3 6.9-9.7-7c-5.4-3.9-9.8-7.3-9.8-7.7.1-.4 4.5-3.7 9.8-7.3l9.7-6.6.3 7.4c.2 4.1.2 10.5 0 14.3m-11 2.5c6.1 4.4 11.2 8.3 11.2 8.7 0 .5-14.8.8-33 .8-18.1 0-33-.2-33-.4s5.1-4 11.4-8.4l11.5-8 3.2 2.4c4.3 3.1 6.4 3 11.9-.6 2.5-1.6 4.7-2.9 5-2.7.3.1 5.6 3.8 11.8 8.2M741 614.3l-2.5 1.3-.3 21.2c-.2 19.5-.1 21.3 1.5 22 1 .3 16.3.7 34 .7h32.2l3.6-3.5c5-4.8 17.7-23.7 17.3-25.8-.3-1.5-1.9-1.7-12.3-1.8-11.9-.1-17.4.9-12.8 2.2 3.2.9 1.7 3.2-5.6 8.9-8.5 6.7-9 11.5-1.2 11.5 2.7 0 5-1.1 8.9-4.1 5.1-3.8 5.5-3.9 6.8-2.2 1.8 2.3 1.7 3.4-.2 6.1-3.5 5-5.1 5.2-38.4 5.2-17.3 0-31-.4-31-.9s1.2-1.7 2.8-2.6c1.5-1 6.7-4.9 11.5-8.8l8.8-7 4.5 3.2c2.5 1.7 4.8 3.1 5.3 3.1 1.4 0 25.4-17 29.4-20.8 4.1-4 3.8-4 7.4 1.5 1 1.6 1.2 1.2 1.2-2.3.1-2.9-.5-4.6-2-6-2-1.8-4.3-1.9-34.3-2.2-24.8-.2-32.7.1-34.6 1.1m64 2.2c0 1.8-26 21.2-29.7 22.1-2.5.7-1.2 1.5-19.3-11.1l-14.5-10 22-.5c12.1-.3 26.4-.6 31.8-.7 5.3-.2 9.7 0 9.7.2m-50.7 13.4 7.9 5.6-2.3 1.5c-1.3.8-4.6 3.3-7.4 5.5-2.7 2.2-6.5 5.1-8.2 6.3l-3.3 2.3v-30.3l2.8 1.7c1.5 1 6.2 4.3 10.5 7.4m68.7 1.6c0 .3-2.1 3.7-4.7 7.5l-4.6 7-1.5-3.1c-.9-1.7-2.8-3.9-4.2-4.8-2.6-1.6-2.8-3.2-.7-5.9.9-1.2 15.7-1.8 15.7-.7m-18 8c1.6 1.9.7 3.1-4.7 6.5-4.4 2.8-7.7 3-7.1.5.3-1.2 8.6-8.3 9.9-8.4.4-.1 1.2.6 1.9 1.4m658.6-22.2c-2.7 3.5-3.1 4.7-1.8 4.7 1.2 0 7.2-5.8 7.2-6.9 0-2.2-3-1-5.4 2.2m-355.6-1.5c-.5.2-1 .8-1 1.3s6.4.9 14.6.9c11.2 0 14.5-.3 14.1-1.3-.3-.9-3.9-1.2-13.5-1.2-7.3 0-13.6.1-14.2.3m489.2 1.2c-3.1 1.9-5 4.5-4 5.5.6.7 8.8-5.5 8.8-6.6 0-1.4-1.2-1.1-4.8 1.1m-448.4 1.7c-3 3.3-21.7 26.7-24.1 30.3-3.3 4.8-1.3 9 4.2 9 2.3 0 13.5-9.7 16.2-14 .9-1.4 4.4-5.7 7.8-9.5 7.3-8.4 9-12.5 6.7-16s-7.4-3.4-10.8.2m8.1 2.2c.9 1.5.3 2.8-2.6 6.7-8.9 11.9-20.4 24.3-24.6 26.6-3.4 1.8-4.3-.7-1.6-4.6 3-4.3 20.9-26.5 23.3-28.9 2.3-2.2 4.3-2.2 5.5.2m-50.6 4.3c.3 1 3.9 1.3 13.2 1.5 12.9.1 15.5-.2 15.5-1.8 0-.5-6.6-.9-14.6-.9-11.2 0-14.5.3-14.1 1.2m360.7 2.3c0 1.2.7 1.5 2.5 1.3 1.4-.2 2.6-.8 2.6-1.3 0-.6-1.2-1.1-2.6-1.3-1.8-.2-2.5.1-2.5 1.3m127.7 4.2c-1.7 1.7-.2 2.3 5.3 2.3 6 0 8-1.2 3.8-2.4-3.1-.8-8.3-.8-9.1.1m-488.5 3.5c.3.9 8.7 1.3 19.1.8.4 0 .7-.5.7-1 0-.6-4-1-10.1-1-7.2 0-10 .3-9.7 1.2M1462 638c0 .5.6 1 1.3 1s3 .9 5.2 2c4.2 2.1 6.5 2.5 6.5 1.1 0-1-9.1-5.1-11.4-5.1-.9 0-1.6.4-1.6 1m128 5.7c0 1.1 6.2 6.2 8.3 6.9 5 1.6 2.4-2.7-3.4-5.7-4.2-2.1-4.9-2.3-4.9-1.2M993.7 703c-4.5.3-7.1 1-7.7 2-.6.8-1 13.2-1 28.2 0 25.5.1 26.9 2 28.8s3.3 2 23.9 2c24.9 0 22.6.8 31.1-10 3.3-4.2 4.8-6.9 4.4-8-.4-.8-1-9.6-1.3-19.4-.6-16.5-.8-18-2.6-19-1.1-.5-3.2-1.8-4.7-2.8-2.3-1.5-5.4-1.8-20-2-9.5-.2-20.4-.1-24.1.2m40.3 19.5V739h-11.9l-.3 10.7-.3 10.8-14.5.3c-8 .1-15.5 0-16.7-.3l-2.3-.5v-54h46zm6.8-11.9c2.1 1.4 2.2 2.2 2.2 14.9 0 7.4-.4 13.6-.8 13.9-.5.3-1.8.2-3-.1l-2.2-.5v-14.9c0-8.2.3-14.9.8-14.9.4 0 1.8.7 3 1.6m.6 32c3.2 1.2 1.8 5.7-3.7 11.7-4.8 5.5-5.5 5.9-9 5.5l-3.9-.3 2.7-3c5.3-6 7.8-9.6 7-10.3-.4-.4-2.7 1.5-5.1 4.1l-4.4 4.9V742h7.4c4.1 0 8.1.3 9 .6"/><path d="M994.7 716.7c-1.3 1.2-.7 2.3 1.3 2.3 1.1 0 2-.7 2-1.5 0-1.5-2.1-2.1-3.3-.8m11.3 1.3c0 .6 3.7 1 9 1s9-.4 9-1-3.7-1-9-1-9 .4-9 1m6.8 10.7c-10 .6-8.3 2.3 2.2 2.3 7.3 0 9-.3 9-1.5 0-.9-.8-1.4-2.2-1.3-1.3.1-5.3.3-9 .5M994 730c0 .5 1.4 1 3 1 1.7 0 3-.5 3-1 0-.6-1.3-1-3-1-1.6 0-3 .4-3 1m.2 14.2c.7 1.9 3.8 2.2 3.8.4 0-1-.9-1.6-2.1-1.6s-1.9.5-1.7 1.2m11.8.3c0 1.1 1.2 1.5 5 1.5s5-.4 5-1.5-1.2-1.5-5-1.5-5 .4-5 1.5m441.7-40.4c-1 .6-3.7 2.9-6 5.2-5.4 5.3-15.5 11.2-22.7 13.2-11.1 3.1-13.7 4.4-15 7.6-2.1 4.9-.7 11.9 2.9 15.1 1.7 1.5 4 2.8 5.1 2.8 2.3 0 2.3 0 4.1 9 1.5 7.6 4.4 11 9.4 11 5.5 0 6.9-2.6 6.2-12-.4-4.4-.3-8 .1-8 3.4.1 14.5 3.6 20.2 6.5 5.6 2.8 7.4 3.3 9 2.5 2.5-1.4 3.4-4.8 2.1-8.4-1.8-4.7-1.3-7 1.9-8.9 3.9-2.4 5.3-5.2 4.6-9.5-.7-4.4-4-8-8.2-8.8-2.9-.5-3.3-1-3.9-4.7-1.8-11.5-4.9-15.5-9.8-12.6m5.3 3.9c0 1.6 4 25.6 5.6 33.5.9 4.4 1.4 9.3 1.2 10.9l-.3 3-2.8-2.5c-2.4-2.1-3.1-4.2-5.7-17.6-4.3-22.1-4.7-26.3-2.6-27.9 1.8-1.3 4.6-.9 4.6.6m-7.1 15.5c.7 4.4 2.2 12 3.3 16.8s1.8 9 1.6 9.3c-.3.2-2-.2-3.9-1s-7.3-2.2-12-3.2l-8.7-1.8-1-3.5c-.6-2-1.4-6.1-1.7-9.2l-.7-5.6 7.4-4.1c4-2.2 8.7-5.2 10.3-6.6 3.6-2.9 3.6-2.9 5.4 8.9m18.5 2.3c2.8 3.2 2.9 6.7.3 9.8-1.4 1.6-2.9 2.6-3.3 2.2-.9-.9-3.3-13.5-2.7-14.2.8-.7 4.1.6 5.7 2.2m-43.4 3.1c0 1.5.3 5.5.6 8.8l.7 6.1-5.2.7c-4 .5-5.7.3-7.6-.9-2.2-1.4-2.5-2.4-2.5-7.5 0-6.4.6-7.4 6-8.9 6.4-1.9 8-1.5 8 1.7m7.7 25.5c1.5 8.2.6 10.6-3.7 10.6-3.4 0-4.2-1.2-6.5-9.9-1.9-7.4-1.4-8.3 4.9-7.9l4 .3zm137.9-49.9c-4 2.1-5.4 4.3-6.2 9.2l-.6 4.1-6.1 2.2c-3.4 1.3-8.2 3.3-10.7 4.5-3.8 2-5.6 2.2-11.2 1.8-7.8-.7-11.7.6-15.3 4.9-3.7 4.4-4.2 9.3-1.6 14.3 3.7 7 11.6 9.3 20 5.9 3.5-1.4 4.2-1.4 6.9 0 1.6.8 5.9 2.3 9.6 3.2l6.6 1.6v3.5c0 2.8.9 4.4 3.9 7.4 3.5 3.6 4.3 3.9 9.3 3.9s5.9-.4 9.3-3.7l3.7-3.6-.4-5.5c-.4-4.8-.9-6-3.9-8.4-3.6-3-8.5-3.7-13.5-1.8-2.2.9-3.6.7-7-1-2.4-1.1-4.7-2-5-2s-3-.7-6-1.6c-5-1.4-5.4-1.8-5.4-4.5s.6-3.2 6.8-6c3.7-1.6 8.3-3.8 10.3-4.9 3-1.6 4.9-1.8 10-1.4 5.4.4 6.9.2 9.7-1.6 10-6.2 6.3-20.7-5.5-21.7-3.2-.3-5.8.1-7.7 1.2m12.8 4.1c4.9 4.9 2.7 13.3-3.9 15-1.4.3-4.1.3-6 0-6.5-1.3-8.4-9.9-3.3-15.3 3.1-3.4 9.6-3.2 13.2.3m-17.6 14.7c.2.9-.1 1.7-.7 1.7s-5.2 1.8-10.2 4.1c-7.3 3.3-9.3 3.8-10 2.8-.5-.8-.9-1.6-.9-1.9 0-.9 18.4-8.9 20-8.7.8.1 1.6 1 1.8 2m-25.3 8.8c2.9 2.6 3.5 3.8 3.5 7.1 0 3.2-.7 4.7-3.5 7.5-3.4 3.4-3.8 3.5-9 3.1-7.6-.6-10.5-3.4-10.5-10.1 0-4 .5-5.3 2.9-7.8 2.5-2.4 3.7-2.9 8-2.9 4.2 0 5.6.5 8.6 3.1m22.4 17.6c.2.2 0 1.1-.5 2.1-.9 1.8-1.2 1.7-8.6-.5-5.9-1.8-7.8-2.8-7.8-4.2 0-1 .2-2 .5-2.3.5-.4 14.8 3.9 16.4 4.9m18 1.8c3.3 1.6 4.1 3.3 4.1 7.9 0 7.4-9.4 11.3-16 6.6-9.7-6.9 1.1-20.2 11.9-14.5m101.5-47.6c-3.3 1.4-6.4 6.5-6.4 10.4 0 3.2-.4 3.6-5.5 6.1-3.1 1.4-5.7 2.6-5.9 2.6-.3 0-2.6 1-5.3 2.2-3.4 1.5-6.9 2.2-12.3 2.2-8.6.1-12.7 2.3-15.6 8.4-5.9 12.5 8.5 24.9 21.4 18.3l3.8-1.9 10.6 3.5 10.5 3.5 1.2 3.8c2.4 8 11.8 10.7 18.7 5.5 11.9-9.1-.1-26.9-13.4-20.1-2.4 1.2-3.7 1-12.7-1.8l-9.9-3.1-.8-4c-.6-2.5-.5-4.1.1-4.3s5.2-2.4 10.2-4.8l9.2-4.5 4.8 1.2c3.7 1 5.3 1 7.8-.1 8.3-3.4 11-13.8 5.3-20.1-2.4-2.7-3.7-3.3-8.3-3.5-3-.2-6.4 0-7.5.5m12.6 4.1c5.4 5.4 2.8 14.6-4.7 16.5-3.8.9-9.6-2.5-10.7-6.3-2-6.9 1.9-12.2 8.9-12.2 3.1 0 5.1.6 6.5 2m-17.3 14.7c.3.7-3.6 3.1-9.3 5.8-7.5 3.5-10 4.3-11 3.4-2.3-1.9-1.7-2.6 4.4-4.8 3.1-1.2 7.3-3.1 9.2-4.1 3.8-2.1 6.1-2.2 6.7-.3m-26.1 8.9c8.6 4.1 8.2 15.4-.6 19.9-7.8 4-18-1.5-18-9.8 0-3.1 3.9-8.8 7-10.4 3.4-1.7 7.5-1.6 11.6.3m19.6 17.8c8.1 2.6 8.7 3 7.7 4.8-.6 1.1-1.6 1.8-2.2 1.5-1-.3-11.2-3.4-17.5-5.3-1-.3-1-.9-.2-2.4.6-1.2 1.7-2 2.3-1.8.7.2 5.1 1.6 9.9 3.2m25.1 2.6c3.4 2.7 4.3 7 2.3 10.9-2 3.7-4.4 5.1-8.9 5.1-4.3 0-8.7-4.6-8.7-9 0-1.6 1.1-4.2 2.6-5.9 3.2-3.8 8.7-4.3 12.7-1.1m-558.1-44.9c-2.5 1.3-5.5 3.9-6.9 6-2.1 3.1-2.9 3.7-4.3 2.9-1-.5-7.4-.9-14.3-.7l-12.5.2-4.4 3c-6.3 4.5-8.8 9.5-8.8 17.8 0 10.5 4.8 17.8 13.5 20.7 1.9.6 3.5 1.7 3.5 2.3 0 3.4 2.3 8.7 3.6 8.7.9 0 4.5-2.4 8.1-5.4 6.2-5.1 6.8-5.4 12.4-5.5 10-.1 20.9-6.5 20.9-12.2 0-2.3 2.3-2.5 4-.4.7.8 2.6 1.9 4.4 2.4 1.7.5 4 1.2 5 1.7 1.7.7 1.9.4 1.4-3.2-.4-2.1-.9-4.6-1.2-5.5-.5-1 .1-2 1.7-2.8 2.6-1.4 6-6.9 7.1-11.3 1-4.4-1.3-11.4-4.9-15.1-5.7-5.9-20-7.7-28.3-3.6m23.3 3.9c8.4 5.2 8.6 18.9.3 23.8-2.6 1.5-2.8 2-2.2 5.5l.6 3.8-3.8-1.6c-2-.8-4.3-2-4.9-2.5s-3.4-1.4-6.1-2c-8.3-1.8-13.4-7.7-13.4-15.3 0-6.4 2-10 7.2-12.6 5.8-3 16.7-2.5 22.3.9m-36.6 7.6c2.7.6 3.1 1.1 3.1 3.8 0 3.9 3 10.5 6.1 13.3 1.3 1.2 4.6 3.2 7.2 4.3 4.1 1.8 4.7 2.4 4.1 4.3-1.7 5.8-9.5 9.7-19.2 9.7-4.9 0-5.8.4-10.6 4.5-2.9 2.5-5.8 4.5-6.5 4.5-.6 0-1.1-1.4-1.1-3 0-2.7-.6-3.3-5.2-5.4-2.9-1.3-6.5-3.6-7.9-5.2-8-8.8-5.9-24.1 4.1-29.2 3.6-1.8 6.1-2.2 13.6-2.2 5 0 10.6.3 12.3.6"/><path d="M1138.2 718.2c-.7.7-1.2 2.4-1.2 3.8 0 7.7 12.4 11.7 15.9 5.1 1.6-2.9 1.3-7.7-.5-9.2-1.4-1.1-2.1-1-4.6.4-2.8 1.6-3.2 1.6-4.8.2-2-1.8-3.2-1.9-4.8-.3m-34.6 14.5c-2.6 6.6 1.8 13.3 8.7 13.3 5.7 0 10.7-3.9 10.7-8.4 0-5-2.3-6.3-11.2-6.4-5.9 0-7.8.3-8.2 1.5m147.8-23.9c-2.1 1.6-4.5 3.6-5.3 4.5-1.8 2.2-2.1 2.2-5.5-.8-4.3-3.7-12.7-5.9-19.9-5.1-11 1.1-19.7 6.8-25.5 16.6-2.4 4-2.7 5.5-2.7 14 0 7.9.4 10.2 2.3 13.7 5.2 9.9 12.4 15.1 24 17.3 15.7 3.1 31-3.7 37.2-16.4 1.5-3.3 2-6.2 2-12.9 0-4.7-.4-8.9-1-9.2-.5-.3.5-2.8 2.5-5.7 4.5-6.4 4.8-12.6 1-16.3-3.1-3.2-4.3-3.1-9.1.3m7.7 3.5c1.4 3.2-.5 10.2-3.7 13.3-2.2 2.3-2.6 2.4-5.1 1-1.6-.8-3.7-2.3-4.7-3.5l-1.9-2.1 2.4-2.8c7.1-8.1 11.1-10 13-5.9m-20.8 1.6c5.4 3.3 4.8 5.7-3.2 14.3l-4.4 4.7-2.4-1.9c-5.1-4-14 2.1-12.9 8.8.6 4.3 2.9 6.8 7.1 8.2 6.4 2.1 12.3-2.8 11.2-9.4-.4-2.8-.1-3.8 2.2-6l2.7-2.6 2.1 2.8c4.5 6 4.1 12-1 17.9-6.1 6.9-14.7 8.2-23.8 3.5-8.8-4.6-12.2-14.5-8-23.7 2.2-4.8 4.4-6.9 9.4-9 4.2-1.7 9.4-1.9 13.3-.5 3.3 1.3 5.6-.3 2.8-1.8-3.8-1.9-10.8-2.3-15.9-.7-11.4 3.3-17.6 16.7-13 27.8 2.1 5 7.9 10.3 13.3 12.1 9.6 3.3 18.1 1.1 24.5-6.4 5.9-7 6.2-14.3.7-21.1-2-2.6-2.6-3.9-1.8-4.7s2-.4 4.2 1.2c1.7 1.3 4.3 2.6 5.7 3 3.1.7 3.9 2.8 3.9 10.4 0 9.7-6 18.4-15.8 23-4.8 2.2-6.3 2.4-14 1.9-12.2-.7-15.6-2-21.8-8.1-7.9-8-10.3-17.9-6.8-28.3 2-5.9 4.5-9.5 9-12.9 5.6-4.3 10-5.5 19.9-5.1 7.4.2 9.8.7 12.8 2.6m-11.5 19.7c1.4.4 2.1 1.2 1.8 2-.3.7.2 1.7 1 2.2 2.5 1.4 1.3 5.5-2 7.1-2.6 1.2-3.3 1.2-5.5 0-3.7-2.1-4.9-6.1-2.7-9.3 1.7-2.6 3.3-3.1 7.4-2m115.6-24.5c-8 6.4-23.4 12.1-35.9 13.4-10 1-15 3.4-16.5 7.9-2.6 7.8 1.6 16.6 7.9 16.6 2.5 0 3.2.5 3.6 2.7 2.3 11 5.7 16.3 10.5 16.3 5.2 0 6.3-2.3 5.6-11.3-.6-7.2-.5-7.8 1.1-7.3 1 .3 4.1 1 7 1.5 6.7 1.3 11 3.1 16.3 7 4.7 3.4 9.4 4.1 10.4 1.5.3-.9.6-3.3.6-5.4 0-5.6.8-6.9 5.1-8.6 8.8-3.6 6.9-15.8-3.3-20.8-1.8-.9-2.4-2.1-2.6-5.6-.4-7-1-8.6-3.6-9.8-2.1-.9-3-.7-6.2 1.9m6.7 11c.4 5.2.7 15.4.8 22.6.1 12.4 0 13.3-1.8 13.3-3.7 0-4.2-2.3-4.8-22.4-.6-18.1-.5-19.8 1.2-21.6 1-1.1 2.3-1.9 2.9-1.7s1.4 4.5 1.7 9.8m-8.7 4.1c.3 5 .6 13.1.6 18v8.9l-2.2-1.3c-1.3-.6-7.2-2.3-13.3-3.8l-11-2.6-.6-6.9c-1.1-11.6-.9-11.9 8-14.5 4.2-1.3 9.6-3.3 12.1-4.6s4.8-2.3 5.1-2.4c.3 0 .9 4.1 1.3 9.2m-29.4 9.3c0 4.7.1 8.8.3 9.2.1.5-3.5.9-8.1 1.1l-8.3.3-1.4-3.5c-1.8-4.3-1.9-6.7-.3-10.1 1.1-2.5 4.3-3.8 11.3-4.8 7-.9 6.5-1.5 6.5 7.8m46.6-6c1.7 1.6 3.4 5.2 3.4 7 0 2-4.4 6.5-6.4 6.5-1 0-1.6-1.9-2.1-6.9-.4-3.9-.4-7.4-.1-8 .7-1.1 3.4-.4 5.2 1.4m-44 22.5c2.1 6.6 2.4 10.9.8 12.5-3.3 3.2-7.5-2.2-9-11.3-.5-3.4-.3-4.1 1.2-4.5 4.1-1.1 5.9-.2 7 3.3m-519.3-40.9c-1.9 1.2-3.4 3.1-3.8 5l-.7 2.9h-24.6c-13.9 0-25.4.4-26.2 1-1.3.8-1.5 4.2-1.5 20.9 0 18.2.2 20.1 1.9 22l1.9 2.1h32.9c20.8 0 33.6-.4 34.9-1 1.7-1 1.9-2.3 1.9-16.3v-15.3l3.5-3.4c2.5-2.4 3.5-4.3 3.5-6.4 0-4.1-3.5-9.7-5.5-9-1 .4-1.5 0-1.5-1 0-3.8-11.3-4.8-16.7-1.5m12.8 4.8c1.6 1.6 2.9 3.5 2.9 4.1 0 2.4-5.8 7-8.9 7-6.5 0-9.3-6.9-4.6-11.5 3.3-3.3 7-3.2 10.6.4m7.9 2.7c0 .8-.4 1.4-1 1.4-.5 0-1-.9-1-2.1 0-1.1.5-1.7 1-1.4.6.3 1 1.3 1 2.1m-26 4.8c0 .7 1.1 3 2.5 5.1 2.4 3.5 2.5 3.9 1 5.6-2.4 2.6-16.4 11.9-18 11.9-.8 0-1.7-.4-2-1-.3-.5-7.3-5.5-15.5-11.1s-14.7-10.6-14.4-11.1c.3-.4 10.8-.8 23.5-.8 18.6 0 22.9.3 22.9 1.4m25.6 1.3c-1 1-1.9-.5-1-1.8.6-1.1.8-1.1 1.2 0 .2.7.1 1.5-.2 1.8m-61.8 9.8c3.4 2.2 6.1 4.3 6.2 4.7 0 .3-1.9 2.1-4.2 3.9-2.4 1.8-6.3 5-8.7 7.1s-4.8 3.8-5.2 3.8c-1 0-1.2-25.3-.2-26.3.3-.4 1.8.1 3.3 1.1 1.5.9 5.5 3.5 8.8 5.7m51.1 1.5h4.1v9.5c0 5.2-.2 9.5-.5 9.5s-14.5-11.1-17.4-13.7c-.3-.2 1-1.9 2.9-3.8 2.6-2.7 3.7-3.2 5.1-2.5 1 .6 3.6 1 5.8 1m-36.6 8.5c6.1 4.2 9.5 4.4 14.5 1 2-1.4 4.2-2.5 4.9-2.5.6 0 3.3 1.9 5.9 4.1 2.7 2.3 7.2 5.7 10.1 7.7 9.4 6.2 9.2 6.2-28.2 6.2-28.8 0-33.5-.2-33.5-1.5 0-1.1 19.4-18.5 20.7-18.5.2 0 2.7 1.6 5.6 3.5m96.1-33.4c-1.7 1.9-1.9 4.1-2.2 20.6-.3 16.4-.1 18.7 1.4 20.4.9 1 2.7 1.9 3.9 1.9 2.5 0 3.5 1.7 3.5 6 0 3.5 2.2 5.4 5.4 4.6 2.3-.6 8.8-5.3 13.1-9.6 1.2-1.2 3.5-2 5.5-2.1 4.9-.1 8.3-1.2 8.8-2.8.4-1.1-.9-1.2-6.4-.7-3.8.4-8.2 1.2-9.7 1.8-3.9 1.5-20.6.5-21.8-1.3-.5-.8-.9-8.9-.9-18.1 0-13.8.3-16.9 1.6-18.2 1.3-1.4 5.6-1.6 31.3-1.6 21.8 0 30 .3 30.9 1.2.8.8 1.2 4.5 1.2 10v8.8h-7.9c-7 0-8.3.3-10.8 2.4l-2.8 2.4.3 12.3c.1 9.5.6 12.7 1.7 13.9 2.1 2.1 27.2 2.7 33 .8 4.8-1.6 5.3-3 5.4-15.6.1-8.5-.1-9.5-2.3-11.7-1.3-1.3-4.6-3.1-7.3-4.1l-5-1.8-.7-9c-.9-13.5 1.6-12.6-36.1-12.6h-31.2zm72.4 23.5c1.2.4 2.2 1 2.2 1.4s-2.7 2.6-6 4.9c-6.6 4.6-6 4.7-13-1.2-1.8-1.5-3.1-2.9-2.9-3.1 3-2.4 13.9-3.5 19.7-2m-9.9 13.4c.6 0 3.8-1.9 7.1-4.3 3.4-2.3 6.7-4.6 7.5-5.2 2.8-1.9 4 1.2 4 10.3-.1 13.1 1.2 12.2-17.5 12.2h-16v-10.8c0-6 .3-11.2.6-11.5.4-.4 3.5 1.6 6.9 4.3 3.5 2.8 6.8 5 7.4 5m-42.9 7.9c0 .5-1.9 2-4.2 3.4q-7.2 4.2-6-1.8c.4-2.3.9-2.5 5.3-2.5 2.7 0 4.9.4 4.9.9m482.8-45.2c-2.3 2.7-5 8.3-4.5 9.6.5 1.6 6.7-7.1 6.7-9.5 0-2.2-.3-2.3-2.2-.1m104.3 2c-3.2 3.8-3.8 5.3-2.2 5.3 1.1 0 6-4.9 7.2-7.2 1.8-3.4-1.8-2-5 1.9m-93 9.9c-4.3 1.8-6.2 3.4-5.5 4.5.6 1 7.9-2.4 8.9-4.2 1.1-1.7.2-1.8-3.4-.3"/><path d="M868.2 723.2c.6 1.6 46.6 1.9 47.1.3.1-.6-8.4-1.1-23.6-1.3-18.9-.2-23.8 0-23.5 1m50.8-.1c0 .5.9.9 2 .9s2-.2 2-.4-.9-.6-2-.9-2-.1-2 .4m559.8-.4c-3.7 1-1.6 2.3 3.7 2.3 3 0 5.5-.4 5.5-.9 0-1.8-4.9-2.6-9.2-1.4M1373 735c-2.1 1.3-1.2 1.7 5.3 2.5 6.6.8 7.9-.8 2-2.4-4.6-1.3-5.4-1.3-7.3-.1m103 1.9c0 1.1 7 7.1 8.2 7.1 2.1 0 .4-3-3-5.4-4.1-2.8-5.2-3.2-5.2-1.7m-108.6 10.2c-.8 1.4 5.9 7.9 8.3 7.9 1.9 0 1.8-.1-3.1-4.9-3.2-3.1-4.6-3.9-5.2-3m-12.9 53.1c-1.1.6-3.5 2.4-5.3 4-7.2 6.2-21.4 11.1-43.2 14.9-8.6 1.4-11.6 3.1-13 7.3-2.3 7.2 1.3 14.5 7.3 14.7 1.8.1 3.7.2 4.2.4.6.1 1.7.3 2.6.3 1.2.2 2.1 2.4 3.3 8.2 2.7 12.4 8.5 17.2 14.1 11.5 2.9-2.8 2.9-3.7 1.1-12.3l-1.4-6.2h2.2c4.1 0 13 3.2 23.3 8.2 13.3 6.6 13.8 6.4 13-5l-.6-8.8 2.8-1.1c1.6-.6 3.7-2.2 4.6-3.7 1.6-2.4 1.6-3 .4-6.4-1-2.5-2.5-4.2-4.7-5.1l-3.2-1.5v-7.4c0-5.2-.5-8.3-1.7-10.3-1.9-3.2-2.8-3.4-5.8-1.7m3.9 5.9c.3 1.7.6 9.3.6 16.8s.5 16.9 1 21c.5 4 .7 7.7.4 8.2s-1.8.2-3.3-.6c-3.5-1.7-3.8-3.7-4.7-27.2-.7-15.9-.6-17.5 1.1-19.3 2.6-2.8 4.2-2.5 4.9 1.1m-8.6 16.1c.2 7.9.6 16.9 1.1 20 .4 3.2.4 5.8 0 5.8s-4.2-1.5-8.3-3.4c-4.3-2-10.8-3.9-15.3-4.6-4.7-.8-8.3-1.9-9-2.8-.8-1-1.3-4.6-1.3-9.1v-7.6l10.2-3c7.7-2.3 21.9-8.2 22.3-9.4.1-.1.2 6.3.3 14.1m-35.8 4.7c0 3.2.3 7.3.6 9l.7 3.2-4.4-.7c-2.4-.4-4.5-.8-4.6-.9-.2-.1-.6-3.6-.9-7.7-.7-8.3-.7-8.4 5.9-8.7l2.7-.1zm-11.8 1.1c.1 2.7.2 6 .2 7.2.1 2.9-4 3.4-5.4.7-1.7-3.1-1.2-10.7.8-11.8 3.4-2 4.2-1.3 4.4 3.9m62.9-4c3.5 1.9 2.1 10-1.8 10-.9 0-1.3-1.7-1.3-5.5 0-5.9.1-6 3.1-4.5m-44.5 17.8c.6.4 1.4 2.9 1.8 5.7.3 2.7.9 6.2 1.2 7.6 1.2 5.2-5.2 7.4-7.8 2.6-1.3-2.5-3.8-11.5-3.8-13.9 0-2.3 6.1-3.7 8.6-2m-438.7-36.9c-2.1 1.7-2.4 2.7-2.4 9.4v7.6l-3.2.6c-1.8.3-3.5 1-3.9 1.6-.5.9-.7 13.7-.5 29.1.2 8-.5 7.8 30.6 7.8 23.5 0 27.6-.2 28.9-1.6 1.3-1.2 1.6-3.8 1.6-11.9v-10.4l4.1-3.8c7-6.6 6.2-16.3-1.6-20-1.9-.9-3.5-2-3.5-2.4s-1.5-2.4-3.4-4.3l-3.3-3.6h-20.6c-18.7 0-20.7.2-22.8 1.9m44.1 2.6c1.1 1.3.5 2.3-3.4 6.5s-4.6 5.5-4.6 9c0 2.2.7 5.2 1.6 6.6.9 1.3 1.5 2.6 1.3 2.7-.2.2-3.3 2.4-6.8 5s-7.3 5-8.5 5.3c-2.2.5-8.9-2.9-18.1-9.4l-4-2.8-.3-10.8c-.2-7.1.1-11.3.9-12.2 1.8-2.1 40.1-2 41.9.1m7.1 9.2c3.6 2.2 4.7 5.8 2.8 9.2-2.6 4.6-11 4.1-12.7-.6-1.1-3.4-.1-6.6 3-8.7 2.8-2 3.3-2 6.9.1M880 828.1c0 1.2 1.5 3.6 3.4 5.4 4.3 4 18.6 12.5 21.2 12.5 1.6 0 9.6-4.9 17.3-10.7 1.4-1 2.4-1 4.9-.1l3.3 1.3-.3 10.5-.3 10.5h-54l-.6-15c-.3-8.3-.4-15.3-.2-15.8.2-.4 1.5-.7 2.9-.7 1.8 0 2.4.5 2.4 2.1"/><path d="M891 816.7c0 .9 2.3 1.3 8.1 1.3 6 0 8-.3 7.6-1.3-.5-1.7-15.7-1.7-15.7 0m0 7.8c0 1.2 1.5 1.5 7.9 1.5 9.6 0 11.4-1.5 2.9-2.4-9.1-.9-10.8-.8-10.8.9m107.2-20.6c-.8.5-1.7 2.3-2.1 4.2-.5 2.6-1.3 3.5-3.8 4.1-1.8.5-3.5 1.2-3.8 1.7s-.6 7.7-.6 15.9l-.1 15-2.1.6-2.2.7 2.3 1.6c1.8 1.3 2.2 2.5 2.2 7.3 0 4.4.4 5.9 1.6 6.4.9.3 13.2.6 27.5.6h25.9l1.5-2.4c1.4-2.1 1.6-6.1 1.3-28.1-.3-24.1-.4-25.8-2.2-27.1-1.6-1.1-6.4-1.4-23-1.4-11.6 0-21.7.4-22.4.9m43.6 3.3c1.7 1.7 1.7 48.9 0 50.6-.9.9-7 1.2-21.5 1.2H1000v-53h20.3c14.5 0 20.6.3 21.5 1.2M997 819.6c0 3.4-.1 3.5-3.2 3.2-5.4-.5-5.3-6.8.2-6.8 2.8 0 3 .3 3 3.6m-1.2 6.3c.9.1 1.2 1.2 1 3.3-.3 2.9-.6 3.3-3.3 3.3-2.4 0-3.1-.5-3.3-2.3-.5-3.4.4-5.1 2.5-4.7 1 .2 2.4.4 3.1.4m.7 14.6c0 4.7-.2 5-2.7 5.3-2.3.3-2.7-.1-3-2.5-.2-1.5-.1-4 .1-5.5.2-2.2.8-2.6 3-2.5 2.4.2 2.6.6 2.6 5.2m.5 12c0 2.5.1 4.8.3 5.2.1.5-1.2.9-2.9 1.1-2.7.3-3.2-.1-3.6-2.1-.3-1.4-.3-3.9 0-5.6.4-2.6.8-3.1 3.3-3.1 2.8 0 2.9.2 2.9 4.5"/><path d="M1008.5 815c-.4.6 4 1 12.4 1 8.1 0 13.1-.4 13.1-1s-4.8-1-12.4-1c-7.3 0-12.7.4-13.1 1m-1 8.9c-.9 1.6.6 1.8 12 1.9 11.3.2 14.5-.3 14.5-1.9 0-1.2-25.7-1.2-26.5 0m-.3 10.2c.2.6 2.7 1.1 5.8 1.1 8.7.1 10.2-.1 9.5-1.2-.9-1.4-15.8-1.3-15.3.1m21.3-.2c-.7 1.2.4 1.7 3.4 1.7 3.7-.1 3.9-2.6.2-2.6-1.6 0-3.2.4-3.6.9m-21 12c-1.7 1.6.5 2.1 7.3 1.9 9.6-.4 9.5-2.3-.1-2.3-3.7-.1-7 .1-7.2.4m22.2-.2c-1.5 1.5-.5 2.3 2.8 2.3 3.9 0 4.7-1.4 1.3-2.4-2.9-.7-3.3-.7-4.1.1m103.6-40.8c-1.7.5-4.6 1.7-6.3 2.8-3 1.9-3.4 1.9-9.5.5-16.1-3.9-31 6.4-32.3 22.3-.7 8.1 2.9 15.2 10.2 20.1 4.6 3 5.7 4.3 6.2 7.3 1.3 7.1 3.3 7.3 9.9 1.1 2.2-2.1 5.6-4.1 7.5-4.5 5.1-1.1 10.5-4 14.4-8l3.5-3.4 6.8 2.8c7.4 3 14.9 4.6 15.7 3.3.3-.5-.2-2.9-1.1-5.3l-1.7-4.6 3.5-4.2c3.2-4 3.4-4.8 3.3-11.2-.2-8.2-2.9-13.1-9.6-16.9-4.5-2.5-14.7-3.6-20.5-2.1m19.1 5.4c5.1 2.8 7.6 7.5 7.6 14.4 0 4.7-.4 5.8-3.6 9.3-3.7 4.1-3.8 4.6-1.8 10.9.6 2.1.5 2.3-1.7 1.6-1.3-.4-5.1-2.1-8.4-3.9l-6-3.1-.5-7.5c-.6-8.5-2.3-12.3-7.6-16.9-4.2-3.8-3.7-4.9 2.9-6.8 5.6-1.6 14.2-.7 19.1 2m-29.4 3.5c3.1 1.7 6.6 4.6 8.4 7.1 2.8 3.9 3.1 5 3.1 11.4 0 6.1-.4 7.7-2.5 10.5-3.2 4.3-7.4 6.8-12.8 7.7-3.3.5-5.6 1.8-9 5.2l-4.7 4.5-.3-4.4c-.3-4.1-.5-4.4-4.7-6.1-7.2-3-12.5-10.7-12.5-18.1 0-6.9 5.8-15.7 12.4-18.7 6.5-3 16.1-2.6 22.6.9"/><path d="M1105 827.1c-1.6 2.8-1.2 6.9 1 9.9 5.1 7.2 17 2.7 17-6.4 0-3.7-2.6-5.1-10.2-5.2-5.7-.1-7 .1-7.8 1.7m110-22.2c-8.4 2.7-15.5 8.7-18.7 15.9-3 6.8-3.2 18.6-.4 24.7 7.5 16.4 29.8 23.3 47.5 14.6 13.2-6.5 19.6-19.1 15.4-30.7-1-2.7-.8-3.6 1-6.6 2.7-4.4 2.7-5.8.1-9.2-3.2-4.1-9.3-3.1-15.5 2.6l-3.1 2.9-3.7-2.5c-7.2-4.8-18-4.4-25.1 1-3.9 2.9-7.5 10.7-7.5 16.1.1 7.4 4.7 14.5 12 18.3 8.7 4.4 17.9 3.4 25.1-2.8 7.4-6.3 8.8-14 4.3-23l-2.6-5.2 2.9-2.5c4.7-4.2 8.2-5.8 9.9-4.4 2.4 2 1.6 6.1-1.8 9.6-3 3.1-3.4 5.9-.4 3.4 1.2-1 1.6-.4 2.4 3.4 2.3 10.7-3.5 21-15.1 26.9-6.9 3.5-18.7 3.7-27.4.5-7.4-2.7-14.7-9.9-16.4-16.1-1.5-5.8-.6-15.4 2-20.6 2.6-5.1 10.8-11.8 16.4-13.3 7.8-2.1 20.8.4 25.5 4.9 1.9 1.7 3.4.5 2.2-1.7-1.7-3.2-10.8-6.5-19-6.8-4.1-.1-8.6.1-10 .6m19.4 13.1c2.5 1 4.6 2.4 4.6 2.9s-1.4 2.1-3.1 3.5c-2.8 2.4-3.2 2.5-5.2 1.1-2.7-1.9-6-1.9-9.6 0-3.3 1.6-4.1 3.3-4.1 8.1 0 4.6 1.4 7 5 8.9 3.7 1.9 6.4 1.9 10.6-.1 3.7-1.8 6-6.8 5.1-11.3-.6-2.8 1.5-7.1 3.3-7.1s5.3 7.3 5.3 11c0 4.7-3.4 10.9-7.7 13.8-1.8 1.2-5.6 2.5-8.4 2.9-16.4 1.9-27.9-15.2-19-28.3 4.9-7.1 14.1-9.3 23.2-5.4m-5.9 9.2c1.4.6 2.5 1.7 2.5 2.4 0 .6.7 1.4 1.5 1.8 2.1.8 1.9 5.2-.5 7.6-3.8 3.8-11.1 1.8-12.4-3.5-.7-2.7.7-6.2 3.3-8.2 2-1.6 2.4-1.6 5.6-.1m228-21.6c-4.1 2.1-4.6 2.7-5.4 6.5-.6 2.9-1.3 3.4-7.1 5.4-3.6 1.2-8.6 3.2-11.2 4.4-3.4 1.7-5.1 2-6.5 1.3-1.9-1-5.7-1.5-10.6-1.3-1.6.1-4.2 1.5-6.4 3.4-3.1 2.9-3.7 4.1-4.1 8.9-.6 7.4 1.5 11.3 7.4 13.9 4.7 2.1 9.4 1.9 14.7-.8 2.1-1 3.2-1.1 4.8-.2 1.2.6 4.6 1.9 7.7 3 8.7 3 11.2 4.3 11.2 5.7 0 .8 1.3 2.7 2.9 4.3 2.6 2.5 3.7 2.9 8.5 2.9s6-.4 9.1-3.1c3.2-2.8 3.5-3.6 3.5-8.4 0-4.7-.4-5.6-3.1-7.9-1.7-1.4-4-2.7-5.2-2.8-4.3-.2-8.2.4-10.7 1.9-2.3 1.3-3.3 1.2-12-1.9-8.4-3-9.5-3.7-9.8-5.9-.3-2.4.5-2.9 9.6-6.6 9.3-3.7 10.1-3.9 12.7-2.5 4.5 2.3 11.4.9 14.8-3 4.1-4.9 3.8-10.9-.7-15.4-3.9-3.9-8.9-4.5-14.1-1.8m11.9 4c2.8 2.9 3.3 6.2 1.4 9.7-4.2 8-15.8 5.2-15.8-3.8 0-7.7 8.9-11.4 14.4-5.9m-17 10.9c.6 1.7-2.2 3.1-13.2 7.1-4.6 1.6-5.4 1.6-6.2.4-.6-.8-1-1.7-1-2 0-.7 16-6.8 18.1-6.9.9-.1 2 .6 2.3 1.4m-26 5.5c2.7 1 5.6 5.6 5.6 9s-2.8 7.8-6 9.5c-9.8 5.1-20.7-3.2-16.7-12.8.8-1.9 2.5-4.2 3.8-5.1 2.6-1.8 9.4-2.1 13.3-.6m15.2 16.4c10.2 3.5 10.4 3.6 10.4 5.7 0 2.4.1 2.4-10.2-.8-6.3-2-8.8-3.2-8.8-4.3 0-1.4.8-3 1.5-3 .1 0 3.3 1.1 7.1 2.4m29.1 3.8c3 2.8 3 7.8 0 11.3-4.9 5.8-15.7 2.4-15.7-5 0-8.3 9.5-12.1 15.7-6.3m213.3-41.4c-3.8 1.8-6.1 4.2-8 8.4-1.5 3.4-2.7 4.8-4.7 5.3-1.6.3-5.6 1.8-9.1 3.2-6 2.4-6.5 2.4-10.3.9-8.9-3.6-17.7-.5-21.7 7.6-1.8 3.5-2.2 5.5-1.6 8.3 1.9 10.1 13.8 15.4 23.4 10.5l4-2 8.2 2.6c9.4 3 11.3 4.3 12.8 8.9 1.4 4.3 4.9 6.6 10.4 6.7 7.4.1 12.6-5.1 12.6-12.8 0-5.3-5.3-10.4-10.8-10.4-2.3 0-5.3.5-6.7 1-2.1.8-4.6.4-12.6-2.2-8.4-2.8-9.9-3.6-9.9-5.4 0-1.2.8-2.4 1.8-2.7.9-.3 5.5-1.9 10.1-3.5 7.8-2.7 8.6-2.8 12.3-1.5 8.1 2.8 15.8-2.8 15.8-11.6 0-6.7-3.8-11.1-10-11.7-2.5-.2-5.2 0-6 .4m9.9 4.8c2.6 2.1 3.1 3.3 3.1 6.8 0 6.9-6.1 10.9-12.6 8.1-6.6-2.7-8.1-9.7-3.1-14.2 4.4-4 8.4-4.2 12.6-.7m-17.5 12c.4.9.5 1.8.4 1.9-2.8 1.7-16.4 6.5-17.5 6.1-3.3-1.3-.6-4 6.7-6.7 8.9-3.3 9.6-3.4 10.4-1.3m-25.7 4.4c4.9 2.9 6.7 6.3 6 11.3-1 7.1-7.7 11.7-15.2 10.3-5.7-1.1-8.7-4.4-9.2-10.2-.5-6.1 1.1-9.3 5.7-11.6s8.7-2.3 12.7.2m17.8 16.9c7.4 2.6 10.2 5 7.7 6.5-.7.4-16.2-3.9-18-5-.6-.4.9-4.4 1.6-4.4.4 0 4.3 1.3 8.7 2.9m25.9 4.2c3.7 2.9 3.6 8.5-.2 12.2-6.1 5.8-15.2 2.2-15.2-6 0-7.3 9.2-11.1 15.4-6.2M810.5 806c-3.3.4-7.7 1.6-9.8 2.6-3.3 1.6-3.8 2.2-3.5 4.6l.5 2.8h-26.3c-28.2 0-30.8.4-31.9 4.8-.7 2.9-.5 32 .3 34 1.4 3.7 5.3 4.2 34.5 4.2 20.7 0 28.6-.3 29.5-1.2 1.4-1.4 1.7-25.8.3-25.8-1.1 0-2.2 11.2-1.4 15.1.5 2.6.3 3.1-.8 2.7-1.9-.7-17.3-11.8-17.6-12.6-.2-.4 1.4-1.8 3.4-3.2 2.1-1.4 6.5-4.8 9.9-7.7l6.2-5.2 2.8 4.2c3.9 5.9 6.5 8.7 8 8.7 1.4 0 7.1-9.1 9.4-15 .7-1.9 2-4.3 2.8-5.2.7-.9 1.5-3.2 1.5-5l.2-3.3-6-.1c-3.3-.1-8.7.2-12 .6m14.5 2.3c0 .2-1.1 3.2-2.5 6.6-2.8 6.8-7.2 14.1-8.6 14.1-.5 0-2.1-1.9-3.6-4.1l-2.7-4.1 3.7-3c2-1.7 3.7-3.4 3.7-3.9 0-1.8-2.9-.8-6 2.1-3.2 3-3.8 3-7.2.1-3.8-3.2-2.2-4.6 7.7-6.6 5.5-1.2 15.5-1.9 15.5-1.2m-27.5 14.3c-7.7 6.8-23.7 18.4-25.4 18.4-.4 0-6.5-3.9-13.4-8.8-6.9-4.8-13.4-9.2-14.4-9.9-4.1-2.7 1-3.3 29.2-3.2h28zm-38.9 14c.1.5-3.3 3.7-7.7 7.1L743 850v-25.1l7.7 5.4c4.2 3 7.8 5.8 7.9 6.3m9.9 6.1c2.8 1.9 4.7 1.6 8.5-1.2 1.9-1.4 3.7-2.5 4.1-2.5.8 0 17 12 19.9 14.6 1.2 1.2-3.1 1.4-27.8 1.4-24.4 0-29.2-.2-29.2-1.4 0-.8 3.1-3.7 6.8-6.4 3.7-2.8 7.6-6 8.7-7.1 2-2.3 1.8-2.3 9 2.6m806.2-34.9c-1.5.9-3.3 3.2-3.9 4.9-.7 1.8-1.7 3.3-2.4 3.3-.6 0-6.2 2.3-12.4 5.1-9.1 4.2-11.6 5-12.9 4-3.6-2.6-8.3-4.1-12.8-4.1-9.6 0-16.3 6.2-16.3 15 0 9.1 6.7 15 17 15 4 0 6.7-.7 10-2.6 4.2-2.4 4.6-2.4 8.5-1.1 2.2.9 7.2 2.4 11 3.6 6.5 1.9 7.2 2.3 8.4 5.6 1.4 4.1 5.4 6.5 10.5 6.5 7.5 0 12-8.2 8.6-15.8-2.2-5-6.4-6.7-12.2-5.1-3.5.9-5.4.6-15.5-2.6-6.6-2.1-11.2-4-10.7-4.5s5.8-2.9 11.9-5.3l11-4.4 3 1.9c5.8 3.5 13.4 1.6 16.9-4.2 2-3.5 2-6.3.1-10-3.4-6.7-11.6-9.1-17.8-5.2m12.8 3.6c3.6 3.6 4.2 7.2 1.8 10.4-3.7 5-10.1 5.4-14.4 1.1-2.8-2.8-2.1-9.5 1.1-12.1s8.6-2.3 11.5.6m-17.2 9.5c.4 1.6-1.3 2.6-11 6.7-9.4 3.9-11.6 4.5-12.4 3.3-.5-.8-.9-1.6-.9-1.9 0-.6 21-9.8 22.6-9.9.7-.1 1.4.8 1.7 1.8m-33 4.5c6.1 2.5 9.1 10 6.2 15.5-3.3 6.4-12.2 8.9-20 5.7-5.9-2.5-8.5-11.6-4.8-17.3 3.2-4.9 11.9-6.7 18.6-3.9m31.7 21.2c0 .7-.5 1.6-1.1 1.9-1 .7-19.8-4.1-21-5.4-.4-.3-.3-1.5.1-2.7l.8-2.1 10.6 3.5c6.3 2 10.6 4 10.6 4.8m15.2.1c2.3 2.1 2.4 8.9.1 11.5-2.6 2.9-10.2 1.9-12.5-1.6-1.5-2.2-.8-7.6 1.2-9.6 2.5-2.5 8.6-2.7 11.2-.3m-218.4-34c-1.2.3-1.8 1.4-1.8 3.1.1 2.3.2 2.5 1.1.9 2-3.5 7.9-1.6 10.5 3.5 2.7 5.3 2.4 12.6-.9 17.5-3.3 5.2-3.5 6.8-.7 5.3 7.5-4 8-23.9.6-28.5-2.6-1.6-6.5-2.4-8.8-1.8M1015 893.5c0 5.1.2 5.6 1.5 4.5 1.9-1.6 1.7-9.1-.2-9.8-1-.3-1.3 1.2-1.3 5.3m-19 1.3c0 2.2 3.2 8.3 4.6 8.9 2.6 1 2.6-.4 0-4.5s-4.6-6-4.6-4.4m41.2 1.9c-2.4 3.5-3.4 6.3-2.3 6.3.7 0 4.6-5.4 5.9-8.3.9-2-1.9-.4-3.6 2m285.4.4c-2.5 1.9-2.6 2.5-2.6 11.5v9.4h-4.4c-6.7 0-7.1.9-6.7 17.9.2 12.4 0 14.9-1.3 16-2 1.7-2.1 6.1-.2 8.7 1.4 1.8 3.1 1.9 31.4 2.2 38.5.4 35.4 2.3 33.5-20.8l-.9-9.5 5.2-6c7.9-9.2 9.1-12.7 5.6-15.8-2.3-2.1-7.5-2.2-9.2-.2-2.2 2.7-3.3 1.1-3.7-5.6-.7-10.1-.2-9.9-23.8-9.9-19 0-20.4.1-22.9 2.1m43.8 10.2.8 8.8-3.9 4.7c-5.6 6.6-13.3 18.1-13.3 19.7 0 .8 1.1 2.2 2.5 3.1 3.2 2.1 5.7 1.1 12-4.7l4.5-4.2V950h-46v-25c0-22.7.2-25 1.8-25.9 1-.7 9.2-1 21.2-.8l19.5.2zm13 5.6c1.7 1.9 1.7 2.2-1.5 6.8-3.9 5.6-17.4 19.5-20.7 21.2-1.8 1-2.3.9-2.8-.4-.9-2.4 19.8-29.5 22.6-29.5.4 0 1.5.9 2.4 1.9m-59.6 22.3-.3 14.3-3.7.3-3.8.3V921h8.1zm49.6 18.1c2.4 1.8 1.5 4.4-1.9 5.7-4 1.5-55.8 1.3-57.3-.2-1.6-1.6-1.5-3.3.2-5.1 2.1-2 56.3-2.4 59-.4"/><path d="M1332 905c0 .6 4.8 1 12.5 1s12.5-.4 12.5-1-4.8-1-12.5-1-12.5.4-12.5 1m0 9.7c0 1 3.3 1.3 13.1 1.3 10 0 13-.3 12.6-1.3-.3-.9-3.8-1.2-13-1.2-9.5 0-12.7.3-12.7 1.2m-.3 7.9c-1.7 1.7 1.2 2.4 9.8 2.4 9.7 0 12.9-.6 11.9-2.1-.6-1-20.7-1.3-21.7-.3m-.5 11.6c1.1 3.1 13 3.6 13.6.5.3-1.5-.5-1.7-6.8-1.7-5.1 0-7.1.3-6.8 1.2m193.8-37.6c-1 1.2-1.3 8-1.1 30.2.2 25.3.4 28.8 1.8 29.9 1.2.9 6.2 1.3 16.5 1.3 12.5 0 14.8-.2 14.8-1.5s-2.3-1.5-15-1.5h-15v-57h36v15h16.8l.6 3.1c.3 1.7.6 4.9.6 7.1v3.9l-3.3-.6c-2.4-.5-3.9-.2-5 .9-1 1.1-2.5 1.4-4 1-3-.7-6.7 2.8-6.7 6.4 0 1.3-.9 3.5-2 4.9-2.5 3.2-2.6 6.8-.1 8.5 1 .7 2.5 2.7 3.4 4.5.9 1.7 2.6 3.4 3.7 3.8 1.1.3 2 1.1 2 1.6s.5.9 1 .9c.6 0 2.4 1 4.1 2.2l3 2.3 5.6-3c5.9-3.2 8.3-5.8 8.3-8.8 0-1 .9-3 2-4.4s2-3.2 2-3.9c0-1.8-6.5-10.4-9.6-12.7-2.2-1.7-2.4-2.5-2.4-10.7 0-9.9.1-9.7-10.4-20.8l-4-4.2h-21.2c-17.9 0-21.4.2-22.4 1.6m53 13.6c0 .4-2.7.8-6 .8h-6v-13.4l6 5.9c3.3 3.3 6 6.3 6 6.7m2.1 21.1c3 .7 7.9 4.7 7.9 6.4 0 .7.9 2.1 2 3.1l2 1.9-2 2.5c-1.1 1.5-2 3.5-2 4.7 0 2.3-8.3 9.1-11.1 9.1-1.1 0-2.4-.9-3.1-2s-1.7-2-2.3-2-3.2-2.3-5.8-5c-4.9-5.1-5.6-8.1-2.2-9.4.8-.3 1.5-1.6 1.5-2.8 0-3.9 1.2-6.8 2.6-6.8.8 0 1.4.9 1.4 2 0 2.8 1.3 2.5 3.9-1.1 1.5-2 2.6-2.7 3.4-2.1.7.5 2.4 1.2 3.8 1.5"/><path d="M1570.7 939c-3.2 3.8-3.4 5.9-.6 9.4 1.4 1.8 3 2.6 5.3 2.6 9.3 0 10.2-12.8 1-14.6-2.6-.5-3.5-.1-5.7 2.6m8.1 1.2c.7.7 1.2 2.5 1.2 4 0 2.1-.6 2.9-2.5 3.4-3.1.8-5.5-1-5.5-4.2 0-3.5 4.4-5.6 6.8-3.2m-805.7-43.1c-13.6 2.6-24.4 13.1-27.5 26.9-1.8 7.7-.9 15.5 2.5 22.2 2.9 5.7 10.7 12.6 16.9 15 6.5 2.4 18.9 3.5 24.3 2 3.4-.9 4.4-.8 8.5 1.4 12.5 6.8 27.2-1.8 27.2-15.9 0-6.2-2.8-11.6-7.9-15.1-3.8-2.7-4.1-3.2-4.1-7.5-.1-11.2-11.3-25.1-22.5-27.9-6.4-1.6-12.7-2-17.4-1.1m15.6 9.1c4.2 6.8 3.9 9.4-.8 8.4-1.8-.3-4.4-.6-6-.6H779v-6.8c0-3.8.3-7.1.6-7.4 1.7-1.7 5.9 1.2 9.1 6.4m-11.9 1-.3 7.3h-5.8c-3.3 0-6.1-.3-6.3-.6-.7-1.2 4.7-11.8 6.4-12.9.9-.5 2.7-1 4-1h2.3zm19-3.8c3.4 2.2 5.9 4.5 9.1 8.8 1.2 1.7.9 1.8-4.1 1.8h-5.4l-2.9-5.8c-1.6-3.1-3.1-6-3.3-6.5-.8-1.5 3-.6 6.6 1.7m-32.1 4.3c-1.2 2.7-2.6 5.4-3 6-1.1 1.7-7.7 1.7-7.7 0 0-2.2 9.6-10.6 12.2-10.7.4 0-.3 2.1-1.5 4.7m-4.1 12.4c-.3 1.7-.6 4.7-.6 6.5v3.4h-11v-3.5c0-2 .7-4.9 1.5-6.5 1.4-2.7 2.1-3 6.2-3h4.6zm17.4 3.4v6.5h-15v-4.3c0-8.3.4-8.7 8.1-8.7h6.9zm17.8-2.3c3.4 12.9 3.4 11.8.1 15-1.6 1.7-3.6 4.3-4.5 5.9-1.3 2.6-2 2.9-6.4 2.9h-5v-12h5.4c5.4 0 9-1.8 4.4-2.2-1.3-.1-3.2-.3-4.3-.4s-2.8-.2-3.7-.3c-1.5-.1-1.8-1.1-1.8-6.6V917h14.7zm14.2-1.7c.5 1.4 1.1 4.4 1.2 6.6l.3 4.1-4 .4c-2.2.3-4.6.6-5.2.9-.7.2-1.5-.6-1.8-1.8-1.4-6.4-2.5-11.3-2.5-12 0-.4 2.5-.7 5.5-.7 5 0 5.6.2 6.5 2.5m-49.6 17.7c.3 2.4.8 5.2 1.1 6.3.6 1.9.3 2-4.7 1.5-5.9-.6-7.8-2.7-7.8-8.8V933h10.7zM777 939c0 6.6.6 6.1-8.3 6.4-4.7.2-5.3-.5-6.2-7.2l-.7-5.2H777zm37.8-3c10 6.1 9.3 20.9-1.3 26-5.2 2.5-8.6 2.5-13.6 0-10.6-5.5-10.6-20.1.1-25.7 5.3-2.8 10.5-2.9 14.8-.3m-26.6 13.8c-.2 1.1.4 3.7 1.2 5.7.9 2.1 1.3 4.1 1 4.6s-2.3.9-4.4.9c-3.7 0-4-.2-4.9-3.8-.6-2-1.1-4.9-1.1-6.4 0-2.3.5-2.7 3.3-3.1 4.6-.5 5.2-.3 4.9 2.1M763 949c0 .6 1.2 2.9 2.6 5.1 1.4 2.3 2.3 4.4 2 4.7-1.5 1.4-14.6-7.5-14.6-9.9 0-.5 2.3-.9 5-.9 2.8 0 5 .5 5 1m14.5 3.7c.4 2.7.9 5.6 1.2 6.5 1.3 4.9-8.2-.5-11.2-6.3-2.3-4.4-1.9-4.9 3.9-4.9h5.5z"/><path d="m810.3 941.5-2.9 3.5-2.4-2.5c-1.3-1.4-3.3-2.5-4.4-2.5-1.8 0-1.6.5 1.6 3.7l3.7 3.6-3.5 5.4c-1.9 2.9-3.4 5.8-3.4 6.3 0 2.3 2.1.7 5.2-4 1.8-2.8 3.6-5 4-5 .3 0 1.7 1.5 2.9 3.2 2.7 3.8 4.5 5.8 5.3 5.8 1.3 0 .4-2.4-2.4-6.5-3.5-5.1-3.7-6.4-1-9.8 4.2-5.3 1.6-6.5-2.7-1.2"/><path d="M796 947.6c0 .9.5 1.4 1.2 1.2 1.8-.6 2.1-2.8.4-2.8-.9 0-1.6.7-1.6 1.6m84.5-49.2c-1.4 2.1-1.5 6.4-1.3 31.4.2 21.6.6 29.4 1.5 30.3 1 1 2.3.6 6-2.1 2.7-1.8 7.6-5.4 11.1-7.8l6.3-4.5 8.5 5.9c4.7 3.3 10 6.8 11.9 7.9 5.9 3.4 6 3.1 6-31.1 0-26-.2-30.6-1.5-31.4-.8-.5-11.7-1-24.2-1H882zm46.9 5.8c.8 7.2.6 48.8-.3 51.1-.6 1.6-2.1.9-11.6-5.8-12.5-8.8-10.8-8.8-23.3.5-4.6 3.4-8.6 5.9-9 5.5-1.1-1.1-1.5-21-.7-39.3l.7-17.2h43.5zM1199 898c-1.9 1.9-2 3.3-2 21.9 0 17-.2 20-1.6 21.2-2 1.6-1.3 7.3 1.2 10 1.5 1.7 3.3 1.9 15.1 1.9h13.4l-.3 3.2c-.2 2.8-.8 3.4-3 3.6-3.8.4-3.5 2 .5 2.7 4.6.8 29.4.2 30.3-.8 1.2-1.1-1.6-2.7-4.8-2.7-2.4 0-2.8-.4-2.8-3v-3h12.3c14.6 0 16.7-.9 16.7-7 0-2.9-.6-4.3-2.5-5.8l-2.5-2v-19.1c0-17.8-.1-19.2-2-21.1s-3.3-2-34-2-32.1.1-34 2m66.8 21.7.2 19.3-20.2.1c-11.2.1-21.2.2-22.3.2s-6.8-.1-12.7-.1l-10.8-.2v-18.8c0-10.4.3-19.2.7-19.5.4-.4 15.1-.6 32.7-.5l32.1.3zm4.7 23.9c1.9 1.9 1.9 2.9-.1 4.8-1.3 1.4-6 1.6-35.8 1.6-25.3 0-34.5-.3-35.4-1.2-1.6-1.6-1.5-5.5.1-6.1.6-.3 16.6-.5 35.4-.6 29.4 0 34.5.2 35.8 1.5m-28.7 12.3.3 3.1H1229v-2.8c0-1.6.2-3.1.4-3.3s3.1-.3 6.3-.3l5.8.2z"/><path d="M1227.8 910.7c-5.9 2.4-8.4 9.4-5.3 15.3 2.1 4 5.3 6 9.8 6 9.6 0 15.5-8.7 11.3-16.8-2.5-4.9-9.8-7-15.8-4.5m8 6.5c1.5 1.5 1.6 6.4.2 7.3-1.6 1-7 .9-7.9-.1-1.9-2-2.1-5.2-.6-6.8 1.9-1.9 6.6-2.1 8.3-.4m183.8-16c-.3 1.3-.6 13.8-.6 27.9 0 18.5.3 25.8 1.2 26.7s7 1.2 21.5 1.2c17.2 0 20.3-.2 20.3-1.5 0-1.2-3.1-1.5-19.7-1.7l-19.8-.3-.3-25.8-.2-25.7 21.7.2 21.8.3.3 26.5c.1 14.5.6 26.8 1 27.2s3 .9 5.6 1c7.5.2 7.6-.2 7.6-23.4V914l-2.3-.9c-1.3-.5-3-.9-3.8-.9-4.5.3-4.9-.1-4.9-5 0-8.2-.1-8.2-26.2-8.2h-22.6zm56.2 14.6c.9.7 1.2 5.2 1 19.3l-.3 18.4h-7l-.3-19.3-.2-19.2h2.7c1.6 0 3.4.4 4.1.8m-372.2-15.1c-.3.3-.6 1.4-.6 2.4 0 1.7-5 3.9-8.9 3.9-3.6 0-4 3-4.1 26.3v22.8l2.5 2.4 2.4 2.5 31.8.2c17.5.1 33.6.1 35.8 0 10.4-.7 16-13.2 9.5-21.5-1.8-2.2-2-4.1-2-15.9 0-15.7-.5-16.8-7.3-17.5-3.9-.5-4.6-.9-4.9-3-.4-2.9-2.2-3.1-2.6-.3-.5 2.7-4.7 4.8-7 3.4-.9-.6-1.9-2.1-2.2-3.3-.7-3.3-2.4-3-3 .4-.5 2.8-.8 3-5.5 3.2-6.6.2-8.1-.3-9-3l-.8-2.2-.4 2.1c-.6 3-8.6 4.9-9.5 2.3-.2-.7-1.7-.7-4.7 0-5.4 1.2-7.1.6-7.1-2.4 0-2.5-1.2-3.9-2.4-2.8m61.5 9.3c1.5.8 1.9 2.2 1.9 6v5h-9v-12h2.6c1.4 0 3.4.5 4.5 1m-62.6 5.5v5h-9l-.3-3.8c-.4-5 1.2-6.9 5.7-6.5l3.6.3zm12.4-4.2c.6.8 1.4 2.9 1.8 4.8l.8 3.4.5-4.5.5-4.5 4.2-.3c4-.3 4.3-.2 5.1 3l.9 3.3.7-3.3.8-3.2h6.4c5.6 0 6.4.2 6.4 1.9 0 1.1.3 2.8.7 3.8.6 1.4.9 1 1.3-1.7l.5-3.5 4.8-.3 4.8-.3-.3 5.1-.3 5.2-24.3.1-24.2.2V910h3.9c2.1 0 4.4.6 5 1.3m52.7 18.2c.1 2.7 0 5.3-.2 5.6-.2.4-1.8.3-3.6 0-8.9-1.9-15.8 3.6-15.8 12.4 0 3 .6 5.9 1.5 7.1.8 1 1.5 2.2 1.5 2.6 0 .5-12.3.8-27.4.8-23.6 0-27.7-.2-29-1.6-1.3-1.3-1.6-4.3-1.6-17V924l37.3.2 37.2.3zm.6 11.2c3.4 3.7 4.2 6.6 2.8 10.8-2 6.2-8.5 8.3-15 5-4.5-2.3-6.5-6.9-5.1-11.6 1.5-4.9 4.4-6.9 10.1-6.9 3.8 0 5.1.5 7.2 2.7"/><path d="M1103.7 932.6c-1.6 1.6-.6 3.5 1.6 3.2 1.2-.2 2.2-1 2.2-1.8 0-1.6-2.6-2.5-3.8-1.4m12 .8c-.7 1.6.1 2.6 2 2.6.7 0 1.3-.9 1.3-2 0-2.3-2.5-2.7-3.3-.6m12.3.5c0 1.2.6 2.1 1.6 2.1.9 0 1.4-.7 1.2-1.7-.5-2.5-2.8-2.8-2.8-.4m12.7-1.3c-1.6 1.6-.6 3.4 1.9 3.4 1.9 0 2.5-.5 2.2-1.7-.3-1.9-2.9-2.9-4.1-1.7m-12.6 13.4c-1.6.9-.6 3 1.5 3 1.5 0 2-2.5.6-3.4-.4-.2-1.4-.1-2.1.4m-24.9 1.7c.2 1 1 1.8 1.8 1.8s1.6-.8 1.8-1.8c.2-1.2-.3-1.7-1.8-1.7s-2 .5-1.8 1.7m12.8-.2c0 .8.7 1.5 1.5 1.5s1.5-.7 1.5-1.5-.7-1.5-1.5-1.5-1.5.7-1.5 1.5m43.2-2.8c-2.7.4-3.3.8-3 2.6.4 2.9 4.7 3.6 6.5 1.1 1.4-1.9 1.8-4.5.6-4.2-.5 0-2.3.3-4.1.5m-151-41.5c-7.4 2.5-14.3 12.8-14.2 21.2.1 6.1 4.1 14 10.7 21 2.1 2.3 2.9 4.4 3.4 9 .6 5.2 1.2 6.5 4 8.8 5.2 4.3 14.2 3.6 19.7-1.4 1.7-1.7 2.2-3.2 2.2-7.6 0-4.7.5-6.1 4-11.1 4.6-6.6 6-10.6 6-17.4 0-8.9-5.4-17.6-12.9-20.9-5.4-2.4-18.1-3.2-22.9-1.6m21.8 5.2c6.4 3.2 10.3 9 10.8 16.5.5 7.1-1.7 12.2-8.4 19.9-4.8 5.5-5.1 6.2-2.9 6.2 1.7 0 2.1 2.6.5 3.2-.5.1-4.8.2-9.5 0-7.9-.3-8.5-.5-8.5-2.5 0-1.1-2.4-5.2-5.4-9.1-8.9-11.8-8.9-11.8-8.4-19.6.4-7.4 1.9-10.5 7.1-14.4 5.3-3.9 17-4 24.7-.2m.8 49.8c-.8 2.4-7.1 4.9-11.1 4.4-3.7-.4-7.7-2.9-7.7-4.8 0-.4 4.3-.8 9.6-.8 7.2 0 9.5.3 9.2 1.2"/><path d="M1002.7 918.7c-1.3 1.2-.7 3.3.8 3.3.8 0 1.5-.9 1.5-2 0-2-1.1-2.6-2.3-1.3m.3 7.7c0 .9.7 1.6 1.6 1.6s1.4-.5 1.2-1.2c-.6-1.8-2.8-2.1-2.8-.4m17 4.3c-5.2.2-9.8.7-10.3 1.2-.4.4.2 3.3 1.3 6.4 2.3 6.1 9.1 13.3 11.7 12.3.8-.3 1.6-.6 1.9-.6.9 0 7.3-13.9 7.6-16.6.3-3.3 1-3.1-12.2-2.7m7.6 6.4c-.8 4-4.4 9.9-6 9.9-2.3 0-8.6-8.7-8.6-12 0-.6 3-1 7.6-1h7.7zM1675 904c-3 .5-11.7.8-19.2.9s-14.4.4-15.2.7c-1.5.6-1.6 3.8-1.6 28.9l.1 28.3 3.1.6c3.8.8 14.5.6 17.6-.2 4.9-1.4 1.8-2.7-7.5-3.2l-9.8-.5-.3-25.8-.2-25.7 12.7-.1c7.1 0 16.3-.4 20.6-.8 4.3-.3 8.1-.3 8.3.1.3.4-.3 2.9-1.1 5.6l-1.6 4.9 2.7 6.7c1.4 3.7 2.5 6.8 2.3 7-.9.7-32.3 4.5-32.8 4-.3-.3-.8-5.3-.9-11-.3-7.4-.7-10.4-1.5-10.1-.9.3-1.1 4.1-.8 13.3.2 7.1.5 13.1.7 13.3s.9-.1 1.6-.6c.7-.6 6-1.5 11.8-2.2 5.8-.6 13-1.6 16-2.2s6.5-1.3 7.8-1.5c3-.6 2.9-3.5-.4-10.4-2.6-5.5-2.6-6-.8-15.9 1-5.1-.4-5.6-11.6-4.1m-691 3c0 1.1 3.6 3.5 6.8 4.5 3.7 1.1 2.5-1.3-1.8-3.5-4.5-2.3-5-2.4-5-1m63.5 1.1c-1.1 1.7.1 2.1 1.5.4.8-.9.8-1.5.2-1.5s-1.4.5-1.7 1.1m490.8 2.6c-1.3.3-2.3.9-2.3 1.4s4.5.9 10 .9c6 0 10-.4 10-1s-.3-1-.7-1c-.5 0-3.9-.2-7.8-.4-3.8-.1-8-.1-9.2.1m-108 3.5c.3 1 3.7 1.3 12.3 1.3 12.9 0 15.4-.3 15.4-1.6 0-.5-6.3-.9-14.1-.9-10.8 0-14 .3-13.6 1.2m105.7 7.3c0 1.3 1.4 1.5 9.8 1.3 12.6-.4 12.4-2.2-.3-2.6-8.1-.2-9.5 0-9.5 1.3m-552.7 1.2c-.7.3-1.3 1.2-1.3 2 0 1.3.8 1.5 4.7.9 4.5-.6 6.1-1.2 5.2-2-.8-.6-7.4-1.3-8.6-.9M1430 924c0 .6 5.5 1 14.5 1s14.5-.4 14.5-1-5.5-1-14.5-1-14.5.4-14.5 1m-381.5 1c-.4.6.8 1 2.9 1 2 0 3.6-.5 3.6-1 0-.6-1.3-1-2.9-1-1.7 0-3.3.4-3.6 1m487.2 5.6c-1.9 2 .2 2.4 9.3 2.2 5.8-.2 10-.7 10-1.3 0-1.1-18.2-2-19.3-.9m-104.7 2.9c0 1.3 2 1.5 13.7 1.3 9.8-.2 13.8-.6 14.1-1.6.3-.9-2.9-1.2-13.7-1.2-12 0-14.1.2-14.1 1.5m0 8c0 1.2 1.4 1.5 7.1 1.5 5.2 0 7-.3 6.7-1.3-.3-.7-2.9-1.3-7.1-1.5-5.5-.2-6.7 0-6.7 1.3m105.3 1.7c.2.7 1.1 1.3 2 1.2 1 0 3.7-.1 6.2-.2 7.1-.3 5.3-2.2-2.1-2.2-4.8 0-6.5.3-6.1 1.2m-530.1 54.7c-6.8 2.3-13.6 8.8-15.7 15-2.8 8.2-1.7 14.8 3.7 23l2.9 4.4-3.4 3.6c-8.5 9-9.5 12.5-5 16.1 5.2 4 10.7 1.1 16.6-8.7l3.1-5.1 6.5.1c12.5.2 19.8-3.8 24.9-13.7 7.5-14.6-1.1-32-17.6-35.4-7.6-1.6-9.7-1.5-16 .7m20.3 4.5c2.8 1.3 6.3 3.7 7.8 5.5 6.4 7.6 6.2 20.1-.5 27.7-3.8 4.3-7.4 5.9-15.6 6.8-10.4 1.2-17.8-2.4-22.9-11.1-3.5-6.1-3.7-15.3-.3-20.7 2.3-3.9 7-7.9 11-9.5 4.8-1.9 15.1-1.3 20.5 1.3m-23 42.7c2.5 2.4-7.8 14.5-11.2 13.2-1.8-.7-3.3-2.2-3.3-3.5 0-.3 2.1-3.2 4.6-6.2 3.7-4.7 5-5.6 6.7-5 1.2.3 2.6 1 3.2 1.5"/><path d="M1007 1007.2c-8.5 5.9-9.4 18.5-1.8 25.5 2.7 2.5 9.5 4.6 10.4 3.2.9-1.5-.5-2.9-2.9-2.9-4.9 0-9.7-6-9.7-12.2 0-4.5 3.3-9.5 7.5-11.5 3.7-1.8 4.7-4.3 1.6-4.3-1 0-3.3 1-5.1 2.2m109.5-9.5c-11.3 4.1-18 13.3-18 24.8.2 17.1 18.4 28.3 38.1 23.4l4.4-1.1 7 6.6c7 6.6 13.3 10.6 16.7 10.6 2.5 0 8-3.5 9.2-5.9 2.4-4.4-3.8-12.4-13.6-17.6-7.5-4-8.8-5.6-7.4-9.6 2.7-7.9-.2-19.2-6.5-25.1-7.1-6.7-20.6-9.4-29.9-6.1m20.3 3.8c5.5 2.4 10.9 8.1 12.8 13.8 3.3 10-1.8 21.2-12.1 26.2-4.9 2.5-6.3 2.7-12 2.2-15.3-1.4-24.6-11.1-23.2-24.2.7-7.2 4.4-12.7 10.9-16.5 4.6-2.6 6.3-3 12.6-3 4.3 0 8.8.6 11 1.5m15.7 39.1c-7.9 6.3-11.9 5.4-5.8-1.3l3.7-4.1 2.4 1.6 2.4 1.6zm11.7 4.4c5.4 3.6 7.1 6.7 5.4 10.1-2 4.2-7.1 3.8-13.6-1.1-7.3-5.4-7.6-6.3-3.9-9.4 4-3.4 6.5-3.3 12.1.4"/><path d="M1119.5 1006.4c-4.2 1.8-9.3 7.9-10 11.9-1.4 7.5 3.4 15.7 10.3 17.6 4.7 1.4 4.2-1.3-.6-3.8-4.3-2.2-6.2-5.5-6.2-10.9 0-7.4 6.4-13.2 14.5-13.2 2.5 0 3.5-.4 3.3-1.3-.6-1.7-7.7-1.9-11.3-.3m312.3-8c-8.4 2.8-13.2 6.6-17.2 13.6-2.9 5.1-3.1 6.2-3 15 0 10.5.7 12.6 6.8 19.7 5.3 6.1 13 9.5 22.7 10.1 8.6.5 11.1 0 10.3-2.1-.4-1.1-2.4-1.4-8.2-1.4-6.3.1-8.7-.3-13.3-2.5-10.8-5-17-16.5-15-27.5 2.1-10.8 5.4-15.6 13.9-20.1 5.4-2.9 6.8-3.2 14.8-3.2 10.7 0 15.3 1.8 21.5 8.2 5 5.1 6.5 8.3 7.4 16.3.9 6.8 1.8 9 4.4 10.4 2 1.1 2 2-.9-13-3.9-20.1-23.5-30.5-44.2-23.5m104.6-.6c-7.3.4-8.5 2.1-9.1 12.6-.3 4.8-1 8.7-1.4 8.7-.5.1-1.3.3-1.9.4-.5.1-1.4.3-2 .4-.5 0-1.9 1-3 2.1-1.8 1.8-2 3.3-2 14.4 0 10.3.3 12.7 1.8 14.5l1.7 2.2 24.5-.3 24.4-.3 1.6-3c.8-1.7 1.6-3.2 1.7-3.3.1-.2 1.7-.7 3.7-1.2 2.6-.6 3.8-.4 4.8.7.9 1.1.9 1.6-.1 2.2-1.8 1.1 4.2 6.6 10.8 9.8l5.4 2.7 1.8-2.3c1.1-1.3 1.9-3.9 1.9-5.8 0-3.5-1.2-4.9-8.8-11l-2.3-1.8 2.5-5.5c3.2-6.8 3.2-10.3.4-16-3.7-7.2-6.4-8.5-17.2-8.5-8.2 0-9.7.3-12.9 2.5-6.5 4.4-9.5 14.2-6.6 21.7 1.5 4 6.7 9.1 10.6 10.4l3.3 1-1.6 2.5-1.7 2.4-23.1-.2-23.1-.3v-5l16.8-.3c13.9-.2 16.7-.5 16.7-1.7 0-1.3-2.6-1.5-16.5-1.5H1521v-7.9c0-9.8.5-11.1 3.9-11.1 2.3 0 2.9.6 3.7 3.7l.9 3.8h9.9c6.9 0 10.1-.4 10.3-1.2.3-.9-2.1-1.3-8.9-1.5l-9.3-.3-.3-10.5c-.2-5.8 0-11.5.3-12.8l.5-2.2h44.6l3.7 3.6c4.8 4.7 4.8 2.9 0-2.4l-3.8-4.1-17.5-.3c-9.6-.2-19.8-.2-22.6 0m48.6 16.2c9.4 4.8 7.7 21.1-2.7 26.1-5.4 2.6-13.9 2.3-18.1-.7-4.1-3-7.3-10.1-6.5-14.7.8-5 6.7-11.6 11.3-12.7s11.6-.3 16 2m14 37.7c0 .2-.5 1.3-1 2.4-1 1.8-1.3 1.8-4 .4-3.5-1.8-11-8.8-11-10.2 0-.5 1-1.5 2.3-2 1.9-.9 3-.4 8 3.9 3.1 2.8 5.7 5.2 5.7 5.5"/><path d="M1569.2 1018c-6 3.7-6.8 12.3-1.6 16.9 2.3 1.9 3.5 2.2 7.3 1.8 11.4-1.3 13.9-15 3.5-19.3-4.4-1.8-5.3-1.8-9.2.6m11.1 4.1c2.6 3.2 2.2 7.4-.9 9.8-3.4 2.7-7.2 2.7-10.1-.1-3.1-2.9-3-7.2.3-10.5 2-2 3.1-2.4 5.7-1.9 1.8.3 4 1.6 5 2.7m-695.1-22.9c-.9.9-1.2 8.7-1.2 28.9 0 23.9.2 28 1.6 29.3 1.3 1.4 4.7 1.6 21.3 1.6 21.4 0 22.1-.2 22.1-5.5 0-3 .3-3.2 4.7-4.1 6.7-1.3 7.3-2.8 7.3-20.9 0-18.3-.5-19.5-8.1-19.5H928v-3.9c0-6.9-.6-7.1-22.4-7.1-13.6 0-19.5.3-20.4 1.2m39.6 25.5.2 23.3h-37v-23.4c0-14.5.4-23.6 1-23.8.5-.2 8.7-.1 18.2.2l17.3.5zm12.7-.7v11.5l-4.7.3-4.8.3v-24.2l4.8.3 4.7.3zm.3 18.4c-.3 2.9-.5 3.1-5 3.4l-4.8.3v-3.5c0-3.8 1.1-4.4 6.8-3.8 3 .4 3.3.7 3 3.6M925 1053v3h-37v-6h37z"/><path d="M900.3 1009.8c-8.1.6-4.3 2.2 5.2 2.2 5.5 0 9.5-.4 9.5-1 0-1.2-3.6-2.1-7.5-1.8-1.6.2-4.9.4-7.2.6m-4.3 10.7c0 1.7 1.9 1.8 12.3.8 3.7-.3 6.7-1 6.7-1.4 0-.5-4.3-.9-9.5-.9-7.8 0-9.5.3-9.5 1.5m0 8.5c0 .6 4 1 10.1 1 6.4 0 9.8-.4 9.4-1-.3-.6-4.8-1-10.1-1-5.6 0-9.4.4-9.4 1m0 8.6c0 1.3 1.5 1.5 9.3 1.3 9.8-.2 12-.6 11.1-2-.3-.5-5-.9-10.5-.9-8.3 0-9.9.3-9.9 1.6m356-38.9c-.8.4-10 9.2-20.5 19.7l-19 19.1-.5 8.4-.5 8.4-3.2-3.3c-3.7-3.8-7.3-12.4-7.3-17.3 0-4.4 1.9-10.7 4.1-13.9 3.1-4.2 10.4-7.9 17-8.5 6.7-.6 7.6-1.8 2.3-2.7-8.5-1.6-20.6 5.2-24.5 13.9-2.8 6.2-2.5 15.8.7 22.3 10.2 20.4 44.3 22.6 54.7 3.4 3.4-6.2 3.6-12.8.6-18.8l-2-4.3 1.8-2.5c1-1.4 2.7-2.7 3.9-3 1.1-.3 3.3-1.8 4.8-3.3 2.3-2.3 2.7-3.4 2.2-6.1-.9-6-5-10.4-10.6-11.6-1.4-.3-3.2-.2-4 .1m8.8 6.6c2.5 2.3 3 7.8.9 9.5-1.6 1.3-5.8-.6-9.9-4.6-3.5-3.2-3.5-4.5-.2-7.1 2.9-2.3 4.8-1.8 9.2 2.2m-5.9 11.1c1.4 1.7.8 2.4-15.7 18.1l-9.3 8.9-4.7-4.7-4.7-4.7 12.4-12.4 12.3-12.4 4.3 2.9c2.3 1.6 4.8 3.5 5.4 4.3m-1.3 14.1c3.8 9.3-.3 19.6-10.1 24.8-5.4 2.9-20.3 3.1-25.2.4-4.4-2.3-4.1-3.7.6-3.7 2.2 0 5-.4 6.3-.9s7.7-6.1 14.3-12.4c6.6-6.4 12.1-11.6 12.3-11.7.2 0 1 1.6 1.8 3.5m-31.3 9.2c6.9 4.8 6.8 6.9-.6 9.3-5.4 1.7-7.1.1-6.3-5.8 1-7.2 1.3-7.4 6.9-3.5"/><path d="M1240.6 1042.4c-3.1 4.1-3.2 4.6-.7 4.6 1.7 0 6.1-5.4 6.1-7.4 0-1.8-3.1-.2-5.4 2.8m63.9-41.1c-1.2 1.7-1.5 5.5-1.5 19.1 0 15.9-.1 17.1-2.1 19.2-1.7 1.9-2 3-1.4 6.3 1.2 7.2.5 7.1 40.1 7.1 40.8 0 39.7.2 39.8-8.6l.1-4.9-3.5-1.1-3.5-1.2-.3-17.6-.2-17.6-2.3-1.5c-1.9-1.2-7.6-1.4-32.9-1.4h-30.7zm64.3 19.9.2 17.8h-62v-36l30.8.2 30.7.3zm8.2 22.6c0 1-.7 2.8-1.6 4l-1.5 2.2H1305l-1.6-2.5c-3.6-5.5-3.8-5.5 36.6-5.5 34.8 0 37 .1 37 1.8"/><path d="M1332 1019.4c0 1.8 6.7 6.6 9.2 6.6 2.3 0 3.6-4.9 1.7-6.1-.8-.5-2.8-.9-4.6-.9-1.7 0-3.8-.3-4.7-.6-1-.4-1.6-.1-1.6 1m8 26.6c2 1.3 5 1.3 5 0 0-.6-1.5-1-3.2-1-2.5 0-2.9.3-1.8 1m311.2-45.4-2.2 1.5v53.9h-4c-2.9 0-4 .4-4 1.5 0 1.3 2.2 1.5 13.6 1.5 10.4 0 13.5-.3 13.2-1.3-.3-.6-2.2-1.3-4.4-1.5-2.1-.1-5.4-.5-7.2-.8l-3.2-.5.2-25.9c.2-18.5.6-26 1.4-26 .6 0 2.8.7 4.7 1.5 2.6 1.1 7.4 1.5 17.2 1.5h13.6l-.3 12.2-.3 12.3-13.7.3-13.7.3-.3-6.7c-.2-4.4-.7-6.9-1.6-7.2-1-.3-1.2 1.5-1 8l.3 8.3 14.5.2c8 .1 15.5 0 16.8-.3l2.2-.4v-29.7l-4.6-.7c-2.6-.3-9.7-.6-15.9-.6-7.7 0-12.4-.5-14.8-1.5-4.4-1.8-3.8-1.8-6.5.1m-845.8.5c-2.7 1.4-5.4 6-5.4 9.6 0 2.6-.5 3-7.8 5.3-4.2 1.3-11.4 4.1-15.9 6.2-7.9 3.7-8.4 3.8-11.2 2.3-10.1-5.2-20.9 3.8-16.7 13.8 2.7 6.7 11.1 8.3 17.9 3.5l2.7-1.9 8.3 3.1c4.5 1.8 11.6 4.3 15.7 5.7 9.1 3.1 10 3.8 10 7.2 0 1.7 1.2 3.9 3.3 5.9 2.7 2.6 4.1 3.2 7.7 3.2 9.6-.1 14.3-9.9 8.5-17.6-4.2-5.4-12.2-5.8-17.1-.9l-2.5 2.5-8.7-3.3-8.7-3.2-.1-5.5c-.1-10.3-.4-12-1.7-12-1 0-1.3 1.9-1.3 6.9 0 3.9-.2 7.3-.6 7.6-.7.8-8.8-1.3-10.5-2.7-2.2-1.8-1.6-7.1 1-8.7 4.3-2.8 11.3-5.8 19.6-8.6 8-2.6 8.6-2.7 11.5-1.2 4.8 2.4 6.8 2.7 11.1 1.7 8.4-1.9 11.5-11.2 5.6-17.1-2.5-2.4-3.7-2.9-7.8-2.8-2.6 0-5.7.5-6.9 1m12.6 4.6c5.8 7.4-5.9 16.5-12.5 9.8-5.1-5-1.3-12.5 6.4-12.5 3.1 0 4.4.6 6.1 2.7m-53.6 22.4c5.8 4.5 1.6 13.4-6.1 13.1-7.8-.3-10.5-7.8-4.7-13 3.1-2.8 7.3-2.8 10.8-.1m55.1 20.4c5.2 5.1 1.8 13.5-5.4 13.5-4.9 0-8.1-3.2-8.1-8.1 0-7.1 8.5-10.5 13.5-5.4m406-45.6c-.4.7-.5 1.3-.4 1.5.8.4 12.3 2.6 12.6 2.3.1-.2-.3-1.1-1-2-1.5-2.1-10.1-3.4-11.2-1.8m217.5 11.8v7.7l-5.4-5.3c-5-4.9-7.6-5.9-7.6-2.7 0 .7 1.2 2.4 2.8 3.7 1.5 1.4 4.8 4.9 7.4 7.8 2.6 3 5.1 5 5.7 4.7 1.2-.8 1.6-19.2.5-22-.3-.9-1.2-1.6-2-1.6-1.1 0-1.4 1.8-1.4 7.7m95.7-3c-1.8 1.7-.1 2.3 6.8 2.3 6 0 7.5-.3 7.5-1.5s-1.4-1.5-6.8-1.5c-3.8 0-7.2.3-7.5.7M1423 1035c0 3.1 7.1 9.5 12.5 11.4 6.9 2.3 8.5 2.1 8.5-.9 0-2.1-.5-2.5-3.2-2.5-4.6 0-11.6-3.7-13.4-7.1-1.7-3.3-4.4-3.9-4.4-.9m32 1.5c-1.4 2.6-.3 11.1 2.2 16.2 1.5 3.1 4.8 4 4.8 1.4 0-2.8 1.1-3.2 3.9-1.3 6.9 4.5 12.1 6.7 13.8 5.6 4.3-2.7 4-4.1-2-9.5-3.1-2.8-5.7-5.5-5.7-6s2.3-.9 5.1-.9c3.4 0 4.9-.4 4.7-1.2-.2-.6-1.3-1.3-2.4-1.4-1-.1-5.9-1.4-10.9-2.8-11.1-3.2-11.8-3.2-13.5-.1m212.5 57.9c-10.4 3.3-19.6 7.6-22.7 10.5-2.5 2.2-2.8 3.1-2.8 9.2 0 23.4 14 43 32.3 45.5 3.8.5 5.7.1 11.1-2.4 16.1-7.5 24.5-22.9 24.6-44.8 0-6.6-1.6-8.5-10-11.8-6.9-2.7-24.2-8.6-25-8.5-.3 0-3.6 1-7.5 2.3m32.2 9.8c7.5 2.3 7.8 2.9 6.4 14.9-1.7 15.4-7.2 25.4-17.4 32-8 5.2-11.6 6.1-17.2 4.4-11.1-3.3-20.6-14.1-24-27.2-1.9-7.1-2-20.7-.2-22 1.5-1.2 23.4-9.9 26.2-10.5 1.1-.2 6.1 1.2 11 3 5 1.9 11.8 4.3 15.2 5.4"/><path d="M1666.4 1104.8c-10.8 3.8-14 8-13.1 16.9.6 5.9 4.4 14.8 8.4 20.1 3.3 4.4 12.3 8.6 16.5 7.8 7.1-1.4 16.2-11.2 18.7-20.1.6-2.2 1.1-6.8 1.1-10.2 0-7.3-.8-8.4-9.7-12.5-8-3.8-15.2-4.4-21.9-2m20 7.6c2.8 1.8 3.4 4.7 1.3 6.4-1 .9-2.4.6-5.4-.9-4.9-2.4-8.4-1.8-11.3 1.8-3.6 4.6-1.9 9.9 4 12.3 2.8 1.1 3.7 1 8.1-1 3.9-1.9 5.2-2.1 6.2-1.1 3 3-5.8 11.1-12.1 11.1-4.1 0-11.2-3.9-13.5-7.4-3.7-5.5-3-15.2 1.3-19.1 4.9-4.5 16.2-5.6 21.4-2.1m-237.5-17.9c-10.2 3.3-19.3 12.2-21.9 21.3-.5 2-1 6.7-1 10.3 0 5.5.5 7.7 3.1 12.5 4.1 7.9 7.1 10.9 14.9 14.7 6 3 7.2 3.2 16.5 3.2 9.1 0 10.5-.3 15.9-3 11.5-5.8 18.3-18.2 17.4-31.5-.6-7.8-3.1-13-9-18.7-8.9-8.7-24.4-12.5-35.9-8.8m22.3 4.1c6 2 14 9.1 16.9 15.1 3.2 6.6 3.2 16.2.1 22.1-3.4 6.4-8.7 11.8-14.5 14.6-10.4 5.3-27.2 2.8-35.5-5.3-6-5.9-8.7-12.2-8.7-20.6.2-20.5 20.1-32.8 41.7-25.9"/><path d="M1455 1104.9c-10.2 2.1-17 10.1-17 19.8.1 15.3 15.1 25 31.3 20.1 4.1-1.2 11.7-7.5 11.7-9.7 0-2.5-3.1-2.1-7.4 1-10.9 7.7-27 2.9-29.2-8.8-.9-5 2.1-12.1 6.5-15 4.9-3.3 13.5-3.2 18.5.2 4.2 2.9 6.4 3.2 7.2 1 1.9-4.9-12.2-10.5-21.6-8.6m-653.7-6.9c-3.6 2.1-5.3 4.8-5.3 8.2 0 2-1.5 2.8-13 7.1l-13 4.8-2.9-2.2c-5.9-4.4-16.2 0-17.7 7.5-1.6 8.7 7.9 15.1 17.1 11.6 2.1-.8 5.2-.1 16.5 3.6l14 4.6v2.8c0 7.5 4.1 11.9 11.3 12 3.7 0 5.3-.5 7.2-2.4 5.8-5.8 3.6-15.9-4-18.5-4.1-1.3-6.5-.9-10.7 2.1-1.4 1-4 .5-14.3-3-6.9-2.3-13.2-4.2-14.1-4.2-1.2 0-1.4-.5-.8-1.8.4-.9.9-3.5 1-5.7l.1-4 11.4-4.2 11.4-4.3 3.8 2.5c5.1 3.4 8.8 4 12.5 2.1 4.2-2.2 6.2-5.3 6.2-9.9 0-3.1-.7-4.6-3.4-7.3-4-4-8.3-4.5-13.3-1.4m9.6 2.5c7.3 3.7 4.5 13.5-3.8 13.5-7.6 0-11.2-8.4-5.5-12.9 3.1-2.5 5.5-2.6 9.3-.6m-44.5 18.6c2 1.6 2.6 2.9 2.6 5.9s-.6 4.3-2.6 5.9c-5.7 4.5-13.4 1.5-13.4-5.2 0-7.3 7.7-11.1 13.4-6.6m47.4 23.5c6.8 7.5-4.2 17.1-11.3 9.9-2.9-2.8-3.2-6.1-.9-9.3 3.3-4.7 8.2-4.9 12.2-.6m195.4-45.1c-5.9 1.8-10.6 5.7-13.9 11.3-3.7 6.2-4 16.5-.7 22.7l2.1 4-6.8 7.4c-5 5.2-6.9 8-6.9 10 0 3.6 1.1 5 4.8 6 4 1.2 7.8-.9 12.7-6.9 7.7-9.4 7-8.9 11.2-7.9 5.6 1.2 13.4 0 19.5-3.1 7.3-3.7 11.1-9.8 11.6-18.6.8-11.9-4.6-19.9-16.2-24.3-6.4-2.4-11.2-2.6-17.4-.6m21.8 6.2c13.6 9.6 11 30.4-4.6 35.7-13.5 4.6-26.7-.7-30-12.1-2.7-9.3.4-18.8 7.8-23.9 7.1-5 19.5-4.8 26.8.3m-29.6 36.6c2.5 1.9 1.6 4.3-4.3 10.6-4 4.3-5.4 5.2-7.7 4.9-4.8-.5-4.1-3.2 2.7-10.3 3.4-3.6 6.5-6.5 6.9-6.5.3 0 1.4.6 2.4 1.3"/><path d="M1010 1107.2c-14.1 7.1-8.6 28.8 7.3 28.8 11.9 0 19.8-13.6 13.4-23.1-2.4-3.7-9.7-7.9-13.7-7.9-1.4 0-4.6 1-7 2.2m13.7 2.8c7.4 4.5 8.3 13.9 1.9 19.7-6.5 6-16.1 3.9-19.7-4.2-5.1-11.5 7.1-22.1 17.8-15.5m-105.5-9.9c-3.9 1.9-11.2 9.8-11.2 12 0 2.1 3.7.6 5.3-2.1 4.7-7.9 15.2-11.3 22-7.1 3.6 2.2 5.7 5.7 5.7 9.5 0 6.6-17.6 23.2-25.8 24.3-5.9.8-11-1.4-16.5-7-5.4-5.5-7.2-5.5-4.2.1 1.3 2.4 4 4.9 7.8 7.1l5.8 3.4-4.8 4.9c-8.5 8.7-14.8 10.6-22.3 6.8-7.4-3.8-9.2-12.4-4.2-19.7 3.2-4.8 10.4-11 14.9-12.9 9.4-4 20.5.5 22.2 8.8.4 2.1 1.4 3.4 2.5 3.6 1.6.3 1.8 0 1.2-2.5-2.5-9.9-8-14.4-17.9-14.5-5.3-.1-7.3.3-10.9 2.5-7.6 4.4-14.3 11.2-16.7 16.8-2 4.5-2.1 5.7-1.1 9.6 1.5 6.2 3.5 8.9 8.4 11.3 4.9 2.3 11.3 2.6 16.1.6 4.5-1.9 12-8.9 13.5-12.6 1.1-2.5 1.8-3 4.9-3 2 0 5.4-.9 7.6-1.9 5.2-2.4 16.2-12.1 19.8-17.3 4.4-6.7 3.4-14-2.7-19.8-3.8-3.5-13.4-4-19.4-.9m442.3 1.5c-11.5 9.6-22.8 14.6-38.3 16.9-2.3.4-5.6 1.8-7.2 3.2-2.6 2.1-3 3.2-3 7.1.1 5.6 2.3 8.7 7.1 9.9 3.2.9 3.6 1.5 6.6 9.8 3.3 9.3 5.1 11.5 9 11.5 2.6 0 7.3-4.1 7.3-6.2 0-.8-.7-4-1.5-7.1-2-7.6-2-7.7 1.3-7.7 4.9 0 12.9 2.7 20.5 6.9 4.1 2.3 8.2 4.1 9 4.1 2.9 0 4-3.8 3.3-11.6-.6-6.5-.5-7.3 1.1-7.8 2.4-.8 5.3-5.7 5.3-9 0-2.4-5.3-7.9-7.4-7.6-1.5.3-2.6-2.4-2.6-6.5 0-8-4.8-10.7-10.5-5.9m6.9 3.6c.2 1.8 1.2 8.9 2.1 15.8 1 6.9 2 15.5 2.3 19.2.4 6.3.3 6.8-1.6 6.8-3.2 0-4-1.9-6.1-14.5-3-18.6-3.5-27-1.6-28.9 2.6-2.5 4.4-1.9 4.9 1.6m-7.6 18.5c1.2 8.7 2.2 16.3 2.2 16.9 0 .7-2.2.3-5.9-1.2-3.3-1.3-8.7-2.8-12-3.2-3.4-.5-6.6-1.3-7.1-1.8s-1.2-4.2-1.6-8.1c-.6-6.6-.5-7.3 1.2-7.9 6.2-1.9 15.1-6.1 17.3-8 1.4-1.3 2.8-2.4 3.1-2.4s1.6 7.1 2.8 15.7m16-5.5c1.7 1.7 1.5 8.5-.3 9.2-1.9.7-3.5-2.3-3.5-6.8 0-3.7 1.5-4.7 3.8-2.4m-43.3 8.9c.9 8.4.5 8.9-7.3 8.9-6.8 0-9-1.2-9.7-5.4-1.1-5.8 1.6-8.4 10.5-9.9 5.9-1 5.8-1.1 6.5 6.4m3.4 14.1c.7 1.8 1.4 5.9 1.8 9 .5 4.9.3 5.9-1.2 6.4-1 .4-2.5.3-3.4-.3-1.5-.9-7-13.3-7.1-16 0-.6 1.5-1.4 3.3-1.6 1.7-.2 3.7-.5 4.4-.5.6-.1 1.6 1.3 2.2 3m-229.1-40.1c-1.6.9-1.8 2.9-1.8 18.9v17.9l-2.7 1.3c-4 1.9-4.4 7.8-.9 11.3l2.5 2.5h72.2l2.4-2.6c3.8-4.1 2.7-10.8-2-12l-2.5-.6-.1-14.7c-.2-19-.3-19.9-1.7-21.3-1.7-1.7-62.8-2.3-65.4-.7m63.4 19.6c.3 9.3.3 17.1.1 17.5s-12.4.7-27.2.7c-23.7.1-26.9-.1-27.5-1.5-.3-.8-.6-7.4-.6-14.5 0-17.9-1.9-16.8-2.2 1.3-.3 13.5-.4 14.3-2.3 14.3s-2-.8-2.3-17.3l-.2-17.2h61.8zm6.9 21.9c1.1 1.3 1.1 2-.2 4.2l-1.5 2.7-34.8.3c-31.4.2-35.1.1-36.8-1.4-1.8-1.7-2.4-5.4-1.1-6.7.3-.4 16.9-.7 36.8-.7 32 0 36.4.2 37.6 1.6"/><path d="M1136 1119.5c0 2.5 5.8 7.5 8.7 7.5 4 0 2.4-2.9-3.4-6.2-4.5-2.5-5.3-2.7-5.3-1.3m78.4-16.1c-1.8 1.3-1.9 3-2.2 22l-.3 20.6 2.7 1c1.6.6 9.9 1 19.2.9l16.4-.1 2.7 2.6c3 2.9 9.9 5.6 14.3 5.6 4.5 0 9.6-2.9 12.4-6.9 3.6-5.4 3.4-14-.5-19-2.6-3.3-2.9-4.4-3.3-14.4-.4-9.1-.8-11-2.4-12.2-2.8-2.1-56.1-2.2-59-.1m56.7 2.6c1.6.9 1.9 2.2 1.9 9.4 0 4.5-.3 8.5-.6 8.8-.3.4-1.9.2-3.6-.3-3.8-1-10.2.3-13.7 2.8-4.6 3.5-6.6 7.1-6.7 12.5l-.2 5.1-12.8.4c-7 .3-14.3.2-16.1-.2l-3.3-.6V1105h26.6c16.4 0 27.3.4 28.5 1m1 22.1c.9.5 2.9 2.2 4.3 4 5.5 6.4 2.4 17.2-5.7 19.8-5.7 1.9-13.9-1.2-17.3-6.4-2.1-3.2-1.5-11.7 1-14.4 4.2-4.7 12-6 17.7-3"/><path d="M1224 1115c0 .6 7 1 19 1s19-.4 19-1-7-1-19-1-19 .4-19 1m1.2 8.2c.3.9 3.4 1.4 9.4 1.6 9.5.3 13.4-.2 13.4-1.8 0-.6-4.7-1-11.6-1-8.8 0-11.5.3-11.2 1.2m-3.5 7.4c-1.8 1.8 1.5 2.4 12.3 2.4 12.4 0 16.7-1.3 7.7-2.4-6.8-.8-19.2-.8-20 0m41.4 7.7c-2 2.4-.2 4.8 3.3 4.5 2.3-.2 3.2-.8 3.4-2.6.2-1.4-.2-2.2-1.1-2.2s-2.2-.2-3-.5c-.7-.3-1.9 0-2.6.8m339.6-34.4c-.2.3-.1 3.4.1 6.8.3 5.2.7 6.3 2.2 6.3 5.7 0 6.3-12.1.6-13.2-1.5-.3-2.8-.3-2.9.1m-64 .8c-.9.8-.9 15.6-.1 17.7.5 1.2 2.1 1.6 7 1.6 4.7 0 6.4.4 6.4 1.3 0 2-5 8.7-9.4 12.5-5.9 5.1-3.4 8.8 3.2 4.6 3.6-2.3 10.7-12 12.5-17.2 2-5.5 2.3-18.2.5-20-1.3-1.3-18.9-1.7-20.1-.5m26 0c-.4.3-.7 4.6-.7 9.4v8.9l2.5.6c1.3.3 4.7.4 7.5.2 3-.2 5 .1 5 .8 0 1.8-5.6 9.7-9.4 13.3-7.4 7.1-2.5 8.5 5.2 1.6 2.8-2.5 6.1-6.4 7.5-8.8 4.5-7.6 5.9-21.3 2.6-25.3-.8-1-3.6-1.4-10.4-1.4-5 0-9.5.3-9.8.7m26.8 1c.4 1 1 4 1.3 6.6.5 5.1 2.2 6.8 4.7 4.7 1.7-1.4 2-8.2.5-11.1-1.4-2.6-7.6-2.8-6.5-.2m-210.2.1c-.6.4-1.4 1.9-1.8 3.3-.6 2.3-.2 2.9 3.2 4.5l3.8 1.9.3 5.7.3 5.6-3.6 2.8c-3 2.3-3.5 3.2-3 5.3 1 3.8 2.4 4.2 7.1 1.8 4.3-2.2 5.1-4 4.5-9.3-.1-.6 1-1.6 2.4-2.2 3.8-1.7 3.5-7.3-.4-10.1-1.6-1.2-3.4-2.1-4-2.1s-1.7-1.3-2.6-3c-1.7-3.3-4.5-5.2-6.2-4.2"/></svg>