<svg xmlns="http://www.w3.org/2000/svg" version="1.0" viewBox="0 0 2560 1706"><path d="M1170 474.7c-.8.3-4 2.5-7.2 4.8-3.1 2.4-9.1 5.7-13.2 7.4-6.6 2.7-8.6 3.1-17 3.1s-9.8.3-12.1 2.2c-2.4 2.2-2.6 2.9-2.6 11.5-.1 5 .2 10 .5 11 .7 2.2 5.6 5.3 8.5 5.3 1.9 0 2 .7 2.3 10.2l.3 10.2 3.2 1c2 .5 5 .5 7.5 0l4.3-.9.3-10.3c.1-5.6.6-10.2 1.1-10.2.4 0 3.6 1.8 7 4s6.4 4 6.7 4 3.1 1.8 6.1 4c4.3 3 6.2 3.8 8.2 3.4 4.9-1.1 6.1-3.8 6.1-13.3v-8.6l3.5-2.8c4.3-3.5 4.5-6.4.5-10.2-2.7-2.6-3-3.5-3-8.9 0-14.4-3.5-19.8-11-16.9m5.8 3.5c.9.9 1.2 8.1 1.2 26.5v25.2l-2 1.1c-2.8 1.5-5.9.4-6.5-2.3-.3-1.2-.4-12.8-.3-25.7l.3-23.4 2.5-1.3c3.1-1.6 3.3-1.6 4.8-.1M1166 504c0 14.3-.4 22-1 22s-5.5-2.3-11-5l-10.1-5 .3-11.7.3-11.6 3.6-1.2c1.9-.7 6.4-3.1 10-5.3 3.5-2.2 6.7-4.1 7.2-4.1.4-.1.7 9.8.7 21.9m-24 .5V516h-8.7c-11.6 0-12.3-.7-12.3-11.2 0-11.6.2-11.8 11.5-11.8h9.5zm40.6 1.8c-.3 1.4-1.3 2.8-2.2 3.1-1.2.5-1.5.2-1-1 .3-.8.6-3 .6-4.7 0-2.9.1-3 1.6-1.5 1.1 1.1 1.4 2.5 1 4.1m-41.1 15c.3 1.2.5 5.6.3 9.7l-.3 7.5-4.2.3-4.3.3V519h4c3.3 0 4.1.4 4.5 2.3m-254.2-44.9c-6.1 1.5-8.3 2.9-14.1 8.6-6.5 6.3-8.7 11.7-8.7 22 0 7 .4 9.3 2.4 13 4.9 9.3 10.6 13.9 20.6 16.6 8.7 2.2 14.2 1.8 20.3-1.5 4.9-2.8 5.3-2.8 6.2-1.1.6 1 1 2.7 1 3.8s.7 2.5 1.5 3.2c1.2 1 2 .9 4-.4 1.4-.9 2.5-2 2.5-2.4s.4-1.3.9-2.1c.8-1.2 2.3-.6 8 2.9l7.2 4.3 1.9-1.8c3.1-2.8 2.4-5.6-2.2-9.7l-4.3-3.8 3.5-3c4-3.4 3.5-4.2-3.6-6.1l-4.1-1.1.4-7.1c1-15.8-9.7-31.4-23.2-34.2-6.4-1.3-15.2-1.4-20.2-.1m.3 4.8c-.9 1.3-2.3 3.8-3.1 5.5-1.2 2.6-2.1 3.3-4.3 3.3-1.5 0-3.4-.4-4.2-1-1.2-.7-1.1-1.2.5-3 1.9-2.1 10-6.9 11.9-7 .5 0 .1 1-.8 2.2m8.4 3.2v5.4l-4.7.4c-2.7.3-4.9.3-5.1.2-1.2-.8 7.1-11.4 9-11.4.4 0 .8 2.4.8 5.4m7.7-2.2c2.3 2.6 4.7 6.8 4.1 7.3-.2.2-2.3.7-4.6 1.1l-4.2.7v-5.7c0-6.3 1.2-7.1 4.7-3.4m11.1 1c3.6 2.2 3.9 3 1.6 5.2-2.9 2.9-5 1.9-7.2-3.5l-2.1-5 2.2.7c1.2.3 3.7 1.5 5.5 2.6m9.5 11.6c4.1 8.7 3.9 9.2-3.7 9.2h-6.3l-.7-3.1c-1.1-5.9-.7-7.9 1.8-8.9 1.3-.5 2.7-1.4 3.1-1.9 1.4-2.3 3.1-.9 5.8 4.7m-49.7-3.3c.9.8 2.4 1.5 3.4 1.5 2.7 0 3.3 1.5 2.5 6.6l-.6 4.4h-6c-5.6 0-5.9-.1-5.9-2.5 0-2.2 3.9-11.5 4.8-11.5.2 0 1 .7 1.8 1.5m21.4 7v5.5h-13.3l.7-4.6c.3-2.5.8-5 1.2-5.5.3-.5 3-.9 6-.9h5.4zm14-2.9c.6 1.4 1 3.9 1 5.5v2.9h-12v-11h5c4.5 0 5.2.3 6 2.6m-29.6 17.5c.4 3.4.6 6.2.4 6.4-.2.1-2.4.5-4.9.7l-4.7.5-1.6-3.4c-.9-1.8-1.6-4.9-1.6-6.8V507h11.7zm15.6.4v6.5h-5.5c-5 0-5.6-.2-6.5-2.6-.6-1.4-1-4.3-1-6.5V507h13zm15.2-6c.9 1-1.1 10.8-2.4 11.7-.7.4-3.2.8-5.5.8H899v-13h5.8c3.2 0 6.1.2 6.4.5m16.6 3.2c-.3 3.1-.8 3.8-3.6 4.7-3.2 1.1-3.3 1.2-1.5 2.8 2.9 2.5 6 3.8 9.2 3.8 3.8 0 3.9.8.5 3.5l-2.6 2.1 5.2 5.1c3 2.9 4.9 5.6 4.5 6.2-.4.8-1.4.3-2.7-1.4-1-1.4-2.7-2.5-3.6-2.5-1 0-3.4-.9-5.5-2l-3.8-2-1.7 3c-.9 1.6-2.2 3-2.7 3-.6 0-2.3-3.8-3.8-8.4-2.4-7.2-2.7-9.4-2.1-15l.7-6.6h13.8zm-43.9 15.5c.6 1.7 1.9 4 2.8 5 2.2 2.4.3 2.3-5-.3-4.4-2.3-8.7-5.7-8.7-7.1 0-.4 2.2-.8 4.9-.8 4.6 0 5 .2 6 3.2m12.1 2.3c0 4.9-.2 5.5-2 5.5-1.3 0-3.1-1.6-5-4.7-1.7-2.6-3-5.1-3-5.5s2.3-.8 5-.8h5zm15-3.2c0 3.9-5.4 8.7-9.7 8.7-2.1 0-2.3-.4-2.3-5.5V523h6c5.6 0 6 .2 6 2.3m114.6-49.3c-7.2 2.2-11.7 11.2-8.5 17.1 1.4 2.8 3.1 1.3 2.4-2.2-1.3-5.9 1.6-8.5 6.6-5.9 1.1.6 2.4.8 2.9.5 1.5-.9 0-3.5-2-3.5-3.5 0-3-1.9.7-2.9 6-1.6 12.3.4 16 4.9 1.8 2.2 1.5 3.8-.7 4.2-2.9.4-2.6 2.2.5 2.6 3 .4 3 .5.9 6.5-1 3.1-2.2 4.7-3.3 4.7-3.3 0-24.6-4.1-26.3-5-4.6-2.6-7.4.5-8.4 9.1-.8 6.7 1.4 14.4 5 17.8 1.3 1.2 4.8 3.5 7.7 5 4.9 2.5 5.4 3.1 5.7 6.4.2 2.3-.1 3.7-.9 3.7-.7 0-1-1.1-.7-3 .3-2.1 0-3-.9-3-.7 0-1.6 1.3-1.9 3-.6 2.6-1.1 3-3.9 3-1.9 0-4 .3-4.9.6-4.3 1.6-.1 2.3 15.9 2.4 15.1 0 17.5-.1 17.5-1.5 0-1.2-1.5-1.5-8-1.5h-8v-3.5c0-3.7.3-4 6.1-4.9 6.1-1 12.4-6 14.8-11.6 3.8-8.7 2.2-17-3.2-17-1.9 0-2.3-1.6-.5-2.2.6-.2 1.7-2.4 2.4-4.8 3.7-12.5-9.2-23.1-23-19m-12.6 30.2c0 4.5.6 7.2 2 9.5 4 6.6 15.1 9.4 21.7 5.3 3.9-2.4 5.6-5.2 6.3-11 .6-5 3.1-6.6 4.9-3.1 2.8 5.1-2.1 15.1-9 18.7-3.8 1.9-16.1 1.9-19.9-.1s-7.5-7-9-12.2c-1.5-5.1-.6-13.3 1.6-13.3 1.1 0 1.4 1.5 1.4 6.2m16.2-3.1c10.7 1.6 12 2.3 11.2 5.6-1.8 8.5-5 11.3-12.5 11.3-3.5 0-4.8-.6-8-3.9-3.4-3.3-3.9-4.5-3.9-8.3 0-2.5.3-4.8.7-5.1.9-1 4.2-.9 12.5.4m641.3-25.4c-3.6.4-5.7 2.2-24.5 20.9l-20.6 20.4-1.7 6.8c-3.6 14.8-3.5 15 4.9 13.1 10.3-2.2 14.3-4.5 22.8-13.1 4.5-4.5 13.5-13.3 20.1-19.6 6.6-6.4 12.8-12.7 13.7-14.1 2.7-4 2.2-7.3-1.5-10.9-3.4-3.3-6.7-4.2-13.2-3.5m10.1 5.6c3 2.6 2.9 5.7-.3 9.5l-1.8 2-5.9-5.9-5.9-5.8 2.4-1c4.2-1.7 8.6-1.2 11.5 1.2m-8.8 8.9 4.2 4.4-16.5 16.2-16.5 16.1-5.2-4.6c-2.9-2.6-5.4-5.1-5.6-5.8-.1-.6 6.9-8.2 15.7-16.9 17.9-17.6 16.4-17 23.9-9.4m-33.9 36 3.5 2.6-4 1.7c-2.1.9-5.9 1.9-8.3 2.2-4.1.6-4.4.5-3.7-1.3.5-1 1-3.7 1.3-5.9s1-4.8 1.5-5.9c.9-1.7 1.2-1.6 3.6 1 1.5 1.6 4.2 4.1 6.1 5.6m-901.5-48.8c-1.8 1.4-1.9 3.1-2.2 29.3-.3 25.7-.2 28.1 1.5 30.2l1.8 2.2H773l35.5-.1 2.3-2.6 2.3-2.7-.3-22.9-.3-23-2.5-2c-3.2-2.5-7.1-6.2-8.8-8.2-1.1-1.4-5.4-1.6-32-1.6-25 0-31.2.3-32.8 1.4m62.8 34.4.3 24.2H738v-56l30.3-.2 30.2-.3.2 4c.2 2.2.4 14.9.5 28.3m9.3-.1v23.8l-3.2.3-3.3.3v-51l3.3 1.4 3.2 1.3z"/><path d="M744.7 489.7c-.4.3-.7 3.9-.7 7.9 0 9.4.3 9.5 16.2 9.2l12.3-.3.3-8.8.3-8.7h-13.9c-7.6 0-14.2.3-14.5.7m25.3 7.8v6.5h-23v-13h23zm9-7.5c0 .6 3 1 6.9 1s7.3-.5 7.6-1c.4-.6-2.2-1-6.9-1-4.4 0-7.6.4-7.6 1m6.3 5.7c-8.8.5-7.9 2.3 1.2 2.3 6 0 7.5-.3 7.5-1.5 0-.8-.6-1.4-1.2-1.3-.7.1-4.1.3-7.5.5m-6.1 9.5c.3.9 2.6 1.3 7.1 1.3 9.2 0 9.1-1.9-.1-2.3-5.7-.2-7.3 0-7 1m-34.7 7.7c-.9 1.6.7 1.8 12.5 1.1 6.3-.3 12-.3 12.5 0 1.7.9 24.6-.1 24-1.1-.8-1.2-48.2-1.2-49 0m.5 8.6c0 1.2 1.6 1.5 8 1.5s8-.3 8-1.5-1.6-1.5-8-1.5-8 .3-8 1.5m23.7-.9c-.4.4-.7 2.9-.7 5.6v4.9l12.5-.3c15.8-.4 16.8-2.2 1.5-2.6l-11-.3v-4.8l11-.3c6.5-.2 11-.7 11-1.3 0-1.1-23.2-2-24.3-.9m-23.7 8.9c0 1.2 1.6 1.5 9.1 1.5 6.8 0 9-.3 8.7-1.3-.3-.8-3.3-1.3-9.1-1.5-7.3-.2-8.7 0-8.7 1.3m568-47.4c-15 6.7-31.7 10.9-43.8 10.9-11.6 0-15.6 1.6-17.3 6.7-2.2 6.9 1 16.4 5.8 17.1 3.4.5 5.2 3.4 6.8 11.2 2.2 10.5 3.8 12.4 10.9 12.8 6.4.3 5.9 1 6-9.8l.1-7.5 2.5-.4c1.4-.1 2.8-.7 3.1-1.2.7-1.2 11.4 2.4 21.6 7.2 9.3 4.4 12 4.7 15.7 1.8 2.4-1.9 2.6-2.7 2.6-9s.2-6.9 2.1-6.9c3.2 0 5.5-1.7 6.9-4.9 1.1-2.7.9-3.6-1.1-7.8-1.4-2.7-3.5-5.3-5-6-2.2-1.1-2.8-2.2-3.3-6.5-1.3-9.9-4.5-11.7-13.6-7.7m8.9 2.6c.5 1 1.2 10.4 1.6 20.9.6 16.6.5 19.5-.9 22.2-1.8 3.5-1.7 3.5-4 2.6-1.4-.5-1.6-3.5-1.6-23.4 0-22.6.1-23.6 3.2-23.9.4-.1 1.1.7 1.7 1.6m-8.4 42.1c-.3.3-4-1.1-8.2-3.1-4.3-1.9-10.9-4.5-14.6-5.8l-6.8-2.2.3-10.6.3-10.6 5.5-1.1c6.4-1.3 10.4-2.5 18-5.2l5.5-2 .3 20c.1 11.1 0 20.3-.3 20.6m-31.6-22.3c-.1 4.5-.4 8.7-.8 9.2-.7 1.1-7.7 1.4-13.8.7l-4.2-.5.4-8.7.3-8.7 8.4-.5c4.5-.3 8.6-.4 9-.2s.7 4.1.7 8.7m-21.1 1.3c.2 6.9 0 8.2-1.3 8.2-2 0-5.5-5.8-5.5-9.1 0-3 3.6-8.2 5.4-7.6.7.2 1.2 3.5 1.4 8.5m71.3-3.2c1.5 2.8.1 7.2-2.9 9.2l-2.2 1.4v-7.6c0-7.3.1-7.6 1.9-6.4 1.1.7 2.5 2.2 3.2 3.4m-54.6 16.6c.2.7.6 5.2.8 10l.5 8.8h-3.2c-5.2 0-5 .2-8.7-14.1-.5-2-.9-4.1-.9-4.8 0-1.6 10.9-1.5 11.5.1m504-35c-7.3 3.8-11.3 7.7-14.5 14.2-7.3 14.7-3.7 27.4 7.8 28.1 8.7.5 13.3-3 13.4-10.3.1-7.6-3.1-10.2-12.8-10.2-6.4 0-6.5-.5-2.4-7.7 3.1-5.4 7.5-9.4 12.3-11.2 1.8-.7 2.7-1.7 2.5-2.8-.5-2.4-1.8-2.4-6.3-.1m-387.9-.2c-3.4 1.1-8.2 5.4-10.2 9.2-1 1.9-1.4 6.3-1.4 14.8 0 13.5.8 16 6.3 19.7 2.9 1.9 5.1 2.1 21.8 2.6 16.4.4 19.1.3 22.6-1.3 4.5-2 8.3-6.3 8.3-9.3 0-1.8.2-1.8 3.3.5 3 2.4 9 5.8 10.1 5.8.2 0 1.2-.7 2-1.6 1.3-1.3 1.6-4.3 1.6-17.3 0-20-.9-21.2-10.2-14.5-2.8 1.9-5.1 3.4-5.2 3.2s-1-2.2-2-4.5c-3.4-7.8-3.4-7.8-25-8-10.5-.1-20.4.2-22 .7m42.4 5.7c2.1 2.6 2.2 3.6 1.8 17.1l-.3 14.4-3.3 2.9-3.2 2.9h-18.1c-26.1 0-27.9-1.2-27.9-18.4 0-10.8.9-13.8 5.3-18.4l3.1-3.2h40.5zm19 17.3v14h-2.2c-2.3 0-5.5-1.8-9.6-5.5-1.8-1.6-2.2-3-2.2-8.2v-6.2l5.8-4c3.1-2.2 6.3-4 7-4 .9-.1 1.2 3.3 1.2 13.9"/><path d="M1400 494c0 .6 5.2 1 13.5 1s13.5-.4 13.5-1-5.2-1-13.5-1-13.5.4-13.5 1m8 15c-2.6 1.6.8 2.3 11.3 2.1 5.2-.1 6.7-.4 6.7-1.6s-1.6-1.5-8.2-1.5c-4.6 0-9 .4-9.8 1m-14.3.7c-1.4 1.3-.6 2.3 1.8 2.3 2.8 0 3.4-1.5.9-2.4-1.9-.7-1.9-.7-2.7.1m140.3-25.5c-2.5.6-5.5 1-6.7 1-1.3 0-2.3.6-2.3 1.2 0 .7-1.7 2.1-3.7 3.2-2.2 1.2-5 3.9-6.8 6.8-2.6 4.2-2.9 5.8-2.9 12 0 5.9.4 7.8 2.6 11.1 1.4 2.2 3.7 4.6 5.2 5.4 3 1.6 3.2 3.2 1.1 9-1.3 3.9-1.2 7.1.5 7.1 1.4 0 7.6-3.4 11.1-6.2l3.5-2.8 8.6.6c13.6 1.1 21.4-1.4 29.9-9.3 13.9-13 7.8-31.3-12.7-38.3-6.3-2.2-19.4-2.6-27.4-.8m30.8 5.9c10.7 5.3 14.8 13.1 12.2 22.9-3 11.3-20.4 19.1-36 16.2-5.2-1-5.7-.9-8.8 1.6-5.3 4.2-9.2 6.5-9.2 5.3 0-.6.8-2.9 1.7-5.2l1.6-4.2-3.5-3.1c-5.6-4.8-7.8-9.2-7.8-15.6 0-7.9 3-12.7 10-16.2 8.1-4.1 10.4-4.6 22.6-4.7 10.5-.1 11.4.1 17.2 3"/><path d="M1529.3 507.6c-.3.8-.1 2 .5 2.6 1.6 1.6 4.2.2 4.2-2.2s-3.8-2.8-4.7-.4m15 0c-.4 1.1.1 2.2 1.2 3.1 1.6 1.1 2.1 1.1 3.3-.1.8-.8 1.2-2.2.9-3-.8-2.1-4.6-2.1-5.4 0m14.1-.1c-.4.9 0 2.3.9 3.2 2.1 2.1 4.9.9 4.5-1.9s-4.5-3.8-5.4-1.3m190-23.1c-5.2 2.3-11.2 8.4-13.9 14.1-1.9 4.2-2.5 6.9-2.5 12.6v7.2l4.4 4.3c3.6 3.7 5 4.4 8.2 4.4 8.3 0 13.6-6.1 11.5-13.2-1.7-5.4-5.2-7.8-11.7-7.8-4.9 0-5.4-.2-5.4-2.3 0-1.2 1.4-4.5 3-7.4 2.2-3.9 4.2-5.8 8.2-8 2.9-1.5 5.3-3.3 5.3-3.8 0-1.6-3.7-1.6-7.1-.1m-555.6 5.9c-5.3 3.9-7.3 6.7-4.8 6.7 2.1 0 14-8.6 14-10.2 0-1.9-3.8-.4-9.2 3.5m623.2 9.4c-3.3 4.2-1.1 10.3 3.6 10.3 1.6 0 2.4.6 2.4 1.6 0 2.2-3.3 7.4-6.4 10.2-3.7 3.2-3.5 5.4.4 4.1 6.4-2.3 13.8-15.6 12.5-22.6-1.2-6.3-8.6-8.5-12.5-3.6m21.2-2c-3.5.7-5.7 4.7-4.6 8.6.9 2.9 1.4 3.2 5.2 3.5 3.6.3 4.2.6 4.2 2.5 0 2.6-3.1 7.5-6.2 9.9-1.8 1.3-2 1.9-1.1 2.9 1 1 1.8.9 4-.7 6.6-4.9 10.7-14.9 8.9-21.8-.6-2.3-5.3-5.8-7.3-5.5-.4.1-1.8.4-3.1.6m-643.9 7.8c-.8 2.2-.5 2.3 5.6 1.6 7.6-.8 8-3.1.7-3.1-4.2 0-5.8.4-6.3 1.5m-.8 11.4c-.8 1.4 5.4 8.1 7.6 8.1 3 0 2.2-2.2-2.1-5.8-4.2-3.5-4.6-3.7-5.5-2.3m462.3 67.8c-.9 1-2.6 4.2-3.8 7l-2.2 5.3h-4.2c-6.1 0-10.9 1.7-14.7 5-1.9 1.6-3.7 3-4.1 3s-1.4 1.2-2.1 2.7c-1 2-1.5 7.6-1.6 19.4-.2 17.8.2 21.4 2.7 22.4.9.3 16.2.6 34.1.5 31.2 0 32.7-.1 34.6-2 1.8-1.9 2-3.6 2.3-19.8.5-21.2-.1-23.6-7.2-27.7-3.8-2.2-6.3-2.8-13.2-3.3l-8.6-.5-2.6-5.6c-3.7-8-6.4-9.8-9.4-6.4m6.6 8.2c3.8 7.5 4.7 7.9 15.6 8.2 2.5 0 5.6.4 6.9.8 2.4.6 2.2.9-3.4 5.5-3.3 2.7-6.6 5.1-7.2 5.3-1.7.7-1.6 3.5.2 10.3.8 3 1.1 5.8.7 6.2s-3.6-1.1-7-3.2c-3.5-2.2-6.9-4-7.6-4s-4.4 2.1-8.1 4.6c-8.4 5.6-9.1 4.9-7.5-6.2 1.2-8.9 1-9.2-6.1-13.1-2.7-1.4-4.9-3-4.9-3.4 0-1.6 3.8-2.8 11.2-3.5l7.6-.7 2.7-6.8c1.5-3.8 2.9-6.9 3.1-6.9s1.9 3.1 3.8 6.9m29 13.7c2.9 2.8 1.7 5.4-5.6 13l-7.3 7.4-.6-2.7c-1.8-7.6-1.1-9.5 4.9-14.5 3.1-2.6 6-4.7 6.4-4.7.4-.1 1.4.6 2.2 1.5m-50.4 6c1.1.9 1.4 2.8 1.2 6.9-.2 3.1-.8 5.5-1.2 5.3-2.5-.9-14-12.2-14-13.7 0-1 1-2.5 2.2-3.3 2.1-1.4 2.6-1.3 6.3 1 2.2 1.4 4.7 3.1 5.5 3.8m4.5 20.6c1.2.1 5.1-1.7 8.7-4l6.5-4.2 6.6 4c3.7 2.2 7.3 4 8.1 4 .7 0 5-3.7 9.5-8.3l8.1-8.2v14.7c0 13.8-.1 14.8-1.9 14.8-1 0-3.5-1.8-5.5-4s-4.3-4-5.1-4c-2.3 0-1.8 1.3 1.5 4.5 1.7 1.6 3 3.2 3 3.7 0 .4-11 .8-24.5.8s-24.5-.3-24.5-.6c0-.4 1.6-2.4 3.6-4.6 2.6-2.9 3.3-4.3 2.5-5.1s-2.7.5-6.7 4.6c-3.1 3.2-6.2 5.6-6.8 5.4-.7-.2-1.2-5.5-1.4-15.3l-.2-14.9 8.2 8.3c4.7 4.8 9 8.3 10.3 8.4m101.1-47c-1.4 1.9-1.6 6.8-1.6 33 0 29.4.1 30.8 1.9 31.8 1.2.6 11.7 1 27.1 1s25.9-.4 27.1-1c1.6-.9 1.9-2.2 1.9-8 0-7.3 1.2-8.9 4.1-5.3.8.9 3.2 2.4 5.4 3.4 5 2.3 20.9 2.6 25.8.5 4.2-1.8 7.1-5.1 6.3-7.2-.6-1.5-.8-1.5-1.9-.2-2.8 3.4-7.3 5.1-14.2 5.6-8.7.5-14.5-1-19.1-5-4.8-4.2-6.7-8.3-6.7-14.3 0-5.9 1.2-8.6 6.2-13.8 5.2-5.6 8-6.7 16.2-6.7 12.2 0 19.6 5.2 20.6 14.5.3 2.3 0 5.9-.7 7.9-2.1 6.5-8.8 9.7-12.3 5.8-1.4-1.6-1.4-2.2 0-6.4 2.8-8.7-.5-15.9-8-17.3-6.9-1.3-15.1 5-14.9 11.4 0 1.7-.4 3.1-.9 3.1-1.6 0-1 5.8 1.1 9.3 2.9 4.9 8.4 6.3 14 3.5 2.2-1.1 4-2.5 4-3.1 0-.5 1.2.3 2.6 1.8 2.2 2.4 3.1 2.7 7 2.2 7.4-.8 12.4-7.7 12.4-16.9 0-4.4-4.5-12.2-8.7-15.1-9.3-6.4-24.5-5.8-32.6 1.4l-4.5 3.9-.4-10c-.2-7.6-.7-10.3-1.8-11-.8-.6-13-1-27.7-1h-26.2zm52.4 1.8c1 .6 1.2 4.5.7 18.2-.5 17-.3 18.7 2.8 26.2.6 1.3.5 1.7-.2 1.3-.6-.4-1.3 2-1.7 6.6-.4 3.9-1 7.5-1.4 7.9-.5.5-12.1.7-25.8.6l-24.9-.3-.3-29.4c-.2-21.3.1-29.8.9-30.8 1-1.1 5.6-1.4 24.9-1.2 13 0 24.3.5 25 .9m29.1 21.9c5.6 5.7 2.4 15.3-6.8 20-5 2.6-8.6-2.9-8.1-12.5.3-5.4.6-6 3.7-8.1 4.5-3.1 7.7-2.9 11.2.6"/><path d="M1756.3 596.6c-.2.6-.3 5.1-.1 10l.3 8.9h17.4c13.1 0 17.5-.3 17.9-1.3.3-.9-2-1.2-9.2-1.2h-9.6v-15h9.5c5.4 0 9.5-.4 9.5-1 0-1.3-35.1-1.8-35.7-.4m14.7 8.9v7.5h-13v-6.8c0-3.8.3-7.2.7-7.5.3-.4 3.3-.7 6.5-.7h5.8z"/><path d="M1780 605.5c0 1.2 1.3 1.5 6.1 1.5 8.1 0 7.7-2.4-.4-2.8-4.6-.2-5.7 0-5.7 1.3m-24 17.5c0 .6 6.7 1 18 1s18-.4 18-1-6.7-1-18-1-18 .4-18 1m0 9c0 .6 6.7 1 18 1s18-.4 18-1-6.7-1-18-1-18 .4-18 1m0 9c0 .6 5.2 1 13.5 1s13.5-.4 13.5-1-5.2-1-13.5-1-13.5.4-13.5 1m-329.7-55.4c-3.9.9-7.3 6-7.4 11.2-.3 14.8.6 17.9 6.2 20.7 2.8 1.5 3 1.9 2.4 5.5-.4 2.3-.2 4.1.4 4.4 1.4.9 4.8-.9 8.6-4.4 2.6-2.4 4.1-2.8 11.5-3.3 7.5-.6 8.8-1 10.8-3.2 1.9-2.3 2.2-3.7 2.2-12.1 0-10.5-1.5-15.5-5.1-17.5-2.3-1.2-25.4-2.2-29.6-1.3m28.5 5c2.1 1.4 2.2 2.3 2.2 12.9 0 7.1-.4 11.6-1.1 12.1-.6.3-4.7.8-9.1 1-7.3.3-8.3.6-11.6 3.6l-3.7 3.2-.3-3.6c-.3-3.2-.8-3.8-3.6-4.8-1.9-.6-3.8-2.1-4.5-3.6-1.7-3.9-1.4-17 .5-19.9l1.6-2.5h13.7c10.7 0 14.1.3 15.9 1.6"/><path d="M1445.7 601.7c-1 .3-1.6 1-1.4 1.6.4 1.4 3.2 2.1 5.4 1.3 1.2-.5 1.3-.9.3-2.1-.7-.8-1.5-1.4-1.9-1.4-.3.1-1.4.3-2.4.6M1296 588c-2.5.5-5.5 1.2-6.7 1.5-3 .7-9.3 6.3-10.3 9.1-.8 2.1-1.4 2.2-10.8 2.2-12.3-.1-17.9 2.1-22.7 9-2.7 4-3 5.1-3 12.1 0 6.6.4 8.3 2.5 11.5 1.4 2.1 4.2 4.6 6.3 5.7 3.5 1.8 3.7 2.2 3.7 6.9 0 4.3.3 5 1.9 5 1.1 0 4.1-1.8 6.6-4 4.4-3.8 5-4 11-4 8.2 0 15.9-3.2 20.3-8.6 2.9-3.5 3.6-3.8 8.8-4.1 4.8-.3 6.5.1 10.8 2.6 4.9 2.7 7.7 3.5 11.9 3.2 2.1-.1 2.3-3.4.3-5-.8-.6-1.9-2.5-2.6-4.1-1.1-2.7-1-3.1 1.8-5.5 4-3.3 6.5-9.9 5.7-14.4-1.5-7.9-6.8-14.6-13.9-17.5-4.8-2-15.7-2.8-21.6-1.6m18.4 4.1c5.8 1.6 11.6 7.5 12.6 12.9 1.5 7.8-.6 12.4-7.6 16.6-1.7 1-1.6 1.3.9 5.7 1.5 2.5 2.7 4.8 2.7 5.1 0 1.2-2.3.5-5.3-1.7-5.2-3.7-7.8-4.4-12.5-3.4-5.8 1.2-7 .6-6.4-3.2 1.1-8-5.4-18.4-13.5-21.3-1.8-.7-3.3-1.7-3.3-2.3 0-1.5 4.8-5.9 8.5-7.8 3.6-1.9 17.9-2.3 23.9-.6m-26.8 15.5c5.7 4.5 7.6 7.7 8.1 13.1.5 5.9-1.6 10.4-7 14.7-3.6 2.8-4.6 3.1-12.5 3.4l-8.7.4-4.8 4.6-4.9 4.7.7-4.6c.7-4.4.6-4.7-2.2-5.6-6.4-2.3-11.3-9.8-11.3-17.3 0-3.2 3.2-10 5.6-12.2 4.9-4.3 7.4-4.9 20.6-4.6l12.6.3z"/><path d="M1258.5 614.4c-4.3 4.3-2.8 10.5 4 16.5 4.2 3.6 6.2 3.8 11.3 1.1 5.2-2.8 6.7-4.1 8.5-7.7 2.3-4.3 2.1-6-.7-8.8-2.1-2.1-3.3-2.4-9.3-2.3-3.7.1-7.8-.1-9-.6-1.7-.5-2.9-.1-4.8 1.8m12 2.6c.6 0 2.5-.3 4.3-.6 3.7-.7 6.2.8 6.2 3.9 0 3-8.4 10.7-11.6 10.7-3.4 0-10.4-6.8-10.4-10.2 0-3.7 1.9-5 6.5-4.4 2.2.3 4.5.6 5 .6m300.3-29.2c-1.4.2-3.2 1-3.8 1.8-1 1.1-5.4 1.4-23.9 1.4h-22.8l-2.1 2.3c-1.9 2-2.2 3.5-2.2 9.9v7.6l-3 1.2c-1.7.7-3.3 2.3-3.6 3.5s-.4 8.7-.2 16.5c.3 13.5.4 14.3 2.7 16.1 2.2 1.8 4.3 1.9 33.6 1.9h31.2l2.7-2.5 2.6-2.5-.2-16.1-.3-16.2-3.8-1.3-3.9-1.4-3.8 3.1c-2.1 1.7-8.7 6.1-14.6 9.8l-10.7 6.7-12.9-8.4-12.8-8.5V596l2.6-1c1.4-.6 11.3-1 22-1h19.4v3.9c0 4.6 2.7 8.5 6.9 9.9 2.6.9 3.5.7 7-1.8 7-5.1 8.1-10.3 3.1-15-3.2-3-5.2-3.7-9.2-3.2m5 5.4c1.7 1.7 1.5 4.9-.8 8.2l-1.9 3-.9-2.5c-.8-1.9-1-8.2-.3-9.7.3-.7 2.9 0 3.9 1m2.9 34.3c.2 9.7 0 13.5-.7 12.3-.6-.9-5.3-4.5-10.5-7.9-5.3-3.4-9.3-6.5-8.9-6.8 2.4-2.5 17.2-11.9 18.4-11.8 1.2.2 1.5 2.7 1.7 14.2m-53.9-7.5c3.9 2.5 7.1 4.9 7.1 5.5 0 .5-4.5 4-9.9 7.7l-10 6.6v-11.7c0-16 .1-16.1 12.8-8.1m39.3 13.4c11.2 7.6 14.7 11 12.7 12.2-2.1 1.4-62.1.5-63.5-.9-.9-.9 1.4-2.9 10.4-9.1l11.5-7.9 3.4 1.7c1.9.8 3.4 2 3.4 2.6 0 1.8 3.4.9 8-2 2.5-1.6 4.6-2.9 4.6-2.9.1-.1 4.4 2.8 9.5 6.3m-687.4-42.9c-5.6 2-8.6 5.2-10.4 11.4-1.9 6.7-1.3 18.9 1.3 23.9 1.7 3.6 6.2 6.9 10.5 7.8l2.6.6-.5 6.9c-.3 4.9-.1 6.9.7 6.9 2.7 0 7.9-3.5 12.3-8.2l4.7-5.1 11.8-.3c12.5-.3 17.7-1.6 22.1-5.7 4.3-4 5.5-7.6 5.5-16.7.1-12-3.1-17.9-11.6-21.5-5-2.1-43.2-2.1-49 0m51.8 5.6c4.4 3.9 5.9 9.2 5.2 18.4-.7 8.2-2.5 11.1-8.7 14.2-3.8 2-6 2.3-16 2.3h-11.7l-6.6 6.7c-3.7 3.6-6.9 6.4-7.2 6.1s0-2.8.6-5.7c1.3-6.2.5-7.6-4.9-8.5-8.3-1.3-12.5-11.1-10.3-23.8.9-5.2 1.7-6.9 4.6-9.6l3.5-3.2h47.9z"/><path d="M899.2 607.2c.4 10.5 2.3 10.7 2.3.1 0-5.3-.4-7.8-1.3-8.1-1-.3-1.2 1.5-1 8m.5 13.4c-.8.8.1 2.4 1.4 2.4.5 0 .9-.7.9-1.5 0-1.5-1.2-2-2.3-.9m104.7-29.7c-3.8.6-5.4 3.2-5.4 8.3 0 4.5-.2 4.8-2.6 4.8-3.9 0-9.5 3-10.5 5.7-1.4 3.6-1.1 23.4.4 26.2 1.8 3.6 5.6 6 10.7 6.9 3.9.7 4.5 1.1 4.6 3.2.1 4.9.4 5.8 2 6.4 2.1.8 5-.9 8.6-5l3-3.4h7.4c6.6 0 7.8-.3 9.9-2.5 1.4-1.3 2.5-3.6 2.5-5 0-3.2.8-3.1 5.6.3 4 2.8 8.8 5.2 10.4 5.2.6 0 1-2 1-4.5 0-4.1.2-4.5 2.8-5 1.5-.4 3.8-1.2 5.2-2l2.5-1.4.3-16.7c.2-13.6 0-17.1-1.3-19l-1.5-2.3-26.8-.3c-14.8-.2-27.7-.1-28.8.1m53.6 4.1c1.2.7 1.6 4 1.8 16.3.4 17.6.1 18.3-7.4 17.9l-4.3-.2-.3 4.5-.3 4.4-5.5-3.6c-3-2.1-5.6-4.1-5.8-4.5s-7-.8-15.1-.8c-11.1 0-15.2-.3-16.7-1.4-1.7-1.3-1.9-2.7-1.9-15.8 0-7.9.3-15.1.7-16.1.7-1.6 2.9-1.7 27-1.7 14.8 0 27 .4 27.8 1m-55.7 34.6c2.7 2.3 3.5 2.4 16.3 2.4h13.4v2.3c0 4.5-1.9 5.6-10.3 6l-7.8.4-4.5 4.4-4.4 4.3v-4c0-5-1.4-6.4-6.2-6.4-4.9 0-8.3-1.6-9.7-4.7-.6-1.3-1.1-7-1.1-12.7 0-11.5.6-12.7 7-14.3l3.5-.9.5 10.4c.5 9.9.6 10.5 3.3 12.8"/><path d="M1030 608c0 2.9.4 4 1.5 4s1.5-1.1 1.5-4-.4-4-1.5-4-1.5 1.1-1.5 4m0 12.5c0 .8.7 1.5 1.5 1.5s1.5-.7 1.5-1.5-.7-1.5-1.5-1.5-1.5.7-1.5 1.5m365.4-29.5c-1.6.5-4.7 2.5-6.9 4.3-3.4 2.9-3.9 3.9-4.3 8.9-.8 10.5 3.8 17.6 12.1 18.5 11.9 1.4 19.1-6.7 17.3-19.2-1.4-9-10-14.9-18.2-12.5m11.8 6.9c3 3.3 4.4 8.7 3.4 12.7-.9 3.4-5.6 8.1-9 9-6.1 1.5-12.7-3.2-14-10-.9-4.7 2.5-12.4 6.4-14.4 4-2.1 10.1-.8 13.2 2.7m-655.2-5c-17.3 6.1-21.6 30.1-7.3 40.4l4.4 3.2-.4 5.5c-.7 9.4.2 9.9 7.5 3.9l4.9-4.2 16.7-.2c19.4-.3 23.2-1.3 28.8-7.8 8.7-10.2 8.1-27.2-1.3-35.8-6.3-5.9-8.2-6.4-28.8-6.7-16.6-.2-19.7 0-24.5 1.7m38.9 2.1c7.8 1.5 12 3.8 14.9 8.4 2.3 3.6 2.6 5.2 2.7 12.6 0 10.1-1.7 13.8-8.4 18.5l-4.3 3-17.8.5c-16.2.5-18.1.7-20.2 2.5-1.3 1.2-3.2 2.7-4.2 3.5l-1.9 1.5.6-5.3.6-5.2-3.8-2.5c-11.4-7.1-13.1-22.7-3.4-31.6 3.8-3.6 6.7-5 12.2-5.9 6.8-1.1 27-1.2 33 0"/><path d="M761.1 607.9c-2.4 2.4-2.7 6.1-.7 9.9 1.9 3.6 11.1 12.2 13.1 12.2 2.6 0 9-3.7 12.9-7.3 3-2.9 3.6-4.1 3.6-7.6 0-3.2-.6-4.8-2.6-6.7-2.2-2.3-3.1-2.5-7.2-2-6 .8-7.7.8-12.9 0-3.4-.5-4.5-.2-6.2 1.5m14.9 2.6c3.7-1.9 7-1.9 9.8.1 2.9 2 2.8 4.6-.5 8.4-2.7 3.3-9.4 8-11.3 8s-10.8-9-11.4-11.6c-1.5-5.9 1.7-8.3 7.2-5.2 3 1.6 3.6 1.7 6.2.3m338.3-13.8c-1.5 2.2-1.8 4.9-1.8 14.5V623l3.1 3.1c1.7 1.7 4.7 3.4 6.5 3.8 2.6.6 3.3 1.2 3.2 2.7-.2 1-.1 3.4.2 5.1.9 5.2 3.5 4.3 13.5-4.6 2.4-2.1 4.5-3.1 6.8-3.1 2.8 0 3.2.3 3.2 2.5 0 1.5 1.1 3.6 2.6 5 2.6 2.4 3.3 2.5 15.4 2.5h12.7l2.3 2.5c3.2 3.4 6.6 3 6.2-.7-.3-2.4.1-2.7 3.8-3.3 6.7-1.1 9.3-4.1 9.8-11.3.7-10-.5-16.9-3.8-20.5l-2.8-3.2-9.6-.3c-8.4-.3-9.6-.6-9.6-2.2 0-.9-1.1-2.9-2.5-4.4l-2.4-2.6H1116zm56.5 1.9c2 1.4 2.2 2.3 2.2 12.6 0 15.3.6 14.8-17.7 14.8h-14.4l-3.7 3.9c-2 2.1-5 4.7-6.6 5.7l-2.8 1.8.3-5.5.4-5.4-4.9-.6c-3.1-.3-5.3-1.2-6.2-2.4-1.8-2.5-2-23.5-.2-25.3.9-.9 8.1-1.2 26.3-1.2 21.1 0 25.4.2 27.3 1.6m25 10.7c2 1.9 2.2 3 2.2 12 0 11.3-1.1 13.7-6.2 13.7-3.7 0-6.8 1.6-6.8 3.5s-1.6 1.9-2.4 0c-.4-1.2-2.9-1.5-13.3-1.5-13.7 0-17.3-1-17.3-5.1 0-1.7.7-1.9 7.9-1.9 14 0 16.1-1.9 16.1-14.9 0-4.3.3-8 .6-8.4.3-.3 4.3-.3 8.7 0 6.4.4 8.7 1 10.5 2.6"/><path d="M1130.2 611.2c.2 1.2 1 2.3 1.8 2.3 2.2 0 1.9-3.9-.3-4.3-1.5-.3-1.8.1-1.5 2m12.8.3c0 2.2.4 2.6 2.3 2.3 1.4-.2 2.2-1 2.2-2.3s-.8-2.1-2.2-2.3c-1.9-.3-2.3.1-2.3 2.3m14.4-1c-.4.9-.2 2.1.4 2.7 1.5 1.5 4.4.1 4-1.9-.4-2.3-3.6-2.9-4.4-.8m234.1 16.4c-6.2 1.5-10.7 4.9-13.4 10-1.6 2.9-1.4 12.6.3 14 .9.8 7.7 1.1 22.2.9l20.9-.3.3-5.3c.8-13.9-13.9-23.3-30.3-19.3m19.9 6.4c4.8 3.7 6.4 6.3 6.8 11.2l.3 4-18.8.3c-21.7.3-21.3.5-18.1-8.7 2.9-8.4 6.4-10.4 17.5-9.9 7.6.3 9 .6 12.3 3.1m-267.2 57c-.6.7-1.2 4.4-1.4 8.2l-.3 7-11 .6c-6 .4-11.1.7-11.2.8-.7.4-2.3 8.2-2.3 11.4 0 3.1-.4 3.9-2.5 4.7-1.4.5-2.5 1.6-2.5 2.4 0 1.5 7.4 8.6 9 8.6.5 0 1.9 1.8 3 4 2.3 4.5 4.5 6 8.9 6 3.2 0 7.1-3 7.1-5.4 0-.8 2.1-3.4 4.7-5.9 3.7-3.5 4.6-5.2 4.6-7.7 0-7.2-9.4-10.6-14.6-5.4-2.5 2.4-3.1 2.6-8.2 1.9l-5.5-.6V710h55.8l.4 2.5c.3 1.3.5 9.8.4 18.9l-.1 16.5-26.5.5c-15.3.4-27.1.2-27.9-.3-1-.7-1.2-2.2-.8-6 .6-5.4-.2-6.6-2.1-2.9-2.4 5-2.4 8-.1 10.4 2.1 2.3 2.8 2.4 15.6 2.4h13.3v3.5c0 2.2.8 4.3 2.1 5.6 1.9 1.9 3 2 19.4 1.7 15.3-.3 17.5-.5 19.4-2.2l2.1-1.9v-32.1c0-23.9-.4-32.7-1.3-34.6l-1.3-2.5-22.5-.3c-17.7-.2-22.9 0-23.7 1.1m44.6 35.4.2 33.3h-35l-.6-2.5c-1.3-5.1-.6-5.4 14.3-5.7l13.8-.3.3-19.8c.1-12.5-.1-20.5-.8-21.7-1-1.9-2.2-2-17.9-2-19.1 0-18.6.2-17.6-7.9.4-2.5.8-5.2 1.1-5.9.3-1 5-1.2 21.1-1l20.8.3zm-44.4-5.1c.9.4 2.1 1.4 2.6 2.4 2.1 3.8-2.7 8.5-5.6 5.6-.8-.9-2.5-2.2-3.6-3l-2.2-1.5 1.9-2.1c1.8-2 4.1-2.5 6.9-1.4m-8.7 7.4c2.4 1.7 4.8 3 5.4 3 .5 0 .1 1.2-.9 2.7-1 1.6-2.3 3.7-2.8 4.8-1.3 2.3-4.9 3.1-6.9 1.5-.8-.6-1.6-2.4-2-3.8-.3-1.7-1.6-3.2-3.5-4-1.6-.7-4.1-2.3-5.6-3.4l-2.7-2.1 1.9-1.5c3-2.2 11.8-.8 17.1 2.8"/><path d="M1160 701.5c0 1.2 1.5 1.5 8.6 1.5 6.4 0 8.5-.3 8.2-1.3-.3-.8-3.2-1.3-8.6-1.5-6.8-.2-8.2 0-8.2 1.3m-150.8-7.9c-2.1 1.4-2.2 2.2-2.2 14.3v12.9l-3.4.6c-1.9.4-3.8 1.2-4.4 1.9-.5.6-1.2 6.7-1.5 13.5-.6 13.8-.3 14.4 6.7 18.1 2.2 1.1 4.3 2.6 4.7 3.2 1 1.6 2.9.2 2.9-2.2 0-1.7.7-1.9 6.5-1.9h6.5l-.6 2.5c-.4 1.8-.1 3.2 1.1 4.5 1.6 1.7 3.1 2 11.1 2 12 0 12.4-.4 11.7-10.8-.4-6.9-.1-8.6 2.1-14 3.3-7.8 3.3-8.9-.4-11l-3-1.7v-15.2c0-19.4 1.2-18.3-20-18.3-12.5 0-16 .3-17.8 1.6m33.6 2.6c.8.8 1.2 5.7 1.2 15.4 0 11.9-.3 14.3-1.5 14.8-.9.3-2.3 2.3-3.2 4.3-.8 2.1-3.5 7.2-5.9 11.4l-4.4 7.6-5.3.7c-2.8.3-6.9.6-8.9.6h-3.8v-7h6c4.7 0 6-.3 6-1.5s-1.4-1.5-6.5-1.5h-6.5v-21.4c0-11.8.3-22.1.6-23 .5-1.4 2.9-1.6 15.8-1.6 10.5 0 15.6.4 16.4 1.2m-36.3 32c.4 2.4.5 6.1.3 8.3-.3 3.5-.6 4-3 4.3l-2.8.3v-7.3c0-7.2 1-9.8 3.6-9.8.7 0 1.6 1.9 1.9 4.2m40.9 1.4c2.1.8 2 3-.4 7.9-1.5 3-1.9 6.2-2 13.2v9.3h-9c-5.1 0-9-.4-9-1 0-.5 2.5-4.9 5.6-9.7 3.2-4.8 6.4-10.3 7.3-12.3 3.8-8.2 4.3-8.6 7.5-7.4m-39.9 18.4c0 4.8-2.8 5.2-5.5.8-2.7-4.5-2.6-5 1.8-4.6 3.5.3 3.7.5 3.7 3.8"/><path d="M1013.7 700.6c-1.7 1.8 1.4 2.4 11.3 2.4 6 0 11.1-.4 11.4-.9 1-1.5-21.2-3-22.7-1.5m10.8 11.7c-2.1 1.7-2.7 3.2-2.7 6.1 0 7.5 7.6 11.2 13.6 6.5 2.1-1.6 2.6-2.9 2.6-6.3 0-7.8-7.7-11.4-13.5-6.3m9.7 2.4c2.2 2 2.3 4.2.2 7.1-3.9 5.7-12.7-.6-9-6.4 1.9-2.8 6-3.2 8.8-.7M922.3 695c-1.2.5-2.9 2-3.9 3.4l-1.6 2.6h-23.4c-23.1 0-26.4.4-28.6 3.5-.4.5-.8 9.4-.8 19.7v18.6l3.1 2.6 3.1 2.6h28.4c28.1 0 31.6-.4 33.6-3.4.4-.6.8-6.6.8-13.4 0-10.5.2-12.2 1.6-12.2.9 0 3.1-1.5 5-3.4 3-3 3.4-4 3.4-8.8-.1-5.6-2.2-9.3-6.7-11.7-2.5-1.3-10.8-1.4-14-.1m7.7 10.5c0 4.1-.4 7.5-.8 7.5-.5 0-1.7-1.8-2.7-4s-2.4-4.5-3.2-5.2c-1.1-.9-1-1.5.8-3.5 1.3-1.2 3.1-2.3 4.1-2.3 1.6 0 1.8.9 1.8 7.5m-14 1.5c0 5 4.5 10.5 10.1 12.1l3.9 1.2v8.4c0 6.5-.3 8.3-1.2 7.7-1.9-1-8.7-6.7-13.2-10.8l-3.8-3.6-4.2 2.6c-7.7 4.7-8.3 4.9-11.9 3.1-8.1-4.3-27.6-18.6-27.7-20.4 0-.6.6-1.5 1.3-2 .6-.4 11.1-1 23.2-1.3s22.3-.7 22.8-.8c.4-.1.7 1.6.7 3.8m-32 18c0 .4-2.4 2.6-5.2 4.8-2.9 2.1-6.5 5.1-8 6.5l-2.8 2.6v-27l8 6.2c4.4 3.4 8 6.5 8 6.9m32.9 6.2c3.1 2.8 7.1 6 8.9 7.1 3.2 1.9 4.1 4 2.2 5.2-.5.3-13.8.7-29.5.7-22 .1-28.9-.2-29.8-1.2s-.9-1.4.1-1.7c.7-.3 5.1-3.6 9.7-7.4s8.9-6.9 9.5-6.9 3.1 1.4 5.6 3.1l4.5 3 6.2-3.5c3.4-1.9 6.4-3.5 6.6-3.5.2-.1 2.9 2.2 6 5.1m466-35.5c-1.1 1.3-1.5 8.1-1.7 32.4l-.3 30.8 2.1 2.1c1.9 1.9 3 2 19.3 1.8 15.4-.3 17.2-.5 17.5-2.1s-1-1.7-17.1-1.7h-17.5l-.6-2.8c-.8-4.5-.4-54.5.5-57l.9-2.2 29.2.2 29.3.3.3 14.2.3 14.3h-6.6c-11.1 0-16.8 3.9-18 12.5-.9 5.4 1 14.6 3.7 18 2.7 3.5 8.9 6.5 13.4 6.5 5 0 11.9-3.4 14.9-7.4 3-3.9 4.9-11.5 4.1-16-.4-2-2.5-5.8-4.6-8.5l-4-5v-14.4c0-12.7-.2-14.6-1.8-16-1.6-1.5-5.3-1.7-31.9-1.7-26.7 0-30.2.2-31.4 1.7m55.5 41c6.6 3.9 9.6 6.2 9.6 7.3 0 .4-1.2 1.2-2.7 1.9-1.4.7-4.9 2.8-7.8 4.6-2.9 1.9-5.5 3.5-5.9 3.5-.3 0-.6-4.7-.6-10.5s.3-10.5.6-10.5c.4 0 3.4 1.6 6.8 3.7m-639.6-37.2c-7.1 3.5-15.7 9-17.5 11.3-.8 1-.9 2.1-.3 3.2 1.4 2.6-1.3 2.8-23.8 2.5-17.8-.2-19.5-.1-21.7 1.7l-2.5 1.9v15.8c0 12.5.3 16.1 1.6 17.9l1.5 2.2h26.5c32.5 0 30.4 1 30.4-14.5 0-8.6-.3-10.5-1.5-10.5-1.9 0-2.4 2.6-2.7 13l-.3 8.5-25.7.3-25.8.2v-27l4.3 2.7c2.3 1.5 5.7 3.8 7.4 5.1l3.2 2.4-5.9 4.4c-3.3 2.4-6 5.1-6 6 0 1.8.9 1.3 10.3-5.3l4.7-3.3 3 1.5c4.5 2.3 5.9 1.9 14-4.1 4.1-3.1 8.2-6 9-6.4 1.2-.7 1.2-1.1.3-2.1-.9-.9-3.1.2-9.9 5.1-10.2 7.2-8.4 7.4-23.6-2.7-9.8-6.5-11.5-8-10.4-9 .3-.3 10.5-.5 22.7-.5l22.1.1 3.5 3.6c3.6 3.7 4.4 4 7.1 2.6.9-.4 2.8-1.1 4.2-1.4 2.5-.6 2.6-.4 2.2 2.8-.7 6.2 2.3 4.1 8.2-5.8 8.7-14.6 11.1-20.7 8.3-20.7-.8 0-3.4-1.1-6-2.3l-4.6-2.4zm7 1.4c.9.5 3.1 1.5 4.9 2.1 3.8 1.4 3.7 1.6-3.2 12.3-5.3 8.2-7.5 9.6-7.5 4.7 0-3.7-.9-3.8-4-.5-2.4 2.5-5.4 3.3-6.4 1.6-.3-.5 1.3-2.1 3.7-3.6 6.8-4.4 14.7-10.7 14.7-11.6 0-2-3-.6-11.5 5.6-4.9 3.6-9.7 6.4-10.5 6.2-.9-.1-1.5-1.3-1.5-2.9 0-2.4 1.3-3.6 9.5-8.7 5.2-3.3 9.6-6.1 9.8-6.1.1 0 1 .4 2 .9m744.7-4c-1.1.5-3.6 2.8-5.5 5.2-5.8 7.4-14.3 16-18.2 18.5-4.6 3-8.4 9.5-9.1 15.7-.5 5.4.3 6.3 4.1 4.9 1.5-.5 4.7-1.6 7.2-2.3 5.6-1.6 7.1-2.6 14.5-9.7l6-5.7 11.7.3 11.7.3.3 16.2c.2 8.9.1 16.8-.1 17.4-.2 1-7.2 1.3-30.7 1.3h-30.3l-.3-12.7c-.3-12.1-.4-12.6-2-10.9-1.5 1.4-1.8 3.6-1.8 12.7 0 16.1-2.8 14.9 34.9 14.9h31l1.5-2.2c1.3-1.8 1.6-5.4 1.6-18.5 0-20.9-.2-21.3-8.9-21.4-3.6 0-8.6-.4-11-.7l-4.3-.7 6.1-4.7c5.7-4.5 6.1-5.1 6.1-8.9 0-7.4-7.3-11.9-14.5-9m9.5 4.3c2.5 2.7 2.6 5.9.1 8.9l-1.9 2.4-2.4-2.5c-1.2-1.4-3.4-3.3-4.7-4.2-2.8-1.9-2.3-4.4 1.1-5.8 3.7-1.4 5.6-1.1 7.8 1.2m-9.1 8.4 3.3 3.5-1.8 2.2c-3.8 4.6-14 14.9-16.6 16.8l-2.7 1.9-3.5-3.1c-2-1.7-3.6-3.7-3.6-4.4s1.6-2.3 3.5-3.6 6.6-5.6 10.3-9.6c3.7-3.9 7-7.2 7.3-7.2.3-.1 2 1.5 3.8 3.5m-24.3 22.4c3.7 3.2 3.3 3.9-3 5.4l-2.9.7.7-3.2c.3-1.7.6-3.8.6-4.5 0-2 .8-1.7 4.6 1.6m153.3-34.8c-.8.7-3.1 3.4-5 6l-3.4 4.7-23.6.1c-20.7 0-23.8.2-25 1.7-1 1.2-1.5 6-1.7 18.2-.4 21.7-.3 22.5 5.3 24.8 4.2 1.7 4.4 2 4.7 6.3.3 4.1.5 4.5 2.8 4.3 1.5-.2 4.2-2.1 6.6-4.7l4.1-4.5 17.7-.3 17.8-.3 1.9-2.4c1.4-1.7 1.9-3.9 1.9-8.3 0-7-1-9.3-4.5-10.2-1.4-.4-2.5-1.1-2.5-1.7s3.3-5 7.4-9.8c4-4.7 8.3-10.2 9.4-12 1.9-3.1 1.9-3.7.7-6.2-3-5.7-10.9-8.8-14.6-5.7m9.4 4.6c1.9 1.7 2.3 5.7.6 6.7-1.1.8-5.4-2.8-7-5.8-2.1-3.8 2.3-4.5 6.4-.9m-5.9 5.6c2 1.9 3.6 4 3.6 4.7 0 1.1-5.4 7.5-14.3 17.1-3.4 3.7-10.6 7.7-13.8 7.8-1.5 0-1.6-.6-.8-4.2 1.5-6.5 2.4-7.6 4-5 1.8 2.9 2.9 2.8 2.9-.3 0-1.4-.4-2.5-1-2.5-1.9 0-.9-1.7 6.5-10.5 4.1-4.9 7.5-9.2 7.5-9.7 0-1.6 1.8-.7 5.4 2.6m-14.4 3.1c0 .3-2.7 3.8-6 7.9-4.5 5.5-6.3 8.8-7.5 13.2-1.7 6.4-1.9 9.4-.7 9.4 1.9 0 11.1-2.9 13.9-4.3 3.7-1.9 7.6-2.2 10.4-.7 1.5.9 1.9 2.2 1.9 6.4 0 8-.3 8.1-20.4 8.3l-17.2.1-4.4 4.4-4.5 4.3-.3-4.8-.3-4.7h-3.4c-6.2 0-6.7-1.4-6.4-18.9.1-8.6.5-16.5.9-17.6.7-1.9 1.9-2 21.6-2.5 11.5-.3 21.2-.7 21.7-.8.4-.1.7 0 .7.3"/><path d="M1632 726c0 .6 3.5 1 8.5 1s8.5-.4 8.5-1-3.5-1-8.5-1-8.5.4-8.5 1m0 9c0 .6 3.5 1 8.5 1s8.5-.4 8.5-1-3.5-1-8.5-1-8.5.4-8.5 1m-576-35.6c0 1.3.3 3.8.6 5.5.5 2.5.9 2.9 2 2 1.4-1.2 1.9-5.6.8-8.3-1-2.5-3.4-1.9-3.4.8m223.2-1.4c-2.5 1.1-4.2 4.7-4.2 9.1v2.9h-25.9l-1.6 3c-1.8 3.4-2.1 21.3-.5 27.1 1.8 6.5 3.6 7.3 17.9 7.9l12.6.5.3 2.5c.5 4.5 1.2 7 2.1 7 .4 0 3.4-2.3 6.5-5 3.1-2.8 6.2-5 6.8-5 2.7 0 7.5-3.4 9.2-6.4 2.5-4.8 5.6-5.3 11.7-2l4.9 2.7 1.5-1.9c.8-1 1.5-3.1 1.5-4.6 0-2 .8-3.2 3-4.3 3.8-2 4.2-3.9 3.8-18.5-.4-16.9 1-16-26.2-15.9-11.6 0-22.1.4-23.4.9m45.8 4.9c1.5 2.9 1.3 22.4-.2 24.2-.7.9-2.5 2.3-4 3.2-2.1 1.3-2.8 2.5-2.8 4.9 0 2.9-.1 3-1.7 1.6-1-.9-3.2-2.3-4.9-3.1-2.9-1.5-3.3-1.5-5.2.3-1.2 1.1-2.4 2-2.7 2s-.5-4.3-.5-9.5c0-10.6-1.5-15.1-5.3-16-1.2-.3-6-.6-10.7-.7l-8.5-.3.3-3c.5-5.7-.5-5.5 23.1-5.5 20.8 0 22.1.1 23.1 1.9m-26.6 12.3c1.2 1.7 1.6 4.9 1.6 13.3 0 10.5-.1 11.3-2.4 13.4-1.3 1.2-4.2 2.5-6.3 2.8-3.2.4-4.2 1.2-5.8 4.1-2.9 5.1-4.5 5.3-4.5.3V745h-13.5c-18 0-17.5.5-17.5-17.3 0-7.4.3-13.7.7-14 .3-.4 10.9-.7 23.4-.7h22.8z"/><path d="M1260.4 727.5c-.4.9-.2 2.1.4 2.7 1.5 1.5 4.4.1 4-1.9-.4-2.3-3.6-2.9-4.4-.8m13.3-.9c-1.6 1.6-.6 3.4 1.9 3.4 1.9 0 2.5-.5 2.2-1.7-.3-1.9-2.9-2.9-4.1-1.7m13.8.4c-.8 1.4.3 3 2.1 3 .8 0 1.4-.9 1.4-2 0-2.1-2.4-2.8-3.5-1m471.3-23.9c-1.1.6-1.8 2.2-1.8 3.8 0 2.4-.5 3-3.2 3.5-1.8.3-4.8 1.5-6.5 2.6l-3.3 2v37.1l2.5 2.5 2.5 2.5 31.1-.1c25.9-.1 31.7-.4 34.2-1.6 2.7-1.5 3.1-1.4 5.1.5 2.9 2.7 6 2.7 8.8-.1 1.4-1.4 3.2-2.1 4.9-2 2.8.3 6.9-3.6 6.9-6.5 0-.8 1.4-2.8 3-4.3 2.1-2 3-3.7 3-6s-.8-3.9-3-5.8c-1.7-1.5-3-3.6-3-5 0-4.5-1.6-6-5.9-5.6-2.6.2-4.3-.2-5.1-1.1-1.6-1.9-7.9-1.9-10.4 0-3.2 2.4-3.6 1.8-3.6-5.1 0-6.3-1.1-10.1-3.4-11.6-1.7-1.2-50.8-.9-52.8.3m50.6 2.9c2.5.9 2.6 1.3 2.6 8.1 0 6.4-.3 7.3-2.5 9.1-1.4 1.1-2.5 2.9-2.5 4 0 1.2-.8 3-1.7 4-1 1.2-1.7 3.8-1.8 7.3-.2 4.8 0 5.5 1.6 5.5s1.9.8 1.9 5v5h-47v-23.8c0-13.1.3-24.2.7-24.5 1-1.1 45.9-.8 48.7.3m-52.4 27v21h-3.4c-6.3 0-6.7-1.1-6.4-20.2l.3-17 4.5-2.4c2.5-1.3 4.6-2.4 4.7-2.4.2 0 .3 9.4.3 21m72.3-9.8c1.2.7 3.3 1.3 4.7 1.3 2.2 0 2.5.5 2.8 3.8.3 3 .9 4 2.8 4.7 1.9.8 2.4 1.7 2.4 4.5 0 2.9-.5 3.7-2.5 4.5-1.6.6-2.5 1.7-2.5 3 0 3.3-1.9 6-4 6-1.1 0-2-.5-2-1 0-1.9-3-1-4.6 1.5-2 3-4.9 3.2-6.4.5-1-2-4-2.8-4-1.2 0 1.1-4.6 3.2-5.4 2.5-.3-.3-.1-1.3.4-2.3 1.1-2-.8-9.1-2.7-10.3s-1.6-5.5.5-6.8c1.3-.8 1.7-2 1.4-3.5-.6-3.2 1.4-5.4 4.8-5.4 1.6 0 3-.7 3.4-1.5.7-1.9 7.8-2 10.9-.3"/><path d="M1767 718.5c0 1.3 1.8 1.5 13.5 1.3 8.2-.2 13.5-.7 13.5-1.3s-5.3-1.1-13.5-1.3c-11.7-.2-13.5 0-13.5 1.3m.2 8.7c.4 1 3.8 1.3 13.4 1.3 17.8 0 17.6-1.9-.2-2.3-10.7-.2-13.5 0-13.2 1m-.2 8.8c0 .6 5.3 1 14 1s14-.4 14-1-5.3-1-14-1-14 .4-14 1m0 8.5c0 1.3 2 1.5 13.7 1.3 9.8-.2 13.8-.6 14.1-1.6.3-.9-2.9-1.2-13.7-1.2-12 0-14.1.2-14.1 1.5m53.2-15.8c-1.3.3-3.2 1.9-4.3 3.6-5.2 8.4 3.9 16.9 13 12.2 5.2-2.6 5.7-9.1 1.2-13.6-2.9-2.8-4.6-3.2-9.9-2.2m6.1 3.4c2.8 1.5 3.7 2.8 3.7 5.6 0 3.1-2.6 5.3-6.5 5.3-6.3 0-8.7-8.1-3.3-10.8 3-1.4 3.5-1.4 6.1-.1m-759.7-26.2c-.4.6-1.1.9-1.6.6-1.4-.8-5.2 4.7-4.1 5.8.7.7 1.7.5 2.9-.6 1-.9 2.4-1.7 3-1.7 1.7 0 2.4-1.8 1.4-3.6-.6-1.2-1.1-1.3-1.6-.5m325.6 8.8.3 9.8 9.8.3 9.7.3V705h-20.1zm17.6.2.3 7.1H1395v-14.5l7.2.1 7.3.2zm8.7-8.9c-1 1.6 1.7 2.1 9 1.8 4.4-.2 7-.8 7.3-1.6.5-1.5-15.3-1.7-16.3-.2m.5 9.5c0 1.3 1.4 1.5 8.7 1.3 5.8-.2 8.8-.7 9.1-1.6s-1.9-1.2-8.7-1.2c-7.5 0-9.1.3-9.1 1.5m-.3 7.1c-1.5 1.5.8 2.4 6.4 2.4 4.1 0 5.9-.4 5.7-1.1-.4-1.3-11-2.4-12.1-1.3M1167 734.5c-4.4 4.6-6.4 5.1-9.6 2.6-5.2-4.1-6.1-1.8-1.1 2.8 1.7 1.7 3.9 3.1 4.8 3.1 1.4 0 11.9-10.1 11.9-11.4 0-1.7-3-.2-6 2.9m225-2c0 1.2 1.8 1.5 10 1.5s10-.3 10-1.5-1.8-1.5-10-1.5-10 .3-10 1.5m155.5-.5c-.4.6 2.7 1 8.4 1 5.4 0 9.1-.4 9.1-1s-3.5-1-8.4-1c-4.7 0-8.8.4-9.1 1M772 738c0 1.5 5.2 6.4 10.3 9.8 2.7 1.8 4.1 2.2 4.8 1.5.8-.8-.5-2.3-4.3-5-8.6-6.4-10.8-7.7-10.8-6.3m628.3 2.8c-11.8.4-10.4 2.2 1.7 2.2 5.5 0 10-.4 10-.9 0-1.3-2.7-1.6-11.7-1.3m142.2.1c-.3.5-.2 1.1.2 1.4 1.5.8 20.3-.5 19.7-1.4-.7-1.2-19.1-1.2-19.9 0m-22.5 8.4c0 1.2 3.9 1.4 21.3 1.3 13-.1 21.4-.5 21.7-1.1s-7.2-1.1-21.2-1.3c-17.9-.2-21.8 0-21.8 1.1m-128 1.7c0 .6 4 1 10 1s10-.4 10-1-4-1-10-1-10 .4-10 1m-479.8 53.2c-.6.8-2.5 4.4-4.1 8.1-6.4 14.3-11.9 19.3-18.5 16.9-1.8-.7-6.9-1.2-11.4-1.2-7 0-8.3.3-9.2 1.9-.6 1.1-1 8.9-1 18 0 21.3-.7 20.5 17.3 19.6 8.2-.4 16.3-.3 21.3.4 12.6 1.8 23.5 1.6 27.2-.3 3.9-2 4.9-4.2 5.1-12.1.1-4.2.7-6.5 2-8 2.6-2.9 3.7-14.3 1.5-17.3-1.4-2-2.3-2.2-12-2.2-5.7 0-10.4-.2-10.4-.5 0-.4.7-2 1.6-3.7 2.5-4.7 2.3-14.1-.2-17.5-2.3-3.1-7.4-4.3-9.2-2.1m6 3.5c3.3 2.9 1.3 17.3-2.7 19.6-.8.4-1.5 1.5-1.5 2.2 0 1.2 2.3 1.5 12.9 1.5 7.7 0 13.2.4 13.6 1 1.2 1.9-.6 5-2.8 5-3.3 0-6.7 1.1-6.7 2.1 0 .5 1.3.9 2.9.9 2.4 0 6.1 2.1 6.1 3.5s-3.6 3.5-6 3.5c-3.9 0-6 .9-6 2.7 0 .8.4 1.2.9.9 1.5-1 7.2.6 7.8 2.1.9 2.3-1.7 3.4-7 3-4.9-.4-7.1.8-4.6 2.4.8.5 3.3.9 5.7.9 4.1 0 4.3.1 4 2.7s-.8 2.9-5.8 3.5c-5.7.8-14.3.4-27-1.3-12.1-1.6-11 0-11-16.4v-14.3l3.6-.6c6.6-1.3 14.6-11.2 18.4-22.9 1.3-4.1 2.4-4.5 5.2-2M887.5 848v15.5h-15l-.3-15.8-.3-15.8 7.8.3 7.8.3zm747.7-42.8c-.9.9-1.2 9.4-1.2 31.9 0 26.8.2 31 1.6 32.4 1.3 1.3 3.9 1.5 16.2 1.3 10.5-.2 14.6-.6 15-1.6.3-.9-2.9-1.2-13.5-1.2-7.6 0-14.4-.4-15.1-.8-.9-.7-1.2-7.4-1-30.3l.3-29.4 16.3-.3 16.2-.2.1 2.2c.1 1.3.2 4.5.3 7.3l.1 5 7.8.3 7.7.3v18.8l-4.5-.3c-2.5-.2-5.1-.9-5.9-1.5-1.1-.9-1.7-.6-3 1.4-.9 1.4-2.5 2.5-3.6 2.5-1.4 0-2 .7-2 2.4 0 1.5-.7 2.6-1.7 2.8-2.4.5-2.8 8.6-.4 11.3.9 1.1 2.5 3.3 3.5 4.8 3.6 5.9 11.2 8.3 16.1 5.1 1.9-1.2 2.8-1.3 4.5-.4 3.5 1.9 5.3.5 4.7-3.4-.4-2.5 0-4 1.9-6.2 2.9-3.6 3-5.6.4-7.9-1.2-1.1-2-3.1-2-5 0-2.3-.7-3.7-2.2-4.7-2.1-1.4-2.3-2.5-2.8-13.4l-.5-11.9-6.5-4.1c-3.6-2.3-7.5-5.1-8.8-6.3-2.1-2-3.3-2.1-19.5-2.1-12.1 0-17.7.4-18.5 1.2m45.6 10.1c3.3 3 2.8 3.7-2.8 3.7-4.6 0-5-.2-5-2.4 0-4.4.9-5.7 3.3-4.5 1.2.7 3.2 2.1 4.5 3.2m4.2 28.6c4.1.5 4.5.9 4.8 3.6.4 3.4 3 6.8 4.4 5.9.6-.4.8.2.6 1.2-.2 1.1-1.3 2.3-2.5 2.9-1.5.6-2.1 1.6-1.8 2.6 1 3-.6 4.9-4 4.9-1.9 0-3.7.4-4 1-.9 1.4-3.7 1.2-7.2-.5-3.6-1.8-4.1-2.4-7.4-8.4l-2.4-4.4 2.3-1.4c1.2-.9 2.2-2.3 2.2-3.3 0-2.4 5.9-6 8.5-5.3 1.1.3 4 .8 6.5 1.2"/><path d="M1675.5 850.5c-1.4 1.3-2.5 3.3-2.5 4.5 0 2.2 4.1 7 6 7 .6 0 2.6-.7 4.5-1.4 3.1-1.3 3.5-1.9 3.5-5 0-7-6.7-10-11.5-5.1m8.3 1.7c2 2 1.4 4.8-1.4 6-2.9 1.4-5.7.2-6.2-2.6-.8-3.7 4.8-6.2 7.6-3.4M1014 805.7c-3 1.1-4 3.7-4 10.8v7.1l-8.4-.4c-7.5-.4-8.6-.2-10.5 1.7-2 2-2.1 3.1-2.1 18.4 0 20.7-.5 20.1 14.2 19.4 9.3-.4 10.7-.3 14.8 1.8 5.1 2.6 20.3 4.2 28.8 3 5.2-.7 7.2-2.8 7.2-7.8 0-1.3.9-3.1 2.1-4.1 1.4-1.2 2-2.6 1.7-4.1-.4-1.7.2-3 1.8-4.4 1.3-1.2 2.4-2.8 2.4-3.6s.9-2.4 2-3.5c2.4-2.4 2.6-5.7.4-8.8-1.2-1.8-2.5-2.2-6.3-2.2h-4.8l.8-4.3c1.6-8.1 1.1-13.4-1.5-16.4l-2.4-2.8-17.4-.2c-9.5-.1-18 0-18.8.4m36.2 4.1c2.1 2.1 2.2 12.2.3 15.8-2.2 4.2-4.7 4.7-18.7 4.2-9.6-.3-10.8-.5-14.6-3.2l-4.2-2.9v-6.8c0-5.4.4-7 1.8-7.8 2.3-1.4 34-.7 35.4.7m-45.2 33.1v16.8l-2.7-.2c-1.6-.1-4.3-.3-6-.3l-3.3-.2v-15.8c0-8.7.3-16.2.7-16.5.3-.4 3-.7 6-.7h5.3zm10.5-13.2 5 2.8 20.3.1c11.3.1 20.8.6 21.3 1.1s.7 1.7.3 2.6c-.5 1.5-2.5 1.7-15.6 1.7-11.5 0-14.9.3-14.5 1.2.3 1 3.7 1.3 13.1 1.1l12.7-.1-.3 2.6-.3 2.7h-12.2c-6.7 0-12.5.4-13 .8-1.7 1.7 2.7 2.7 12.5 2.7 9.3 0 10.2.2 10.2 1.9 0 4-2.7 4.9-15.3 5-6.6.1-8.8.4-8.5 1.3s3.2 1.4 8.9 1.5c4.6.1 8.7.2 9.2.2.4.1.7 1 .7 2.1 0 3.4-3.5 4.3-15.1 3.7-10.5-.5-15.1-1.8-17.8-5-.6-.8-2.1-1.3-3.2-1s-2.8-.2-3.9-1.2c-1.8-1.6-2-3.2-2-16.2 0-10.8.3-14.3 1.3-14.3.6 0 3.5 1.2 6.2 2.7m797.2-24c-.3.2-2.7.7-5.4 1.1-4.4.7-4.9 1-6 4.2-.6 2.1-.7 3.9-.2 4.4 2.2 2.4.6 5.4-6.4 11.7-5.1 4.7-8.3 6.8-10.9 7.3-5.8 1.1-8.1 5.6-5.7 11 2.1 4.4 10.8 5.9 13.8 2.3 1.9-2.3 2.3-6.7 1-9.9l-1.3-3.1 5.8-5.4c3.4-3.2 6.6-5.3 8-5.3 4.7 0 9.6 8.5 9.6 16.7 0 10.6-5.8 19.5-16 24.6-4.5 2.3-6.7 2.7-13.5 2.7-13.7 0-22.1-4.4-27.1-14.2-5.4-10.7-4.1-22 3.5-30.1 6.5-6.9 10.9-8.9 20.1-9.1 4.1 0 9.2.3 11.3.8 3.1.7 3.7.6 3.7-.8 0-2.9-3.9-3.9-14.5-3.4-8.8.4-10.9.8-14.8 3.1-6.1 3.6-10.3 8-13.2 13.8-3.7 7.2-3.5 18.2.4 26.4 3.5 7.4 6.8 10.6 14.6 14.1 5.1 2.4 7.3 2.8 15.5 2.8 8.5.1 10.1-.2 15-2.7 9.8-5.1 15.9-12.6 18-22.4 1.5-6.7-.1-15.1-3.6-19.2-2.9-3.5-2.9-3.7-.4-4.4 4.2-1.1 6.3-14.1 2.6-16.4-1.4-.9-3.3-1.2-3.9-.6m2.3 8.3c0 .5-.5 1-1.1 1-.5 0-.7-.5-.4-1 .3-.6.8-1 1.1-1 .2 0 .4.4.4 1m-26.2 24.6c2.6 1.8 2.8 4.1.5 6.6-2 2.2-5.1 2.3-7.5.1-2.2-2-2.3-3.2-.2-6.1 1.8-2.6 4.1-2.8 7.2-.6m-478.3-29.7c-.6 2.9-4.4 7-8.2 9-2.6 1.3-3 3.1-.8 3.1.8 0 2.5 1 3.8 2.2 1.3 1.3 3.5 3.4 4.9 4.7l2.7 2.3 2.7-2.7c1.5-1.5 4.7-4 7.1-5.6 4.2-2.6 4.3-2.8 2.1-3.4-4.5-1.4-8.7-5.4-9.4-9-.8-4.5-3.9-4.9-4.9-.6m3.5 5c0 .4 1.2 2.1 2.6 3.6l2.6 2.8-3.1 3-3 3.1-2.6-2.4c-3.1-2.9-3.1-4.4-.2-8 2.2-2.9 3.7-3.7 3.7-2.1m125.2-7c-.6.4-2.3 2.9-3.8 5.6-1.4 2.8-2.9 5.3-3.2 5.7-.4.4-3.2-.4-6.1-1.9-10.7-5.1-27.1-4.1-37.1 2.2-14.5 9.1-16.2 31.2-3.5 42.4 6.9 6 11.7 7.6 23 7.6 11.5-.1 16.5-1.8 23.5-8.1 7.1-6.4 10.5-16.2 8.9-25-.5-2.6-.6-5-.2-5.3.5-.4 3.4-2.3 6.6-4.4 5.6-3.7 7.1-5.7 4.3-5.7-2.1 0-8.7-7.2-9.3-10.3-.6-3.2-1.4-3.9-3.1-2.8m1.8 7c0 .5 1.2 2.4 2.7 4.1l2.7 3.2-2.5 1.9c-4.9 3.9-5.6 4-7.4 1.2-1.7-2.5-1.7-2.8.4-7 1.9-3.9 4.1-5.7 4.1-3.4m-15.8 5.8c9.8 4.4 13.7 11.3 12.4 22.1-.8 7.1-3.5 12.1-9 16.9-5.4 4.8-10.9 6.5-20.8 6.6-13.7 0-24.3-7.4-26.9-18.9-3.2-14.1 5.2-25.7 21.6-29.8 4.7-1.2 16.8.4 22.7 3.1"/><path d="M1396.4 834.4c-1 2.6.1 5.1 2.3 5.4 1.4.2 2.3-.3 2.8-1.8 1.2-3.7-3.8-7.1-5.1-3.6m20.3-.7c-1.3 1.2-.7 5.4.9 6 2.3.8 4.7-2 3.9-4.6-.6-2-3.4-2.8-4.8-1.4m-20.3 15.7c-1.3 3.5 5 7.6 11.8 7.6 4.4 0 12.9-3.7 13.6-5.9.6-1.7-1.9-1.3-6.1.9-6.3 3.4-13.3 2.3-17.4-2.8-1.1-1.3-1.3-1.3-1.9.2m-607.6-39.7c-5.7 2.8-18.6 15.7-20.8 20.9-1.6 3.6-2.8 4.9-6.3 6.4-2.4 1.1-7.4 4.8-11.2 8.4l-6.8 6.4.6 4.3c.6 4.9 3 8.5 7.7 11.6 4.1 2.8 11.3 3.1 15.1.5 5.5-3.7 18.8-16.4 19.9-19.2.6-1.5 2.5-3.4 4.1-4 1.6-.7 6.4-4.7 10.8-8.9 6.4-6.1 8.1-8.3 8.7-11.5.8-4.7-2.1-11.6-6.1-14.2-3.8-2.5-11.3-2.8-15.7-.7m11.6 2.7c4.5 1.9 6.6 5.2 6.6 10.2 0 4-.4 4.6-9 12.3-5 4.5-9.4 8.1-9.8 8.1-.5 0-.7-1.2-.5-2.8s-.4-3.7-1.5-5c-1.8-2.3-9-5.4-10.4-4.5-1.5.9-.7 2.1 1.8 2.7 4.5 1.2 7.4 5 7.4 9.8 0 4-.4 4.7-8.2 12.1-12.6 12-15.6 13.4-21.8 10.2-4-2.1-7-6.2-7-9.8 0-2.4 1.3-4.2 6.3-8.9 3.4-3.3 7.6-6.6 9.4-7.4l3.1-1.3 4 3.9c2.2 2.3 4.9 4 6.2 4 2.9 0 2.3-1.4-2-4.2-3-2-3.5-3-3.8-6.7l-.3-4.4 8.3-8.5c10.9-11 14.4-12.7 21.2-9.8m726.9-.5c-3.4.6-7.2 2.2-10.9 4.7-7.4 5-10.4 10.3-10.4 18.5 0 7.2 1 9.8 5.4 14.2l3.5 3.5-.8 5.6c-1 7.6.3 8.7 6.1 5.3 2.4-1.4 5.1-3.2 6.1-3.9 1.4-1.1 3.9-1.2 11.5-.5 8.3.7 10 1.2 11.7 3.1 2.8 3.3 7.6 5.5 13.2 6.2 2.7.3 6.5 1.2 8.6 2 5.2 2 6.7 1.8 6.7-.9 0-1.2 1.4-4.5 3-7.2 5.1-8.6 3.4-17-4.7-22.7-7.8-5.7-18.4-4.7-25.3 2.2-3.2 3.2-4 4.9-4.6 9.1l-.7 5.2-9.3-.6-9.3-.5-3.8 2.7c-6.9 4.9-6.6 5-5.9-1.3.7-5.4.6-5.7-2.2-8.1-5.9-4.9-7.7-12.9-4.7-20.3 2.2-5.1 5.2-8.1 11-10.8 4.4-2.1 6.5-2.4 16.7-2.4 6.4 0 13.9.5 16.7 1.1 7.2 1.5 13.5 5.9 16.8 11.8 2.1 3.5 3.3 4.7 4.2 4.2 2.3-1.5-.6-7.6-5.6-12-6.6-5.9-13.2-8-26.6-8.5-6.2-.3-13.5-.1-16.4.3m45.2 29.4c2.7 1.5 4.7 3.7 6.3 6.8 2.1 4.3 2.2 4.9.9 8.6-.7 2.2-2.6 5.6-4.2 7.6-2.5 3.1-3.2 3.4-4.9 2.4-1.2-.6-4.4-1.1-7.2-1.2-12.5-.1-18.6-13.9-9.6-21.8 2.5-2.2 8.7-4.6 12.2-4.6 1.4-.1 4.3.9 6.5 2.2m-443.1-27.2c-3.7 1-9.1 6-10.4 9.5-1.4 3.6-1.2 8.9.3 12.7 2 4.7 5.9 8.9 16.2 17.5 20 16.7 19.9 16.6 25.3 12.6 6-4.6 20.8-17.8 24-21.5 8.6-10 9.1-20.8 1.2-28.4-2.4-2.3-4.1-3-8.8-3.3-8.1-.6-14 1.3-18.3 5.8l-3.6 3.7-3.3-3.4c-1.8-1.9-4.8-4.1-6.6-4.9-3.7-1.6-11.2-1.7-16-.3m14.2 3.5c4.2 2 9.4 7.8 9.4 10.4 0 3.2 2.8 2.3 4.4-1.3 3.9-9.5 20.3-14.1 26.3-7.4 8.6 9.4 3.9 21.5-13.2 34.5-3.3 2.6-7.3 5.9-8.8 7.4-5.5 5.4-5.4 5.4-16.3-3.4-22.4-18-26.5-24.2-22.5-33.4 3.2-7.1 13.1-10.4 20.7-6.8m137.6-.8c-.6.5-3.1 4.6-5.5 9.3l-4.3 8.4-10.4.6c-5.8.4-10.6.7-10.7.8-.2 0-.3.9-.3 2 0 1 3.3 5 7.4 8.8l7.5 7.1-1.5 5.3c-.7 3-1.4 7.1-1.4 9.1 0 5 1.5 4.9 12.5-.1l8.5-4 7.7 3.6c4.2 1.9 9.1 3.6 10.8 3.7 2.6.1 3-.2 2.9-2.4-.1-1.4-.9-5.4-1.9-9l-1.7-6.5 7.3-6.7c6.3-5.7 7.2-7 6.3-8.5-1.5-2.4-4.5-3.1-13.7-3.2l-7.8-.1-2.9-6.3c-1.7-3.4-3-6.9-3-7.8s-.8-2.3-1.8-3.2c-2.1-1.9-2.2-2-4-.9m7.8 17.2 1.9 3.5 9.5.9c5.3.5 9.6 1.2 9.6 1.6s-2.7 3.2-6 6.3c-6.7 6.1-7 7.3-4.6 16.4 1 3.9 1.1 5.3.3 5.3-.7 0-4.8-1.8-9.2-3.9l-8-3.8-6.5 3.3c-3.6 1.8-7.6 3.6-8.9 4-2.1.6-2.3.4-1.7-1.7 2.6-9.2 3.3-12.5 2.9-13.4-.2-.6-3.5-3.7-7.2-7l-6.9-6 9.2-.9 9.1-.9 2.7-4.1c1.4-2.2 3.7-6.3 4.9-8.9l2.4-4.9 2.3 5.4c1.2 2.9 3.1 6.9 4.2 8.8m354.6-14.1c-.4.5-.3 1.2.2 1.5 1.4.8 19.2-.1 19.2-1 0-1.2-18.7-1.7-19.4-.5m130.9 4.5c-3.9 1.7-7 5.2-9 9.8-4.9 11.8 3.6 24.5 17.8 26.4 9.3 1.3 19.2-4.7 21.7-13.3 1.4-4.7.9-8-1.9-11.4-2.7-3.3-3.4-2-1.6 2.6 2.9 6.7-.5 14.2-7.9 17.6-5.4 2.4-11 2.4-16.3-.2-12-5.8-13.7-20.6-3.1-27.6 3.4-2.3 4.5-2.5 9.8-2 6.3.7 8.1-.5 3.4-2.3-3.5-1.4-9.3-1.2-12.9.4"/><path d="M1528.3 830.6c-.8 2.2.9 4.9 3.3 4.9 3 0 2.7-5.9-.4-6.3-1.4-.2-2.5.3-2.9 1.4m115.7-.6c0 .6 4 1 10 1s10-.4 10-1-4-1-10-1-10 .4-10 1m23-.1c0 1 5.5 1.8 8.3 1.3 3.7-.7 1.5-2.2-3.3-2.2-2.7 0-5 .4-5 .9m-121.3.7c-.4.4-.7 1.6-.7 2.6 0 1.4.6 1.9 2.3 1.6 1.4-.2 2.2-1 2.2-2.3 0-2-2.5-3.2-3.8-1.9m98.3 9.4c0 .6 4 1 10 1s10-.4 10-1-4-1-10-1-10 .4-10 1m0 10c0 .6 3 1 7 1s7-.4 7-1-3-1-7-1-7 .4-7 1m-.3 8.6c-1.6 1.7 1 2.4 8.4 2.4 6.4 0 7.9-.3 7.9-1.5s-1.5-1.5-7.8-1.5c-4.3 0-8.2.3-8.5.6M1016 916.3c-2.3 1.2-2.5 1.9-3 10.2l-.5 9-3.5.5c-4.8.8-9.6 3.8-11 6.9-2.4 5.2-2.3 11.3.2 16 3.4 6.5 6.7 8.6 13.6 8.5 9.1-.2 14.4-4 15.9-11.5.4-2.3 1.2-3.1 3.5-3.6 1.5-.3 3.8-1.6 5.1-2.9 2.1-2.2 2.9-2.4 13.8-2.4 16.4 0 16.4 0 16.4-15.9 0-10.2-.3-12.3-1.8-13.8-1.6-1.6-4.2-1.8-24-2.1-16.7-.2-22.8.1-24.7 1.1m46.5 14.7v11.5l-12.6.5-12.6.5-3.1 3.2c-3.4 3.7-6.2 4.3-6.2 1.3 0-2.3-5.1-8.4-9.1-10.7l-2.9-1.7V919l23.3.2 23.2.3zm-44.5 9.5c4.5 2.3 6 5.3 6 11.6 0 6.7-2.2 10.1-7.6 11.9-15.3 5.1-24.3-17.9-9.4-23.9 3.7-1.4 7.7-1.3 11 .4"/><path d="M1024 926c0 .6 5.7 1 15 1s15-.4 15-1-5.7-1-15-1-15 .4-15 1m.5 7.9c-1.6 1.6.5 2.1 8.5 2.1 7.5 0 9-.3 9-1.5 0-1.3-1.4-1.6-8.5-1.4-4.7.2-8.8.5-9 .8m118.7-18.1c-1.9 1.3-3.2 7-2.2 9.7 1.2 3.2 3 4.1 3 1.6V925h16c17.3 0 17.9.2 16.6 5.4-.4 1.7-1.5 2.5-4 3-1.9.4-3.7 1.4-4 2.2-1.1 2.9-.6 7.7 1 9.6 1.4 1.5 1.5 2 .4 3.3-1.8 2.1-2.4 13.4-.8 15.2.6.8 2.5 1.3 4.2 1.3 6.4-.4 7.4 1 3.4 4.7-3.2 2.9-6.1 3.6-11.7 2.8l-4.7-.6v-4.7l.1-4.7h-7.2c-3.9 0-7.4-.3-7.7-.6s-.6-3.1-.7-6.2c-.2-4.6.2-6.2 1.9-8 3.5-3.7 4.1-6.6 2.3-12.1-.8-2.8-1.6-5.3-1.7-5.4-.1-.2-1.8.4-3.8 1.3-3.7 1.8-8.4 6.9-13.5 15-3 4.7-3.1 5.3-3.1 15.4 0 12.8 1.5 16.6 7.5 19.5 8.9 4.2 18.1 3.3 23.4-2.2l3.4-3.7 6.7.4 6.8.3 4-3.7c3.5-3.1 4.1-4.2 4.2-7.8 0-2.3.1-5.5.2-7 0-1.6 1.2-4.1 2.5-5.5 2.2-2.4 2.5-3.3 2-8.1-.6-5.4-2.5-8.6-5.8-9.6-1.6-.5-1.9-1.6-1.9-6 0-5.7-1.5-10.2-4-12.2-1.7-1.4-30.7-1.8-32.8-.5m31.6 3.4c.7.7 1.2 1.6 1.2 2 0 1.2-30.8 1-31.5-.2-1.5-2.4 1.2-3 14.9-3 9.7 0 14.6.4 15.4 1.2m-28.8 17.7c1.6 3.1 1.2 5.1-1.7 9l-2.8 3.6.4 10.5c.4 13.6 1.2 15 8.6 15 3 0 5.5.4 5.5.9 0 4.2-15 5.7-20.4 2.2-4.5-3-5.5-5.7-5.6-14.9 0-10.7 2.2-15.9 10.9-25.5 2.9-3.2 3.7-3.3 5.1-.8m34.7 0c1.3 1.1 2.4 3 2.5 4.2.3 2-.3 2.5-4.1 3.3-4 .9-4.6.7-6.3-1.3-2.3-2.9-2.3-3.6.2-6.1s4.8-2.5 7.7-.1m2.3 12.1c0 2.5-2.9 4-5.6 3-5.1-2-4-5 1.7-5 3.2 0 3.9.3 3.9 2m-4.6 6.6c.9.3 1.6 1.6 1.6 2.9 0 1.8-.7 2.4-3.2 2.8-4.2.6-5.8-.1-5.8-2.2 0-3.4 3.5-5 7.4-3.5m-20.9 10.5c.4.5.4 2.1.1 3.5-.6 2.3-1 2.5-6.4 2.2l-5.7-.3-.3-3.3-.3-3.2h6c3.3 0 6.3.5 6.6 1.1m637-49.4c-3.5 1-10.1 1.5-22.2 1.6l-17.3.2v30.1c0 32.4.2 31.5-5.4 32.8-1.9.5-2.5 1.1-1.9 1.7 1.3 1.3 24 .7 23.3-.6-.3-.5-2.8-1-5.7-1-2.8 0-5.5-.4-6-.8-.4-.5-.8-14-.8-30v-29.2l15.5-.1c8.6 0 18.1-.6 21.3-1.3s6.1-1.1 6.3-.8c.3.3 0 3.2-.7 6.4l-1.2 6 3.1 5.8c2.1 3.8 2.8 6.1 2.2 6.5-1 .6-10.4 2.3-27.8 5.1-4 .6-7.6.8-7.9.5-.4-.3-.5-5.6-.4-11.7.2-8.8 0-11-1.1-10.7-1 .3-1.4 3.6-1.6 12.2-.4 15.3-.4 15.2 11.5 13.1 24.3-4.5 29.9-5.7 31.1-6.9 1.1-1.1.8-2.5-2.3-8l-3.6-6.7 1.1-4.7c.7-2.6 1.3-6.1 1.3-7.7.2-2.7-.1-3-2.8-3.2-1.6-.1-5.2.5-8 1.4m-909.5.8c-.9 1.1-1.2 9.1-1.2 31.2.1 16.4.1 30.4.2 31 0 2.4 1.9 1.3 12.5-6.7 5.8-4.4 10.9-8 11.4-8s3.9 2.5 7.7 5.6c8.5 7 11.2 8.3 12.5 6.3.5-.8.9-14.1.9-29.6 0-24.3-.2-28.4-1.6-29.7-2.2-2.3-40.5-2.4-42.4-.1m40.8 28.7c.1 14.8-.1 26.8-.6 26.8-1.1 0-12.8-8.6-13.7-10-1.3-2.1-6.6.1-15 6.1-4.5 3.2-8.5 5.9-8.9 5.9-.8 0-.8-54.5.1-55.4.4-.3 9-.5 19.2-.4l18.6.3zm333.2-29.5c-3.3 1.2-4 3.7-4 13.5v9.7l-3 1.6c-3.4 1.8-3.1 3.5.6 3.5h2.4v15.5c0 14.2.1 15.5 1.9 16.5 1.2.6 10.3 1 22.5 1h20.5l2.3-3c2.1-2.9 6-4 7.2-2.1 1 1.5 8.7 5.2 9.7 4.6.5-.4.9-2.5.9-4.9 0-3.6.5-4.6 3.1-6.5 11.5-8.5 4.1-26.1-11.1-26.1h-4v-11c0-9.8-.2-11-1.9-12-2-1-44.2-1.3-47.1-.3m46 13.6v10.3l-8.2 1.2c-8.1 1.1-36.4 1.6-38 .6-1-.6-1.1-20.8-.1-21.7.3-.4 10.9-.7 23.5-.7h22.8zm15.1 15.1c2.4 1 4.9 6.1 4.9 10.1 0 3.1-.8 4.5-4.6 8.2-4 4-4.4 4.9-3.9 7.5l.7 3-4.5-3.1c-3.8-2.6-5.5-3.1-10.4-3.1-10.8-.1-17.8-5-17.8-12.7 0-3.7.5-4.9 3.2-7.3 2.7-2.5 4.1-2.9 12-3.5 4.8-.3 9.7-.7 10.8-.8 2.1-.3 6.9.6 9.6 1.7m-35.9 1.9c-1.3 1.3-2.4 4.2-2.8 6.8-1 8.2 4.1 13.9 14.8 16.3 4.9 1.1 5.1 1.2 3.4 2.9-1.6 1.6-3.8 1.7-21.4 1.5l-19.7-.3-.3-13.4c-.1-7.4 0-14.1.2-14.8.4-1 3.9-1.3 14.2-1.3h13.7z"/><path d="M1265 928c0 .6 6 1 16 1s16-.4 16-1-6-1-16-1-16 .4-16 1m-1 8.5c0 1.3 2.3 1.5 17.2 1.3 12.6-.2 17.2-.6 17.6-1.6.3-.9-3.6-1.2-17.2-1.2-15.1 0-17.6.2-17.6 1.5m-1 17c0 1.3 1.2 1.5 6.7 1.3 4.2-.2 6.8-.8 7.1-1.6.3-.9-1.5-1.2-6.7-1.2-5.7 0-7.1.3-7.1 1.5m0 9.5c0 .6 3.2 1 7.5 1s7.5-.4 7.5-1-3.2-1-7.5-1-7.5.4-7.5 1m-491.7-42.6c-9.5 3.1-15.7 9.2-19.9 19.4-6.3 15.3.3 32.5 15.3 39.8 5.5 2.7 20.3 4.7 20.3 2.7 0-1.3-2.4-2.3-5.6-2.3-3.8 0-7.8-2.5-10.7-6.7-1.5-2.2-2.7-4.2-2.7-4.6s2.7-.7 5.9-.7c5.4 0 6 .2 6.3 2.2.2 1.2.8 2.3 1.5 2.5.8.3 1.1-2.4 1.2-9.7 0-10 .5-12.5 2.1-11.5.5.3 1.2 0 1.5-.6.4-.6-.2-1.3-1.4-1.6-1.8-.5-2.1-1.3-2.1-6.4V937h13.9l.6 3.7c.9 5.4 1.4 6.5 2.4 5.9.5-.4.5-2.2.1-4.3-.5-2-.7-4.1-.4-4.5s2.6-.8 5-.8h4.6l2.1 5c2.1 5 3.7 6.5 3.7 3.4 0-2.6-5.9-14.2-9-17.7-4.7-5.4-10.5-7.7-21.2-8.2-6.4-.4-10.6-.1-13.5.9m8.7 8.1v6.5h-5.5c-6.2 0-6.4-.4-3.6-6.6 2-4.3 4.3-6.3 7.4-6.4 1.4 0 1.7 1 1.7 6.5m9.4-4.4c2.8 2.2 6 8.5 5 10-.3.5-3 .9-6 .9H783v-6.5c0-5.7.2-6.5 1.9-6.5 1 0 3 .9 4.5 2.1m10.9 2.4c6.1 4.7 7.4 7.1 4.4 7.9-4.2 1.1-6.7.7-6.7-1.2 0-.9-1.1-3.4-2.5-5.4s-2.5-3.9-2.5-4.2c0-1.5 3.2-.2 7.3 2.9m-32.6 3-2 5.5h-3.8c-2.2 0-3.9-.3-3.9-.8.1-2.1 8.9-10.2 11.1-10.2.4 0-.2 2.5-1.4 5.5m-3.2 8.7c.1.1-.2 2.7-.8 5.5l-1.1 5.3h-10.8l.7-3.8c.3-2 1.3-4.8 2.2-6.1 1.3-2 2.1-2.3 5.5-1.8 2.2.3 4.1.7 4.3.9m15.5 4.9v5.9h-7c-7.8 0-8.1-.4-6-8.2l1-3.6 6-.1h6zm-17.5 15.3v7l-3 .8c-3.8 1-5-.4-6.6-7.9-1.5-6.5-.7-7.4 5.6-7l4 .2zm14.4-6.8 3.1.6v12.5l-6.1.7c-3.4.4-6.6.3-7.1-.2-1.1-1.1-2.2-10.6-1.5-12.6.7-1.7 5.8-2.1 11.6-1m-10.7 19.1c.9 1.6 2.6 3.8 3.8 5.1 4.9 5.2-1.9 3.4-8.5-2.3-3.3-2.9-3.7-3.6-2.5-4.5 2.7-1.8 5.5-1.1 7.2 1.7m622.3-50.5c-1.1.6-3.7 2.7-5.7 4.6l-3.8 3.6v22.7c0 20.3.2 22.9 1.8 24.9l1.8 2.2 21.4.3c20.7.2 26-.3 26-2.4 0-.7-7.5-1.2-20.6-1.3l-20.5-.3.1-25.4c0-14 .3-25.8.6-26.2.3-.5 14-.8 30.5-.6 25.4.2 30.1.4 30.9 1.7.6.9.9 9 .7 18.9l-.2 17.4-6.4.1c-8.4.1-9.1 1.2-6.6 10.1 1.6 6 2 6.6 3.9 6 5.4-1.7 6.3-1.6 9.4 1 2.2 1.8 3.8 2.4 5.2 2 4-1.3 1.8-5.3-5.9-10.5-2.8-1.9-5.1-3.9-5.1-4.4s2.5-.6 5.5-.4c3.9.3 5.2.1 4.5-.6-.6-.6-1-8.3-1-20.2 0-17.8-.1-19.3-2.1-21.8l-2-2.6h-30.2c-20 .1-30.9.4-32.2 1.2m-2.5 30.9c0 22.4-.1 24-1.7 23.7s-1.8-2.3-2.1-23.2c-.2-22.8 0-24.5 3.1-24.6.4 0 .7 10.8.7 24.1m240.6-30.3c-.3.4-.8 10.3-1.2 21.8-.5 15.6-.4 21.6.5 23.2l1.2 2.3 19.2-.3 19.2-.3 2.4 2.8c4.1 4.9 9.7 7 16.2 6.3 5.2-.5 6.1-.3 10 2.4 4.2 2.9 9.9 4 9.9 2 0-.5-2-2.3-4.6-4l-4.5-3.2 2.2-3.6c3.7-6.2 2.8-12.9-2.7-19.5-2-2.3-2.1-3.1-1.2-5.8 1.4-4 .5-21.3-1.2-23.4-1.1-1.3-5.8-1.5-33.1-1.5-17.5 0-32 .4-32.3.8m63.8 5.3c.3 1.7.6 7.4.6 12.5v9.4l-2.7-.7c-12.3-3.1-22.6 3.3-22.6 14.1v4.1l-10.1-.2c-5.6-.2-13.7-.4-18.1-.6l-8-.2-.3-19.5c-.1-10.7-.1-19.9.2-20.6s9.5-1.1 30.4-1.3l29.9-.2zm-4.1 24c4.3 1.2 8.3 5 9.8 9.6.8 2.6.7 3.9-.7 6.8-2.4 5-6.3 6.8-14 6.3-7-.4-9.8-2.2-12-7.4-2.5-5.9 2.2-14.7 8.4-15.7 1.5-.2 3.2-.5 3.7-.5.6-.1 2.7.3 4.8.9"/><path d="M1639.3 937.9c-3 2.7-3.9 4.1-3.2 5.2.5.8.9 3.1.9 5.1v3.7l6.8-.2 6.7-.2.7-5.5c.6-4.9.5-5.7-1.5-7-1.2-.8-2.8-2.3-3.6-3.3-.9-.9-1.8-1.7-2.1-1.7-.3.1-2.4 1.8-4.7 3.9m7.2 2.1c2.2 2.4 1.4 4.5-2 5.4-2 .5-3.1.2-4-1.1-1.1-1.5-1-2.1.9-4 2.6-2.8 2.8-2.8 5.1-.3m8.5-5c0 .6 4.2 1 10.5 1s10.5-.4 10.5-1-4.2-1-10.5-1-10.5.4-10.5 1m4.7 6.7c-1.7 1.7-.3 2.4 4.5 2.1 6.9-.4 7.9-2.8 1.1-2.8-2.8 0-5.3.3-5.6.7m27.3 15.6c0 .7-1.6 2.8-3.5 4.7l-3.5 3.4-3.1-1.8c-4-2.4-5.1-1.1-1.6 2 3.5 3 4.7 3 8.3.2 5.9-4.6 8.5-9.8 4.9-9.8-.8 0-1.5.6-1.5 1.3m-117-33.6c-1.4.9-3.2 2.6-4 3.7-1.5 2.1-4.6 5.1-14 13.1-3 2.6-6.5 6.5-7.7 8.8-2.3 4-3 9.1-1.5 10.1 1.4.8 12.4-3.3 16.1-6.1 2-1.5 5.5-4.5 7.9-6.7 2.3-2.1 4.3-3.7 4.5-3.5.1.2.1 6.1-.1 13.1l-.3 12.8H1542c-27.3 0-32-.3-32-1.9 0-.4 5.8-4.5 12.9-9.2 7.2-4.6 12.9-8.9 12.7-9.4-.1-.6-5.1-4.5-11.2-8.7-6-4.2-11.8-8.3-12.8-9.1-4.6-3.2-1.1-3.7 26-3.7 22.8 0 26.4-.2 26.4-1.5s-2.8-1.5-19.2-1.6c-33.7-.2-33.9-.1-36.5 2.3l-2.3 2.1v38.8l2.5 2.4 2.4 2.5h61.1l1.5-2.4c1.3-2 1.6-5.1 1.4-16.1l-.2-13.8 3-2.6c5.8-5 6.6-8.9 2.8-12.6-2.8-2.9-7-3.2-10.5-.8m8.8 4.6c.5 2.3-5.5 9.1-14.7 16.7l-7.3 6.1-2.4-2.2c-1.3-1.2-2.4-2.8-2.4-3.4s1.9-2.7 4.3-4.6c2.3-1.8 7-6 10.5-9.2 4.9-4.6 6.9-5.8 9-5.5 1.6.2 2.8 1 3 2.1m-53.6 15.4c3.1 2.1 5.7 4.1 5.8 4.4 0 .3-4.7 3.8-10.5 7.8L1510 963v-30.2l4.8 3.6c2.6 2 7.3 5.3 10.4 7.3m26.2 5.8c2.1 3.2 2.1 3.2-1.4 5-5.2 2.7-5.4 2.3-2.8-4.8 1.3-3.3 2.1-3.4 4.2-.2M1412 928.8c-10 5-10.5 18.4-1 24.9 7.7 5.3 19.6 1 22-7.8 3.5-12.8-9.2-23.1-21-17.1m13 2.8c3.4 2 6 6.3 6 9.9 0 11.3-16.1 16-22 6.3-6.4-10.6 5.3-22.4 16-16.2"/><path d="M1415.2 939.2c-.7.7-1.2 2.2-1.2 3.5 0 2 .5 2.3 3.9 2.3 4.3 0 5.8-1.8 4.1-5.1-1.2-2.1-5-2.5-6.8-.7m-619.1 13.7c-7 3.7-10.2 14.1-6.6 21.2.9 1.6 3.4 4.3 5.7 5.9 3.4 2.5 5.1 3 9.8 3 18.8 0 23.7-25 6.1-30.9-4.9-1.6-11.1-1.3-15 .8m16.1 2.7c4.2 2.2 6.8 6.2 6.8 10.6 0 8.9-5.5 14.2-14.7 14.3-4.6 0-5.6-.4-8.8-3.5-5-4.9-6.3-9.8-4-15.1 3.7-8.1 12-10.6 20.7-6.3"/><path d="M805.3 964.6c-5.6 5.6-6.1 6.4-4 6.4 1.9 0 10.7-8.7 10.7-10.5 0-2.3-1.1-1.7-6.7 4.1m589.4-2.9c-2 1.9.9 2.3 17.8 2.3 15.8 0 18.5-.2 18.5-1.5s-2.6-1.5-17.8-1.5c-9.8 0-18.2.3-18.5.7m-397.9 9.4c-5.7 2.1-9.1 12.6-4.9 14.9 1.2.6 10.7 1 24 1h22.1v-4c0-10.5-4.9-13-24.8-12.9-7.5 0-14.9.5-16.4 1m33.9 3.9c3.2 1.9 5.1 5.9 3.8 7.9-.4.7-7.6 1.1-20.6 1.1-22 0-22.4-.1-19.5-5.9.9-1.6 2.4-3.5 3.3-4 1-.6 8.1-1.1 15.8-1.1 12.2 0 14.4.3 17.2 2m361.5 48.6-2.2 1.5v58.9l2.4 1.5c2.1 1.4 6.3 1.6 30.3 1.4 23.5-.2 28.5 0 32.1 1.4 4 1.5 7.2 1.4 7.2-.3 0-1.1-4.3-3.8-7.4-4.6-1.4-.3-2.6-.7-2.6-.8s.9-1.9 2-4.1c2.6-5.1 2.6-12.4.1-15.6-1.5-2-1.9-4.6-2.2-14.4l-.4-12-4.8-4.8c-2.6-2.7-4.7-5.3-4.7-5.8s-1.3-1.5-3-2.4c-4.3-2.2-43.5-2.2-46.8.1m42.9 7.6-.2 5.8h13.1v21l-2.6-1c-9.7-3.7-20.4 3.5-20.4 13.7 0 2.4.9 6.2 1.9 8.3 1.1 2.2 1.6 4.2 1.3 4.3-1.3.7-31.7.8-33.4.2-1.7-.7-1.8-2.9-1.8-28 0-23.7.2-27.6 1.6-29 1.4-1.3 4.3-1.5 21.2-1.3l19.6.3zm5.6-2c.6.7 1.3 2.1 1.6 3 .5 1.4.1 1.8-1.8 1.8-2.1 0-2.5-.5-2.5-3 0-3.2 1.1-3.9 2.7-1.8m5.3 31.7c7.4 3.9 8.8 12.9 3 19.1-10.1 10.9-27.8-3.7-19.1-15.9 3.8-5.3 9.9-6.6 16.1-3.2"/><path d="M1400.3 1042.2c.2.7 1.6 1.3 3.2 1.3s3-.6 3.3-1.3c.2-.8-.8-1.2-3.3-1.2s-3.5.4-3.2 1.2m11.7.3c0 1.3 1.5 1.5 10.8 1.3 6.3-.2 10.7-.7 10.7-1.3s-4.4-1.1-10.7-1.3c-9.3-.2-10.8 0-10.8 1.3m-11 13q0 1.5 3 1.5t3-1.5-3-1.5-3 1.5m12 0c0 1.2 1.4 1.5 7 1.5s7-.3 7-1.5-1.4-1.5-7-1.5-7 .3-7 1.5m-12 12c0 1.2.7 1.5 2.5 1.3 1.4-.2 2.6-.8 2.6-1.3 0-.6-1.2-1.1-2.6-1.3-1.8-.2-2.5.1-2.5 1.3m11-.1c0 1.2 1.1 1.6 4.1 1.6 5.2 0 4.8-2.4-.4-2.8-2.8-.2-3.7.1-3.7 1.2m30.5 1.6c-1.4 2.7-2.1 3.1-5 2.9-1.9-.2-3.7-.1-4 .3-1.2 1.2 4.3 4 6.4 3.3 2.4-.7 7.3-6.3 6.8-7.8-.7-2.3-2.7-1.7-4.2 1.3m115.5-45.3c-2.2 1.6-4.8 1.7-22.5 1.4-11-.1-21.2 0-22.6.4-4.3 1.1-4.9 4-4.9 25.5 0 18.8-.1 20-1.8 20-5.2 0-6.9 7.9-2.8 12.7l2.4 2.8h76.4l1.9-2.4c1.4-1.7 1.9-3.6 1.7-6.5-.3-3.7-.7-4.2-3.5-5.1l-3.3-.9v-14.9c0-8.3-.5-15.7-1-16.8-1.2-2.1-4.5-2.6-5.4-.7-.4.7-.4.2 0-1.2.3-1.4.8-3.5 1.1-4.8 1.9-7.8-8.9-14.3-15.7-9.5m10.4 3.9c2.6 2.5 2 7.9-1 10.3-1.5 1.2-3.2 2.1-3.9 2.1s-2.4-.9-3.9-2.1c-3-2.4-3.4-6.3-1-9.7 1.8-2.6 7.4-3 9.8-.6m-14.4 4.8c0 3.2.6 5.2 2.3 7.1 2.4 2.8 5 3.2 13.3 2l5.1-.7.7 3.2c.8 4.4.7 24.2-.2 25.6-.8 1.3-14.3 2.6-16 1.5-.6-.3-1.4-1.9-1.7-3.4-.4-1.5-2.5-4.3-4.7-6.2l-4-3.4 1.6-2.3c.9-1.3 1.6-4.2 1.6-6.9 0-4.1-.4-5.1-3.5-7.8-2.9-2.5-4.4-3.1-8.3-3.1-9.9 0-15 6.9-11.7 15.6l1.7 4.5-3.7 3.2c-2.2 2-3.9 4.5-4.3 6.5-.4 1.8-1 3.3-1.5 3.3-.4-.1-2.8-.1-5.3-.1h-4.5l.3-20.5c.2-17 .6-20.7 1.8-21.5.8-.5 10.4-1 21.3-1h19.7zm-8.1 10.2c6.2 5.2 3 15-5.4 16-4.9.7-7.1-.8-8.9-6-3.3-9.6 6.6-16.5 14.3-10m-7.3 19.1c1.7.3 4 0 5.2-.6 1.6-.8 2.6-.6 5.3 1.2 1.8 1.2 4 3.5 4.9 5 2.2 4.1.5 4.7-13.5 4.7-14.9 0-16.3-.4-15.7-3.6.6-3.1 7.1-8.6 9.2-7.8.8.3 2.9.8 4.6 1.1m43.1 13.5c1.7 1.4 1.7 5.2 0 6.6-1.4 1.2-72 1.9-75 .7-1.9-.8-3.2-4.7-2.3-7 .5-1.4 5.4-1.5 38.3-1.5 25.3.1 38.1.4 39 1.2m51.1-52.1c-1.7.9-1.8 3.5-1.8 30.7 0 21.9.3 30.1 1.2 31 .8.8 6.3 1.2 18.3 1.2 16.1 0 19.5-.5 19.5-2.9 0-.4-8-.6-17.7-.6h-17.8v-57l15.3-.3 15.2-.3v6.1c0 4.8.3 6 1.6 6 .9 0 1.8-.8 2.1-1.9.4-1.6 1.2-1.8 6.1-1.4 8.3.6 8.2.6 8.2 6.7v5.6l-4.3-.6c-7.7-1.1-16.8 5.5-18.3 13.2-1.5 7.9 1 13.7 7.8 18.2 3.4 2.2 5.4 2.7 11.3 2.9l7.1.1 5.1 5.2c4.9 4.8 5.3 5.1 9 4.4 5-.8 6.7-2.5 5.9-5.8-.8-3.1-8.2-7.7-12.5-7.8l-3-.1 2.6-4.9c4.4-8.5 3-16.5-3.9-22.3-3-2.5-3.3-3.2-3-7.5.2-3-.2-5.9-1.2-7.9l-1.7-3.1h-7.4c-6.5 0-7.5-.2-7.5-1.8 0-1-.7-2.8-1.6-4l-1.5-2.2h-15.7c-8.8 0-16.5.5-17.4 1.1m52 26.3c7.7 4 10 11.3 6.2 19.2-6.7 13.7-28 8.8-28-6.4 0-10.1 12.7-17.5 21.8-12.8m16.3 32.2c2.8 2.5 2.5 5.4-.7 5.4-3 0-9.4-4.6-9.4-6.8 0-2 7.4-1 10.1 1.4"/><path d="M1671.1 1054.7c-3.7 4.6-4.2 12.5-.9 13.1 1.4.3 1.6-.3 1.1-3.1-1.5-9.3 9.1-14.6 13.2-6.6 1.6 3 4.2 4.1 3.1 1.3-.3-.9-.6-2-.6-2.5 0-2.6-4.2-4.9-8.9-4.9-4.2 0-5.3.4-7 2.7m-790.7-30c-4 .7-4.4 3.9-4.4 34.2 0 26.6.1 28.9 1.8 30.4 1.6 1.5 4.7 1.7 22.4 1.7 18.6 0 20.6-.2 22.1-1.8s1.7-5.4 1.7-32V1027l-2.4-1.5c-2-1.3-5.5-1.5-20.7-1.3-10.1.1-19.4.3-20.5.5m40.4 28.5.2 24.8h-18v-3q0-3-1.5-3t-1.5 3v3h-9c-7.3 0-9 .3-9 1.5s1.6 1.5 8.8 1.5c8.2 0 9 .2 10 2.2l1.1 2.3.7-2.3c.6-2.1 1.2-2.2 9.5-2.2h8.9v2.9c0 1.7-.6 3.1-1.6 3.5-3.1 1.2-37.9.7-39.2-.6-.9-.9-1.2-8.8-1.2-29.3 0-15.5.3-28.5.7-28.9.4-.3 9.7-.5 20.7-.4l20.1.3z"/><path d="M887.4 1036.9c-1.6 1.6 1.1 2.1 12.1 2.1 7.7 0 12.5-.4 12.5-1s-.3-1-.7-1c-7.1-.4-23.6-.4-23.9-.1m-.7 9.8c-1.9 1.9.5 2.3 12.8 2.3 11.3 0 13.5-.2 13.5-1.5s-2.1-1.5-12.8-1.5c-7.1 0-13.2.3-13.5.7m.3 9.2c0 1.3 7.6 2.2 13.1 1.5 7.9-1.1 5.6-2.4-4.1-2.4-4.9 0-9 .4-9 .9m0 9.6c0 1.3 1.9 1.5 12.7 1.3 9-.2 12.8-.7 13.1-1.6s-2.7-1.2-12.7-1.2c-11 0-13.1.2-13.1 1.5m275.5-40.8c-1.1.3-3.9 1.9-6.3 3.6l-4.2 3-11.3-.2c-18-.3-20.7 2-20.7 18v9.6l-4 .7c-5.5.9-6.3 3-6.4 15.9-.1 14.6-.9 14 19.8 13.3 8.7-.3 16.1-.7 16.4-1 1.1-1.2-.7-1.7-6.3-1.9-3.6-.2-6-.7-6.3-1.5-.2-.7 1-3 2.6-5.3l3.1-4.1 14.3.1c8.1.1 15.6-.3 17.4-.9 3-1.1 5.4-4.4 5.4-7.6 0-1.1.6-1.3 2.3-.8 7.7 2.5 10.7 3.2 10.7 2.6 0-.4-.9-2.5-2-4.7-2.6-5-2.5-6.1.5-9.6 4.8-5.8 4.7-16.6-.2-22.7-4.5-5.7-16.1-8.7-24.8-6.5m19.5 6.3c3.7 2.6 6 6.8 6 11 0 3.5-2.3 9.6-4.7 12.2-1.1 1.3-1.4 2.8-.9 5.8.3 2.2.4 4 .1 4-.2 0-2.5-1.3-5-2.9-2.9-1.8-6.6-3.1-10.3-3.6-9-1.1-13.1-4.3-15.3-11.8-2-7.2 4.1-15.8 12.6-17.5 5.6-1.1 13.9.2 17.5 2.8m-32.5 5.7c-3.6 9.5 2.7 21.3 12.2 22.8 2.1.3 5.5 1 7.6 1.6 3.2.8 3.7 1.4 3.7 3.9 0 5.2-2.5 6-20.1 6-15 0-15.7.1-17.1 2.2l-1.5 2.2-4.6-3.3c-6.3-4.6-6.9-6.7-6.5-21.1.4-15.9.5-16 16-16 10.1 0 11 .1 10.3 1.7m-28.8 29.6c1.1 3.9 4 6.9 10.1 10.3.2.1-.3 2-1 4.2-1.1 3.7-1.5 4.1-5.3 4.4-2.2.1-5.6.1-7.5-.2l-3.5-.5-.3-10c-.2-8.5 0-10.2 1.5-11.2 3.1-2.4 4.8-1.5 6 3"/><path d="M1161.5 1041.7c-1.6 1.6-1.6 1.7.1 3 1.6 1.2 2 1.1 3.1-.3 1.2-1.6.7-4.4-.7-4.4-.5 0-1.6.8-2.5 1.7m10.8-.1c-.3.8-.1 2 .5 2.6 1.6 1.6 4.2.2 4.2-2.2s-3.8-2.8-4.7-.4m95.5-15.7c-3.8.8-7.7 3-11.6 6.5-3.1 2.7-7.2 10.8-7.2 14 0 1.4-1.4 4.1-3.1 6.1-2.7 3.1-3.2 4.4-3.3 9.2 0 4.9.3 5.8 2.7 7.9 1.6 1.3 3.4 2.4 4.2 2.4.7 0 1.8 1.5 2.5 3.4 1.5 4.7 4.7 7.3 12.6 10.3 10.1 3.8 12.8 4 14.8 1.2 2-2.9 2.1-6.8.2-7.5-.8-.3-4.2.2-7.6 1-5.5 1.4-6.5 1.4-9.8.1-6.4-2.7-9.8-7.5-5.3-7.5 4.7 0 5.1-.7 5.1-10.5 0-10.4-1.1-12.5-6.8-12.5h-3.1l.6-3.8c1-6.4 5.5-12.2 11.8-15.4 7.6-3.9 21.1-2.3 27 3.2 1.5 1.4 2.4 1.6 3.5.9 1.3-.8 1-1.4-1.5-3.5-6.8-5.8-14.9-7.6-25.7-5.5m-9 35.3c.3 6.9.1 7.7-1.8 8.3-3.4 1.1-4-.3-4-8.6v-8l2.8.3 2.7.3zm-8 .6c.2 4 0 7.2-.4 7.2s-1.6-.7-2.6-1.7c-3.3-3-1.9-14.2 1.7-13 .5.2 1.1 3.6 1.3 7.5m516.5-34.8c-16.1 6.4-24.8 24.5-19.7 41.3 1.5 5.1 2.9 7.3 7.9 12.4 7.1 7.1 12.3 9.2 24.5 10 13.8.9 25.5-5.6 31.1-17.4 2.8-5.9 3.2-7.7 3.2-14.8-.1-13.7-6.2-23.9-17.9-29.6-8.7-4.3-20.9-5.1-29.1-1.9m21.1 2.5c17.7 4.6 27 22.7 20.6 39.9-2.5 6.6-9.5 13.5-16.2 16.1-6.3 2.4-20.3 1.8-26.8-1.2-14-6.4-20.3-23.5-14-38.1 2.9-6.7 11.4-14.7 17.3-16.2 2.3-.6 4.7-1.3 5.2-1.5 2.3-.8 8.5-.4 13.9 1"/><path d="M1772.6 1036.6c-6.2 2.2-10.2 5.9-13.2 11.9-2.3 4.8-2.6 6.4-2.1 11.2 2.2 20.9 29 28.9 41.2 12.2 6.2-8.4 6.1-20.5-.2-27.9-6.7-7.8-16.8-10.7-25.7-7.4m15.2 2.9c7.8 3.3 12.1 10.2 12.2 19.4 0 17.3-20.8 25.4-33.7 13.2-15.6-14.7 1.7-40.8 21.5-32.6"/><path d="M1774 1046.3c-1.3.7-3.5 2.8-4.7 4.6-5.9 8.8.5 20.1 11.4 20.1 4.1 0 10-3 11-5.5 1-2.8-.5-2.8-3.6-.2-6.2 5.2-13.6 4-16.8-2.7-4.9-10.3 6.9-19.4 15.5-12.1 4.3 3.6 5.6 1.1 1.3-2.7-3.5-3.1-9.6-3.8-14.1-1.5m-760.6-19.3c-4 1.6-5.4 4.9-5.4 12.7v7.3h-4.9c-5.8 0-10.5 2.8-13.3 8-1.5 2.7-1.8 5-1.6 9.9.4 6.1.6 6.6 4.6 10 3.7 3.2 4.2 4.2 4.2 7.9 0 6.5 3.1 6.6 9.7.3 1.8-1.7 3.5-2.1 8.9-2.1 8.1 0 11.5-1.8 14.6-7.7l2.3-4.3h5.4c4.7 0 5.9.5 9.8 3.6 5.5 4.5 7.9 4.3 7.5-.9-.3-2.7 0-3.7 1.1-3.7.8 0 2.6-.9 4.1-2.1l2.6-2v-32.7l-3.1-2.6-3.1-2.6-20.6.1c-11.4 0-21.7.4-22.8.9m45 5.2c1.3 1.8 1.6 5.1 1.6 15.3 0 16-.5 17-7.9 16.9-4.5 0-6.7.8-4.2 1.8.4.1 1.2 1.4 1.6 2.8l.7 2.5-3.4-3.2c-3.1-3-3.7-3.2-8.4-2.7l-5.1.6-1.1-4.4c-2-7.7-7.6-12.7-16.5-14.3l-3.7-.7v-7.2c0-4.3.5-7.7 1.2-8.4.9-.9 7.3-1.2 22.4-1.2h21.3zm-37.1 20.7c5.6 2.7 7.7 6.2 7.7 12.6 0 3.8-.6 5.2-3.4 8.2l-3.4 3.8-7.9.3c-7.1.4-8.1.7-11 3.5l-3.3 3.1v-3.7c0-3.1-.7-4.5-4-7.6-3.8-3.6-4-4-4-10.1 0-5.9.2-6.5 3.7-9.7l3.6-3.5 8.6.4c6.5.2 9.8.9 13.4 2.7"/><path d="M1031 1041.8c-.6.2-1 .8-1 1.3s4.7.9 10.5.9 10.5-.4 10.5-.9c0-.9-17.9-2-20-1.3m-6 1.2c0 .5.5 1 1 1 .6 0 1-.5 1-1 0-.6-.4-1-1-1-.5 0-1 .4-1 1m-22 21.5c-1.5 1.8-.5 3.5 2.1 3.5 1.2 0 1.9-.7 1.9-1.9 0-2.4-2.5-3.4-4-1.6m12.4-.1c-.8 2.1.3 3.6 2.7 3.6 1.5 0 2-.6 1.7-2.2-.4-2.7-3.5-3.7-4.4-1.4m-211.5-33.5c-2.3 2.3-2.9 3.8-2.9 7.1 0 2.3-.3 3.9-.7 3.7-.5-.3-3.7-.1-7.3.4-4.6.6-9.2 2.2-15.7 5.5l-9.1 4.7-3.5-2.2c-6.4-4-13.6-2.2-16.8 4.1-1.7 3.3-1.8 4.5-.9 7.8.6 2.4 2.1 4.7 3.6 5.7 3.6 2.3 10.6 2 14.5-.7l3.1-2.3 7.1 2.6c4 1.4 10.9 3.8 15.4 5.4l8.2 2.8 1.6 4.3c2 5.2 6.2 7.7 11.3 6.9 5.2-.9 8-3.2 9.2-7.7 1.4-5.2-.2-8.8-5-11.3-4.7-2.4-9.5-1.6-13.5 2.3-1.8 1.7-3.5 2.6-4 2.2-.6-.5-3.9-2.1-7.5-3.6s-6.8-3.3-7.2-3.9c-.9-1.5-.9-10.3.1-13.7.7-2.5 1.3-2.8 13.8-5.7 3.6-.8 4.4-.7 6 .9 2.4 2.4 8 3.3 11.5 1.9 3.1-1.2 6.8-6.5 6.8-9.8 0-9.1-11.6-13.8-18.1-7.4m11.1 1.6c2.5 1.3 3 2.2 3 5.4 0 4.6-2.5 7.2-6.9 7.3-4.1.1-7.1-2.7-7.1-6.6 0-3.6.7-4.8 3.5-6.4 2.7-1.5 4.1-1.5 7.5.3m-34.4 19.1c-.3.9-.6 4.2-.6 7.5v5.9l-2.2-1.4c-1.3-.8-3.8-1.7-5.5-2.1-2.8-.5-3.3-1.1-3.3-3.4s.8-3.1 5.3-5.3c6.4-3.1 7.1-3.2 6.3-1.2m-16.8 2.4c2.9 2.7 2.8 6.5-.3 9.5-2.9 3-8.9 3.4-11.7.8-2.4-2.2-2.4-7.7.2-10.3 2.7-2.7 8.9-2.7 11.8 0m52.4 17.7c2.8 2.5 2.4 7.7-.8 10.2-3.5 2.8-6.9 2.6-9.9-.4-4.9-4.8-1.9-11.5 5.2-11.5 2 0 4.5.7 5.5 1.7m826-36.6c.3.8 3.4 1.2 8.8 1.2s8.5-.4 8.8-1.2-2.4-1.1-8.8-1.1-9.1.3-8.8 1.1m-711.2 4.6c-.8.3-1.8 1.1-2.2 1.7-.9 1.3-1 13.8-.2 16 1.3 3.3 2.4.2 2.4-6.8 0-4 .3-7.6.7-7.9.3-.4 1.5 0 2.5 1 1.3 1.2 1.8 3 1.8 7 0 7.2-1.2 9.3-5.4 9.3-1.9 0-3.9.7-4.7 1.7-1.2 1.5-1.2 1.6.4 1 1-.4 2.7-.2 3.8.3 2.7 1.5 7.3-1.1 8.9-5 1.7-4.1.8-12.5-1.7-15.8-2.1-2.8-3.8-3.5-6.3-2.5m360.7.7c-10.2 3.8-15.3 11.6-14.4 22.2.4 5.1 1.1 7.1 3.6 10.3 4.4 5.5 10.2 8.1 18.2 8.1 4 0 8.9.8 12.8 2.1 4.2 1.4 6.9 1.9 8.2 1.3l1.9-.9-2.7-3.8-2.6-3.7 2.1-2.3c3.2-3.4 5.2-9 5.2-14.6 0-6.3-4.6-13.5-10.7-16.9-5.4-2.9-16.1-3.9-21.6-1.8m22.1 6.3c8.1 6.6 9.3 15.5 3.2 24.1-2.8 4-3.1 5-2.2 7.4l1 2.7-3.9-1.9c-3-1.6-5-1.9-9.1-1.4-14.2 1.7-24.3-7.4-22.4-20 .8-4.8 4.7-10.5 9-12.8 6.2-3.4 19-2.4 24.4 1.9"/><path d="M1291.1 1054.9c-1.9 1.2-.6 4.3 1.6 3.9 1-.2 1.8-1.2 1.8-2.2 0-2.2-1.4-2.9-3.4-1.7m15.1 1.3c.2 1.2 1 2.3 1.8 2.3 2.2 0 1.9-3.9-.3-4.3-1.5-.3-1.8.1-1.5 2m-13.2 11.9c0 3.2 9.3 5.3 13 2.9 2.4-1.5.3-2.4-4.9-2.1-2.7.1-5.2-.2-5.6-.8-.8-1.4-2.5-1.4-2.5 0m349-23.7c0 1.8 17.1 1.7 17.8-.2.3-.9-1.9-1.2-8.7-1.2-7 0-9.1.3-9.1 1.4m0 9.1c0 1.3 1.2 1.5 7.3 1.3 3.9-.2 7.2-.8 7.2-1.3 0-.6-3.3-1.1-7.2-1.3-6.1-.2-7.3 0-7.3 1.3m.3 8.7c.2.8 2.3 1.3 5.7 1.3s5.5-.5 5.8-1.3c.3-.9-1.3-1.2-5.8-1.2s-6.1.3-5.7 1.2m-.3 8.8c0 .6 2.9 1 6.6 1 4.1 0 6.3-.4 5.9-1-.3-.6-3.3-1-6.6-1s-5.9.4-5.9 1m137 60.8c-.8.2-7.9 3.1-15.7 6.4-16.7 7-16.7 6.9-15.2 21.2 1.4 13.5 7.3 25.8 15.7 32.5 5.7 4.4 13.5 8.1 17.3 8.1 8.5 0 20.9-9.3 27.4-20.4 3.1-5.3 6.5-19.7 6.5-27.4 0-5.1-.3-6.2-2.2-7.4-2-1.3-16.6-7.7-20.8-9.1-.8-.3-3.7-1.4-6.5-2.5-2.7-1-5.7-1.7-6.5-1.4m17.9 9.9 14.3 5.8-.6 7.5c-1.7 19-6.8 28.5-20 37.1-3.7 2.5-7.1 3.9-9.1 3.9-8.4 0-21.9-11.5-26.4-22.6-1.9-4.5-2.5-8.3-2.9-16.2l-.4-10.3 4.1-1.6c2.2-.9 8.2-3.5 13.3-5.9s10.2-4.1 11.3-3.9 8.5 3 16.4 6.2"/><path d="M1768.8 1145.3c-5.4 2.3-10.3 4.7-10.9 5.4-1.8 1.8.5 16.6 3.6 22.9 4.1 8.4 13.7 16.4 19.6 16.4 3 0 11.1-5.3 15-9.8 1.8-2 4-5.4 5-7.6 2.1-4.9 4-18 3-20.8-.5-1.4-3.9-3.2-11.2-6-5.7-2.2-11.3-4.2-12.4-4.3-1.1-.2-6.4 1.5-11.7 3.8m18 6.7c5 2.3 6.3 4.7 3.7 6.6-1.6 1.2-2.2 1.1-4-.6-3.2-3-8-2.6-11.6.9-4.6 4.7-3.5 12.7 2.2 15.7 3.8 1.9 5.2 1.8 8.3-.7 2.3-1.8 3.1-2 5.2-1 3.6 1.6 2.7 4-2.6 6.8-7.9 4.3-15.8 1.4-19.9-7s-1.8-16.7 5.6-20.6c4.8-2.5 7.7-2.6 13.1-.1m-476.5-17.9c-1.8 1.1-3.5 2.9-3.8 3.9-.7 2.2-3.2 3.3-3.8 1.6-.6-1.6-51.3-1.2-53.3.5-1.1.9-1.4 5.4-1.4 20.4v19.3l-2.5.6c-2.2.6-2.5 1.2-2.5 5 0 3.6.5 4.8 2.6 6.5l2.7 2.1h70.2l2.3-3.3c3-4.5 2.9-8.5-.3-9.7l-2.5-1v-12.9c0-10.8.3-13.2 1.6-14.3 5.6-4.5 7.4-7.1 7.4-11 0-8.3-9.1-12.6-16.7-7.7m10.9 2.6c2.2 2 2.3 7.1.2 10.2l-1.6 2.3-4.9-4.8c-2.7-2.7-4.9-5.4-4.9-6.1 0-3.2 8.1-4.4 11.2-1.6m-20.2 5.9c0 .4-3.5 4.3-7.8 8.8-8.7 9.1-11.2 13.5-11.2 19.6v4.3l5-.6c7.2-.9 10.5-2.8 19.8-11.5l8.2-7.8v25.5l-12.7.5c-7.1.2-15 .7-17.7 1.1-2.9.5-5.7.3-7-.4-1.1-.6-7.5-1.2-14.1-1.3l-12-.3-.3-18c-.1-9.8 0-18.5.2-19.2.4-1 6-1.3 25.1-1.3 13.5 0 24.5.3 24.5.6m10.1 2.6c2.1 1.7 3.9 3.7 3.9 4.3 0 2.1-17.9 18.5-22.3 20.5-7.4 3.4-9.2 2.1-6.6-4.7l1-2.8 2.9 3.5 2.9 3.5.1-2.7c0-1.7-.8-3.3-2.2-4.2-1.2-.9-1.8-1.9-1.4-2.3.5-.5 4.4-4.7 8.9-9.6 4.4-4.8 8.2-8.7 8.4-8.7s2.2 1.4 4.4 3.2m-35.5 40.3c.8 2 9.9 2 13.8 0 2.1-1.1 6.3-1.5 16.3-1.5h13.4l-.7 2.2c-1.4 4.9-.7 4.8-35.6 4.8h-32.9l-2.4-2.5c-1.4-1.3-2.5-2.9-2.5-3.5s5.2-1 15-1c12.5 0 15.2.3 15.6 1.5m-251.3-50.6c-11.4 3.9-16.7 11-16.5 22.3.1 4 .7 8 1.7 9.9l1.7 3.1-5.5 4.9c-6.2 5.5-7.4 8.4-5.3 13.4 3.3 7.9 10.7 6.5 17.6-3.3l4.2-5.9 4.2.9c2.2.5 6.9.8 10.3.6 7.4-.5 12.9-3.8 17.8-10.6 2.5-3.7 3-5.5 3.3-11.6.5-8.4-.8-11.8-6.6-17.9-4.1-4.2-12.3-7.7-18-7.7-2 .1-6 .9-8.9 1.9m18.2 4c7 3.2 12.5 11.3 12.5 18.7 0 4.5-3.3 11.4-7 14.8-6.1 5.5-12.4 6.7-21.9 4.1-9.1-2.4-15.1-10.1-15.1-19.3 0-8.6 4.3-15.3 12-18.6 4.9-2.1 14.6-2 19.5.3m-26.7 36c2.8 2.4 2.8 3.3-.5 8.2-4.9 7.4-12.3 9-12.3 2.6 0-2.4 1.1-4.3 4.7-7.9 2.6-2.6 5-4.8 5.3-4.8.3.1 1.5.9 2.8 1.9"/><path d="M1027 1143.8c-10.9 4.8-12 19.2-2 25.9 6.3 4.4 17.2 2.3 21-3.9 4.4-7.3 1.6-18.4-5.5-21.4-3.5-1.4-10.8-1.8-13.5-.6m13 4c4.1 3 6.1 8.1 4.9 12.5-1.5 5.7-5.4 8.7-11.2 8.7-5.5 0-9.1-2-11.3-6.1-5.7-11.2 7.4-22.5 17.6-15.1m92.6-13.3c-5.3 1.9-8.5 4.4-12.1 9.4-2.8 3.9-3 5-3 12.6s.2 8.7 3 12.7c5.5 7.8 17.1 11.4 28.1 8.8l5.5-1.3 9.7 9.5c5.3 5.3 10.7 10.1 11.9 10.7 3.8 1.9 7.3 1.3 10.4-1.9 4.2-4.1 3.2-6.9-5.5-15.8-6.8-7.1-12.8-11.2-16.1-11.2-1.9 0-1.9.1.1-4.6 3.6-8.6-.3-20.6-8.5-26.1-6.5-4.4-16-5.5-23.5-2.8m20.2 5.1c20.2 11.8 7 40.2-16.4 35.4-7-1.5-11.4-4.6-14.1-10-9.2-18.1 12.2-36 30.5-25.4m13.2 32.5c0 .6-1.1 2.4-2.4 3.9-2.1 2.6-2.6 2.7-4.2 1.5-1.8-1.4-1.8-1.5 1-4 3-2.6 5.6-3.3 5.6-1.4m11.8 9.3c6.6 6.4 7.4 7.6 6.8 10-.5 2.2-1.2 2.6-4.4 2.6-3.3 0-4.5-.8-10-6.3l-6.3-6.4 2.3-3.6c1.3-2 2.7-3.6 3.2-3.7.5 0 4.2 3.3 8.4 7.4"/><path d="M1135.5 1144.6c-2.2.7-4.8 2.3-5.7 3.4-2.2 2.7-3.2 8-2.4 12.3.7 3.5 5.9 9.7 8.2 9.7 2 0 1.7-1.6-.4-3.2-6-4.4-6.9-11.8-2.1-17.3 1.9-2.2 4-3.5 5.5-3.5 1.3 0 2.4-.4 2.4-.9 0-1.8-1.5-1.9-5.5-.5m-331.7-6.5c-2.6 1-5.8 6.1-5.8 9.3s-23.6 12.4-27 10.6c-1-.6-3.7-1-6-1-8.2 0-12.7 8.6-8.3 16 2.8 4.8 7.7 6.1 13.9 3.8 2.9-1 4.4-.8 11.6 1.6 17.2 5.8 16.8 5.6 16.8 8.6 0 4.1 5 8 10.2 8 3 0 4.6-.7 6.9-2.9 5.2-5.2 3.2-13.1-4.1-16.1-2.7-1.1-3.6-1-7.7 1.2l-4.7 2.4-9.1-2.6c-12-3.5-13.5-4.5-13.5-9.2 0-2.1 0-4.1-.1-4.6-.1-.9.6-1.2 13.2-6.2l10.7-4.1 3.5 1.7c9.5 4.6 18.3-7.1 11.2-14.9-2.8-2.9-6.6-3.4-11.7-1.6m9.2 3.9c1.1 1.1 2 3.1 2 4.4 0 4.7-8 7.5-11.4 4-3.6-3.5-.3-10.4 4.9-10.4 1.4 0 3.4.9 4.5 2m-42.6 20.1c5.4 4.2 2.2 12.1-4.9 12.1-7 0-9.9-6.9-5-11.7 3-3 6.4-3.2 9.9-.4m44 19.1c2.3 3.3 1.9 6.4-1 8.7-3.5 2.7-5.9 2.6-8.9-.4-3-2.9-3.1-4.5-.4-7.9s8.1-3.6 10.3-.4m728.3-41.3c-1.6.6-7.7 8.5-7.7 10 0 1.9-8.3 5.6-17.6 8-6.9 1.8-11.2 3.5-12 4.6-1.6 2.2-1.8 9.8-.4 12.5 1.1 2 6.4 4.2 8.4 3.4 1-.4 1.8 1.3 2.9 6.2 2.1 9.1 4.2 11.8 9.7 12.2 3.3.3 4.8-.2 6.6-1.9 3-2.9 3-3.2-.7-10.2-1.6-3.2-2.9-6.2-2.7-6.6s3.5.3 7.3 1.6c15.1 5.1 15.3 5.2 17.1 3.9 1.4-1.1 1.5-2.1.6-8.7-1.4-9.5-5.7-29.6-7.1-33.2-1.1-2.8-1.5-3-4.4-1.8m2.6 8.3c2.1 7.6 5.6 23.6 6.3 28.5.5 3.3.3 4.3-.7 4.3-3.3 0-22.9-7.5-23.3-9-.3-.8-.8-3.8-1.1-6.7l-.7-5.2 3.4-1.6c4.8-2.5 10.8-8.6 10.8-11 0-2.1 1.7-4.5 3.2-4.5.4 0 1.4 2.4 2.1 5.2m-21.6 18.6c.6 3.1 1.2 6.3 1.2 6.9.1 1.7-15 1.8-16.7.1s-1.5-8.3.3-9.8c1.6-1.3 12.6-4 13.5-3.3.3.3 1 3 1.7 6.1m3.2 15.3c.6 1.6 1.9 4.3 3 5.8l2 2.8-1.8 1.7c-.9.9-2.9 1.6-4.3 1.6-2.2 0-2.8-.8-4.8-6.3-1.3-3.4-2.5-6.7-2.7-7.3s1.2-1.1 3.6-1.2c3.5-.2 4 .1 5 2.9m-613-40.7c-5 1.8-9.8 4.9-13.3 8.5-2 2.1-3.9 3.1-5.8 3.1-4.4 0-10.5 3.6-18.6 10.9-9.3 8.4-10.4 10.2-10.4 16.3.1 8.3 5.3 14.4 14.4 16.8 3.2.9 4.6.7 8.6-1 4.9-2.2 15.2-11.5 15.2-13.7 0-.8 1.4-1.3 4-1.3 2.2 0 5.7-.7 7.6-1.5 4.6-1.9 14.3-10.3 17.9-15.4 2.3-3.5 2.7-4.8 2.3-8.9-.6-6-3.8-10.5-9.3-13.2-4.8-2.3-7.5-2.4-12.6-.6m12.9 4.6c3.5 2.1 6.2 7.2 6.2 11.5 0 1.8-2.2 4.8-7.6 10.5-7.9 8.3-12.3 10.7-17.5 9.6-4.7-.9-10.9-5.5-13.7-10.1-2.5-4.2-5.2-5.9-5.2-3.4 0 2.2 4.2 7.9 8.7 11.9l4.6 4-2.4 2.7c-6.1 6.8-12.7 11.2-16.7 11.3-3.2 0-9.9-3.6-11.7-6.3-2.2-3.5-2.9-8.3-1.5-11.6 1.5-3.8 15.7-16.7 20.4-18.6 4.8-2 8.2-1.9 13.1.5 5.6 2.7 8.8 9.9 5 11.4-2.1.8-1.9 2.6.3 2.6 7.2 0 4.2-13.7-3.7-17-1.7-.7-3.1-1.5-3.1-1.9 0-.5 2.8-2.6 9.9-7.3 3.6-2.4 10.8-2.3 14.9.2m629.3-2.8-3.4 2.2 2.8.9c1.9.7 3 .7 3.2 0 .4-1.2 11.1.4 13.1 1.9 1.8 1.5 1.6 11.7-.4 13.9-1.2 1.3-1.3 2.2-.5 3.8 2.1 3.9 1.2 4.4-9.6 5.8-2.9.3-4.3 1-4.3 2 0 1.1 1.1 1.4 4.8 1.2 2.6-.1 5.1-.5 5.6-.7.5-.3 2.3-.6 3.9-.8 3.8-.3 6.6-2.9 4.9-4.6-1.9-1.9-1.4-3.8 1.3-6 2.8-2.2 3.2-4.6 1-5.4-.9-.4-1.7-2.5-2.1-5.4-.8-6.4-1.4-7.1-6.5-7.7-2.4-.3-5.3-1.2-6.4-1.9-2.6-1.8-3.4-1.8-7.4.8m-175.8-.2c-3.2 1.3-3.6 3.8-3.2 20.8l.4 15.6-2.5.6c-2.1.5-2.5 1.2-2.8 4.8-.3 3.3.2 4.7 2.1 6.6l2.5 2.5 36.8-.3c37.3-.2 41.4-.6 42.7-4 .4-.9.1-3.3-.6-5.4-1.1-3.3-1.6-3.8-5.1-4.2l-3.8-.5.1-15.7c.2-15.4-.4-19.1-3.3-21-1.6-1.1-60.6-.9-63.3.2m62.5 19.7.2 17.3h-62v-16.8c0-9.3.3-17.2.7-17.5.4-.4 14.2-.6 30.7-.5l30.1.3zm9.2 22.6c0 4.7-.3 4.7-38.7 4.7h-36.2l-1.5-2.9c-.9-1.6-1.2-3.1-.9-3.5.4-.3 17.9-.6 39-.6h38.3z"/><path d="M1407.7 1160.4c-1 2.6.5 5.4 3.9 7.2 2.4 1.3 3.7 1.5 4.4.8.8-.8.1-1.7-2.4-3.2-2.3-1.3-3.6-2.9-3.6-4.2 0-2.3-1.5-2.7-2.3-.6m274-13.7c-.8 2.7.6 10.6 1.9 11 1.2.4 4.4-5.5 4.4-8 0-1.9-2.7-4.7-4.5-4.7-.8 0-1.6.8-1.8 1.7m11-1c-1.1 1-.8 11.3.2 11.3 2.7 0 6.2-8.4 4.6-11-.7-1.1-3.8-1.3-4.8-.3m-64 1.9c-.4.4-.7 4.3-.7 8.6v7.8h5.4c6.9 0 8.3 1.4 6.2 6.4-.8 1.9-3.5 5.5-6 7.9-5.3 5.1-6 7.2-1.8 6.2 4.4-1 9.5-5.8 12.5-11.7 2.5-4.8 2.9-6.6 3-15.4l.2-9.9-9-.3c-5-.1-9.4 0-9.8.4m27.3 2.6c0 1.8.3 5.7.6 8.5l.7 5.3h4.3c5 0 5.8.9 4.9 5.7-.4 2.4-2.2 5.1-5.6 8.4-6.7 6.5-6.5 8.5.4 5.5 4.3-1.8 10.1-8.5 11.6-13.6 1.3-4.4 2.3-19.3 1.4-21.6-.4-1.1-2.7-1.4-9.4-1.4h-8.9zm-104.8 1c.3.7 2.8 1.5 5.7 1.8 5.2.6 8.1 2.6 8.1 5.5 0 1.6-3.1 4.2-5.4 4.6-2.8.6-2.1 2.3 1 2.7 3.9.5 6.4-2.3 6.4-7.4 0-5.9-3.2-8.4-10.7-8.4-3.9 0-5.4.4-5.1 1.2"/></svg>